<svg width="590" height="359" viewBox="0 0 590 359" fill="none" xmlns="http://www.w3.org/2000/svg">
<g clip-path="url(#clip0_8_153)">
<rect width="590" height="354" rx="10" fill="#7625FF" fill-opacity="0.17" stroke="#4D14AC" stroke-width="2" stroke-dasharray="8 8"/>
<rect x="225" y="20" width="143" height="46" rx="4" fill="#67B6F2" stroke="#305680" stroke-width="2"/>
<rect x="27" y="154" width="143" height="46" rx="4" fill="#67B6F2" stroke="#305680" stroke-width="2"/>
<rect x="79" y="291" width="143" height="46" rx="4" fill="#67B6F2" stroke="#305680" stroke-width="2"/>
<rect x="224" y="153" width="143" height="46" rx="4" fill="#67B6F2" stroke="#305680" stroke-width="2"/>
<rect x="421" y="153" width="143" height="46" rx="4" fill="#67B6F2" stroke="#305680" stroke-width="2"/>
<path d="M119.864 308.112C119.117 308.112 118.445 307.984 117.848 307.728C117.251 307.461 116.781 307.088 116.44 306.608C116.099 306.128 115.928 305.568 115.928 304.928H117.88C117.923 305.408 118.109 305.803 118.44 306.112C118.781 306.421 119.256 306.576 119.864 306.576C120.493 306.576 120.984 306.427 121.336 306.128C121.688 305.819 121.864 305.424 121.864 304.944C121.864 304.571 121.752 304.267 121.528 304.032C121.315 303.797 121.043 303.616 120.712 303.488C120.392 303.36 119.944 303.221 119.368 303.072C118.643 302.88 118.051 302.688 117.592 302.496C117.144 302.293 116.76 301.984 116.44 301.568C116.12 301.152 115.96 300.597 115.96 299.904C115.96 299.264 116.12 298.704 116.44 298.224C116.76 297.744 117.208 297.376 117.784 297.12C118.36 296.864 119.027 296.736 119.784 296.736C120.861 296.736 121.741 297.008 122.424 297.552C123.117 298.085 123.501 298.821 123.576 299.76H121.56C121.528 299.355 121.336 299.008 120.984 298.72C120.632 298.432 120.168 298.288 119.592 298.288C119.069 298.288 118.643 298.421 118.312 298.688C117.981 298.955 117.816 299.339 117.816 299.84C117.816 300.181 117.917 300.464 118.12 300.688C118.333 300.901 118.6 301.072 118.92 301.2C119.24 301.328 119.677 301.467 120.232 301.616C120.968 301.819 121.565 302.021 122.024 302.224C122.493 302.427 122.888 302.741 123.208 303.168C123.539 303.584 123.704 304.144 123.704 304.848C123.704 305.413 123.549 305.947 123.24 306.448C122.941 306.949 122.499 307.355 121.912 307.664C121.336 307.963 120.653 308.112 119.864 308.112ZM133.936 303.376C133.936 303.707 133.915 304.005 133.872 304.272H127.136C127.19 304.976 127.451 305.541 127.92 305.968C128.39 306.395 128.966 306.608 129.648 306.608C130.63 306.608 131.323 306.197 131.728 305.376H133.696C133.43 306.187 132.944 306.853 132.24 307.376C131.547 307.888 130.683 308.144 129.648 308.144C128.806 308.144 128.048 307.957 127.376 307.584C126.715 307.2 126.192 306.667 125.808 305.984C125.435 305.291 125.248 304.491 125.248 303.584C125.248 302.677 125.43 301.883 125.792 301.2C126.166 300.507 126.683 299.973 127.344 299.6C128.016 299.227 128.784 299.04 129.648 299.04C130.48 299.04 131.222 299.221 131.872 299.584C132.523 299.947 133.03 300.459 133.392 301.12C133.755 301.771 133.936 302.523 133.936 303.376ZM132.032 302.8C132.022 302.128 131.782 301.589 131.312 301.184C130.843 300.779 130.262 300.576 129.568 300.576C128.939 300.576 128.4 300.779 127.952 301.184C127.504 301.579 127.238 302.117 127.152 302.8H132.032ZM140.179 299.04C140.873 299.04 141.491 299.184 142.035 299.472C142.59 299.76 143.022 300.187 143.331 300.752C143.641 301.317 143.795 302 143.795 302.8V308H141.987V303.072C141.987 302.283 141.79 301.68 141.395 301.264C141.001 300.837 140.462 300.624 139.779 300.624C139.097 300.624 138.553 300.837 138.147 301.264C137.753 301.68 137.555 302.283 137.555 303.072V308H135.731V299.184H137.555V300.192C137.854 299.829 138.233 299.547 138.691 299.344C139.161 299.141 139.657 299.04 140.179 299.04ZM149.322 308.144C148.629 308.144 148.005 308.021 147.45 307.776C146.906 307.52 146.474 307.179 146.154 306.752C145.834 306.315 145.663 305.829 145.642 305.296H147.53C147.562 305.669 147.738 305.984 148.058 306.24C148.389 306.485 148.799 306.608 149.29 306.608C149.802 306.608 150.197 306.512 150.474 306.32C150.762 306.117 150.906 305.861 150.906 305.552C150.906 305.221 150.746 304.976 150.426 304.816C150.117 304.656 149.621 304.48 148.938 304.288C148.277 304.107 147.738 303.931 147.322 303.76C146.906 303.589 146.543 303.328 146.234 302.976C145.935 302.624 145.786 302.16 145.786 301.584C145.786 301.115 145.925 300.688 146.202 300.304C146.479 299.909 146.874 299.6 147.386 299.376C147.909 299.152 148.506 299.04 149.178 299.04C150.181 299.04 150.986 299.296 151.594 299.808C152.213 300.309 152.543 300.997 152.586 301.872H150.762C150.73 301.477 150.57 301.163 150.282 300.928C149.994 300.693 149.605 300.576 149.114 300.576C148.634 300.576 148.266 300.667 148.01 300.848C147.754 301.029 147.626 301.269 147.626 301.568C147.626 301.803 147.711 302 147.882 302.16C148.053 302.32 148.261 302.448 148.506 302.544C148.751 302.629 149.114 302.741 149.594 302.88C150.234 303.051 150.757 303.227 151.162 303.408C151.578 303.579 151.935 303.835 152.234 304.176C152.533 304.517 152.687 304.971 152.698 305.536C152.698 306.037 152.559 306.485 152.282 306.88C152.005 307.275 151.61 307.584 151.098 307.808C150.597 308.032 150.005 308.144 149.322 308.144ZM158.493 308.144C157.661 308.144 156.909 307.957 156.237 307.584C155.565 307.2 155.037 306.667 154.653 305.984C154.269 305.291 154.077 304.491 154.077 303.584C154.077 302.688 154.274 301.893 154.669 301.2C155.063 300.507 155.602 299.973 156.285 299.6C156.967 299.227 157.73 299.04 158.573 299.04C159.415 299.04 160.178 299.227 160.861 299.6C161.543 299.973 162.082 300.507 162.477 301.2C162.871 301.893 163.069 302.688 163.069 303.584C163.069 304.48 162.866 305.275 162.461 305.968C162.055 306.661 161.501 307.2 160.797 307.584C160.103 307.957 159.335 308.144 158.493 308.144ZM158.493 306.56C158.962 306.56 159.399 306.448 159.805 306.224C160.221 306 160.557 305.664 160.813 305.216C161.069 304.768 161.197 304.224 161.197 303.584C161.197 302.944 161.074 302.405 160.829 301.968C160.583 301.52 160.258 301.184 159.853 300.96C159.447 300.736 159.01 300.624 158.541 300.624C158.071 300.624 157.634 300.736 157.229 300.96C156.834 301.184 156.519 301.52 156.285 301.968C156.05 302.405 155.933 302.944 155.933 303.584C155.933 304.533 156.173 305.269 156.653 305.792C157.143 306.304 157.757 306.56 158.493 306.56ZM166.696 300.464C166.963 300.016 167.315 299.669 167.752 299.424C168.2 299.168 168.728 299.04 169.336 299.04V300.928H168.872C168.157 300.928 167.613 301.109 167.24 301.472C166.877 301.835 166.696 302.464 166.696 303.36V308H164.872V299.184H166.696V300.464ZM174.689 298V296.336H178.017V308H176.177V298H174.689ZM120.232 334.976C119.187 333.973 118.381 332.699 117.816 331.152C117.261 329.605 116.984 327.947 116.984 326.176C116.984 324.363 117.283 322.651 117.88 321.04C118.488 319.429 119.379 318.101 120.552 317.056H122.44V317.232C121.213 318.363 120.291 319.717 119.672 321.296C119.053 322.875 118.744 324.501 118.744 326.176C118.744 327.787 119.032 329.344 119.608 330.848C120.184 332.352 121.021 333.669 122.12 334.8V334.976H120.232ZM127.707 320.88C128.891 320.88 129.926 321.109 130.811 321.568C131.707 322.016 132.395 322.667 132.875 323.52C133.366 324.363 133.611 325.349 133.611 326.48C133.611 327.611 133.366 328.592 132.875 329.424C132.395 330.256 131.707 330.896 130.811 331.344C129.926 331.781 128.891 332 127.707 332H124.075V320.88H127.707ZM127.707 330.512C129.008 330.512 130.006 330.16 130.699 329.456C131.392 328.752 131.739 327.76 131.739 326.48C131.739 325.189 131.392 324.181 130.699 323.456C130.006 322.731 129.008 322.368 127.707 322.368H125.899V330.512H127.707ZM143.499 327.376C143.499 327.707 143.477 328.005 143.435 328.272H136.699C136.752 328.976 137.013 329.541 137.483 329.968C137.952 330.395 138.528 330.608 139.211 330.608C140.192 330.608 140.885 330.197 141.291 329.376H143.259C142.992 330.187 142.507 330.853 141.803 331.376C141.109 331.888 140.245 332.144 139.211 332.144C138.368 332.144 137.611 331.957 136.939 331.584C136.277 331.2 135.755 330.667 135.371 329.984C134.997 329.291 134.811 328.491 134.811 327.584C134.811 326.677 134.992 325.883 135.355 325.2C135.728 324.507 136.245 323.973 136.907 323.6C137.579 323.227 138.347 323.04 139.211 323.04C140.043 323.04 140.784 323.221 141.435 323.584C142.085 323.947 142.592 324.459 142.955 325.12C143.317 325.771 143.499 326.523 143.499 327.376ZM141.595 326.8C141.584 326.128 141.344 325.589 140.875 325.184C140.405 324.779 139.824 324.576 139.131 324.576C138.501 324.576 137.963 324.779 137.515 325.184C137.067 325.579 136.8 326.117 136.715 326.8H141.595ZM148.702 330.368L151.198 323.184H153.134L149.774 332H147.598L144.254 323.184H146.206L148.702 330.368ZM155.441 322.016C155.11 322.016 154.833 321.904 154.609 321.68C154.385 321.456 154.273 321.179 154.273 320.848C154.273 320.517 154.385 320.24 154.609 320.016C154.833 319.792 155.11 319.68 155.441 319.68C155.761 319.68 156.033 319.792 156.257 320.016C156.481 320.24 156.593 320.517 156.593 320.848C156.593 321.179 156.481 321.456 156.257 321.68C156.033 321.904 155.761 322.016 155.441 322.016ZM156.337 323.184V332H154.513V323.184H156.337ZM158.123 327.584C158.123 326.677 158.305 325.883 158.667 325.2C159.041 324.507 159.553 323.973 160.203 323.6C160.854 323.227 161.601 323.04 162.443 323.04C163.51 323.04 164.39 323.296 165.083 323.808C165.787 324.309 166.262 325.029 166.507 325.968H164.539C164.379 325.531 164.123 325.189 163.771 324.944C163.419 324.699 162.977 324.576 162.443 324.576C161.697 324.576 161.099 324.843 160.651 325.376C160.214 325.899 159.995 326.635 159.995 327.584C159.995 328.533 160.214 329.275 160.651 329.808C161.099 330.341 161.697 330.608 162.443 330.608C163.499 330.608 164.198 330.144 164.539 329.216H166.507C166.251 330.112 165.771 330.827 165.067 331.36C164.363 331.883 163.489 332.144 162.443 332.144C161.601 332.144 160.854 331.957 160.203 331.584C159.553 331.2 159.041 330.667 158.667 329.984C158.305 329.291 158.123 328.491 158.123 327.584ZM176.405 327.376C176.405 327.707 176.384 328.005 176.341 328.272H169.605C169.658 328.976 169.92 329.541 170.389 329.968C170.858 330.395 171.434 330.608 172.117 330.608C173.098 330.608 173.792 330.197 174.197 329.376H176.165C175.898 330.187 175.413 330.853 174.709 331.376C174.016 331.888 173.152 332.144 172.117 332.144C171.274 332.144 170.517 331.957 169.845 331.584C169.184 331.2 168.661 330.667 168.277 329.984C167.904 329.291 167.717 328.491 167.717 327.584C167.717 326.677 167.898 325.883 168.261 325.2C168.634 324.507 169.152 323.973 169.813 323.6C170.485 323.227 171.253 323.04 172.117 323.04C172.949 323.04 173.69 323.221 174.341 323.584C174.992 323.947 175.498 324.459 175.861 325.12C176.224 325.771 176.405 326.523 176.405 327.376ZM174.501 326.8C174.49 326.128 174.25 325.589 173.781 325.184C173.312 324.779 172.73 324.576 172.037 324.576C171.408 324.576 170.869 324.779 170.421 325.184C169.973 325.579 169.706 326.117 169.621 326.8H174.501ZM177.752 334.976V334.8C178.851 333.669 179.688 332.352 180.264 330.848C180.84 329.344 181.128 327.787 181.128 326.176C181.128 324.501 180.819 322.875 180.2 321.296C179.581 319.717 178.659 318.363 177.432 317.232V317.056H179.32C180.493 318.101 181.379 319.429 181.976 321.04C182.584 322.651 182.888 324.363 182.888 326.176C182.888 327.947 182.605 329.605 182.04 331.152C181.485 332.699 180.685 333.973 179.64 334.976H177.752Z" fill="white"/>
<path d="M46.024 179.528H49.784V181H44.2V169.88H46.024V179.528ZM52.2374 171.016C51.9067 171.016 51.6294 170.904 51.4054 170.68C51.1814 170.456 51.0694 170.179 51.0694 169.848C51.0694 169.517 51.1814 169.24 51.4054 169.016C51.6294 168.792 51.9067 168.68 52.2374 168.68C52.5574 168.68 52.8294 168.792 53.0534 169.016C53.2774 169.24 53.3894 169.517 53.3894 169.848C53.3894 170.179 53.2774 170.456 53.0534 170.68C52.8294 170.904 52.5574 171.016 52.2374 171.016ZM53.1334 172.184V181H51.3094V172.184H53.1334ZM59.9761 172.04C60.6695 172.04 61.2881 172.184 61.8321 172.472C62.3868 172.76 62.8188 173.187 63.1281 173.752C63.4375 174.317 63.5921 175 63.5921 175.8V181H61.7841V176.072C61.7841 175.283 61.5868 174.68 61.1921 174.264C60.7975 173.837 60.2588 173.624 59.5761 173.624C58.8935 173.624 58.3495 173.837 57.9441 174.264C57.5495 174.68 57.3521 175.283 57.3521 176.072V181H55.5281V172.184H57.3521V173.192C57.6508 172.829 58.0295 172.547 58.4881 172.344C58.9575 172.141 59.4535 172.04 59.9761 172.04ZM73.9988 176.376C73.9988 176.707 73.9774 177.005 73.9348 177.272H67.1988C67.2521 177.976 67.5134 178.541 67.9828 178.968C68.4521 179.395 69.0281 179.608 69.7108 179.608C70.6921 179.608 71.3854 179.197 71.7908 178.376H73.7587C73.4921 179.187 73.0068 179.853 72.3028 180.376C71.6094 180.888 70.7454 181.144 69.7108 181.144C68.8681 181.144 68.1108 180.957 67.4388 180.584C66.7774 180.2 66.2548 179.667 65.8708 178.984C65.4974 178.291 65.3108 177.491 65.3108 176.584C65.3108 175.677 65.4921 174.883 65.8548 174.2C66.2281 173.507 66.7454 172.973 67.4068 172.6C68.0788 172.227 68.8468 172.04 69.7108 172.04C70.5428 172.04 71.2841 172.221 71.9348 172.584C72.5854 172.947 73.0921 173.459 73.4548 174.12C73.8174 174.771 73.9988 175.523 73.9988 176.376ZM72.0948 175.8C72.0841 175.128 71.8441 174.589 71.3748 174.184C70.9054 173.779 70.3241 173.576 69.6308 173.576C69.0014 173.576 68.4628 173.779 68.0148 174.184C67.5668 174.579 67.3001 175.117 67.2148 175.8H72.0948ZM86.654 178.728H81.998L81.198 181H79.294L83.278 169.864H85.39L89.374 181H87.454L86.654 178.728ZM86.142 177.24L84.334 172.072L82.51 177.24H86.142ZM99.2945 183.976C98.2492 182.973 97.4438 181.699 96.8785 180.152C96.3238 178.605 96.0465 176.947 96.0465 175.176C96.0465 173.363 96.3452 171.651 96.9425 170.04C97.5505 168.429 98.4412 167.101 99.6145 166.056H101.503V166.232C100.276 167.363 99.3532 168.717 98.7345 170.296C98.1158 171.875 97.8065 173.501 97.8065 175.176C97.8065 176.787 98.0945 178.344 98.6705 179.848C99.2465 181.352 100.084 182.669 101.183 183.8V183.976H99.2945ZM109.842 178.728H105.186L104.386 181H102.482L106.466 169.864H108.578L112.562 181H110.642L109.842 178.728ZM109.33 177.24L107.522 172.072L105.698 177.24H109.33ZM117.494 181.144C116.8 181.144 116.176 181.021 115.622 180.776C115.078 180.52 114.646 180.179 114.326 179.752C114.006 179.315 113.835 178.829 113.814 178.296H115.702C115.734 178.669 115.91 178.984 116.23 179.24C116.56 179.485 116.971 179.608 117.462 179.608C117.974 179.608 118.368 179.512 118.646 179.32C118.934 179.117 119.078 178.861 119.078 178.552C119.078 178.221 118.918 177.976 118.598 177.816C118.288 177.656 117.792 177.48 117.11 177.288C116.448 177.107 115.91 176.931 115.494 176.76C115.078 176.589 114.715 176.328 114.406 175.976C114.107 175.624 113.958 175.16 113.958 174.584C113.958 174.115 114.096 173.688 114.374 173.304C114.651 172.909 115.046 172.6 115.558 172.376C116.08 172.152 116.678 172.04 117.35 172.04C118.352 172.04 119.158 172.296 119.766 172.808C120.384 173.309 120.715 173.997 120.758 174.872H118.934C118.902 174.477 118.742 174.163 118.454 173.928C118.166 173.693 117.776 173.576 117.286 173.576C116.806 173.576 116.438 173.667 116.182 173.848C115.926 174.029 115.798 174.269 115.798 174.568C115.798 174.803 115.883 175 116.054 175.16C116.224 175.32 116.432 175.448 116.678 175.544C116.923 175.629 117.286 175.741 117.766 175.88C118.406 176.051 118.928 176.227 119.334 176.408C119.75 176.579 120.107 176.835 120.406 177.176C120.704 177.517 120.859 177.971 120.87 178.536C120.87 179.037 120.731 179.485 120.454 179.88C120.176 180.275 119.782 180.584 119.27 180.808C118.768 181.032 118.176 181.144 117.494 181.144ZM126.041 181.144C125.347 181.144 124.723 181.021 124.169 180.776C123.625 180.52 123.193 180.179 122.873 179.752C122.553 179.315 122.382 178.829 122.361 178.296H124.249C124.281 178.669 124.457 178.984 124.777 179.24C125.107 179.485 125.518 179.608 126.009 179.608C126.521 179.608 126.915 179.512 127.193 179.32C127.481 179.117 127.625 178.861 127.625 178.552C127.625 178.221 127.465 177.976 127.145 177.816C126.835 177.656 126.339 177.48 125.657 177.288C124.995 177.107 124.457 176.931 124.041 176.76C123.625 176.589 123.262 176.328 122.953 175.976C122.654 175.624 122.505 175.16 122.505 174.584C122.505 174.115 122.643 173.688 122.921 173.304C123.198 172.909 123.593 172.6 124.105 172.376C124.627 172.152 125.225 172.04 125.897 172.04C126.899 172.04 127.705 172.296 128.313 172.808C128.931 173.309 129.262 173.997 129.305 174.872H127.481C127.449 174.477 127.289 174.163 127.001 173.928C126.713 173.693 126.323 173.576 125.833 173.576C125.353 173.576 124.985 173.667 124.729 173.848C124.473 174.029 124.345 174.269 124.345 174.568C124.345 174.803 124.43 175 124.601 175.16C124.771 175.32 124.979 175.448 125.225 175.544C125.47 175.629 125.833 175.741 126.313 175.88C126.953 176.051 127.475 176.227 127.881 176.408C128.297 176.579 128.654 176.835 128.953 177.176C129.251 177.517 129.406 177.971 129.417 178.536C129.417 179.037 129.278 179.485 129.001 179.88C128.723 180.275 128.329 180.584 127.817 180.808C127.315 181.032 126.723 181.144 126.041 181.144ZM139.468 176.376C139.468 176.707 139.446 177.005 139.404 177.272H132.668C132.721 177.976 132.982 178.541 133.452 178.968C133.921 179.395 134.497 179.608 135.18 179.608C136.161 179.608 136.854 179.197 137.26 178.376H139.227C138.961 179.187 138.476 179.853 137.772 180.376C137.078 180.888 136.214 181.144 135.18 181.144C134.337 181.144 133.58 180.957 132.908 180.584C132.246 180.2 131.724 179.667 131.34 178.984C130.966 178.291 130.78 177.491 130.78 176.584C130.78 175.677 130.961 174.883 131.324 174.2C131.697 173.507 132.214 172.973 132.876 172.6C133.548 172.227 134.316 172.04 135.18 172.04C136.012 172.04 136.753 172.221 137.404 172.584C138.054 172.947 138.561 173.459 138.924 174.12C139.286 174.771 139.468 175.523 139.468 176.376ZM137.564 175.8C137.553 175.128 137.313 174.589 136.844 174.184C136.374 173.779 135.793 173.576 135.1 173.576C134.47 173.576 133.932 173.779 133.484 174.184C133.036 174.579 132.769 175.117 132.684 175.8H137.564ZM143.391 173.672V178.552C143.391 178.883 143.465 179.123 143.615 179.272C143.775 179.411 144.041 179.48 144.415 179.48H145.535V181H144.095C143.273 181 142.644 180.808 142.207 180.424C141.769 180.04 141.551 179.416 141.551 178.552V173.672H140.511V172.184H141.551V169.992H143.391V172.184H145.535V173.672H143.391ZM146.768 183.976V183.8C147.866 182.669 148.704 181.352 149.28 179.848C149.856 178.344 150.144 176.787 150.144 175.176C150.144 173.501 149.834 171.875 149.216 170.296C148.597 168.717 147.674 167.363 146.448 166.232V166.056H148.336C149.509 167.101 150.394 168.429 150.992 170.04C151.6 171.651 151.904 173.363 151.904 175.176C151.904 176.947 151.621 178.605 151.056 180.152C150.501 181.699 149.701 182.973 148.656 183.976H146.768Z" fill="white"/>
<path d="M244.024 178.528H247.784V180H242.2V168.88H244.024V178.528ZM250.237 170.016C249.907 170.016 249.629 169.904 249.405 169.68C249.181 169.456 249.069 169.179 249.069 168.848C249.069 168.517 249.181 168.24 249.405 168.016C249.629 167.792 249.907 167.68 250.237 167.68C250.557 167.68 250.829 167.792 251.053 168.016C251.277 168.24 251.389 168.517 251.389 168.848C251.389 169.179 251.277 169.456 251.053 169.68C250.829 169.904 250.557 170.016 250.237 170.016ZM251.133 171.184V180H249.309V171.184H251.133ZM257.976 171.04C258.669 171.04 259.288 171.184 259.832 171.472C260.387 171.76 260.819 172.187 261.128 172.752C261.437 173.317 261.592 174 261.592 174.8V180H259.784V175.072C259.784 174.283 259.587 173.68 259.192 173.264C258.797 172.837 258.259 172.624 257.576 172.624C256.893 172.624 256.349 172.837 255.944 173.264C255.549 173.68 255.352 174.283 255.352 175.072V180H253.528V171.184H255.352V172.192C255.651 171.829 256.029 171.547 256.488 171.344C256.957 171.141 257.453 171.04 257.976 171.04ZM271.999 175.376C271.999 175.707 271.977 176.005 271.935 176.272H265.199C265.252 176.976 265.513 177.541 265.983 177.968C266.452 178.395 267.028 178.608 267.711 178.608C268.692 178.608 269.385 178.197 269.791 177.376H271.759C271.492 178.187 271.007 178.853 270.303 179.376C269.609 179.888 268.745 180.144 267.711 180.144C266.868 180.144 266.111 179.957 265.439 179.584C264.777 179.2 264.255 178.667 263.871 177.984C263.497 177.291 263.311 176.491 263.311 175.584C263.311 174.677 263.492 173.883 263.855 173.2C264.228 172.507 264.745 171.973 265.407 171.6C266.079 171.227 266.847 171.04 267.711 171.04C268.543 171.04 269.284 171.221 269.935 171.584C270.585 171.947 271.092 172.459 271.455 173.12C271.817 173.771 271.999 174.523 271.999 175.376ZM270.095 174.8C270.084 174.128 269.844 173.589 269.375 173.184C268.905 172.779 268.324 172.576 267.631 172.576C267.001 172.576 266.463 172.779 266.015 173.184C265.567 173.579 265.3 174.117 265.215 174.8H270.095ZM283.902 174.288C284.499 174.395 285.006 174.709 285.422 175.232C285.838 175.755 286.046 176.347 286.046 177.008C286.046 177.573 285.897 178.085 285.598 178.544C285.31 178.992 284.889 179.349 284.334 179.616C283.779 179.872 283.134 180 282.398 180H277.95V168.88H282.19C282.947 168.88 283.598 169.008 284.142 169.264C284.686 169.52 285.097 169.867 285.374 170.304C285.651 170.731 285.79 171.211 285.79 171.744C285.79 172.384 285.619 172.917 285.278 173.344C284.937 173.771 284.478 174.085 283.902 174.288ZM279.774 173.552H282.03C282.627 173.552 283.091 173.419 283.422 173.152C283.763 172.875 283.934 172.48 283.934 171.968C283.934 171.467 283.763 171.077 283.422 170.8C283.091 170.512 282.627 170.368 282.03 170.368H279.774V173.552ZM282.238 178.512C282.857 178.512 283.342 178.363 283.694 178.064C284.046 177.765 284.222 177.349 284.222 176.816C284.222 176.272 284.035 175.84 283.662 175.52C283.289 175.2 282.793 175.04 282.174 175.04H279.774V178.512H282.238ZM296.216 182.976C295.171 181.973 294.366 180.699 293.8 179.152C293.246 177.605 292.968 175.947 292.968 174.176C292.968 172.363 293.267 170.651 293.864 169.04C294.472 167.429 295.363 166.101 296.536 165.056H298.424V165.232C297.198 166.363 296.275 167.717 295.656 169.296C295.038 170.875 294.728 172.501 294.728 174.176C294.728 175.787 295.016 177.344 295.592 178.848C296.168 180.352 297.006 181.669 298.104 182.8V182.976H296.216ZM306.763 177.728H302.107L301.307 180H299.403L303.387 168.864H305.499L309.483 180H307.563L306.763 177.728ZM306.251 176.24L304.443 171.072L302.619 176.24H306.251ZM314.416 180.144C313.722 180.144 313.098 180.021 312.544 179.776C312 179.52 311.568 179.179 311.248 178.752C310.928 178.315 310.757 177.829 310.736 177.296H312.624C312.656 177.669 312.832 177.984 313.152 178.24C313.482 178.485 313.893 178.608 314.384 178.608C314.896 178.608 315.29 178.512 315.568 178.32C315.856 178.117 316 177.861 316 177.552C316 177.221 315.84 176.976 315.52 176.816C315.21 176.656 314.714 176.48 314.032 176.288C313.37 176.107 312.832 175.931 312.416 175.76C312 175.589 311.637 175.328 311.328 174.976C311.029 174.624 310.88 174.16 310.88 173.584C310.88 173.115 311.018 172.688 311.296 172.304C311.573 171.909 311.968 171.6 312.48 171.376C313.002 171.152 313.6 171.04 314.272 171.04C315.274 171.04 316.08 171.296 316.688 171.808C317.306 172.309 317.637 172.997 317.68 173.872H315.856C315.824 173.477 315.664 173.163 315.376 172.928C315.088 172.693 314.698 172.576 314.208 172.576C313.728 172.576 313.36 172.667 313.104 172.848C312.848 173.029 312.72 173.269 312.72 173.568C312.72 173.803 312.805 174 312.976 174.16C313.146 174.32 313.354 174.448 313.6 174.544C313.845 174.629 314.208 174.741 314.688 174.88C315.328 175.051 315.85 175.227 316.256 175.408C316.672 175.579 317.029 175.835 317.328 176.176C317.626 176.517 317.781 176.971 317.792 177.536C317.792 178.037 317.653 178.485 317.376 178.88C317.098 179.275 316.704 179.584 316.192 179.808C315.69 180.032 315.098 180.144 314.416 180.144ZM322.963 180.144C322.269 180.144 321.645 180.021 321.091 179.776C320.547 179.52 320.115 179.179 319.795 178.752C319.475 178.315 319.304 177.829 319.283 177.296H321.171C321.203 177.669 321.379 177.984 321.699 178.24C322.029 178.485 322.44 178.608 322.931 178.608C323.443 178.608 323.837 178.512 324.115 178.32C324.403 178.117 324.547 177.861 324.547 177.552C324.547 177.221 324.387 176.976 324.067 176.816C323.757 176.656 323.261 176.48 322.579 176.288C321.917 176.107 321.379 175.931 320.963 175.76C320.547 175.589 320.184 175.328 319.875 174.976C319.576 174.624 319.427 174.16 319.427 173.584C319.427 173.115 319.565 172.688 319.843 172.304C320.12 171.909 320.515 171.6 321.027 171.376C321.549 171.152 322.147 171.04 322.819 171.04C323.821 171.04 324.627 171.296 325.235 171.808C325.853 172.309 326.184 172.997 326.227 173.872H324.403C324.371 173.477 324.211 173.163 323.923 172.928C323.635 172.693 323.245 172.576 322.755 172.576C322.275 172.576 321.907 172.667 321.651 172.848C321.395 173.029 321.267 173.269 321.267 173.568C321.267 173.803 321.352 174 321.523 174.16C321.693 174.32 321.901 174.448 322.147 174.544C322.392 174.629 322.755 174.741 323.235 174.88C323.875 175.051 324.397 175.227 324.803 175.408C325.219 175.579 325.576 175.835 325.875 176.176C326.173 176.517 326.328 176.971 326.339 177.536C326.339 178.037 326.2 178.485 325.923 178.88C325.645 179.275 325.251 179.584 324.739 179.808C324.237 180.032 323.645 180.144 322.963 180.144ZM336.389 175.376C336.389 175.707 336.368 176.005 336.325 176.272H329.589C329.643 176.976 329.904 177.541 330.373 177.968C330.843 178.395 331.419 178.608 332.101 178.608C333.083 178.608 333.776 178.197 334.181 177.376H336.149C335.883 178.187 335.397 178.853 334.693 179.376C334 179.888 333.136 180.144 332.101 180.144C331.259 180.144 330.501 179.957 329.829 179.584C329.168 179.2 328.645 178.667 328.261 177.984C327.888 177.291 327.701 176.491 327.701 175.584C327.701 174.677 327.883 173.883 328.245 173.2C328.619 172.507 329.136 171.973 329.797 171.6C330.469 171.227 331.237 171.04 332.101 171.04C332.933 171.04 333.675 171.221 334.325 171.584C334.976 171.947 335.483 172.459 335.845 173.12C336.208 173.771 336.389 174.523 336.389 175.376ZM334.485 174.8C334.475 174.128 334.235 173.589 333.765 173.184C333.296 172.779 332.715 172.576 332.021 172.576C331.392 172.576 330.853 172.779 330.405 173.184C329.957 173.579 329.691 174.117 329.605 174.8H334.485ZM340.312 172.672V177.552C340.312 177.883 340.387 178.123 340.536 178.272C340.696 178.411 340.963 178.48 341.336 178.48H342.456V180H341.016C340.195 180 339.566 179.808 339.128 179.424C338.691 179.04 338.472 178.416 338.472 177.552V172.672H337.432V171.184H338.472V168.992H340.312V171.184H342.456V172.672H340.312ZM343.69 182.976V182.8C344.788 181.669 345.626 180.352 346.202 178.848C346.778 177.344 347.066 175.787 347.066 174.176C347.066 172.501 346.756 170.875 346.138 169.296C345.519 167.717 344.596 166.363 343.37 165.232V165.056H345.258C346.431 166.101 347.316 167.429 347.914 169.04C348.522 170.651 348.826 172.363 348.826 174.176C348.826 175.947 348.543 177.605 347.978 179.152C347.423 180.699 346.623 181.973 345.578 182.976H343.69Z" fill="white"/>
<path d="M439.024 178.528H442.784V180H437.2V168.88H439.024V178.528ZM445.237 170.016C444.907 170.016 444.629 169.904 444.405 169.68C444.181 169.456 444.069 169.179 444.069 168.848C444.069 168.517 444.181 168.24 444.405 168.016C444.629 167.792 444.907 167.68 445.237 167.68C445.557 167.68 445.829 167.792 446.053 168.016C446.277 168.24 446.389 168.517 446.389 168.848C446.389 169.179 446.277 169.456 446.053 169.68C445.829 169.904 445.557 170.016 445.237 170.016ZM446.133 171.184V180H444.309V171.184H446.133ZM452.976 171.04C453.669 171.04 454.288 171.184 454.832 171.472C455.387 171.76 455.819 172.187 456.128 172.752C456.437 173.317 456.592 174 456.592 174.8V180H454.784V175.072C454.784 174.283 454.587 173.68 454.192 173.264C453.797 172.837 453.259 172.624 452.576 172.624C451.893 172.624 451.349 172.837 450.944 173.264C450.549 173.68 450.352 174.283 450.352 175.072V180H448.528V171.184H450.352V172.192C450.651 171.829 451.029 171.547 451.488 171.344C451.957 171.141 452.453 171.04 452.976 171.04ZM466.999 175.376C466.999 175.707 466.977 176.005 466.935 176.272H460.199C460.252 176.976 460.513 177.541 460.983 177.968C461.452 178.395 462.028 178.608 462.711 178.608C463.692 178.608 464.385 178.197 464.791 177.376H466.759C466.492 178.187 466.007 178.853 465.303 179.376C464.609 179.888 463.745 180.144 462.711 180.144C461.868 180.144 461.111 179.957 460.439 179.584C459.777 179.2 459.255 178.667 458.871 177.984C458.497 177.291 458.311 176.491 458.311 175.584C458.311 174.677 458.492 173.883 458.855 173.2C459.228 172.507 459.745 171.973 460.407 171.6C461.079 171.227 461.847 171.04 462.711 171.04C463.543 171.04 464.284 171.221 464.935 171.584C465.585 171.947 466.092 172.459 466.455 173.12C466.817 173.771 466.999 174.523 466.999 175.376ZM465.095 174.8C465.084 174.128 464.844 173.589 464.375 173.184C463.905 172.779 463.324 172.576 462.631 172.576C462.001 172.576 461.463 172.779 461.015 173.184C460.567 173.579 460.3 174.117 460.215 174.8H465.095ZM472.342 174.416C472.342 173.328 472.593 172.352 473.094 171.488C473.606 170.624 474.294 169.952 475.158 169.472C476.033 168.981 476.987 168.736 478.022 168.736C479.206 168.736 480.257 169.029 481.174 169.616C482.102 170.192 482.774 171.013 483.19 172.08H480.998C480.71 171.493 480.31 171.056 479.798 170.768C479.286 170.48 478.694 170.336 478.022 170.336C477.286 170.336 476.63 170.501 476.054 170.832C475.478 171.163 475.025 171.637 474.694 172.256C474.374 172.875 474.214 173.595 474.214 174.416C474.214 175.237 474.374 175.957 474.694 176.576C475.025 177.195 475.478 177.675 476.054 178.016C476.63 178.347 477.286 178.512 478.022 178.512C478.694 178.512 479.286 178.368 479.798 178.08C480.31 177.792 480.71 177.355 480.998 176.768H483.19C482.774 177.835 482.102 178.656 481.174 179.232C480.257 179.808 479.206 180.096 478.022 180.096C476.977 180.096 476.022 179.856 475.158 179.376C474.294 178.885 473.606 178.208 473.094 177.344C472.593 176.48 472.342 175.504 472.342 174.416ZM493.513 182.976C492.468 181.973 491.663 180.699 491.097 179.152C490.543 177.605 490.265 175.947 490.265 174.176C490.265 172.363 490.564 170.651 491.161 169.04C491.769 167.429 492.66 166.101 493.833 165.056H495.721V165.232C494.495 166.363 493.572 167.717 492.953 169.296C492.335 170.875 492.025 172.501 492.025 174.176C492.025 175.787 492.313 177.344 492.889 178.848C493.465 180.352 494.303 181.669 495.401 182.8V182.976H493.513ZM504.06 177.728H499.404L498.604 180H496.7L500.684 168.864H502.796L506.78 180H504.86L504.06 177.728ZM503.548 176.24L501.74 171.072L499.916 176.24H503.548ZM511.713 180.144C511.019 180.144 510.395 180.021 509.841 179.776C509.297 179.52 508.865 179.179 508.545 178.752C508.225 178.315 508.054 177.829 508.033 177.296H509.921C509.953 177.669 510.129 177.984 510.449 178.24C510.779 178.485 511.19 178.608 511.681 178.608C512.193 178.608 512.587 178.512 512.865 178.32C513.153 178.117 513.297 177.861 513.297 177.552C513.297 177.221 513.137 176.976 512.817 176.816C512.507 176.656 512.011 176.48 511.329 176.288C510.667 176.107 510.129 175.931 509.713 175.76C509.297 175.589 508.934 175.328 508.625 174.976C508.326 174.624 508.177 174.16 508.177 173.584C508.177 173.115 508.315 172.688 508.593 172.304C508.87 171.909 509.265 171.6 509.777 171.376C510.299 171.152 510.897 171.04 511.569 171.04C512.571 171.04 513.377 171.296 513.985 171.808C514.603 172.309 514.934 172.997 514.977 173.872H513.153C513.121 173.477 512.961 173.163 512.673 172.928C512.385 172.693 511.995 172.576 511.505 172.576C511.025 172.576 510.657 172.667 510.401 172.848C510.145 173.029 510.017 173.269 510.017 173.568C510.017 173.803 510.102 174 510.273 174.16C510.443 174.32 510.651 174.448 510.897 174.544C511.142 174.629 511.505 174.741 511.985 174.88C512.625 175.051 513.147 175.227 513.553 175.408C513.969 175.579 514.326 175.835 514.625 176.176C514.923 176.517 515.078 176.971 515.089 177.536C515.089 178.037 514.95 178.485 514.673 178.88C514.395 179.275 514.001 179.584 513.489 179.808C512.987 180.032 512.395 180.144 511.713 180.144ZM520.259 180.144C519.566 180.144 518.942 180.021 518.387 179.776C517.843 179.52 517.411 179.179 517.091 178.752C516.771 178.315 516.601 177.829 516.579 177.296H518.467C518.499 177.669 518.675 177.984 518.995 178.24C519.326 178.485 519.737 178.608 520.227 178.608C520.739 178.608 521.134 178.512 521.411 178.32C521.699 178.117 521.843 177.861 521.843 177.552C521.843 177.221 521.683 176.976 521.363 176.816C521.054 176.656 520.558 176.48 519.875 176.288C519.214 176.107 518.675 175.931 518.259 175.76C517.843 175.589 517.481 175.328 517.171 174.976C516.873 174.624 516.723 174.16 516.723 173.584C516.723 173.115 516.862 172.688 517.139 172.304C517.417 171.909 517.811 171.6 518.323 171.376C518.846 171.152 519.443 171.04 520.115 171.04C521.118 171.04 521.923 171.296 522.531 171.808C523.15 172.309 523.481 172.997 523.523 173.872H521.699C521.667 173.477 521.507 173.163 521.219 172.928C520.931 172.693 520.542 172.576 520.051 172.576C519.571 172.576 519.203 172.667 518.947 172.848C518.691 173.029 518.563 173.269 518.563 173.568C518.563 173.803 518.649 174 518.819 174.16C518.99 174.32 519.198 174.448 519.443 174.544C519.689 174.629 520.051 174.741 520.531 174.88C521.171 175.051 521.694 175.227 522.099 175.408C522.515 175.579 522.873 175.835 523.171 176.176C523.47 176.517 523.625 176.971 523.635 177.536C523.635 178.037 523.497 178.485 523.219 178.88C522.942 179.275 522.547 179.584 522.035 179.808C521.534 180.032 520.942 180.144 520.259 180.144ZM533.686 175.376C533.686 175.707 533.665 176.005 533.622 176.272H526.886C526.94 176.976 527.201 177.541 527.67 177.968C528.14 178.395 528.716 178.608 529.398 178.608C530.38 178.608 531.073 178.197 531.478 177.376H533.446C533.18 178.187 532.694 178.853 531.99 179.376C531.297 179.888 530.433 180.144 529.398 180.144C528.556 180.144 527.798 179.957 527.126 179.584C526.465 179.2 525.942 178.667 525.558 177.984C525.185 177.291 524.998 176.491 524.998 175.584C524.998 174.677 525.18 173.883 525.542 173.2C525.916 172.507 526.433 171.973 527.094 171.6C527.766 171.227 528.534 171.04 529.398 171.04C530.23 171.04 530.972 171.221 531.622 171.584C532.273 171.947 532.78 172.459 533.142 173.12C533.505 173.771 533.686 174.523 533.686 175.376ZM531.782 174.8C531.772 174.128 531.532 173.589 531.062 173.184C530.593 172.779 530.012 172.576 529.318 172.576C528.689 172.576 528.15 172.779 527.702 173.184C527.254 173.579 526.988 174.117 526.902 174.8H531.782ZM537.609 172.672V177.552C537.609 177.883 537.684 178.123 537.833 178.272C537.993 178.411 538.26 178.48 538.633 178.48H539.753V180H538.313C537.492 180 536.863 179.808 536.425 179.424C535.988 179.04 535.769 178.416 535.769 177.552V172.672H534.729V171.184H535.769V168.992H537.609V171.184H539.753V172.672H537.609ZM540.986 182.976V182.8C542.085 181.669 542.922 180.352 543.498 178.848C544.074 177.344 544.362 175.787 544.362 174.176C544.362 172.501 544.053 170.875 543.434 169.296C542.816 167.717 541.893 166.363 540.666 165.232V165.056H542.554C543.728 166.101 544.613 167.429 545.21 169.04C545.818 170.651 546.122 172.363 546.122 174.176C546.122 175.947 545.84 177.605 545.274 179.152C544.72 180.699 543.92 181.973 542.874 182.976H540.986Z" fill="white"/>
<path d="M326.592 83.416C326.592 82.328 326.843 81.352 327.344 80.488C327.856 79.624 328.544 78.952 329.408 78.472C330.283 77.9813 331.237 77.736 332.272 77.736C333.456 77.736 334.507 78.0293 335.424 78.616C336.352 79.192 337.024 80.0133 337.44 81.08H335.248C334.96 80.4933 334.56 80.056 334.048 79.768C333.536 79.48 332.944 79.336 332.272 79.336C331.536 79.336 330.88 79.5013 330.304 79.832C329.728 80.1627 329.275 80.6373 328.944 81.256C328.624 81.8747 328.464 82.5947 328.464 83.416C328.464 84.2373 328.624 84.9573 328.944 85.576C329.275 86.1947 329.728 86.6747 330.304 87.016C330.88 87.3467 331.536 87.512 332.272 87.512C332.944 87.512 333.536 87.368 334.048 87.08C334.56 86.792 334.96 86.3547 335.248 85.768H337.44C337.024 86.8347 336.352 87.656 335.424 88.232C334.507 88.808 333.456 89.096 332.272 89.096C331.227 89.096 330.272 88.856 329.408 88.376C328.544 87.8853 327.856 87.208 327.344 86.344C326.843 85.48 326.592 84.504 326.592 83.416ZM343.399 89.144C342.567 89.144 341.815 88.9573 341.143 88.584C340.471 88.2 339.943 87.6667 339.559 86.984C339.175 86.2907 338.983 85.4907 338.983 84.584C338.983 83.688 339.18 82.8933 339.575 82.2C339.97 81.5067 340.508 80.9733 341.191 80.6C341.874 80.2267 342.636 80.04 343.479 80.04C344.322 80.04 345.084 80.2267 345.767 80.6C346.45 80.9733 346.988 81.5067 347.383 82.2C347.778 82.8933 347.975 83.688 347.975 84.584C347.975 85.48 347.772 86.2747 347.367 86.968C346.962 87.6613 346.407 88.2 345.703 88.584C345.01 88.9573 344.242 89.144 343.399 89.144ZM343.399 87.56C343.868 87.56 344.306 87.448 344.711 87.224C345.127 87 345.463 86.664 345.719 86.216C345.975 85.768 346.103 85.224 346.103 84.584C346.103 83.944 345.98 83.4053 345.735 82.968C345.49 82.52 345.164 82.184 344.759 81.96C344.354 81.736 343.916 81.624 343.447 81.624C342.978 81.624 342.54 81.736 342.135 81.96C341.74 82.184 341.426 82.52 341.191 82.968C340.956 83.4053 340.839 83.944 340.839 84.584C340.839 85.5333 341.079 86.2693 341.559 86.792C342.05 87.304 342.663 87.56 343.399 87.56ZM354.226 80.04C354.919 80.04 355.538 80.184 356.082 80.472C356.637 80.76 357.069 81.1867 357.378 81.752C357.687 82.3173 357.842 83 357.842 83.8V89H356.034V84.072C356.034 83.2827 355.837 82.68 355.442 82.264C355.047 81.8373 354.509 81.624 353.826 81.624C353.143 81.624 352.599 81.8373 352.194 82.264C351.799 82.68 351.602 83.2827 351.602 84.072V89H349.778V80.184H351.602V81.192C351.901 80.8293 352.279 80.5467 352.738 80.344C353.207 80.1413 353.703 80.04 354.226 80.04ZM362.297 81.672V86.552C362.297 86.8827 362.371 87.1227 362.521 87.272C362.681 87.4107 362.947 87.48 363.321 87.48H364.441V89H363.001C362.179 89 361.55 88.808 361.113 88.424C360.675 88.04 360.457 87.416 360.457 86.552V81.672H359.417V80.184H360.457V77.992H362.297V80.184H364.441V81.672H362.297ZM365.514 84.552C365.514 83.6667 365.695 82.8827 366.058 82.2C366.431 81.5173 366.933 80.9893 367.562 80.616C368.202 80.232 368.906 80.04 369.674 80.04C370.367 80.04 370.97 80.1787 371.482 80.456C372.005 80.7227 372.421 81.0587 372.73 81.464V80.184H374.57V89H372.73V87.688C372.421 88.104 371.999 88.4507 371.466 88.728C370.933 89.0053 370.325 89.144 369.642 89.144C368.885 89.144 368.191 88.952 367.562 88.568C366.933 88.1733 366.431 87.6293 366.058 86.936C365.695 86.232 365.514 85.4373 365.514 84.552ZM372.73 84.584C372.73 83.976 372.602 83.448 372.346 83C372.101 82.552 371.775 82.2107 371.37 81.976C370.965 81.7413 370.527 81.624 370.058 81.624C369.589 81.624 369.151 81.7413 368.746 81.976C368.341 82.2 368.01 82.536 367.754 82.984C367.509 83.4213 367.386 83.944 367.386 84.552C367.386 85.16 367.509 85.6933 367.754 86.152C368.01 86.6107 368.341 86.9627 368.746 87.208C369.162 87.4427 369.599 87.56 370.058 87.56C370.527 87.56 370.965 87.4427 371.37 87.208C371.775 86.9733 372.101 86.632 372.346 86.184C372.602 85.7253 372.73 85.192 372.73 84.584ZM377.894 79.016C377.563 79.016 377.286 78.904 377.062 78.68C376.838 78.456 376.726 78.1787 376.726 77.848C376.726 77.5173 376.838 77.24 377.062 77.016C377.286 76.792 377.563 76.68 377.894 76.68C378.214 76.68 378.486 76.792 378.71 77.016C378.934 77.24 379.046 77.5173 379.046 77.848C379.046 78.1787 378.934 78.456 378.71 78.68C378.486 78.904 378.214 79.016 377.894 79.016ZM378.79 80.184V89H376.966V80.184H378.79ZM385.632 80.04C386.326 80.04 386.944 80.184 387.488 80.472C388.043 80.76 388.475 81.1867 388.784 81.752C389.094 82.3173 389.248 83 389.248 83.8V89H387.44V84.072C387.44 83.2827 387.243 82.68 386.848 82.264C386.454 81.8373 385.915 81.624 385.232 81.624C384.55 81.624 384.006 81.8373 383.6 82.264C383.206 82.68 383.008 83.2827 383.008 84.072V89H381.184V80.184H383.008V81.192C383.307 80.8293 383.686 80.5467 384.144 80.344C384.614 80.1413 385.11 80.04 385.632 80.04ZM394.775 89.144C394.082 89.144 393.458 89.0213 392.903 88.776C392.359 88.52 391.927 88.1787 391.607 87.752C391.287 87.3147 391.116 86.8293 391.095 86.296H392.983C393.015 86.6693 393.191 86.984 393.511 87.24C393.842 87.4853 394.252 87.608 394.743 87.608C395.255 87.608 395.65 87.512 395.927 87.32C396.215 87.1173 396.359 86.8613 396.359 86.552C396.359 86.2213 396.199 85.976 395.879 85.816C395.57 85.656 395.074 85.48 394.391 85.288C393.73 85.1067 393.191 84.9307 392.775 84.76C392.359 84.5893 391.996 84.328 391.687 83.976C391.388 83.624 391.239 83.16 391.239 82.584C391.239 82.1147 391.378 81.688 391.655 81.304C391.932 80.9093 392.327 80.6 392.839 80.376C393.362 80.152 393.959 80.04 394.631 80.04C395.634 80.04 396.439 80.296 397.047 80.808C397.666 81.3093 397.996 81.9973 398.039 82.872H396.215C396.183 82.4773 396.023 82.1627 395.735 81.928C395.447 81.6933 395.058 81.576 394.567 81.576C394.087 81.576 393.719 81.6667 393.463 81.848C393.207 82.0293 393.079 82.2693 393.079 82.568C393.079 82.8027 393.164 83 393.335 83.16C393.506 83.32 393.714 83.448 393.959 83.544C394.204 83.6293 394.567 83.7413 395.047 83.88C395.687 84.0507 396.21 84.2267 396.615 84.408C397.031 84.5787 397.388 84.8347 397.687 85.176C397.986 85.5173 398.14 85.9707 398.151 86.536C398.151 87.0373 398.012 87.4853 397.735 87.88C397.458 88.2747 397.063 88.584 396.551 88.808C396.05 89.032 395.458 89.144 394.775 89.144Z" fill="#B2A732"/>
<path d="M67.592 232.416C67.592 231.328 67.8427 230.352 68.344 229.488C68.856 228.624 69.544 227.952 70.408 227.472C71.2827 226.981 72.2373 226.736 73.272 226.736C74.456 226.736 75.5067 227.029 76.424 227.616C77.352 228.192 78.024 229.013 78.44 230.08H76.248C75.96 229.493 75.56 229.056 75.048 228.768C74.536 228.48 73.944 228.336 73.272 228.336C72.536 228.336 71.88 228.501 71.304 228.832C70.728 229.163 70.2747 229.637 69.944 230.256C69.624 230.875 69.464 231.595 69.464 232.416C69.464 233.237 69.624 233.957 69.944 234.576C70.2747 235.195 70.728 235.675 71.304 236.016C71.88 236.347 72.536 236.512 73.272 236.512C73.944 236.512 74.536 236.368 75.048 236.08C75.56 235.792 75.96 235.355 76.248 234.768H78.44C78.024 235.835 77.352 236.656 76.424 237.232C75.5067 237.808 74.456 238.096 73.272 238.096C72.2267 238.096 71.272 237.856 70.408 237.376C69.544 236.885 68.856 236.208 68.344 235.344C67.8427 234.48 67.592 233.504 67.592 232.416ZM84.399 238.144C83.567 238.144 82.815 237.957 82.143 237.584C81.471 237.2 80.943 236.667 80.559 235.984C80.175 235.291 79.983 234.491 79.983 233.584C79.983 232.688 80.1803 231.893 80.575 231.2C80.9697 230.507 81.5083 229.973 82.191 229.6C82.8737 229.227 83.6363 229.04 84.479 229.04C85.3217 229.04 86.0843 229.227 86.767 229.6C87.4497 229.973 87.9883 230.507 88.383 231.2C88.7777 231.893 88.975 232.688 88.975 233.584C88.975 234.48 88.7723 235.275 88.367 235.968C87.9617 236.661 87.407 237.2 86.703 237.584C86.0097 237.957 85.2417 238.144 84.399 238.144ZM84.399 236.56C84.8683 236.56 85.3057 236.448 85.711 236.224C86.127 236 86.463 235.664 86.719 235.216C86.975 234.768 87.103 234.224 87.103 233.584C87.103 232.944 86.9803 232.405 86.735 231.968C86.4897 231.52 86.1643 231.184 85.759 230.96C85.3537 230.736 84.9163 230.624 84.447 230.624C83.9777 230.624 83.5403 230.736 83.135 230.96C82.7403 231.184 82.4257 231.52 82.191 231.968C81.9563 232.405 81.839 232.944 81.839 233.584C81.839 234.533 82.079 235.269 82.559 235.792C83.0497 236.304 83.663 236.56 84.399 236.56ZM95.2261 229.04C95.9195 229.04 96.5381 229.184 97.0821 229.472C97.6368 229.76 98.0688 230.187 98.3781 230.752C98.6875 231.317 98.8421 232 98.8421 232.8V238H97.0341V233.072C97.0341 232.283 96.8368 231.68 96.4421 231.264C96.0475 230.837 95.5088 230.624 94.8261 230.624C94.1435 230.624 93.5995 230.837 93.1941 231.264C92.7995 231.68 92.6021 232.283 92.6021 233.072V238H90.7781V229.184H92.6021V230.192C92.9008 229.829 93.2795 229.547 93.7381 229.344C94.2075 229.141 94.7035 229.04 95.2261 229.04ZM103.297 230.672V235.552C103.297 235.883 103.371 236.123 103.521 236.272C103.681 236.411 103.947 236.48 104.321 236.48H105.441V238H104.001C103.179 238 102.55 237.808 102.113 237.424C101.675 237.04 101.457 236.416 101.457 235.552V230.672H100.417V229.184H101.457V226.992H103.297V229.184H105.441V230.672H103.297ZM106.514 233.552C106.514 232.667 106.695 231.883 107.058 231.2C107.431 230.517 107.933 229.989 108.562 229.616C109.202 229.232 109.906 229.04 110.674 229.04C111.367 229.04 111.97 229.179 112.482 229.456C113.005 229.723 113.421 230.059 113.73 230.464V229.184H115.57V238H113.73V236.688C113.421 237.104 112.999 237.451 112.466 237.728C111.933 238.005 111.325 238.144 110.642 238.144C109.885 238.144 109.191 237.952 108.562 237.568C107.933 237.173 107.431 236.629 107.058 235.936C106.695 235.232 106.514 234.437 106.514 233.552ZM113.73 233.584C113.73 232.976 113.602 232.448 113.346 232C113.101 231.552 112.775 231.211 112.37 230.976C111.965 230.741 111.527 230.624 111.058 230.624C110.589 230.624 110.151 230.741 109.746 230.976C109.341 231.2 109.01 231.536 108.754 231.984C108.509 232.421 108.386 232.944 108.386 233.552C108.386 234.16 108.509 234.693 108.754 235.152C109.01 235.611 109.341 235.963 109.746 236.208C110.162 236.443 110.599 236.56 111.058 236.56C111.527 236.56 111.965 236.443 112.37 236.208C112.775 235.973 113.101 235.632 113.346 235.184C113.602 234.725 113.73 234.192 113.73 233.584ZM118.894 228.016C118.563 228.016 118.286 227.904 118.062 227.68C117.838 227.456 117.726 227.179 117.726 226.848C117.726 226.517 117.838 226.24 118.062 226.016C118.286 225.792 118.563 225.68 118.894 225.68C119.214 225.68 119.486 225.792 119.71 226.016C119.934 226.24 120.046 226.517 120.046 226.848C120.046 227.179 119.934 227.456 119.71 227.68C119.486 227.904 119.214 228.016 118.894 228.016ZM119.79 229.184V238H117.966V229.184H119.79ZM126.632 229.04C127.326 229.04 127.944 229.184 128.488 229.472C129.043 229.76 129.475 230.187 129.784 230.752C130.094 231.317 130.248 232 130.248 232.8V238H128.44V233.072C128.44 232.283 128.243 231.68 127.848 231.264C127.454 230.837 126.915 230.624 126.232 230.624C125.55 230.624 125.006 230.837 124.6 231.264C124.206 231.68 124.008 232.283 124.008 233.072V238H122.184V229.184H124.008V230.192C124.307 229.829 124.686 229.547 125.144 229.344C125.614 229.141 126.11 229.04 126.632 229.04ZM135.775 238.144C135.082 238.144 134.458 238.021 133.903 237.776C133.359 237.52 132.927 237.179 132.607 236.752C132.287 236.315 132.116 235.829 132.095 235.296H133.983C134.015 235.669 134.191 235.984 134.511 236.24C134.842 236.485 135.252 236.608 135.743 236.608C136.255 236.608 136.65 236.512 136.927 236.32C137.215 236.117 137.359 235.861 137.359 235.552C137.359 235.221 137.199 234.976 136.879 234.816C136.57 234.656 136.074 234.48 135.391 234.288C134.73 234.107 134.191 233.931 133.775 233.76C133.359 233.589 132.996 233.328 132.687 232.976C132.388 232.624 132.239 232.16 132.239 231.584C132.239 231.115 132.378 230.688 132.655 230.304C132.932 229.909 133.327 229.6 133.839 229.376C134.362 229.152 134.959 229.04 135.631 229.04C136.634 229.04 137.439 229.296 138.047 229.808C138.666 230.309 138.996 230.997 139.039 231.872H137.215C137.183 231.477 137.023 231.163 136.735 230.928C136.447 230.693 136.058 230.576 135.567 230.576C135.087 230.576 134.719 230.667 134.463 230.848C134.207 231.029 134.079 231.269 134.079 231.568C134.079 231.803 134.164 232 134.335 232.16C134.506 232.32 134.714 232.448 134.959 232.544C135.204 232.629 135.567 232.741 136.047 232.88C136.687 233.051 137.21 233.227 137.615 233.408C138.031 233.579 138.388 233.835 138.687 234.176C138.986 234.517 139.14 234.971 139.151 235.536C139.151 236.037 139.012 236.485 138.735 236.88C138.458 237.275 138.063 237.584 137.551 237.808C137.05 238.032 136.458 238.144 135.775 238.144Z" fill="#B2A732"/>
<path d="M241.744 37.88V39.368H237.024V42.648H240.704V44.136H237.024V49H235.2V37.88H241.744ZM242.826 44.552C242.826 43.6667 243.008 42.8827 243.37 42.2C243.744 41.5173 244.245 40.9893 244.874 40.616C245.514 40.232 246.218 40.04 246.986 40.04C247.68 40.04 248.282 40.1787 248.794 40.456C249.317 40.7227 249.733 41.0587 250.042 41.464V40.184H251.882V49H250.042V47.688C249.733 48.104 249.312 48.4507 248.778 48.728C248.245 49.0053 247.637 49.144 246.954 49.144C246.197 49.144 245.504 48.952 244.874 48.568C244.245 48.1733 243.744 47.6293 243.37 46.936C243.008 46.232 242.826 45.4373 242.826 44.552ZM250.042 44.584C250.042 43.976 249.914 43.448 249.658 43C249.413 42.552 249.088 42.2107 248.682 41.976C248.277 41.7413 247.84 41.624 247.37 41.624C246.901 41.624 246.464 41.7413 246.058 41.976C245.653 42.2 245.322 42.536 245.066 42.984C244.821 43.4213 244.698 43.944 244.698 44.552C244.698 45.16 244.821 45.6933 245.066 46.152C245.322 46.6107 245.653 46.9627 246.058 47.208C246.474 47.4427 246.912 47.56 247.37 47.56C247.84 47.56 248.277 47.4427 248.682 47.208C249.088 46.9733 249.413 46.632 249.658 46.184C249.914 45.7253 250.042 45.192 250.042 44.584ZM253.67 44.584C253.67 43.6773 253.851 42.8827 254.214 42.2C254.587 41.5067 255.099 40.9733 255.75 40.6C256.401 40.2267 257.147 40.04 257.99 40.04C259.057 40.04 259.937 40.296 260.63 40.808C261.334 41.3093 261.809 42.0293 262.054 42.968H260.086C259.926 42.5307 259.67 42.1893 259.318 41.944C258.966 41.6987 258.523 41.576 257.99 41.576C257.243 41.576 256.646 41.8427 256.198 42.376C255.761 42.8987 255.542 43.6347 255.542 44.584C255.542 45.5333 255.761 46.2747 256.198 46.808C256.646 47.3413 257.243 47.608 257.99 47.608C259.046 47.608 259.745 47.144 260.086 46.216H262.054C261.798 47.112 261.318 47.8267 260.614 48.36C259.91 48.8827 259.035 49.144 257.99 49.144C257.147 49.144 256.401 48.9573 255.75 48.584C255.099 48.2 254.587 47.6667 254.214 46.984C253.851 46.2907 253.67 45.4907 253.67 44.584ZM266 41.672V46.552C266 46.8827 266.075 47.1227 266.224 47.272C266.384 47.4107 266.651 47.48 267.024 47.48H268.144V49H266.704C265.883 49 265.253 48.808 264.816 48.424C264.379 48.04 264.16 47.416 264.16 46.552V41.672H263.12V40.184H264.16V37.992H266V40.184H268.144V41.672H266ZM273.649 49.144C272.817 49.144 272.065 48.9573 271.393 48.584C270.721 48.2 270.193 47.6667 269.809 46.984C269.425 46.2907 269.233 45.4907 269.233 44.584C269.233 43.688 269.43 42.8933 269.825 42.2C270.22 41.5067 270.758 40.9733 271.441 40.6C272.124 40.2267 272.886 40.04 273.729 40.04C274.572 40.04 275.334 40.2267 276.017 40.6C276.7 40.9733 277.238 41.5067 277.633 42.2C278.028 42.8933 278.225 43.688 278.225 44.584C278.225 45.48 278.022 46.2747 277.617 46.968C277.212 47.6613 276.657 48.2 275.953 48.584C275.26 48.9573 274.492 49.144 273.649 49.144ZM273.649 47.56C274.118 47.56 274.556 47.448 274.961 47.224C275.377 47 275.713 46.664 275.969 46.216C276.225 45.768 276.353 45.224 276.353 44.584C276.353 43.944 276.23 43.4053 275.985 42.968C275.74 42.52 275.414 42.184 275.009 41.96C274.604 41.736 274.166 41.624 273.697 41.624C273.228 41.624 272.79 41.736 272.385 41.96C271.99 42.184 271.676 42.52 271.441 42.968C271.206 43.4053 271.089 43.944 271.089 44.584C271.089 45.5333 271.329 46.2693 271.809 46.792C272.3 47.304 272.913 47.56 273.649 47.56ZM281.852 41.464C282.119 41.016 282.471 40.6693 282.908 40.424C283.356 40.168 283.884 40.04 284.492 40.04V41.928H284.028C283.313 41.928 282.769 42.1093 282.396 42.472C282.033 42.8347 281.852 43.464 281.852 44.36V49H280.028V40.184H281.852V41.464ZM294.105 40.184L288.697 53.144H286.809L288.601 48.856L285.129 40.184H287.161L289.641 46.904L292.217 40.184H294.105ZM303.67 51.976C302.624 50.9733 301.819 49.6987 301.254 48.152C300.699 46.6053 300.422 44.9467 300.422 43.176C300.422 41.3627 300.72 39.6507 301.318 38.04C301.926 36.4293 302.816 35.1013 303.99 34.056H305.878V34.232C304.651 35.3627 303.728 36.7173 303.11 38.296C302.491 39.8747 302.182 41.5013 302.182 43.176C302.182 44.7867 302.47 46.344 303.046 47.848C303.622 49.352 304.459 50.6693 305.558 51.8V51.976H303.67ZM314.217 46.728H309.561L308.761 49H306.857L310.841 37.864H312.953L316.937 49H315.017L314.217 46.728ZM313.705 45.24L311.897 40.072L310.073 45.24H313.705ZM321.869 49.144C321.175 49.144 320.551 49.0213 319.997 48.776C319.453 48.52 319.021 48.1787 318.701 47.752C318.381 47.3147 318.21 46.8293 318.189 46.296H320.077C320.109 46.6693 320.285 46.984 320.605 47.24C320.935 47.4853 321.346 47.608 321.837 47.608C322.349 47.608 322.743 47.512 323.021 47.32C323.309 47.1173 323.453 46.8613 323.453 46.552C323.453 46.2213 323.293 45.976 322.973 45.816C322.663 45.656 322.167 45.48 321.485 45.288C320.823 45.1067 320.285 44.9307 319.869 44.76C319.453 44.5893 319.09 44.328 318.781 43.976C318.482 43.624 318.333 43.16 318.333 42.584C318.333 42.1147 318.471 41.688 318.749 41.304C319.026 40.9093 319.421 40.6 319.933 40.376C320.455 40.152 321.053 40.04 321.725 40.04C322.727 40.04 323.533 40.296 324.141 40.808C324.759 41.3093 325.09 41.9973 325.133 42.872H323.309C323.277 42.4773 323.117 42.1627 322.829 41.928C322.541 41.6933 322.151 41.576 321.661 41.576C321.181 41.576 320.813 41.6667 320.557 41.848C320.301 42.0293 320.173 42.2693 320.173 42.568C320.173 42.8027 320.258 43 320.429 43.16C320.599 43.32 320.807 43.448 321.053 43.544C321.298 43.6293 321.661 43.7413 322.141 43.88C322.781 44.0507 323.303 44.2267 323.709 44.408C324.125 44.5787 324.482 44.8347 324.781 45.176C325.079 45.5173 325.234 45.9707 325.245 46.536C325.245 47.0373 325.106 47.4853 324.829 47.88C324.551 48.2747 324.157 48.584 323.645 48.808C323.143 49.032 322.551 49.144 321.869 49.144ZM330.416 49.144C329.722 49.144 329.098 49.0213 328.544 48.776C328 48.52 327.568 48.1787 327.248 47.752C326.928 47.3147 326.757 46.8293 326.736 46.296H328.624C328.656 46.6693 328.832 46.984 329.152 47.24C329.482 47.4853 329.893 47.608 330.384 47.608C330.896 47.608 331.29 47.512 331.568 47.32C331.856 47.1173 332 46.8613 332 46.552C332 46.2213 331.84 45.976 331.52 45.816C331.21 45.656 330.714 45.48 330.032 45.288C329.37 45.1067 328.832 44.9307 328.416 44.76C328 44.5893 327.637 44.328 327.328 43.976C327.029 43.624 326.88 43.16 326.88 42.584C326.88 42.1147 327.018 41.688 327.296 41.304C327.573 40.9093 327.968 40.6 328.48 40.376C329.002 40.152 329.6 40.04 330.272 40.04C331.274 40.04 332.08 40.296 332.688 40.808C333.306 41.3093 333.637 41.9973 333.68 42.872H331.856C331.824 42.4773 331.664 42.1627 331.376 41.928C331.088 41.6933 330.698 41.576 330.208 41.576C329.728 41.576 329.36 41.6667 329.104 41.848C328.848 42.0293 328.72 42.2693 328.72 42.568C328.72 42.8027 328.805 43 328.976 43.16C329.146 43.32 329.354 43.448 329.6 43.544C329.845 43.6293 330.208 43.7413 330.688 43.88C331.328 44.0507 331.85 44.2267 332.256 44.408C332.672 44.5787 333.029 44.8347 333.328 45.176C333.626 45.5173 333.781 45.9707 333.792 46.536C333.792 47.0373 333.653 47.4853 333.376 47.88C333.098 48.2747 332.704 48.584 332.192 48.808C331.69 49.032 331.098 49.144 330.416 49.144ZM343.843 44.376C343.843 44.7067 343.821 45.0053 343.779 45.272H337.043C337.096 45.976 337.357 46.5413 337.827 46.968C338.296 47.3947 338.872 47.608 339.555 47.608C340.536 47.608 341.229 47.1973 341.635 46.376H343.602C343.336 47.1867 342.851 47.8533 342.147 48.376C341.453 48.888 340.589 49.144 339.555 49.144C338.712 49.144 337.955 48.9573 337.283 48.584C336.621 48.2 336.099 47.6667 335.715 46.984C335.341 46.2907 335.155 45.4907 335.155 44.584C335.155 43.6773 335.336 42.8827 335.699 42.2C336.072 41.5067 336.589 40.9733 337.251 40.6C337.923 40.2267 338.691 40.04 339.555 40.04C340.387 40.04 341.128 40.2213 341.779 40.584C342.429 40.9467 342.936 41.4587 343.299 42.12C343.661 42.7707 343.843 43.5227 343.843 44.376ZM341.939 43.8C341.928 43.128 341.688 42.5893 341.219 42.184C340.749 41.7787 340.168 41.576 339.475 41.576C338.845 41.576 338.307 41.7787 337.859 42.184C337.411 42.5787 337.144 43.1173 337.059 43.8H341.939ZM347.766 41.672V46.552C347.766 46.8827 347.84 47.1227 347.99 47.272C348.15 47.4107 348.416 47.48 348.79 47.48H349.91V49H348.47C347.648 49 347.019 48.808 346.582 48.424C346.144 48.04 345.926 47.416 345.926 46.552V41.672H344.886V40.184H345.926V37.992H347.766V40.184H349.91V41.672H347.766ZM351.143 51.976V51.8C352.241 50.6693 353.079 49.352 353.655 47.848C354.231 46.344 354.519 44.7867 354.519 43.176C354.519 41.5013 354.209 39.8747 353.591 38.296C352.972 36.7173 352.049 35.3627 350.823 34.232V34.056H352.711C353.884 35.1013 354.769 36.4293 355.367 38.04C355.975 39.6507 356.279 41.3627 356.279 43.176C356.279 44.9467 355.996 46.6053 355.431 48.152C354.876 49.6987 354.076 50.9733 353.031 51.976H351.143Z" fill="white"/>
<path d="M97.1587 212.477L96.1587 212.477V212.477L97.1587 212.477ZM102.159 217.477L102.159 218.477V218.477L102.159 217.477ZM143.159 217.477L143.159 218.477L143.159 218.477L143.159 217.477ZM148.159 222.477L147.159 222.477L147.159 222.477L148.159 222.477ZM148.159 288.977L153.932 278.977L142.385 278.977L148.159 288.977ZM97.1587 200.977L96.1587 200.977L96.1587 212.477L97.1587 212.477L98.1587 212.477L98.1587 200.977L97.1587 200.977ZM102.159 217.477L102.159 218.477L143.159 218.477L143.159 217.477L143.159 216.477L102.159 216.477L102.159 217.477ZM148.159 222.477L147.159 222.477L147.159 279.977L148.159 279.977L149.159 279.977L149.159 222.477L148.159 222.477ZM143.159 217.477L143.159 218.477C145.368 218.477 147.159 220.268 147.159 222.477L148.159 222.477L149.159 222.477C149.159 219.163 146.472 216.477 143.159 216.477L143.159 217.477ZM97.1587 212.477L96.1587 212.477C96.1587 215.791 98.845 218.477 102.159 218.477L102.159 217.477L102.159 216.477C99.9495 216.477 98.1587 214.686 98.1587 212.477L97.1587 212.477Z" fill="#B2A732"/>
<path d="M289 96L290 96V96L289 96ZM284 101L284 102L284 101ZM104 101L104 99.9999L104 99.9999L104 101ZM99 106L98 106V106L99 106ZM99 152L104.773 142L93.2265 142L99 152ZM289 68L288 68L288 96L289 96L290 96L290 68L289 68ZM284 101L284 100L104 99.9999L104 101L104 102L284 102L284 101ZM99 106L98 106L98 143L99 143L100 143L100 106L99 106ZM104 101L104 99.9999C100.686 99.9999 98 102.686 98 106L99 106L100 106C100 103.791 101.791 102 104 102L104 101ZM289 96L288 96C288 98.2091 286.209 100 284 100L284 101L284 102C287.314 102 290 99.3137 290 96L289 96Z" fill="#B2A732"/>
<path d="M303.204 96L304.204 96L304.204 96L303.204 96ZM308.204 101L308.204 102V102L308.204 101ZM488.204 101L488.204 99.9999L488.204 99.9999L488.204 101ZM493.204 106L494.204 106V106L493.204 106ZM493.204 151.662L487.431 141.662L498.978 141.662L493.204 151.662ZM303.204 68L304.204 68L304.204 96L303.204 96L302.204 96L302.204 68L303.204 68ZM308.204 101L308.204 100L488.204 99.9999L488.204 101L488.204 102L308.204 102L308.204 101ZM493.204 106L494.204 106L494.204 142.662L493.204 142.662L492.204 142.662L492.204 106L493.204 106ZM488.204 101L488.204 99.9999C491.518 99.9999 494.204 102.686 494.204 106L493.204 106L492.204 106C492.204 103.791 490.413 102 488.204 102L488.204 101ZM303.204 96L304.204 96C304.204 98.2091 305.995 100 308.204 100L308.204 101L308.204 102C304.89 102 302.204 99.3137 302.204 96L303.204 96Z" fill="#B2A732"/>
<path d="M296 152L301.774 142H290.226L296 152ZM296 68H295V143H296H297V68H296Z" fill="#B2A732"/>
</g>
<defs>
<clipPath id="clip0_8_153">
<rect width="590" height="359" fill="white"/>
</clipPath>
</defs>
</svg>
