<?xml version="1.0" encoding="UTF-8"?>
<svg xmlns="http://www.w3.org/2000/svg" viewBox="0 0 1380 720" width="1380" height="720" font-family="-apple-system, BlinkMacSystemFont, &#39;Inter&#39;, &#39;Segoe UI&#39;, Helvetica, Arial, sans-serif">
<defs><pattern id="dots-l" x="0" y="0" width="16" height="16" patternUnits="userSpaceOnUse"><circle cx="1" cy="1" r="1" fill="#c1c6d0" opacity="0.55"></circle></pattern><marker id="ar-rtsp-l" viewBox="0 0 10 10" refX="8" refY="5" markerWidth="9" markerHeight="9" orient="auto-start-reverse"><path d="M0 0 L10 5 L0 10 Z" fill="#8a1f1f"></path></marker><marker id="ar-hls-l" viewBox="0 0 10 10" refX="8" refY="5" markerWidth="9" markerHeight="9" orient="auto-start-reverse"><path d="M0 0 L10 5 L0 10 Z" fill="#00695c"></path></marker><marker id="ar-whep-l" viewBox="0 0 10 10" refX="8" refY="5" markerWidth="9" markerHeight="9" orient="auto-start-reverse"><path d="M0 0 L10 5 L0 10 Z" fill="#3d50f5"></path></marker><marker id="ar-udp-l" viewBox="0 0 10 10" refX="8" refY="5" markerWidth="9" markerHeight="9" orient="auto-start-reverse"><path d="M0 0 L10 5 L0 10 Z" fill="#73520d"></path></marker><marker id="ar-tbCtl-l" viewBox="0 0 10 10" refX="8" refY="5" markerWidth="9" markerHeight="9" orient="auto-start-reverse"><path d="M0 0 L10 5 L0 10 Z" fill="#555962"></path></marker></defs>
<rect x="0" y="0" width="1380" height="720" fill="#f7f8fb"></rect>
<rect x="0" y="0" width="1380" height="720" fill="url(#dots-l)"></rect>
<text x="170" y="46" text-anchor="middle" font-size="11" font-weight="700" fill="#5b6170" letter-spacing="2.4" font-family="-apple-system,BlinkMacSystemFont,&#39;Inter&#39;,&#39;Segoe UI&#39;,Helvetica,Arial,sans-serif">CAMERA · LAN</text><line x1="60" y1="56" x2="114.8" y2="56" stroke="rgba(85,91,102,0.22)"></line><line x1="225.2" y1="56" x2="280" y2="56" stroke="rgba(85,91,102,0.22)"></line>
<text x="530" y="46" text-anchor="middle" font-size="11" font-weight="700" fill="#5b6170" letter-spacing="2.4" font-family="-apple-system,BlinkMacSystemFont,&#39;Inter&#39;,&#39;Segoe UI&#39;,Helvetica,Arial,sans-serif">EDGE HOST ON YOUR LAN</text><line x1="350" y1="56" x2="442.4" y2="56" stroke="rgba(85,91,102,0.22)"></line><line x1="617.6" y1="56" x2="770" y2="56" stroke="rgba(85,91,102,0.22)"></line>
<text x="920" y="46" text-anchor="middle" font-size="11" font-weight="700" fill="#5b6170" letter-spacing="2.4" font-family="-apple-system,BlinkMacSystemFont,&#39;Inter&#39;,&#39;Segoe UI&#39;,Helvetica,Arial,sans-serif">PUBLIC INTERNET</text><line x1="800" y1="56" x2="854" y2="56" stroke="rgba(85,91,102,0.22)"></line><line x1="986" y1="56" x2="1040" y2="56" stroke="rgba(85,91,102,0.22)"></line>
<text x="1240" y="46" text-anchor="middle" font-size="11" font-weight="700" fill="#5b6170" letter-spacing="2.4" font-family="-apple-system,BlinkMacSystemFont,&#39;Inter&#39;,&#39;Segoe UI&#39;,Helvetica,Arial,sans-serif">BROWSER WITH WIDGET</text><line x1="1110" y1="56" x2="1159.6" y2="56" stroke="rgba(85,91,102,0.22)"></line><line x1="1320.4" y1="56" x2="1340" y2="56" stroke="rgba(85,91,102,0.22)"></line>
<rect x="360.5" y="175.5" width="359" height="214" rx="14" fill="none" stroke="#3d50f5" stroke-opacity="0.8" stroke-dasharray="6 4"></rect><rect x="374" y="163" width="81.4" height="22" rx="6" fill="#f7f8fb" stroke="#3d50f5" stroke-opacity="0.8" stroke-dasharray="6 4"></rect><text x="414.7" y="178" text-anchor="middle" font-size="10.5" font-weight="700" fill="#3d50f5" letter-spacing="1.4">EDGE HOST</text>
<rect x="1080.5" y="510.5" width="289" height="129" rx="14" fill="none" stroke="#6c7382" stroke-opacity="0.8" stroke-dasharray="6 4"></rect><rect x="1094" y="498" width="107.8" height="22" rx="6" fill="#f7f8fb" stroke="#6c7382" stroke-opacity="0.8" stroke-dasharray="6 4"></rect><text x="1147.9" y="513" text-anchor="middle" font-size="10.5" font-weight="700" fill="#6c7382" letter-spacing="1.4">CONTROL PLANE</text>
<g><rect x="60.5" y="230.5" width="239" height="69" rx="10" fill="#ffffff" stroke="rgba(138,31,31,0.45)" stroke-width="1"></rect><rect x="72" y="248" width="34" height="34" rx="6" fill="#fcd7d7"></rect><g transform="translate(72, 248) scale(1.4167)"><rect x="3" y="7" width="14" height="10" rx="1.5" stroke="#8a1f1f" stroke-width="1.6" stroke-linejoin="round" stroke-linecap="round" fill="none"></rect><path d="M17 10l4-2v8l-4-2z" stroke="#8a1f1f" stroke-width="1.6" stroke-linejoin="round" stroke-linecap="round" fill="none"></path><circle cx="8" cy="12" r="2.2" stroke="#8a1f1f" stroke-width="1.6" stroke-linejoin="round" stroke-linecap="round" fill="none"></circle></g><text x="118" y="261" font-size="14" font-weight="600" fill="#17181c">IP camera</text><text x="118" y="278" font-size="11.5" fill="#6a6f7a">RTSP source</text></g>
<g><rect x="380.5" y="200.5" width="319" height="69" rx="10" fill="#ffffff" stroke="rgba(0,105,92,0.45)" stroke-width="1"></rect><rect x="392" y="218" width="34" height="34" rx="6" fill="#cfeae5"></rect><g transform="translate(392, 218) scale(1.4167)"><path d="M5 17V9l7 4 7-4v8" stroke="#00695c" stroke-width="1.6" stroke-linejoin="round" stroke-linecap="round" fill="none"></path><circle cx="12" cy="13" r="1.3" fill="#00695c" stroke="none"></circle></g><text x="438" y="231" font-size="14" font-weight="600" fill="#17181c">MediaMTX</text><text x="438" y="248" font-size="11.5" fill="#6a6f7a">pulls RTSP → produces HLS / WebRTC</text></g>
<g><rect x="380.5" y="290.5" width="319" height="69" rx="10" fill="#ffffff" stroke="rgba(74,61,245,0.45)" stroke-width="1"></rect><rect x="392" y="308" width="34" height="34" rx="6" fill="#e2e0ff"></rect><g transform="translate(392, 308) scale(1.4167)"><path d="M5 11a7 7 0 0 1 14 0v6H5z" stroke="#4a3df5" stroke-width="1.6" stroke-linejoin="round" stroke-linecap="round" fill="none"></path><rect x="10.5" y="13" width="3" height="4" stroke="#4a3df5" stroke-width="1.6" stroke-linejoin="round" stroke-linecap="round" fill="none"></rect><circle cx="12" cy="9" r="0.9" fill="#4a3df5" stroke="none"></circle></g><text x="438" y="321" font-size="14" font-weight="600" fill="#17181c">Caddy</text><text x="438" y="338" font-size="11.5" fill="#6a6f7a">TLS · Let’s Encrypt · reverse proxy</text></g>
<g><rect x="1100.5" y="230.5" width="249" height="77" rx="10" fill="#ffffff" stroke="rgba(85,89,98,0.45)" stroke-width="1"></rect><rect x="1112" y="252" width="34" height="34" rx="6" fill="#eef0f4"></rect><g transform="translate(1112, 252) scale(1.4167)"><rect x="3" y="5" width="18" height="14" rx="1.5" stroke="#555962" stroke-width="1.6" stroke-linejoin="round" stroke-linecap="round" fill="none"></rect><path d="M3 9h18" stroke="#555962" stroke-width="1.6" stroke-linejoin="round" stroke-linecap="round" fill="none"></path><circle cx="5.6" cy="7" r="0.7" fill="#555962" stroke="none"></circle><circle cx="7.6" cy="7" r="0.7" fill="#555962" stroke="none"></circle><circle cx="9.6" cy="7" r="0.7" fill="#555962" stroke="none"></circle><path d="M10 14l3 -2 -3 -2z" fill="#555962" stroke="none"></path></g><text x="1158" y="265" font-size="14" font-weight="600" fill="#17181c">Browser</text><text x="1158" y="282" font-size="11.5" fill="#6a6f7a">video widget on dashboard</text></g>
<g><rect x="1100.5" y="540.5" width="249" height="77" rx="10" fill="#ffffff" stroke="rgba(85,89,98,0.45)" stroke-width="1"></rect><rect x="1112" y="562" width="34" height="34" rx="6" fill="#eef0f4"></rect><g transform="translate(1112, 562) scale(1.4167)"><rect x="4" y="4" width="16" height="5" rx="1" stroke="#555962" stroke-width="1.6" stroke-linejoin="round" stroke-linecap="round" fill="none"></rect><rect x="4" y="10" width="16" height="5" rx="1" stroke="#555962" stroke-width="1.6" stroke-linejoin="round" stroke-linecap="round" fill="none"></rect><rect x="4" y="16" width="16" height="4" rx="1" stroke="#555962" stroke-width="1.6" stroke-linejoin="round" stroke-linecap="round" fill="none"></rect><circle cx="7" cy="6.5" r="0.7" fill="#555962" stroke="none"></circle><circle cx="7" cy="12.5" r="0.7" fill="#555962" stroke="none"></circle><circle cx="7" cy="18" r="0.7" fill="#555962" stroke="none"></circle></g><text x="1158" y="575" font-size="14" font-weight="600" fill="#17181c">ThingsBoard</text><text x="1158" y="592" font-size="11.5" fill="#6a6f7a">serves dashboard + stream URL</text></g>
<g><rect x="380.5" y="410.5" width="319" height="69" rx="10" fill="#ffffff" stroke="#9a7a1f" stroke-opacity="0.6" stroke-dasharray="5 4"></rect><rect x="392" y="422" width="34" height="34" rx="6" fill="#73520d" fill-opacity="0.18"></rect><g transform="translate(392, 422) scale(1.4167)"><rect x="3" y="13" width="18" height="6" rx="1.5" stroke="#73520d" stroke-width="1.6" stroke-linejoin="round" stroke-linecap="round" fill="none"></rect><circle cx="6.5" cy="16" r="0.7" fill="#73520d" stroke="none"></circle><path d="M9 13V8M15 13V8" stroke="#73520d" stroke-width="1.6" stroke-linejoin="round" stroke-linecap="round" fill="none"></path><path d="M7 6l2-2 3 3 3-3 2 2" stroke="#73520d" stroke-width="1.6" stroke-linejoin="round" stroke-linecap="round" fill="none"></path></g><text x="438" y="432" font-size="10.5" font-weight="700" fill="#9a7a1f" letter-spacing="1.2">PORT-FORWARD ON THE ROUTER</text><text x="438" y="452" font-size="12" font-weight="600" fill="#17181c" font-family="ui-monospace,Menlo,Consolas,monospace">TCP 80 / 443</text><text x="534" y="452" font-size="12" fill="#6a6f7a">+</text><text x="546" y="452" font-size="12" font-weight="600" fill="#73520d" font-family="ui-monospace,Menlo,Consolas,monospace">UDP 8189</text><text x="624" y="452" font-size="11.5" fill="#6a6f7a">(WebRTC)</text></g>
<path d="M 300 265 C 340 265, 340 235, 380 235" fill="none" stroke="#8a1f1f" stroke-width="1.75" marker-end="url(#ar-rtsp-l)"></path>
<path d="M 540 270 L 540 290" fill="none" stroke="#555962" stroke-width="1.75" marker-end="url(#ar-tbCtl-l)"></path>
<path d="M 700 215 C 860 215, 940 245, 1100 245" fill="none" stroke="#73520d" stroke-width="1.75" stroke-dasharray="6 4" marker-end="url(#ar-udp-l)"></path>
<path d="M 700 305 C 900 305, 900 269, 1100 269" fill="none" stroke="#00695c" stroke-width="1.75" marker-end="url(#ar-hls-l)"></path>
<path d="M 700 325 C 900 325, 900 293, 1100 293" fill="none" stroke="#3d50f5" stroke-width="1.75" marker-end="url(#ar-whep-l)"></path>
<path d="M 1225 540 C 1225 480, 1225 360, 1225 308" fill="none" stroke="#555962" stroke-width="1.75" stroke-dasharray="6 4" marker-end="url(#ar-tbCtl-l)"></path>
<g transform="translate(340, 250)"><rect x="-22" y="-12" width="44" height="24" rx="6" fill="#ffffff" stroke="#8a1f1f" stroke-width="1"></rect><text x="0" y="4" text-anchor="middle" font-size="11.5" font-weight="600" fill="#8a1f1f" font-family="ui-monospace,Menlo,Consolas,monospace">RTSP</text></g>
<g transform="translate(820, 222)"><rect x="-93.5" y="-12" width="187" height="24" rx="6" fill="#ffffff" stroke="#73520d" stroke-width="1"></rect><text x="0" y="4" text-anchor="middle" font-size="11.5" font-weight="600" fill="#73520d" font-family="ui-monospace,Menlo,Consolas,monospace">UDP media · bypasses Caddy</text></g>
<g transform="translate(960, 287)"><rect x="-44.75" y="-12" width="89.5" height="24" rx="6" fill="#ffffff" stroke="#00695c" stroke-width="1"></rect><text x="0" y="4" text-anchor="middle" font-size="11.5" font-weight="600" fill="#00695c" font-family="ui-monospace,Menlo,Consolas,monospace">HTTPS · HLS</text></g>
<g transform="translate(840, 318)"><rect x="-80.5" y="-12" width="161" height="24" rx="6" fill="#ffffff" stroke="#3d50f5" stroke-width="1"></rect><text x="0" y="4" text-anchor="middle" font-size="11.5" font-weight="600" fill="#3d50f5" font-family="ui-monospace,Menlo,Consolas,monospace">HTTPS · WHEP signaling</text></g>
<g transform="translate(1225, 430)"><rect x="-57.75" y="-12" width="115.5" height="24" rx="6" fill="#ffffff" stroke="#555962" stroke-width="1"></rect><text x="0" y="4" text-anchor="middle" font-size="11.5" font-weight="600" fill="#555962" font-family="ui-monospace,Menlo,Consolas,monospace">dashboard + URL</text></g>
</svg>