<svg xmlns="http://www.w3.org/2000/svg" width="1400" height="419" viewBox="-45 13 885 268">
  <defs>
    <pattern id="dots" x="0" y="0" width="14" height="14" patternUnits="userSpaceOnUse">
      <circle cx="7" cy="7" r="1" fill="#dde0e4"/>
    </pattern>
    <clipPath id="clip0">
      <path fill="#fff" d="M-30 0h891v303H-30z"/>
    </clipPath>
  </defs>
  <g clip-path="url(#clip0)">
    <path fill="#fff" d="M-30 0h891v303H-30z"/>
    <rect x="-30" width="891" height="303" fill="url(#dots)"/>
    <g transform="translate(0,33)">


    <!--
      LAYOUT (exact):
      Canvas: 800×360
      Block: 130×130, gap: 76px
      4×130 + 3×76 = 748, margin = (800-748)/2 = 26

      Block left edges:  B1=6     B2=232   B3=438   B4=644
      Block centers X:   B1=91    B2=297   B3=503   B4=709
      Block Y: top=40, height=130, center=105

      Gap X ranges:  G1=156..232  G2=362..438  G3=568..644
      Gap centers X: G1=194       G2=400       G3=606

      Arrows center_y=105, uplink y=92, downlink y=118
    -->

    <!-- ═══ BLOCK 1: Devices  x=-24..156 ═══ -->
    <rect x="-24" y="79" width="180" height="52" rx="10" fill="#fff" stroke="#6a1b9a" stroke-width="1.5"/>
    <!-- Microchip icon left, text right, centered at y=105 -->
    <g transform="translate(-18.7,84.3) scale(0.69)" fill="#6a1b9a">
      <rect x="14" y="14" width="32" height="32" rx="2" fill="#6a1b9a"/>
      <rect x="19" y="19" width="22" height="22" rx="1" fill="#fff"/>
      <rect x="20" y="8" width="4" height="7" rx="1"/>
      <rect x="28" y="8" width="4" height="7" rx="1"/>
      <rect x="36" y="8" width="4" height="7" rx="1"/>
      <rect x="20" y="45" width="4" height="7" rx="1"/>
      <rect x="28" y="45" width="4" height="7" rx="1"/>
      <rect x="36" y="45" width="4" height="7" rx="1"/>
      <rect x="8" y="20" width="7" height="4" rx="1"/>
      <rect x="8" y="28" width="7" height="4" rx="1"/>
      <rect x="8" y="36" width="7" height="4" rx="1"/>
      <rect x="45" y="20" width="7" height="4" rx="1"/>
      <rect x="45" y="28" width="7" height="4" rx="1"/>
      <rect x="45" y="36" width="7" height="4" rx="1"/>
    </g>
    <text x="86" y="99" text-anchor="middle" font-family="system-ui,sans-serif" font-size="12" fill="#17181c" font-weight="600" dominant-baseline="middle">External Platform /</text>
    <text x="86" y="114" text-anchor="middle" font-family="system-ui,sans-serif" font-size="12" fill="#17181c" font-weight="600" dominant-baseline="middle">Device</text>

    <!-- ═══ ARROW GAP 1: x=156..232, center=194 ═══ -->
    <line x1="156" y1="105" x2="239" y2="105" stroke="#1565c0" stroke-width="1.5"/>
    <polygon points="239,101 247,105 239,109" fill="#1565c0"/>
    <text x="202" y="96" text-anchor="middle" font-family="system-ui,sans-serif" font-size="8" fill="#888d99">CoAP message</text>


    <!-- ═══ ThingsBoard Deployment outer block ═══ -->
    <rect x="231" y="1" width="604" height="200" rx="12" fill="none" stroke="#00695c" stroke-width="0.75" stroke-dasharray="6,4"/>
    <!-- White rect covers only text width + 2px padding on each side -->
    <rect x="256" y="-6" width="178" height="14" fill="#fff"/>
    <text x="345" y="1" text-anchor="middle" font-family="system-ui,sans-serif" font-size="14" fill="#00695c" font-weight="600" dominant-baseline="central" textLength="174" lengthAdjust="spacing">ThingsBoard Deployment</text>

    <!-- ═══ BLOCK 2: CoAP Integration  x=232..362 ═══ -->
    <rect x="247" y="40" width="130" height="130" rx="10" fill="#fff" stroke="#00695c" stroke-width="1.5"/>
    <!-- Remote badge -->
    <text x="312" y="53" text-anchor="middle" font-family="system-ui,sans-serif" font-size="12" fill="#17181c" font-weight="600" dominant-baseline="hanging">CoAP Integration</text>
    <text x="312" y="68" text-anchor="middle" font-family="system-ui,sans-serif" font-size="9" fill="#888d99" dominant-baseline="hanging">UDP Port 5683</text>
    <!-- TCP Integration puzzle icon, same size/position as Data Converter -->
    <g transform="matrix(-0.169870,0,0,-0.166552,357.5201,158.5578)" fill="#00695c">
      <path d="m 465.3,145.05 h -43.5 c -17.7,0 -21.8,-14.7 -12.6,-25.3 15.2,-17.2 7.1,-43 -20.2,-44.5 -27.3,1 -35.4,27.3 -20.2,44 9.1,10.1 5.1,25.3 -12.6,25.3 h -42.5 c -12.6,0 -23.3,10.1 -23.3,23.3 v 55.1 h -1 -78.4 v -21.8 c 0,-2 -2.5,-3 -4.6,-1.5 l -51.1,42 c -1.5,1.5 -1.5,4 0,5.6 l 51.1,42 c 2,1.5 4.6,0 4.6,-2 v -21.8 h 78.2 1 v 55.6 c 0,12.6 10.1,23.3 23.3,23.3 H 356 c 17.7,0 21.8,14.7 12.6,24.8 -15.2,17.2 -7.1,43 20.2,44 27.3,-1 35.4,-27.3 20.2,-44 -9.1,-10.1 -5.1,-24.8 12.6,-24.8 h 43 c 13.2,0 23.8,-10.6 23.8,-23.8 v -43.6 c -0.5,-17.2 -15.2,-21.2 -25.3,-12.1 -17.2,15.2 -43.5,7.1 -44.5,-20.2 1,-27.3 27.3,-35.4 44.5,-20.2 10.1,9.1 24.8,5.1 25.3,-12.1 v -44 c 0.1,-12.7 -10,-23.3 -23.1,-23.3 z"/>
      <path d="m 244.7,145.45 h -43.5 c -17.7,0 -21.8,-15.2 -12.6,-25.3 15.2,-17.2 7.1,-43.5 -20.2,-44.5 -27.3,1 -35.4,26.8 -20.2,44 9.1,10.1 5.1,25.3 -12.6,25.3 H 93.1 c -13.2,0 -23.3,10.6 -23.3,23.3 v 43.5 c 0,17.7 -15.2,21.8 -25.3,12.6 -17.2,-15.2 -43.5,-7.1 -44.5,20.2 1,27.3 27.3,35.4 44,20.2 10.1,-9.1 25.3,-5.1 25.3,12.6 v 43 c 0,13.2 10.6,23.3 23.3,23.3 h 42.5 c 17.7,0 21.8,14.7 12.6,24.8 -15.2,16.7 -7.1,43 20.2,44 27.3,-1 35.4,-26.8 20.2,-44 -9.1,-10.1 -5.1,-24.8 12.6,-24.8 h 43 c 13.2,0 23.8,-10.6 23.8,-23.8 v -32.7 h -34.4 c -0.5,13.7 -11.7,24.8 -25.3,24.8 -6.1,0 -11.6,-2 -16.2,-5.6 l -51.1,-42 c -6.1,-5.1 -9.6,-12.1 -9.6,-20.2 0,-8.1 3.5,-15.2 9.6,-20.2 l 51.6,-42 c 4.6,-3.5 10.1,-5.6 16.2,-5.6 13.7,0 24.8,11.1 25.3,24.8 H 268 v -32.4 c 0,-13.2 -10.6,-23.3 -23.3,-23.3 z"/>
    </g>

    <!-- ═══ ARROW GAP 2: x=362..438, center=400 ═══ -->
    <line x1="377" y1="105" x2="460" y2="105" stroke="#1565c0" stroke-width="1.5"/>
    <polygon points="460,101 468,105 460,109" fill="#1565c0"/>
    <text x="423" y="96" text-anchor="middle" font-family="system-ui,sans-serif" font-size="8" fill="#888d99">uplink payload</text>

    <!-- ═══ BLOCK 3: Data Converter  x=438..568 ═══ -->
    <rect x="468" y="40" width="130" height="130" rx="10" fill="#fff" stroke="#00695c" stroke-width="1.5"/>
    <!-- Uplink / Downlink badges -->
    <text x="533" y="53" text-anchor="middle" font-family="system-ui,sans-serif" font-size="12" fill="#17181c" font-weight="600" dominant-baseline="hanging">Data Converter</text>
    <!-- Data Converter puzzle icon, same matrix offset by +206 on X -->
    <g transform="matrix(0.217828,0,0,0.213574,478.2844,73.1842)" fill="#00695c">
      <path d="m 373.23,68.177 -61.8,-41.6 c -3.4,-2.3 -7.9,0.1 -7.9,4.2 v 22.5 h -153.6 c -10.6,0 -19.1,8.6 -19.1,19.1 v 106.5 c 0,2.3 2.6,3.7 4.5,2.4 l 30,-20.2 c 2.3,-1.5 3.7,-4.1 3.7,-6.9 v -62.7 h 134.4 v 22.5 c 0,4.1 4.5,6.5 7.9,4.2 l 61.8,-41.6 c 3.1,-2 3.1,-6.4 0.1,-8.4 z"/>
      <path d="m 354.13,117.98 -30,20.2 c -2.3,1.5 -3.7,4.1 -3.7,6.9 v 62.6 h -134.5 v -22.5 c 0,-4.1 -4.5,-6.5 -7.9,-4.2 l -61.8,41.6 c -3,2 -3,6.4 0,8.4 l 61.8,41.6 c 3.4,2.3 7.9,-0.1 7.9,-4.2 v -22.5 h 153.5 c 10.6,0.1 19.2,-8.5 19.2,-19.1 v -106.4 c 0,-2.3 -2.6,-3.7 -4.5,-2.4 z"/>
    </g>
    <rect x="509" y="142" width="48" height="15" rx="7.5" fill="#e6f4f1"/>
    <text x="533" y="149" text-anchor="middle" font-family="system-ui,sans-serif" font-size="8" fill="#00695c" font-weight="700" dominant-baseline="central">Uplink</text>

    <!-- ═══ ARROW GAP 3: x=568..644, center=606 ═══ -->
    <line x1="598" y1="105" x2="681" y2="105" stroke="#1565c0" stroke-width="1.5"/>
    <polygon points="681,101 689,105 681,109" fill="#1565c0"/>
    <text x="643" y="86" text-anchor="middle" font-family="system-ui,sans-serif" font-size="8" fill="#888d99">telemetry /</text>
    <text x="643" y="96" text-anchor="middle" font-family="system-ui,sans-serif" font-size="8" fill="#888d99">attribute</text>



    <!-- ═══ BLOCK 4: ThingsBoard  x=644..774  y=40..170 ═══ -->
    <rect x="689" y="25" width="130" height="160" rx="10" fill="#fff" stroke="#00695c" stroke-width="1.5"/>

    <!--
      Logo: 56×56 original, target 20px → scale=0.357
      Left margin = 653.5 - 644 = 9.5px → top margin = 9.5px
      Icon top = 40 + 9.5 = 49.5, icon center y = 49.5 + 10 = 59.5
      tx = 653.5 - 69.29*0.357 = 653.5 - 24.73 = 628.77
      ty = 49.5 - 32*0.357 = 49.5 - 11.42 = 38.08
      Text x = 653.5 + 20 + 5 = 678.5, y = 59.5
    -->
    <text x="754" y="38" text-anchor="middle" font-family="system-ui,sans-serif" font-size="12" fill="#17181c" font-weight="600" dominant-baseline="hanging">ThingsBoard</text>
    <text x="754" y="54" text-anchor="middle" font-family="system-ui,sans-serif" font-size="12" fill="#17181c" font-weight="600" dominant-baseline="hanging">Core Service</text>

    <g transform="translate(0,25)">
    <!-- Inner block 1: Storage (was Dashboards) -->
    <rect x="701" y="58" width="106" height="26" rx="5" fill="#f0f1f3" stroke="#c1c3c8" stroke-width=".8"/>
    <!-- Database/cylinder icon -->
    <g fill="#00695c" transform="translate(45,1.5)">
      <ellipse cx="669" cy="65" rx="7" ry="2.5" fill="#00695c"/>
      <rect x="662" y="65" width="14" height="9" fill="#00695c"/>
      <ellipse cx="669" cy="74" rx="7" ry="2.5" fill="#00695c"/>
      <ellipse cx="669" cy="65" rx="7" ry="2.5" fill="#e6f4f1" opacity=".5"/>
    </g>
    <text x="744" y="71" text-anchor="start" font-family="system-ui,sans-serif" font-size="8.5" fill="#37474f" font-weight="600" dominant-baseline="central">Storage</text>

    <!-- Inner block: Dashboards (was Storage) -->
    <rect x="701" y="90" width="106" height="26" rx="5" fill="#f0f1f3" stroke="#c1c3c8" stroke-width=".8"/>
    <g fill="#00695c" transform="translate(47.5,2.5)">
      <rect x="661" y="99" width="2.5" height="7" rx=".5"/>
      <rect x="665" y="95" width="2.5" height="11" rx=".5"/>
      <rect x="669" y="97" width="2.5" height="9" rx=".5"/>
      <path d="M674,104 a6,6 0 0,1 12,0" fill="none" stroke="#00695c" stroke-width="1.3"/>
      <line x1="680" y1="104" x2="677" y2="99" stroke="#00695c" stroke-width="1" stroke-linecap="round"/>
      <circle cx="680" cy="104" r="1" fill="#00695c"/>
    </g>
    <text x="744" y="103" text-anchor="start" font-family="system-ui,sans-serif" font-size="8.5" fill="#37474f" font-weight="600" dominant-baseline="central">Dashboards</text>
    <rect x="701" y="122" width="106" height="26" rx="5" fill="#f0f1f3" stroke="#c1c3c8" stroke-width=".8"/>
    <!-- Icon left side -->
    <g fill="#00695c" transform="translate(49,0)">
      <circle cx="665" cy="135" r="4" fill="none" stroke="#00695c" stroke-width="1.3"/>
      <circle cx="665" cy="135" r="1.5" fill="#00695c"/>
      <rect x="664" y="129.5" width="2" height="2" rx=".4"/>
      <rect x="664" y="138.5" width="2" height="2" rx=".4"/>
      <rect x="659" y="134" width="2" height="2" rx=".4"/>
      <rect x="669" y="134" width="2" height="2" rx=".4"/>
      <circle cx="672" cy="129" r="2.5" fill="none" stroke="#00695c" stroke-width="1"/>
      <circle cx="672" cy="129" r="1" fill="#00695c"/>
      <line x1="678" y1="128" x2="678" y2="142" stroke="#00695c" stroke-width="1.2"/>
      <polygon points="683,128 681,134 683.5,134 681,141 687,133 684.5,133 687,128" fill="#00695c"/>
    </g>
    <text x="744" y="135" text-anchor="start" font-family="system-ui,sans-serif" font-size="8.5" fill="#37474f" font-weight="600" dominant-baseline="central">Rule Engine</text>
    </g>

    <!-- ═══ LEGEND ═══ -->
    <line x1="-28" y1="226" x2="10" y2="226" stroke="#1565c0" stroke-width="1.5"/>
    <polygon points="2,222 10,226 2,230" fill="#1565c0"/>
    <text x="24" y="230" font-family="system-ui,sans-serif" font-size="11" fill="#555962">Uplink — device data to ThingsBoard</text>

    </g>
  </g>
</svg>