<svg viewBox="0 0 1400 346" width="1400" xmlns="http://www.w3.org/2000/svg">
  <defs>
    <pattern id="dots" x="0" y="0" width="14" height="14" patternUnits="userSpaceOnUse">
      <circle cx="7" cy="7" r="1" fill="#dde0e4"/>
    </pattern>
    <clipPath id="clip0">
      <path fill="#fff" d="M0 0h1400v346H0z"/>
    </clipPath>
    <marker id="arrow" viewBox="0 0 10 10" refX="8" refY="5" markerWidth="6" markerHeight="6" orient="auto-start-reverse">
      <path d="M2 1L8 5L2 9" fill="none" stroke="context-stroke" stroke-width="1.5" stroke-linecap="round" stroke-linejoin="round"/>
    </marker>
  </defs>
  
  <g clip-path="url(#clip0)" transform="scale(1.4614612)">
    <path fill="#fff" d="M0 0h958v237H0z"/>
    <rect width="958" height="237" fill="url(#dots)"/>
    
    <g transform="translate(0,33)">
      
      <!-- ThingsBoard Deployment dashed box -->
      <rect x="390" y="-11" width="562" height="192" rx="12" fill="none" stroke="#00695c" stroke-width="0.75" stroke-dasharray="6,4"/>
      <rect x="410" y="-18" width="178" height="14" fill="#fff"/>
      <text x="501" y="-11" text-anchor="middle" font-family="system-ui,sans-serif" font-size="14" fill="#00695c" font-weight="600" dominant-baseline="central">ThingsBoard Deployment</text>
      
      <!-- Block 1: IoT Device -->
      <rect x="6" y="59" width="150" height="52" rx="10" fill="#fff" stroke="#6a1b9a" stroke-width="1.5"/>
      <g transform="translate(13.3,64.3) scale(0.69)" fill="#6a1b9a">
        <rect x="14" y="14" width="32" height="32" rx="2" fill="#6a1b9a"/>
        <rect x="19" y="19" width="22" height="22" rx="1" fill="#fff"/>
        <rect x="20" y="8" width="4" height="7" rx="1"/>
        <rect x="28" y="8" width="4" height="7" rx="1"/>
        <rect x="36" y="8" width="4" height="7" rx="1"/>
        <rect x="20" y="45" width="4" height="7" rx="1"/>
        <rect x="28" y="45" width="4" height="7" rx="1"/>
        <rect x="36" y="45" width="4" height="7" rx="1"/>
        <rect x="8" y="20" width="7" height="4" rx="1"/>
        <rect x="8" y="28" width="7" height="4" rx="1"/>
        <rect x="8" y="36" width="7" height="4" rx="1"/>
        <rect x="45" y="20" width="7" height="4" rx="1"/>
        <rect x="45" y="28" width="7" height="4" rx="1"/>
        <rect x="45" y="36" width="7" height="4" rx="1"/>
      </g>
      <text x="93" y="85" text-anchor="middle" font-family="system-ui,sans-serif" font-size="10" fill="#17181c" font-weight="600" dominant-baseline="middle">IoT Device</text>
      
      <!-- Block 2: KPN Things Platform -->
      <rect x="226" y="30" width="110" height="110" rx="10" fill="#fff" stroke="#00695c" stroke-width="1.5"/>
      <text x="281" y="43" text-anchor="middle" font-size="10" fill="#17181c" font-weight="600" dominant-baseline="hanging">KPN Things</text>
      <text x="281" y="57" text-anchor="middle" font-size="10" fill="#17181c" font-weight="600" dominant-baseline="hanging">Platform</text>
      <g fill="none" stroke="#00695c" stroke-width="1.3" stroke-linecap="round">
        <rect x="254" y="80" width="54" height="12" rx="3" fill="#f0f1f3" stroke="#00695c"/>
        <circle cx="262" cy="86" r="2.5" fill="#00695c" stroke="none"/>
        <line x1="268" y1="84" x2="300" y2="84" stroke="#c1c3c8" stroke-width="1"/>
        <line x1="268" y1="88" x2="292" y2="88" stroke="#c1c3c8" stroke-width="1"/>
        <rect x="254" y="96" width="54" height="12" rx="3" fill="#f0f1f3" stroke="#00695c"/>
        <circle cx="262" cy="102" r="2.5" fill="#00695c" stroke="none"/>
        <line x1="268" y1="100" x2="300" y2="100" stroke="#c1c3c8" stroke-width="1"/>
        <line x1="268" y1="104" x2="292" y2="104" stroke="#c1c3c8" stroke-width="1"/>
        <rect x="254" y="112" width="54" height="12" rx="3" fill="#f0f1f3" stroke="#00695c"/>
        <circle cx="262" cy="118" r="2.5" fill="#c1c3c8" stroke="none"/>
        <line x1="268" y1="116" x2="300" y2="116" stroke="#c1c3c8" stroke-width="1"/>
        <line x1="268" y1="120" x2="292" y2="120" stroke="#c1c3c8" stroke-width="1"/>
      </g>
      
      <!-- Block 3: KPN Things Integration -->
      <rect x="406" y="20" width="130" height="130" rx="10" fill="#fff" stroke="#00695c" stroke-width="1.5"/>
      <text x="471" y="33" text-anchor="middle" font-size="12" fill="#17181c" font-weight="600" dominant-baseline="hanging">KPN Things</text>
      <text x="471" y="49" text-anchor="middle" font-size="12" fill="#17181c" font-weight="600" dominant-baseline="hanging">Integration</text>
      <g transform="matrix(-0.169870,0,0,-0.166552,516.5201,141.5578)" fill="#00695c">
        <path d="m 465.3,145.05 h -43.5 c -17.7,0 -21.8,-14.7 -12.6,-25.3 15.2,-17.2 7.1,-43 -20.2,-44.5 -27.3,1 -35.4,27.3 -20.2,44 9.1,10.1 5.1,25.3 -12.6,25.3 h -42.5 c -12.6,0 -23.3,10.1 -23.3,23.3 v 55.1 h -1 -78.4 v -21.8 c 0,-2 -2.5,-3 -4.6,-1.5 l -51.1,42 c -1.5,1.5 -1.5,4 0,5.6 l 51.1,42 c 2,1.5 4.6,0 4.6,-2 v -21.8 h 78.2 1 v 55.6 c 0,12.6 10.1,23.3 23.3,23.3 H 356 c 17.7,0 21.8,14.7 12.6,24.8 -15.2,17.2 -7.1,43 20.2,44 27.3,-1 35.4,-27.3 20.2,-44 -9.1,-10.1 -5.1,-24.8 12.6,-24.8 h 43 c 13.2,0 23.8,-10.6 23.8,-23.8 v -43.6 c -0.5,-17.2 -15.2,-21.2 -25.3,-12.1 -17.2,15.2 -43.5,7.1 -44.5,-20.2 1,-27.3 27.3,-35.4 44.5,-20.2 10.1,9.1 24.8,5.1 25.3,-12.1 v -44 c 0.1,-12.7 -10,-23.3 -23.1,-23.3 z"/>
        <path d="m 244.7,145.45 h -43.5 c -17.7,0 -21.8,-15.2 -12.6,-25.3 15.2,-17.2 7.1,-43.5 -20.2,-44.5 -27.3,1 -35.4,26.8 -20.2,44 9.1,10.1 5.1,25.3 -12.6,25.3 H 93.1 c -13.2,0 -23.3,10.6 -23.3,23.3 v 43.5 c 0,17.7 -15.2,21.8 -25.3,12.6 -17.2,-15.2 -43.5,-7.1 -44.5,20.2 1,27.3 27.3,35.4 44,20.2 10.1,-9.1 25.3,-5.1 25.3,12.6 v 43 c 0,13.2 10.6,23.3 23.3,23.3 h 42.5 c 17.7,0 21.8,14.7 12.6,24.8 -15.2,16.7 -7.1,43 20.2,44 27.3,-1 35.4,-26.8 20.2,-44 -9.1,-10.1 -5.1,-24.8 12.6,-24.8 h 43 c 13.2,0 23.8,-10.6 23.8,-23.8 v -32.7 h -34.4 c -0.5,13.7 -11.7,24.8 -25.3,24.8 -6.1,0 -11.6,-2 -16.2,-5.6 l -51.1,-42 c -6.1,-5.1 -9.6,-12.1 -9.6,-20.2 0,-8.1 3.5,-15.2 9.6,-20.2 l 51.6,-42 c 4.6,-3.5 10.1,-5.6 16.2,-5.6 13.7,0 24.8,11.1 25.3,24.8 H 268 v -32.4 c 0,-13.2 -10.6,-23.3 -23.3,-23.3 z"/>
      </g>
      
      <!-- Block 4: Data Converters -->
      <rect x="606" y="20" width="130" height="130" rx="10" fill="#fff" stroke="#00695c" stroke-width="1.5"/>
      <text x="671" y="33" text-anchor="middle" font-size="12" fill="#17181c" font-weight="600" dominant-baseline="hanging">Data Converters</text>
      <g transform="matrix(0.217828,0,0,0.213574,616.2844,53.1842)" fill="#00695c">
        <path d="m 373.23,68.177 -61.8,-41.6 c -3.4,-2.3 -7.9,0.1 -7.9,4.2 v 22.5 h -153.6 c -10.6,0 -19.1,8.6 -19.1,19.1 v 106.5 c 0,2.3 2.6,3.7 4.5,2.4 l 30,-20.2 c 2.3,-1.5 3.7,-4.1 3.7,-6.9 v -62.7 h 134.4 v 22.5 c 0,4.1 4.5,6.5 7.9,4.2 l 61.8,-41.6 c 3.1,-2 3.1,-6.4 0.1,-8.4 z"/>
        <path d="m 354.13,117.98 -30,20.2 c -2.3,1.5 -3.7,4.1 -3.7,6.9 v 62.6 h -134.5 v -22.5 c 0,-4.1 -4.5,-6.5 -7.9,-4.2 l -61.8,41.6 c -3,2 -3,6.4 0,8.4 l 61.8,41.6 c 3.4,2.3 7.9,-0.1 7.9,-4.2 v -22.5 h 153.5 c 10.6,0.1 19.2,-8.5 19.2,-19.1 v -106.4 c 0,-2.3 -2.6,-3.7 -4.5,-2.4 z"/>
      </g>
      <!-- Uplink badge -->
      <rect x="615" y="122" width="48" height="15" rx="7.5" fill="#e6f4f1"/>
      <text x="639" y="129" text-anchor="middle" font-size="8" fill="#00695c" font-weight="700" dominant-baseline="central">Uplink</text>
      <!-- Downlink badge -->
      <rect x="670" y="122" width="58" height="15" rx="7.5" fill="#fde8ef"/>
      <text x="699" y="129" text-anchor="middle" font-size="8" fill="#8a0f3a" font-weight="700" dominant-baseline="central">Downlink</text>
      
      <!-- Block 5: ThingsBoard Core Service -->
      <rect x="806" y="5" width="130" height="160" rx="10" fill="#fff" stroke="#00695c" stroke-width="1.5"/>
      <text x="871" y="18" text-anchor="middle" font-size="12" fill="#17181c" font-weight="600" dominant-baseline="hanging">ThingsBoard</text>
      <text x="871" y="32" text-anchor="middle" font-size="12" fill="#17181c" font-weight="600" dominant-baseline="hanging">Core Service</text>
      
      <!-- Inner blocks of Block 5 -->
      <g transform="translate(117,5)">
        <!-- Storage -->
        <rect x="701" y="58" width="106" height="26" rx="5" fill="#f0f1f3" stroke="#c1c3c8" stroke-width=".8"/>
        <g fill="#00695c" transform="translate(45,1.5)">
          <ellipse cx="669" cy="65" rx="7" ry="2.5" fill="#00695c"/>
          <rect x="662" y="65" width="14" height="9" fill="#00695c"/>
          <ellipse cx="669" cy="74" rx="7" ry="2.5" fill="#00695c"/>
          <ellipse cx="669" cy="65" rx="7" ry="2.5" fill="#e6f4f1" opacity=".5"/>
        </g>
        <text x="744" y="71" text-anchor="start" font-size="8.5" fill="#37474f" font-weight="600" dominant-baseline="central">Storage</text>
        
        <!-- Dashboards -->
        <rect x="701" y="90" width="106" height="26" rx="5" fill="#f0f1f3" stroke="#c1c3c8" stroke-width=".8"/>
        <g fill="#00695c" transform="translate(47.5,2.5)">
          <rect x="661" y="99" width="2.5" height="7" rx=".5"/>
          <rect x="665" y="95" width="2.5" height="11" rx=".5"/>
          <rect x="669" y="97" width="2.5" height="9" rx=".5"/>
          <path d="M674,104 a6,6 0 0,1 12,0" fill="none" stroke="#00695c" stroke-width="1.3"/>
          <line x1="680" y1="104" x2="677" y2="99" stroke="#00695c" stroke-width="1" stroke-linecap="round"/>
          <circle cx="680" cy="104" r="1" fill="#00695c"/>
        </g>
        <text x="744" y="103" text-anchor="start" font-size="8.5" fill="#37474f" font-weight="600" dominant-baseline="central">Dashboards</text>
        
        <!-- Rule Engine -->
        <rect x="701" y="122" width="106" height="26" rx="5" fill="#f0f1f3" stroke="#c1c3c8" stroke-width=".8"/>
        <g fill="#00695c" transform="translate(49,0)">
          <circle cx="665" cy="135" r="4" fill="none" stroke="#00695c" stroke-width="1.3"/>
          <circle cx="665" cy="135" r="1.5" fill="#00695c"/>
          <rect x="664" y="129.5" width="2" height="2" rx=".4"/>
          <rect x="664" y="138.5" width="2" height="2" rx=".4"/>
          <rect x="659" y="134" width="2" height="2" rx=".4"/>
          <rect x="669" y="134" width="2" height="2" rx=".4"/>
          <circle cx="672" cy="129" r="2.5" fill="none" stroke="#00695c" stroke-width="1"/>
          <circle cx="672" cy="129" r="1" fill="#00695c"/>
          <line x1="678" y1="128" x2="678" y2="142" stroke="#00695c" stroke-width="1.2"/>
          <polygon points="683,128 681,134 683.5,134 681,141 687,133 684.5,133 687,128" fill="#00695c"/>
        </g>
        <text x="744" y="135" text-anchor="start" font-size="8.5" fill="#37474f" font-weight="600" dominant-baseline="central">Rule Engine</text>
      </g>
      
      <!-- UPLINK ARROWS (blue, y=78) -->
      <!-- G1 -->
      <line x1="156" y1="78" x2="218" y2="78" stroke="#1565c0" stroke-width="1.5"/>
      <polygon points="218,74 226,78 218,82" fill="#1565c0"/>
      
      <!-- G2 -->
      <line x1="336" y1="78" x2="398" y2="78" stroke="#1565c0" stroke-width="1.5"/>
      <polygon points="398,74 406,78 398,82" fill="#1565c0"/>
      
      <!-- G3 -->
      <line x1="536" y1="78" x2="598" y2="78" stroke="#1565c0" stroke-width="1.5"/>
      <polygon points="598,74 606,78 598,82" fill="#1565c0"/>
      
      <!-- G4 -->
      <line x1="736" y1="78" x2="798" y2="78" stroke="#1565c0" stroke-width="1.5"/>
      <polygon points="798,74 806,78 798,82" fill="#1565c0"/>
      
      <!-- DOWNLINK ARROWS (pink, dashed, y=92) -->
      <!-- G1 -->
      <line x1="226" y1="92" x2="164" y2="92" stroke="#f53d7d" stroke-width="1.5" stroke-dasharray="4,3"/>
      <polygon points="164,88 156,92 164,96" fill="#f53d7d"/>
      
      <!-- G2 -->
      <line x1="406" y1="92" x2="344" y2="92" stroke="#f53d7d" stroke-width="1.5" stroke-dasharray="4,3"/>
      <polygon points="344,88 336,92 344,96" fill="#f53d7d"/>
      
      <!-- G3 -->
      <line x1="606" y1="92" x2="544" y2="92" stroke="#f53d7d" stroke-width="1.5" stroke-dasharray="4,3"/>
      <polygon points="544,88 536,92 544,96" fill="#f53d7d"/>
      
      <!-- G4 -->
      <line x1="806" y1="92" x2="744" y2="92" stroke="#f53d7d" stroke-width="1.5" stroke-dasharray="4,3"/>
      <polygon points="744,88 736,92 744,96" fill="#f53d7d"/>
      
      <!-- UPLINK LABELS (above arrows, y=52, y=61) -->
      <!-- G1 uplink label -->
      <text x="191" y="52" text-anchor="middle" font-size="8.5" fill="#888d99" dominant-baseline="hanging">device</text>
      <text x="191" y="61" text-anchor="middle" font-size="8.5" fill="#888d99" dominant-baseline="hanging">uplink</text>
      
      <!-- G2 uplink labels -->
      <text x="371" y="52" text-anchor="middle" font-size="8.5" fill="#888d99" dominant-baseline="hanging">HTTP uplink</text>
      <text x="371" y="61" text-anchor="middle" font-size="8.5" fill="#888d99" dominant-baseline="hanging">event</text>
      
      <!-- G3 uplink labels -->
      <text x="571" y="61" text-anchor="middle" font-size="8.5" fill="#888d99" dominant-baseline="hanging">uplink payload</text>
      
      <!-- G4 uplink labels -->
      <text x="771" y="52" text-anchor="middle" font-size="8.5" fill="#888d99" dominant-baseline="hanging">telemetry /</text>
      <text x="771" y="61" text-anchor="middle" font-size="8.5" fill="#888d99" dominant-baseline="hanging">attribute</text>
      
      <!-- DOWNLINK LABELS (below arrows, y=100, y=109) -->
      <!-- G1 downlink label -->
      <text x="191" y="100" text-anchor="middle" font-size="8.5" fill="#888d99" dominant-baseline="hanging">device</text>
      <text x="191" y="109" text-anchor="middle" font-size="8.5" fill="#888d99" dominant-baseline="hanging">downlink</text>
      
      <!-- G2 downlink label -->
      <text x="371" y="100" text-anchor="middle" font-size="8.5" fill="#888d99" dominant-baseline="hanging">API call</text>
      
      <!-- G3 downlink label -->
      <text x="571" y="100" text-anchor="middle" font-size="8.5" fill="#888d99" dominant-baseline="hanging">encoded payload</text>
      
      <!-- G4 downlink label -->
      <text x="771" y="100" text-anchor="middle" font-size="8.5" fill="#888d99" dominant-baseline="hanging">RPC / attribute</text>
    </g>
    
    <!-- LEGEND -->
    <line x1="26" y1="200" x2="64" y2="200" stroke="#1565c0" stroke-width="1.5"/>
    <polygon points="56,196 64,200 56,204" fill="#1565c0"/>
    <text x="78" y="204" font-size="11" fill="#555962">Uplink — device data to ThingsBoard</text>
    
    <line x1="26" y1="222" x2="64" y2="222" stroke="#f53d7d" stroke-width="1.5" stroke-dasharray="4,3"/>
    <polygon points="34,218 26,222 34,226" fill="#f53d7d"/>
    <text x="78" y="226" font-size="11" fill="#555962">Downlink — commands to device</text>
  </g>
</svg>