<svg xmlns="http://www.w3.org/2000/svg" width="1200" height="303.7" viewBox="0 0 810 205" fill="none">
<defs><pattern id="dots" width="14" height="14" patternUnits="userSpaceOnUse"><circle cx="3" cy="3" r="1" fill="#c1c3c8" opacity="0.5"/></pattern><marker id="arrB" markerUnits="userSpaceOnUse" markerWidth="9" markerHeight="9" refX="6" refY="4" orient="auto"><path d="M0 0L6 4L0 8z" fill="#3d50f5"/></marker><marker id="arrT" markerUnits="userSpaceOnUse" markerWidth="9" markerHeight="9" refX="6" refY="4" orient="auto"><path d="M0 0L6 4L0 8z" fill="#00695c"/></marker></defs>
<rect width="810" height="205" fill="#fff"/><rect width="810" height="205" fill="url(#dots)"/>
<path d="M159 102.5 H185 M185 47.5 V157.5" stroke="#3d50f5" stroke-width="1.5" fill="none"/>
<path d="M185 47.5 H302" stroke="#3d50f5" stroke-width="1.5" fill="none" marker-end="url(#arrB)"/>
<path d="M185 157.5 H302" stroke="#3d50f5" stroke-width="1.5" fill="none" marker-end="url(#arrB)"/>
<path d="M444 47.5 H562" stroke="#00695c" stroke-width="1.5" fill="none" marker-end="url(#arrT)"/>
<path d="M444 157.5 H562" stroke="#00695c" stroke-width="1.5" fill="none" marker-end="url(#arrT)"/>
<rect x="217.0" y="38.5" width="56" height="18" fill="#fff"/><text x="245.0" y="51.5" text-anchor="middle" font-family="Inter, system-ui, -apple-system, 'Segoe UI', Roboto, Arial, sans-serif" font-size="12.5" font-weight="500" fill="#23262f">Contains</text>
<rect x="217.0" y="148.5" width="56" height="18" fill="#fff"/><text x="245.0" y="161.5" text-anchor="middle" font-family="Inter, system-ui, -apple-system, 'Segoe UI', Roboto, Arial, sans-serif" font-size="12.5" font-weight="500" fill="#23262f">Contains</text>
<rect x="476.5" y="38.5" width="56" height="18" fill="#fff"/><text x="504.5" y="51.5" text-anchor="middle" font-family="Inter, system-ui, -apple-system, 'Segoe UI', Roboto, Arial, sans-serif" font-size="12.5" font-weight="500" fill="#23262f">Contains</text>
<rect x="476.5" y="148.5" width="56" height="18" fill="#fff"/><text x="504.5" y="161.5" text-anchor="middle" font-family="Inter, system-ui, -apple-system, 'Segoe UI', Roboto, Arial, sans-serif" font-size="12.5" font-weight="500" fill="#23262f">Contains</text>
<rect x="20" y="75.0" width="139" height="55" rx="9.5" fill="#cfd4fc" stroke="#3d50f5"/>
<rect x="31.5" y="87.5" width="30" height="30" rx="4" fill="#3d50f5"/><g transform="translate(5.5 60.5)"><path fill="#fff" d="M46.5 35.6a1 1 0 0 0-1-1h-9a1 1 0 0 0-1 1v13.7h11zm-7.3 9.1a1 1 0 1 1 0 1.9h-1a1 1 0 0 1 0-1.9zm4.6 0a1 1 0 0 1 0 1.9h-1a1 1 0 0 1 0-1.9zm-4.6-3.6a1 1 0 1 1 0 1.8h-1a1 1 0 1 1 0-1.8zm4.6 0a1 1 0 0 1 0 1.8h-1a1 1 0 1 1 0-1.8zm-4.6-3.7a1 1 0 1 1 0 1.9h-1a1 1 0 1 1 0-1.9zm4.6 0a1 1 0 0 1 0 1.9h-1a1 1 0 1 1 0-1.9zm4.5 12h1a1 1 0 0 1 0 1.8H32.8a1 1 0 1 1 0-1.9h.9V35.6a3 3 0 0 1 2.7-2.8h9.2a3 3 0 0 1 2.7 2.8z"/></g>
<text x="69" y="98.5" font-family="Inter, system-ui, -apple-system, 'Segoe UI', Roboto, Arial, sans-serif" font-size="12.5" font-weight="500" fill="#5b5f6b">Asset:</text><text x="69" y="116.0" font-family="Inter, system-ui, -apple-system, 'Segoe UI', Roboto, Arial, sans-serif" font-size="14" font-weight="600" fill="#17181c">Building A</text>
<rect x="305" y="20" width="139" height="55" rx="9.5" fill="#fff" stroke="#00695c"/>
<rect x="316.5" y="32.5" width="30" height="30" rx="4" fill="#d6e7e5"/><g transform="translate(26.5 -90.5)"><path fill="#00695c" d="M309.6 131.6a1 1 0 0 0-1-1h-7.3a1 1 0 0 0-.9 1v13.7h9.2zm-3.7 6.4a1 1 0 0 1 1.9 0 1 1 0 0 1-1.9 0m5.5 7.3h1.9a1 1 0 0 1 0 1.9h-16.5a1 1 0 1 1 0-1.9h1.8v-13.7a3 3 0 0 1 2.7-2.8h7.4a3 3 0 0 1 2.7 2.8z"/></g>
<text x="354" y="43.5" font-family="Inter, system-ui, -apple-system, 'Segoe UI', Roboto, Arial, sans-serif" font-size="12.5" font-weight="500" fill="#5b5f6b">Asset:</text><text x="354" y="61" font-family="Inter, system-ui, -apple-system, 'Segoe UI', Roboto, Arial, sans-serif" font-size="14" font-weight="600" fill="#17181c">Room 101</text>
<rect x="305" y="130" width="139" height="55" rx="9.5" fill="#fff" stroke="#00695c"/>
<rect x="316.5" y="142.5" width="30" height="30" rx="4" fill="#d6e7e5"/><g transform="translate(26.5 19.5)"><path fill="#00695c" d="M309.6 131.6a1 1 0 0 0-1-1h-7.3a1 1 0 0 0-.9 1v13.7h9.2zm-3.7 6.4a1 1 0 0 1 1.9 0 1 1 0 0 1-1.9 0m5.5 7.3h1.9a1 1 0 0 1 0 1.9h-16.5a1 1 0 1 1 0-1.9h1.8v-13.7a3 3 0 0 1 2.7-2.8h7.4a3 3 0 0 1 2.7 2.8z"/></g>
<text x="354" y="153.5" font-family="Inter, system-ui, -apple-system, 'Segoe UI', Roboto, Arial, sans-serif" font-size="12.5" font-weight="500" fill="#5b5f6b">Asset:</text><text x="354" y="171" font-family="Inter, system-ui, -apple-system, 'Segoe UI', Roboto, Arial, sans-serif" font-size="14" font-weight="600" fill="#17181c">Room 102</text>
<rect x="565" y="20" width="225" height="55" rx="9.5" fill="#fff" stroke="#f5bb3d"/>
<rect x="576.5" y="32.5" width="30" height="30" rx="4" fill="#fceac5"/><g transform="translate(36.5 -186.5)"><path fill="#73520d" d="M561.4 231.3q0 .8-.9.9h-1.8a1 1 0 0 1-1-1h-.9v9.2h5.5v-9.2zm-13.7-3.7v11h7.3v-7.3a2 2 0 0 1 1.8-1.9h2.8v-1.8zm13.7 1.8h1a2 2 0 0 1 1.8 1.8v9.2a2 2 0 0 1-1.9 1.8h-5.5a2 2 0 0 1-1.8-1.8h-7.3a2 2 0 0 1-1.9-1.8v-11a2 2 0 0 1 1.9-1.8h11.9a2 2 0 0 1 1.8 1.8z"/></g>
<text x="614" y="43.5" font-family="Inter, system-ui, -apple-system, 'Segoe UI', Roboto, Arial, sans-serif" font-size="12.5" font-weight="500" fill="#5b5f6b">Device:</text><text x="614" y="61" font-family="Inter, system-ui, -apple-system, 'Segoe UI', Roboto, Arial, sans-serif" font-size="13.5" font-weight="600" fill="#17181c">Temperature Sensor 1</text>
<rect x="565" y="130" width="225" height="55" rx="9.5" fill="#fff" stroke="#f5bb3d"/>
<rect x="576.5" y="142.5" width="30" height="30" rx="4" fill="#fceac5"/><g transform="translate(36.5 -76.5)"><path fill="#73520d" d="M561.4 231.3q0 .8-.9.9h-1.8a1 1 0 0 1-1-1h-.9v9.2h5.5v-9.2zm-13.7-3.7v11h7.3v-7.3a2 2 0 0 1 1.8-1.9h2.8v-1.8zm13.7 1.8h1a2 2 0 0 1 1.8 1.8v9.2a2 2 0 0 1-1.9 1.8h-5.5a2 2 0 0 1-1.8-1.8h-7.3a2 2 0 0 1-1.9-1.8v-11a2 2 0 0 1 1.9-1.8h11.9a2 2 0 0 1 1.8 1.8z"/></g>
<text x="614" y="153.5" font-family="Inter, system-ui, -apple-system, 'Segoe UI', Roboto, Arial, sans-serif" font-size="12.5" font-weight="500" fill="#5b5f6b">Device:</text><text x="614" y="171" font-family="Inter, system-ui, -apple-system, 'Segoe UI', Roboto, Arial, sans-serif" font-size="13.5" font-weight="600" fill="#17181c">Temperature Sensor 2</text>
</svg>