<svg xmlns="http://www.w3.org/2000/svg" width="720" height="90" fill="none"><g clip-path="url(#a)"><path fill="#fff" d="M0 0h720v90H0z"/><g fill="#c1c3c8" clip-path="url(#b)" opacity=".5"><circle cx="3" cy="20" r="1"/><circle cx="87" cy="20" r="1"/><circle cx="73" cy="20" r="1"/><circle cx="17" cy="20" r="1"/><circle cx="101" cy="20" r="1"/><circle cx="3" cy="6" r="1"/><circle cx="87" cy="6" r="1"/><circle cx="73" cy="6" r="1"/><circle cx="17" cy="6" r="1"/><circle cx="101" cy="6" r="1"/><circle cx="3" cy="34" r="1"/><circle cx="87" cy="34" r="1"/><circle cx="73" cy="34" r="1"/><circle cx="17" cy="34" r="1"/><circle cx="101" cy="34" r="1"/><circle cx="45" cy="20" r="1"/><circle cx="129" cy="20" r="1"/><circle cx="31" cy="20" r="1"/><circle cx="115" cy="20" r="1"/><circle cx="59" cy="20" r="1"/><circle cx="143" cy="20" r="1"/><circle cx="45" cy="6" r="1"/><circle cx="129" cy="6" r="1"/><circle cx="31" cy="6" r="1"/><circle cx="115" cy="6" r="1"/><circle cx="59" cy="6" r="1"/><circle cx="143" cy="6" r="1"/><circle cx="45" cy="34" r="1"/><circle cx="129" cy="34" r="1"/><circle cx="31" cy="34" r="1"/><circle cx="115" cy="34" r="1"/><circle cx="59" cy="34" r="1"/><circle cx="143" cy="34" r="1"/><circle cx="3" cy="62" r="1"/><circle cx="87" cy="62" r="1"/><circle cx="73" cy="62" r="1"/><circle cx="17" cy="62" r="1"/><circle cx="101" cy="62" r="1"/><circle cx="3" cy="48" r="1"/><circle cx="87" cy="48" r="1"/><circle cx="3" cy="90" r="1"/><circle cx="87" cy="90" r="1"/><circle cx="73" cy="48" r="1"/><circle cx="73" cy="90" r="1"/><circle cx="17" cy="48" r="1"/><circle cx="101" cy="48" r="1"/><circle cx="17" cy="90" r="1"/><circle cx="101" cy="90" r="1"/><circle cx="3" cy="76" r="1"/><circle cx="87" cy="76" r="1"/><circle cx="73" cy="76" r="1"/><circle cx="17" cy="76" r="1"/><circle cx="101" cy="76" r="1"/><circle cx="45" cy="62" r="1"/><circle cx="129" cy="62" r="1"/><circle cx="31" cy="62" r="1"/><circle cx="115" cy="62" r="1"/><circle cx="59" cy="62" r="1"/><circle cx="143" cy="62" r="1"/><circle cx="45" cy="48" r="1"/><circle cx="129" cy="48" r="1"/><circle cx="45" cy="90" r="1"/><circle cx="129" cy="90" r="1"/><circle cx="31" cy="48" r="1"/><circle cx="115" cy="48" r="1"/><circle cx="31" cy="90" r="1"/><circle cx="115" cy="90" r="1"/><circle cx="59" cy="48" r="1"/><circle cx="143" cy="48" r="1"/><circle cx="59" cy="90" r="1"/><circle cx="143" cy="90" r="1"/><circle cx="45" cy="76" r="1"/><circle cx="129" cy="76" r="1"/><circle cx="31" cy="76" r="1"/><circle cx="115" cy="76" r="1"/><circle cx="59" cy="76" r="1"/><circle cx="143" cy="76" r="1"/><circle cx="171" cy="20" r="1"/><circle cx="255" cy="20" r="1"/><circle cx="157" cy="20" r="1"/><circle cx="241" cy="20" r="1"/><circle cx="185" cy="20" r="1"/><circle cx="269" cy="20" r="1"/><circle cx="171" cy="6" r="1"/><circle cx="255" cy="6" r="1"/><circle cx="157" cy="6" r="1"/><circle cx="241" cy="6" r="1"/><circle cx="185" cy="6" r="1"/><circle cx="269" cy="6" r="1"/><circle cx="171" cy="34" r="1"/><circle cx="255" cy="34" r="1"/><circle cx="157" cy="34" r="1"/><circle cx="241" cy="34" r="1"/><circle cx="185" cy="34" r="1"/><circle cx="269" cy="34" r="1"/><circle cx="213" cy="20" r="1"/><circle cx="297" cy="20" r="1"/><circle cx="199" cy="20" r="1"/><circle cx="283" cy="20" r="1"/><circle cx="227" cy="20" r="1"/><circle cx="311" cy="20" r="1"/><circle cx="213" cy="6" r="1"/><circle cx="297" cy="6" r="1"/><circle cx="199" cy="6" r="1"/><circle cx="283" cy="6" r="1"/><circle cx="227" cy="6" r="1"/><circle cx="311" cy="6" r="1"/><circle cx="213" cy="34" r="1"/><circle cx="297" cy="34" r="1"/><circle cx="199" cy="34" r="1"/><circle cx="283" cy="34" r="1"/><circle cx="227" cy="34" r="1"/><circle cx="311" cy="34" r="1"/><circle cx="171" cy="62" r="1"/><circle cx="255" cy="62" r="1"/><circle cx="157" cy="62" r="1"/><circle cx="241" cy="62" r="1"/><circle cx="185" cy="62" r="1"/><circle cx="269" cy="62" r="1"/><circle cx="171" cy="48" r="1"/><circle cx="255" cy="48" r="1"/><circle cx="171" cy="90" r="1"/><circle cx="255" cy="90" r="1"/><circle cx="157" cy="48" r="1"/><circle cx="241" cy="48" r="1"/><circle cx="157" cy="90" r="1"/><circle cx="241" cy="90" r="1"/><circle cx="185" cy="48" r="1"/><circle cx="269" cy="48" r="1"/><circle cx="185" cy="90" r="1"/><circle cx="269" cy="90" r="1"/><circle cx="171" cy="76" r="1"/><circle cx="255" cy="76" r="1"/><circle cx="157" cy="76" r="1"/><circle cx="241" cy="76" r="1"/><circle cx="185" cy="76" r="1"/><circle cx="269" cy="76" r="1"/><circle cx="213" cy="62" r="1"/><circle cx="297" cy="62" r="1"/><circle cx="199" cy="62" r="1"/><circle cx="283" cy="62" r="1"/><circle cx="227" cy="62" r="1"/><circle cx="311" cy="62" r="1"/><circle cx="213" cy="48" r="1"/><circle cx="297" cy="48" r="1"/><circle cx="213" cy="90" r="1"/><circle cx="297" cy="90" r="1"/><circle cx="199" cy="48" r="1"/><circle cx="283" cy="48" r="1"/><circle cx="199" cy="90" r="1"/><circle cx="283" cy="90" r="1"/><circle cx="227" cy="48" r="1"/><circle cx="311" cy="48" r="1"/><circle cx="227" cy="90" r="1"/><circle cx="311" cy="90" r="1"/><circle cx="213" cy="76" r="1"/><circle cx="297" cy="76" r="1"/><circle cx="199" cy="76" r="1"/><circle cx="283" cy="76" r="1"/><circle cx="227" cy="76" r="1"/><circle cx="311" cy="76" r="1"/><circle cx="339" cy="20" r="1"/><circle cx="423" cy="20" r="1"/><circle cx="325" cy="20" r="1"/><circle cx="409" cy="20" r="1"/><circle cx="353" cy="20" r="1"/><circle cx="437" cy="20" r="1"/><circle cx="339" cy="6" r="1"/><circle cx="423" cy="6" r="1"/><circle cx="325" cy="6" r="1"/><circle cx="409" cy="6" r="1"/><circle cx="353" cy="6" r="1"/><circle cx="437" cy="6" r="1"/><circle cx="339" cy="34" r="1"/><circle cx="423" cy="34" r="1"/><circle cx="325" cy="34" r="1"/><circle cx="409" cy="34" r="1"/><circle cx="353" cy="34" r="1"/><circle cx="437" cy="34" r="1"/><circle cx="381" cy="20" r="1"/><circle cx="465" cy="20" r="1"/><circle cx="367" cy="20" r="1"/><circle cx="451" cy="20" r="1"/><circle cx="395" cy="20" r="1"/><circle cx="479" cy="20" r="1"/><circle cx="381" cy="6" r="1"/><circle cx="465" cy="6" r="1"/><circle cx="367" cy="6" r="1"/><circle cx="451" cy="6" r="1"/><circle cx="395" cy="6" r="1"/><circle cx="479" cy="6" r="1"/><circle cx="381" cy="34" r="1"/><circle cx="465" cy="34" r="1"/><circle cx="367" cy="34" r="1"/><circle cx="451" cy="34" r="1"/><circle cx="395" cy="34" r="1"/><circle cx="479" cy="34" r="1"/><circle cx="339" cy="62" r="1"/><circle cx="423" cy="62" r="1"/><circle cx="325" cy="62" r="1"/><circle cx="409" cy="62" r="1"/><circle cx="353" cy="62" r="1"/><circle cx="437" cy="62" r="1"/><circle cx="339" cy="48" r="1"/><circle cx="423" cy="48" r="1"/><circle cx="339" cy="90" r="1"/><circle cx="423" cy="90" r="1"/><circle cx="325" cy="48" r="1"/><circle cx="409" cy="48" r="1"/><circle cx="325" cy="90" r="1"/><circle cx="409" cy="90" r="1"/><circle cx="353" cy="48" r="1"/><circle cx="437" cy="48" r="1"/><circle cx="353" cy="90" r="1"/><circle cx="437" cy="90" r="1"/><circle cx="339" cy="76" r="1"/><circle cx="423" cy="76" r="1"/><circle cx="325" cy="76" r="1"/><circle cx="409" cy="76" r="1"/><circle cx="353" cy="76" r="1"/><circle cx="437" cy="76" r="1"/><circle cx="381" cy="62" r="1"/><circle cx="465" cy="62" r="1"/><circle cx="367" cy="62" r="1"/><circle cx="451" cy="62" r="1"/><circle cx="395" cy="62" r="1"/><circle cx="479" cy="62" r="1"/><circle cx="381" cy="48" r="1"/><circle cx="465" cy="48" r="1"/><circle cx="381" cy="90" r="1"/><circle cx="465" cy="90" r="1"/><circle cx="367" cy="48" r="1"/><circle cx="451" cy="48" r="1"/><circle cx="367" cy="90" r="1"/><circle cx="451" cy="90" r="1"/><circle cx="395" cy="48" r="1"/><circle cx="479" cy="48" r="1"/><circle cx="395" cy="90" r="1"/><circle cx="479" cy="90" r="1"/><circle cx="381" cy="76" r="1"/><circle cx="465" cy="76" r="1"/><circle cx="367" cy="76" r="1"/><circle cx="451" cy="76" r="1"/><circle cx="395" cy="76" r="1"/><circle cx="479" cy="76" r="1"/><circle cx="507" cy="20" r="1"/><circle cx="591" cy="20" r="1"/><circle cx="493" cy="20" r="1"/><circle cx="577" cy="20" r="1"/><circle cx="521" cy="20" r="1"/><circle cx="605" cy="20" r="1"/><circle cx="507" cy="6" r="1"/><circle cx="591" cy="6" r="1"/><circle cx="493" cy="6" r="1"/><circle cx="577" cy="6" r="1"/><circle cx="521" cy="6" r="1"/><circle cx="605" cy="6" r="1"/><circle cx="507" cy="34" r="1"/><circle cx="591" cy="34" r="1"/><circle cx="493" cy="34" r="1"/><circle cx="577" cy="34" r="1"/><circle cx="521" cy="34" r="1"/><circle cx="605" cy="34" r="1"/><circle cx="549" cy="20" r="1"/><circle cx="633" cy="20" r="1"/><circle cx="535" cy="20" r="1"/><circle cx="619" cy="20" r="1"/><circle cx="563" cy="20" r="1"/><circle cx="647" cy="20" r="1"/><circle cx="549" cy="6" r="1"/><circle cx="633" cy="6" r="1"/><circle cx="535" cy="6" r="1"/><circle cx="619" cy="6" r="1"/><circle cx="563" cy="6" r="1"/><circle cx="647" cy="6" r="1"/><circle cx="549" cy="34" r="1"/><circle cx="633" cy="34" r="1"/><circle cx="535" cy="34" r="1"/><circle cx="619" cy="34" r="1"/><circle cx="563" cy="34" r="1"/><circle cx="647" cy="34" r="1"/><circle cx="507" cy="62" r="1"/><circle cx="591" cy="62" r="1"/><circle cx="493" cy="62" r="1"/><circle cx="577" cy="62" r="1"/><circle cx="521" cy="62" r="1"/><circle cx="605" cy="62" r="1"/><circle cx="507" cy="48" r="1"/><circle cx="591" cy="48" r="1"/><circle cx="507" cy="90" r="1"/><circle cx="591" cy="90" r="1"/><circle cx="493" cy="48" r="1"/><circle cx="577" cy="48" r="1"/><circle cx="493" cy="90" r="1"/><circle cx="577" cy="90" r="1"/><circle cx="521" cy="48" r="1"/><circle cx="605" cy="48" r="1"/><circle cx="521" cy="90" r="1"/><circle cx="605" cy="90" r="1"/><circle cx="507" cy="76" r="1"/><circle cx="591" cy="76" r="1"/><circle cx="493" cy="76" r="1"/><circle cx="577" cy="76" r="1"/><circle cx="521" cy="76" r="1"/><circle cx="605" cy="76" r="1"/><circle cx="549" cy="62" r="1"/><circle cx="633" cy="62" r="1"/><circle cx="535" cy="62" r="1"/><circle cx="619" cy="62" r="1"/><circle cx="563" cy="62" r="1"/><circle cx="647" cy="62" r="1"/><circle cx="549" cy="48" r="1"/><circle cx="633" cy="48" r="1"/><circle cx="549" cy="90" r="1"/><circle cx="633" cy="90" r="1"/><circle cx="535" cy="48" r="1"/><circle cx="619" cy="48" r="1"/><circle cx="535" cy="90" r="1"/><circle cx="619" cy="90" r="1"/><circle cx="563" cy="48" r="1"/><circle cx="647" cy="48" r="1"/><circle cx="563" cy="90" r="1"/><circle cx="647" cy="90" r="1"/><circle cx="549" cy="76" r="1"/><circle cx="633" cy="76" r="1"/><circle cx="535" cy="76" r="1"/><circle cx="619" cy="76" r="1"/><circle cx="563" cy="76" r="1"/><circle cx="647" cy="76" r="1"/><circle cx="675" cy="20" r="1"/><circle cx="661" cy="20" r="1"/><circle cx="689" cy="20" r="1"/><circle cx="675" cy="6" r="1"/><circle cx="661" cy="6" r="1"/><circle cx="689" cy="6" r="1"/><circle cx="675" cy="34" r="1"/><circle cx="661" cy="34" r="1"/><circle cx="689" cy="34" r="1"/><circle cx="675" cy="62" r="1"/><circle cx="661" cy="62" r="1"/><circle cx="689" cy="62" r="1"/><circle cx="675" cy="48" r="1"/><circle cx="675" cy="90" r="1"/><circle cx="661" cy="48" r="1"/><circle cx="661" cy="90" r="1"/><circle cx="689" cy="48" r="1"/><circle cx="689" cy="90" r="1"/><circle cx="675" cy="76" r="1"/><circle cx="661" cy="76" r="1"/><circle cx="689" cy="76" r="1"/><circle cx="703" cy="20" r="1"/><circle cx="703" cy="6" r="1"/><circle cx="703" cy="34" r="1"/><circle cx="703" cy="62" r="1"/><circle cx="703" cy="48" r="1"/><circle cx="703" cy="90" r="1"/><circle cx="703" cy="76" r="1"/><circle cx="717" cy="20" r="1"/><circle cx="717" cy="6" r="1"/><circle cx="717" cy="34" r="1"/><circle cx="717" cy="62" r="1"/><circle cx="717" cy="48" r="1"/><circle cx="717" cy="90" r="1"/><circle cx="717" cy="76" r="1"/></g><rect width="151" height="35" x="284.5" y="27.5" fill="#edeef3" rx="5.5"/><rect width="151" height="35" x="284.5" y="27.5" stroke="#555962" rx="5.5"/><path fill="#17181c" d="M305.025 43.735h-1.726a2.2 2.2 0 0 0-.273-.752 2.02 2.02 0 0 0-1.168-.91 2.6 2.6 0 0 0-.808-.12q-.77 0-1.366.388-.596.384-.933 1.127-.337.738-.337 1.805 0 1.084.337 1.828.342.739.933 1.117.595.374 1.362.374.425 0 .794-.11.374-.117.669-.338.3-.222.503-.545a2.1 2.1 0 0 0 .287-.738l1.726.009q-.096.675-.42 1.265a3.7 3.7 0 0 1-.835 1.043 3.9 3.9 0 0 1-1.21.702q-.693.25-1.537.25-1.247 0-2.225-.578-.98-.577-1.542-1.666-.564-1.09-.564-2.613 0-1.529.568-2.613.568-1.09 1.547-1.667.978-.577 2.216-.577.789 0 1.468.222.678.221 1.209.65.531.426.873 1.044.346.614.452 1.403m3.166-3.19V50h-1.671v-9.455zM309.909 50v-7.09h1.672V50zm.841-8.097a.98.98 0 0 1-.684-.263.85.85 0 0 1-.286-.642q0-.378.286-.642a.97.97 0 0 1 .684-.268q.4 0 .683.268.286.264.286.642 0 .374-.286.642a.97.97 0 0 1-.683.263m5.688 8.236q-1.067 0-1.842-.444a3 3 0 0 1-1.186-1.265q-.416-.82-.416-1.934 0-1.095.416-1.92.42-.831 1.172-1.293.753-.466 1.769-.466.655 0 1.237.212.586.208 1.034.646.452.439.711 1.118.258.674.258 1.606v.513h-5.812v-1.127h4.21a1.8 1.8 0 0 0-.207-.854 1.5 1.5 0 0 0-.568-.595 1.6 1.6 0 0 0-.84-.217 1.63 1.63 0 0 0-.901.249q-.387.244-.604.646a1.85 1.85 0 0 0-.217.873v.983q0 .618.226 1.062.227.438.632.674.407.23.951.23.366 0 .661-.1.295-.108.512-.31.217-.204.328-.503l1.56.175a2.4 2.4 0 0 1-.563 1.08 2.75 2.75 0 0 1-1.053.711q-.641.25-1.468.25m6.238-4.294V50h-1.671v-7.09h1.597v1.204h.084q.245-.595.78-.946.54-.351 1.334-.351.733 0 1.279.314.549.313.849.91.304.594.3 1.444V50h-1.671v-4.256q0-.711-.369-1.113-.364-.402-1.011-.402-.44 0-.781.194-.336.19-.53.55-.19.36-.19.872m9.792-2.936v1.293h-4.076v-1.293zm-3.07-1.699h1.671v6.657q0 .337.102.517.105.176.277.24.17.065.378.065.157 0 .286-.023.134-.024.204-.042l.281 1.307q-.134.045-.383.101a3 3 0 0 1-.6.065 2.7 2.7 0 0 1-1.131-.19 1.76 1.76 0 0 1-.799-.655q-.29-.443-.286-1.108zm8.537 4.164v1.376h-4.256v-1.376zm7.362-.59-1.523.166a1.2 1.2 0 0 0-.227-.434 1.1 1.1 0 0 0-.424-.328 1.55 1.55 0 0 0-.656-.125q-.522 0-.877.226-.35.227-.346.587a.61.61 0 0 0 .226.503q.235.194.776.318l1.209.259q1.007.217 1.496.688.494.471.498 1.232-.004.67-.392 1.182-.383.508-1.066.794-.684.287-1.57.287-1.302 0-2.096-.545-.794-.55-.946-1.528l1.629-.157q.111.48.471.724.36.245.937.245.596 0 .956-.245.365-.244.365-.604a.63.63 0 0 0-.236-.503q-.231-.199-.72-.305l-1.209-.254q-1.021-.213-1.51-.716-.49-.507-.485-1.283a1.82 1.82 0 0 1 .356-1.136q.365-.484 1.011-.748.651-.267 1.5-.267 1.247 0 1.962.53.72.532.891 1.436m1.53 5.216v-7.09h1.672V50zm.841-8.097a.98.98 0 0 1-.684-.263.85.85 0 0 1-.286-.642q0-.378.286-.642a.97.97 0 0 1 .684-.268q.4 0 .683.268.286.264.286.642 0 .374-.286.642a.97.97 0 0 1-.683.263m5.18 8.222a2.7 2.7 0 0 1-1.495-.43q-.66-.429-1.044-1.246-.383-.818-.383-1.985 0-1.182.388-1.995.393-.816 1.057-1.232.664-.42 1.482-.42.623 0 1.025.212.402.208.637.503.236.29.365.55h.069v-3.537h1.676V50h-1.644v-1.117h-.101a3 3 0 0 1-.374.55q-.245.285-.647.489-.4.203-1.011.203m.467-1.371q.53 0 .905-.287.374-.29.567-.808.195-.517.194-1.204 0-.689-.194-1.196a1.7 1.7 0 0 0-.563-.79q-.369-.28-.909-.281-.56 0-.933.29a1.76 1.76 0 0 0-.563.804 3.4 3.4 0 0 0-.189 1.173q0 .664.189 1.186.194.517.568.817.378.296.928.296m8.23 1.385q-1.067 0-1.842-.444a3 3 0 0 1-1.187-1.265q-.415-.82-.415-1.934 0-1.095.415-1.92a3.14 3.14 0 0 1 1.173-1.293q.753-.466 1.768-.466.655 0 1.237.212a2.8 2.8 0 0 1 1.034.646q.453.439.711 1.118.26.674.259 1.606v.513h-5.812v-1.127h4.21a1.8 1.8 0 0 0-.208-.854 1.5 1.5 0 0 0-.568-.595 1.6 1.6 0 0 0-.84-.217q-.513 0-.9.249-.388.244-.605.646a1.87 1.87 0 0 0-.217.873v.983q0 .618.226 1.062.227.438.633.674.407.23.951.23.365 0 .66-.1.296-.108.512-.31.217-.204.328-.503l1.561.175a2.44 2.44 0 0 1-.564 1.08 2.74 2.74 0 0 1-1.052.711q-.642.25-1.468.25m9.832.004q-.675 0-1.214-.24a2 2 0 0 1-.85-.72q-.309-.475-.309-1.173 0-.6.221-.992.222-.393.605-.628a3 3 0 0 1 .863-.356 7 7 0 0 1 1.002-.18q.624-.064 1.011-.115.388-.055.563-.166.18-.116.18-.356v-.027q0-.522-.309-.808t-.891-.286q-.614 0-.974.267-.356.268-.48.633l-1.56-.222q.184-.645.609-1.08.424-.439 1.039-.656a4 4 0 0 1 1.357-.221q.513 0 1.02.12.508.12.928.397.42.273.674.743.258.47.259 1.177V50h-1.607v-.974h-.055a2 2 0 0 1-.43.554q-.271.255-.687.41a2.8 2.8 0 0 1-.965.153m.434-1.228q.503 0 .872-.198.37-.204.568-.536.203-.332.203-.725v-.835a.8.8 0 0 1-.268.12q-.184.055-.415.097-.23.04-.457.074l-.393.055q-.374.051-.669.166a1.1 1.1 0 0 0-.466.323.8.8 0 0 0-.171.527q0 .461.337.697t.859.235m8.531-6.006v1.293h-4.076v-1.293zm-3.07-1.699h1.671v6.657q0 .337.102.517.105.176.277.24.171.065.378.065.157 0 .286-.023.134-.024.204-.042l.281 1.307q-.134.045-.383.101a3 3 0 0 1-.6.065 2.7 2.7 0 0 1-1.131-.19 1.76 1.76 0 0 1-.799-.655q-.29-.443-.286-1.108zm8.008 1.7v1.292h-4.076v-1.293zm-3.07-1.7h1.672v6.657q0 .337.101.517a.55.55 0 0 0 .277.24q.17.065.379.065.157 0 .286-.023.134-.024.203-.042l.282 1.307q-.134.045-.384.101a3 3 0 0 1-.6.065 2.7 2.7 0 0 1-1.131-.19 1.76 1.76 0 0 1-.798-.655q-.291-.443-.287-1.108zm4.468 8.79v-7.09h1.62v1.18h.074q.195-.612.665-.946a1.83 1.83 0 0 1 1.085-.337q.138 0 .309.014.175.01.291.033v1.537a1.8 1.8 0 0 0-.337-.065 3 3 0 0 0-.439-.032 1.7 1.7 0 0 0-.821.199q-.36.193-.568.54-.208.346-.208.798V50zm5.154 0v-7.09h1.671V50zm.84-8.097a.98.98 0 0 1-.683-.263.85.85 0 0 1-.286-.642q0-.378.286-.642a.97.97 0 0 1 .683-.268q.402 0 .684.268.286.264.286.642 0 .374-.286.642a.97.97 0 0 1-.684.263M395.296 50v-9.455h1.671v3.537h.069q.13-.26.365-.55.235-.295.637-.503.401-.213 1.025-.212.822 0 1.482.42.665.416 1.052 1.232.393.813.393 1.995 0 1.167-.383 1.985-.384.817-1.044 1.246t-1.496.43q-.609 0-1.011-.203a2.1 2.1 0 0 1-.646-.49 3 3 0 0 1-.374-.55h-.097V50zm1.639-3.545q0 .688.194 1.204.198.517.567.808.375.287.905.287.555 0 .928-.296.374-.3.563-.817.194-.522.194-1.186 0-.66-.189-1.173a1.76 1.76 0 0 0-.563-.803q-.374-.291-.933-.291-.536 0-.909.281-.375.282-.568.79-.189.507-.189 1.196m10.995.563v-4.109h1.671V50h-1.62v-1.26h-.074q-.24.595-.79.974-.545.378-1.343.378a2.4 2.4 0 0 1-1.233-.309 2.16 2.16 0 0 1-.831-.91q-.3-.6-.3-1.449v-4.515h1.672v4.257q0 .674.369 1.07.369.398.969.398.37 0 .716-.18.346-.181.568-.536.226-.36.226-.9m6.93-4.109v1.293h-4.076v-1.293zm-3.07-1.699h1.672v6.657q0 .337.101.517a.55.55 0 0 0 .277.24q.17.065.379.065.156 0 .286-.023.134-.024.203-.042l.282 1.307q-.135.045-.383.101a3 3 0 0 1-.601.065 2.7 2.7 0 0 1-1.131-.19 1.76 1.76 0 0 1-.798-.655q-.291-.443-.287-1.108zm7.531 8.929q-1.067 0-1.842-.444a3 3 0 0 1-1.186-1.265q-.416-.82-.416-1.934 0-1.095.416-1.92.42-.831 1.172-1.293.753-.466 1.768-.466.656 0 1.238.212.585.208 1.034.646.451.439.711 1.118.258.674.258 1.606v.513h-5.812v-1.127h4.21a1.8 1.8 0 0 0-.207-.854 1.5 1.5 0 0 0-.568-.595 1.6 1.6 0 0 0-.841-.217 1.63 1.63 0 0 0-.9.249q-.387.244-.604.646a1.85 1.85 0 0 0-.217.873v.983q0 .618.226 1.062.226.438.632.674.406.23.951.23.364 0 .66-.1a1.5 1.5 0 0 0 .513-.31q.216-.204.328-.503l1.56.175a2.44 2.44 0 0 1-.563 1.08 2.75 2.75 0 0 1-1.053.711q-.642.25-1.468.25"/><rect width="120.721" height="54.721" x="14.639" y="17.639" fill="#fceac5" rx="9.59"/><rect width="120.721" height="54.721" x="14.639" y="17.639" stroke="#f5bb3d" stroke-width="1.279" rx="9.59"/><rect width="30.689" height="30.689" x="26.787" y="29.787" fill="#73520d" rx="3.836"/><path fill="#fceac5" d="M48.844 42.254a.96.96 0 0 1-.959.96h-1.918a.96.96 0 0 1-.959-.96h-.959v9.59h5.754v-9.59zM34.46 38.418v11.508h7.672v-7.672a1.92 1.92 0 0 1 1.918-1.918h2.877v-1.918zm14.385 1.918h.96a1.92 1.92 0 0 1 1.917 1.918v9.59a1.92 1.92 0 0 1-1.918 1.918H44.05a1.92 1.92 0 0 1-1.918-1.918H34.46a1.92 1.92 0 0 1-1.918-1.918V38.418a1.92 1.92 0 0 1 1.918-1.918h12.467a1.92 1.92 0 0 1 1.918 1.918z"/><path fill="#17181c" d="M66.66 49.631h-3.152v-9.3h3.215q1.384 0 2.38.56.998.553 1.534 1.593t.536 2.488q0 1.453-.54 2.498a3.74 3.74 0 0 1-1.549 1.603q-1.008.558-2.425.558m-1.467-1.458h1.385q.971 0 1.62-.354.65-.359.977-1.067.327-.712.327-1.78 0-1.067-.327-1.77a2.23 2.23 0 0 0-.967-1.059q-.636-.354-1.58-.354h-1.435zm10.596 1.594q-1.05 0-1.812-.436a2.95 2.95 0 0 1-1.167-1.244q-.41-.809-.409-1.902 0-1.077.409-1.89.413-.817 1.153-1.27.74-.46 1.74-.46.645 0 1.216.21.578.204 1.017.635.445.432.7 1.1.255.662.254 1.58v.503h-5.717v-1.108h4.141a1.8 1.8 0 0 0-.204-.84 1.5 1.5 0 0 0-.558-.586 1.57 1.57 0 0 0-.827-.213q-.504 0-.885.245a1.7 1.7 0 0 0-.595.636q-.209.39-.214.858v.967q0 .609.223 1.045.222.43.622.663.4.227.935.227.36 0 .65-.1a1.4 1.4 0 0 0 .504-.304q.213-.2.322-.495l1.535.172q-.146.609-.554 1.063a2.7 2.7 0 0 1-1.035.7q-.632.244-1.444.244m10.522-7.11-2.484 6.974h-1.816l-2.484-6.975h1.753l1.602 5.182h.073l1.608-5.182zm1.137 6.974v-6.975h1.644v6.975zm.827-7.965a.96.96 0 0 1-.672-.258.83.83 0 0 1-.282-.632q0-.372.282-.63a.95.95 0 0 1 .672-.264.94.94 0 0 1 .672.263.83.83 0 0 1 .281.631.83.83 0 0 1-.281.632.95.95 0 0 1-.672.258m5.55 8.101q-1.045 0-1.794-.458a3.06 3.06 0 0 1-1.149-1.267q-.4-.813-.4-1.871 0-1.063.41-1.875a3.05 3.05 0 0 1 1.153-1.272q.75-.459 1.77-.458.85 0 1.504.313.658.309 1.049.876.39.564.445 1.317H95.24a1.5 1.5 0 0 0-.454-.84q-.354-.34-.949-.34-.503 0-.885.272a1.75 1.75 0 0 0-.595.772q-.21.504-.209 1.208 0 .713.209 1.226.209.508.586.785.381.273.894.273.364 0 .65-.136.29-.141.486-.405.195-.263.267-.64h1.572q-.06.74-.436 1.313a2.6 2.6 0 0 1-1.027.89q-.649.317-1.525.317m7.425 0q-1.048 0-1.812-.436a2.95 2.95 0 0 1-1.167-1.244q-.408-.809-.408-1.902 0-1.077.408-1.89a3.1 3.1 0 0 1 1.154-1.27q.74-.46 1.739-.46.645 0 1.217.21.576.204 1.017.635.445.432.699 1.1.255.662.254 1.58v.503h-5.716v-1.108h4.141a1.76 1.76 0 0 0-.205-.84 1.5 1.5 0 0 0-.558-.586 1.57 1.57 0 0 0-.827-.213 1.6 1.6 0 0 0-.885.245q-.382.24-.595.636-.21.39-.213.858v.967q0 .609.222 1.045.223.43.622.663.4.227.936.227.358 0 .649-.1.291-.105.504-.304.214-.2.322-.495l1.535.172q-.145.609-.554 1.063-.404.45-1.035.7-.631.244-1.444.244"/><rect width="120.721" height="54.721" x="584.639" y="17.639" fill="#cfd4fc" rx="9.59"/><rect width="120.721" height="54.721" x="584.639" y="17.639" stroke="#3d50f5" stroke-width="1.279" rx="9.59"/><rect width="30.689" height="30.689" x="596.787" y="29.787" fill="#3d50f5" rx="3.836"/><path fill="#cfd4fc" d="M611.599 35.541c-1.7 0-3.291.475-4.652 1.291a2.2 2.2 0 0 0-1.382-.491c-1.208 0-2.199.99-2.199 2.198a2.2 2.2 0 0 0 .486 1.375 9 9 0 0 0-1.311 4.685.523.523 0 0 0 .525.532.524.524 0 0 0 .526-.532c0-1.48.403-2.862 1.101-4.05.274.119.568.189.871.19 1.208 0 2.199-.991 2.199-2.2 0-.3-.068-.59-.185-.863a7.96 7.96 0 0 1 4.021-1.084.52.52 0 0 0 .492-.323.54.54 0 0 0 0-.405.54.54 0 0 0-.289-.285.5.5 0 0 0-.203-.038m-6.035 1.85c.355 0 .671.151.89.425l.01.013c.161.202.248.452.248.71a1.14 1.14 0 0 1-1.147 1.148 1.15 1.15 0 0 1-.719-.255 1.15 1.15 0 0 1-.429-.893c0-.64.507-1.147 1.147-1.147"/><path fill="#cfd4fc" fill-rule="evenodd" d="M606.554 41.704a.5.5 0 0 0-.135.364c.006.123.055.24.14.33.408.412 1.212 1.213 1.212 1.213l.71-.71-1.209-1.208a.5.5 0 0 0-.361-.14.5.5 0 0 0-.357.151m1.927 1.198-2.196 2.196a.61.61 0 0 0 0 .863l1.088 1.088 1.903 1.903 1.827 1.827a.61.61 0 0 0 .863 0l1.486-1.486 2.273-2.272 2.196-2.197a.61.61 0 0 0 0-.862l-1.117-1.117-1.903-1.903-1.799-1.799a.61.61 0 0 0-.863 0l-1.485 1.486zm2.273-2.273-1.21-1.209a.5.5 0 0 0-.36-.139.49.49 0 0 0-.493.514.52.52 0 0 0 .14.331c.408.411 1.213 1.212 1.213 1.212zm4.147.313 1.209-1.21a.5.5 0 0 0 .139-.36.49.49 0 0 0-.514-.492.52.52 0 0 0-.331.14c-.411.407-1.212 1.212-1.212 1.212zm1.903 1.903 1.209-1.21a.5.5 0 0 0 .139-.36.49.49 0 0 0-.514-.492.52.52 0 0 0-.331.14c-.411.408-1.212 1.212-1.212 1.212zm-1.079 4.176 1.209 1.209a.5.5 0 0 0 .36.139.49.49 0 0 0 .493-.515.52.52 0 0 0-.14-.33c-.408-.411-1.212-1.212-1.212-1.212zm-2.273 2.272 1.21 1.21a.5.5 0 0 0 .36.138.49.49 0 0 0 .492-.514.5.5 0 0 0-.14-.33c-.408-.412-1.212-1.213-1.212-1.213zm-4.176-.34-1.209 1.209a.5.5 0 0 0-.139.36.49.49 0 0 0 .515.493.5.5 0 0 0 .33-.14c.411-.408 1.212-1.213 1.212-1.213zm-1.903-1.904-1.209 1.21a.5.5 0 0 0-.139.36.49.49 0 0 0 .514.492.52.52 0 0 0 .331-.14c.411-.407 1.212-1.212 1.212-1.212zm5.229-5.428a.52.52 0 0 1 .377-.157c.1.002.195.033.274.09l.989.726a.48.48 0 0 1 .133.618.52.52 0 0 1-.596.265l.367 1.435a.52.52 0 0 1-.359.619l-2.675.817.494 1.91a.52.52 0 0 1-.357.624.47.47 0 0 1-.603-.33l-.617-2.383a.523.523 0 0 1 .358-.62l2.677-.817-.247-.966a.505.505 0 0 1-.634.105.476.476 0 0 1-.179-.602l.486-1.166a.5.5 0 0 1 .112-.168" clip-rule="evenodd"/><path fill="#cfd4fc" d="M612.663 54.721c1.7 0 3.292-.474 4.652-1.29.388.315.875.49 1.383.49 1.208 0 2.198-.99 2.198-2.198 0-.505-.175-.989-.485-1.375a9 9 0 0 0 1.31-4.685.523.523 0 0 0-.525-.532.53.53 0 0 0-.487.329.5.5 0 0 0-.038.203c0 1.48-.403 2.862-1.102 4.05a2.2 2.2 0 0 0-.87-.189c-1.208 0-2.2.99-2.2 2.199 0 .3.069.591.185.863a7.96 7.96 0 0 1-4.021 1.084.52.52 0 0 0-.491.323.52.52 0 0 0 .288.69q.097.04.203.038m6.035-1.85c-.354 0-.671-.15-.889-.424l-.011-.013a1.148 1.148 0 0 1 1.619-1.604c.27.218.428.546.429.893a1.14 1.14 0 0 1-1.148 1.148"/><path fill="#17181c" d="M633.508 49.631v-9.3h3.487q1.072 0 1.799.4.73.4 1.103 1.099.377.695.377 1.58 0 .895-.377 1.59a2.7 2.7 0 0 1-1.113 1.094q-.735.395-1.811.395h-2.312v-1.385h2.085q.625 0 1.026-.218.4-.217.59-.6.195-.381.195-.876 0-.494-.195-.872a1.32 1.32 0 0 0-.595-.585q-.4-.214-1.03-.214h-1.544v7.892zm9.8-9.3v9.3h-1.644v-9.3zm3.698 9.44q-.663 0-1.195-.235a1.95 1.95 0 0 1-.835-.709q-.304-.467-.304-1.153 0-.59.218-.976.217-.386.594-.618.378-.23.85-.35.476-.122.985-.176.613-.064.994-.114.382-.054.554-.163.177-.114.177-.35V44.9q0-.514-.304-.795t-.876-.282q-.604 0-.958.264a1.3 1.3 0 0 0-.473.622l-1.534-.218q.182-.636.599-1.063a2.6 2.6 0 0 1 1.022-.644 3.9 3.9 0 0 1 1.335-.218q.504 0 1.003.118.5.118.913.39.413.268.663.731.254.463.254 1.158v4.668h-1.58v-.958h-.055a1.98 1.98 0 0 1-1.098.949q-.405.15-.949.15m.426-1.207q.495 0 .859-.195.363-.2.558-.527.2-.327.2-.713v-.822a.8.8 0 0 1-.263.118 4 4 0 0 1-.409.096q-.226.04-.45.072l-.386.055a3 3 0 0 0-.658.163 1.1 1.1 0 0 0-.459.318.78.78 0 0 0-.168.518q0 .454.332.685.331.232.844.232m8.392-5.908v1.272h-4.01v-1.272zm-3.02-1.67h1.644v6.547q0 .331.1.509.104.173.272.236t.373.064q.154 0 .281-.023.132-.023.2-.041l.277 1.285q-.131.045-.377.1-.24.054-.59.064a2.7 2.7 0 0 1-1.113-.187 1.73 1.73 0 0 1-.785-.645q-.286-.435-.282-1.09zm7.927 1.67v1.272h-4.123v-1.272zm-3.092 6.975v-7.633q0-.705.291-1.171.295-.468.79-.7a2.6 2.6 0 0 1 1.099-.231q.426 0 .758.068.331.068.49.122l-.327 1.272a3 3 0 0 0-.263-.064 1.6 1.6 0 0 0-.354-.036q-.459 0-.65.222-.186.219-.186.627v7.524zm7.16.136q-1.022 0-1.771-.45-.75-.449-1.163-1.257-.408-.809-.408-1.889t.408-1.893a3.05 3.05 0 0 1 1.163-1.263q.749-.45 1.771-.45t1.771.45 1.158 1.263q.413.811.413 1.893 0 1.08-.413 1.889a3.03 3.03 0 0 1-1.158 1.258q-.75.45-1.771.45m.009-1.317q.554.001.926-.304.372-.309.554-.826.186-.518.186-1.154 0-.64-.186-1.157a1.83 1.83 0 0 0-.554-.831q-.372-.31-.926-.31-.568 0-.945.31a1.86 1.86 0 0 0-.558.83 3.5 3.5 0 0 0-.182 1.158q0 .636.182 1.154.186.517.558.826.377.304.945.304m4.728 1.181v-6.975h1.594v1.163h.072q.19-.604.654-.931a1.8 1.8 0 0 1 1.067-.331q.137 0 .305.013.172.01.286.032v1.512a1.7 1.7 0 0 0-.332-.063 3 3 0 0 0-.431-.032q-.45 0-.808.195a1.4 1.4 0 0 0-.559.531 1.5 1.5 0 0 0-.204.786v4.1zm5.07 0v-6.975h1.571v1.186h.082q.217-.6.722-.936.504-.34 1.203-.34.708 0 1.194.345.49.34.69.93h.073q.231-.58.781-.926.554-.35 1.312-.35.963 0 1.571.61.609.608.609 1.775v4.681h-1.649v-4.427q0-.65-.345-.95a1.23 1.23 0 0 0-.844-.303q-.595 0-.931.372-.332.368-.332.958v4.35h-1.612v-4.495q0-.54-.326-.863-.323-.322-.845-.322-.354 0-.645.181a1.26 1.26 0 0 0-.463.504 1.6 1.6 0 0 0-.173.754v4.241z"/><path fill="#f5bb3d" d="M139.25 44.25a.75.75 0 0 0 0 1.5v-1.5m49.197 1.5a.75.75 0 0 0 0-1.5v1.5m40.875-1.5a.75.75 0 0 0 0 1.5v-1.5m51.958 1.28a.75.75 0 0 0 0-1.06l-4.773-4.773a.75.75 0 1 0-1.06 1.06L279.689 45l-4.242 4.243a.75.75 0 0 0 1.06 1.06zM139.25 45v.75h49.197v-1.5H139.25zm90.072 0v.75h51.428v-1.5h-51.428z"/><path fill="#23262f" d="m196.641 49-2.421-8.727h1.385l1.7 6.758h.081l1.769-6.758h1.372l1.768 6.762h.081l1.696-6.762h1.39L203.037 49h-1.325l-1.837-6.537h-.068L197.97 49zm9.377 0v-6.545h1.231v1.04h.069a1.58 1.58 0 0 1 .63-.832 1.8 1.8 0 0 1 1.031-.306 6 6 0 0 1 .542.03v1.218a2 2 0 0 0-.273-.047 3 3 0 0 0-.392-.03q-.452 0-.805.192a1.42 1.42 0 0 0-.759 1.283V49zm4.473 0v-6.545h1.274V49zm.644-7.555a.8.8 0 0 1-.571-.222.72.72 0 0 1-.235-.537q0-.316.235-.537a.8.8 0 0 1 .571-.226.8.8 0 0 1 .567.226.7.7 0 0 1 .238.537.71.71 0 0 1-.238.537.8.8 0 0 1-.567.222m5.268 1.01v1.022h-3.575v-1.022zm-2.616-1.569h1.274v6.192q0 .37.11.558a.58.58 0 0 0 .286.252q.179.064.388.064.153 0 .268-.022.116-.02.179-.034l.23 1.053a2.494 2.494 0 0 1-.826.136 2.24 2.24 0 0 1-.938-.179 1.6 1.6 0 0 1-.703-.58q-.268-.39-.268-.984zm6.644 8.246q-.967 0-1.666-.413a2.8 2.8 0 0 1-1.074-1.172q-.375-.759-.375-1.777 0-1.006.375-1.773.38-.766 1.057-1.197.682-.43 1.594-.43.554 0 1.074.183.519.183.933.575.413.391.652 1.018.238.623.238 1.513v.452h-5.203v-.955h3.955q0-.503-.205-.89a1.55 1.55 0 0 0-.575-.618 1.6 1.6 0 0 0-.861-.226q-.537 0-.937.264-.397.26-.614.682a2 2 0 0 0-.213.908v.745q0 .657.23 1.117.234.46.652.703.418.239.976.239.362 0 .66-.103a1.359 1.359 0 0 0 .848-.831l1.206.218a2.2 2.2 0 0 1-.519.933 2.5 2.5 0 0 1-.934.618 3.5 3.5 0 0 1-1.274.217"/><path fill="#555962" d="M581.28 45.53a.75.75 0 0 0 0-1.06l-4.773-4.773a.75.75 0 1 0-1.06 1.06L579.689 45l-4.242 4.243a.75.75 0 0 0 1.06 1.06zm-36.727-1.28a.75.75 0 0 0 0 1.5v-1.5m-66.875 1.5a.75.75 0 0 0 0-1.5v1.5m-38.428-1.5a.75.75 0 0 0 0 1.5v-1.5m141.5.75v-.75h-36.197v1.5h36.197zm-103.072 0v-.75H439.25v1.5h38.428z"/><path fill="#23262f" d="M484.401 49v-8.727h3.111q1.014 0 1.683.35a2.3 2.3 0 0 1 1.006.967q.332.614.332 1.418 0 .802-.337 1.411a2.26 2.26 0 0 1-1.005.942q-.669.336-1.684.336h-2.356v-1.133h2.237q.64 0 1.04-.183.405-.184.592-.533.188-.35.188-.84 0-.493-.192-.856a1.24 1.24 0 0 0-.592-.554q-.4-.195-1.053-.196h-1.653V49zm4.308-3.937L490.865 49h-1.5l-2.113-3.937zm5.931 4.07q-.967 0-1.666-.414a2.8 2.8 0 0 1-1.074-1.172q-.375-.759-.375-1.777 0-1.006.375-1.773.38-.766 1.057-1.197.682-.43 1.593-.43.555 0 1.074.183.52.183.934.575.412.391.652 1.018.238.623.238 1.513v.452h-5.203v-.955h3.955q0-.503-.205-.89a1.55 1.55 0 0 0-.575-.618 1.6 1.6 0 0 0-.861-.226q-.537 0-.938.264-.396.26-.613.682a2 2 0 0 0-.213.908v.745q0 .657.23 1.117.234.46.652.703.418.239.976.239.361 0 .66-.103a1.359 1.359 0 0 0 .848-.831l1.206.218q-.144.533-.52.933-.37.396-.933.618a3.5 3.5 0 0 1-1.274.217m5.995.012q-.623 0-1.125-.23a1.9 1.9 0 0 1-.797-.678q-.29-.442-.29-1.086 0-.555.213-.912.213-.358.575-.567a3 3 0 0 1 .81-.316q.447-.106.912-.161l.955-.111q.366-.046.532-.15.166-.1.166-.332v-.03q0-.558-.315-.865-.31-.306-.929-.306-.644 0-1.014.285a1.53 1.53 0 0 0-.507.627l-1.198-.273q.213-.597.623-.963.413-.37.95-.537.537-.17 1.129-.17.392 0 .831.093.444.09.827.332.387.243.635.695.247.447.247 1.163V49h-1.244v-.895h-.052a1.8 1.8 0 0 1-.37.486q-.248.238-.635.396a2.5 2.5 0 0 1-.929.158m.277-1.023q.528 0 .903-.209.38-.208.575-.545.201-.34.201-.729v-.844a.7.7 0 0 1-.265.128 4 4 0 0 1-.438.098l-.482.073-.392.05a3.2 3.2 0 0 0-.678.159q-.302.11-.485.32-.18.204-.179.545 0 .473.349.715.35.24.891.24m6.968 1.006q-.792 0-1.415-.405-.617-.409-.971-1.163-.35-.76-.35-1.82t.354-1.815q.358-.754.98-1.155a2.55 2.55 0 0 1 1.411-.4q.61 0 .98.204.375.2.579.469.21.268.324.473h.077v-3.243h1.274V49h-1.244v-1.019h-.107a3.3 3.3 0 0 1-.332.478 1.85 1.85 0 0 1-.588.469q-.375.2-.972.2m.281-1.087q.55 0 .929-.29.384-.294.58-.813.2-.52.2-1.21 0-.683-.196-1.194a1.75 1.75 0 0 0-.575-.797q-.379-.285-.938-.285-.575 0-.958.298-.384.298-.58.814a3.3 3.3 0 0 0-.192 1.163q0 .657.196 1.18.196.525.58.832.388.302.954.302m10.45 1.091q-.921 0-1.607-.422a2.85 2.85 0 0 1-1.065-1.18q-.38-.759-.38-1.773 0-1.019.38-1.781a2.84 2.84 0 0 1 1.065-1.185q.686-.422 1.607-.422t1.606.422 1.065 1.185.38 1.781q0 1.014-.38 1.773a2.84 2.84 0 0 1-1.065 1.18q-.686.422-1.606.422m.004-1.07q.597 0 .988-.315.393-.315.58-.84.192-.524.192-1.154 0-.627-.192-1.15a1.87 1.87 0 0 0-.58-.849q-.391-.32-.988-.32-.601 0-.997.32a1.9 1.9 0 0 0-.584.848q-.188.525-.188 1.15 0 .631.188 1.156.192.524.584.84.396.315.997.315m5.611-2.948V49h-1.274v-6.545h1.223v1.065h.081q.225-.52.707-.835.486-.316 1.223-.316.67 0 1.172.282.503.276.78.826t.277 1.36V49h-1.274v-4.01q0-.711-.371-1.112-.371-.405-1.018-.405-.444 0-.789.192a1.4 1.4 0 0 0-.541.562q-.196.367-.196.887m7.04-4.841V49h-1.274v-8.727zm2.387 11.182q-.285 0-.519-.047a1.6 1.6 0 0 1-.35-.094l.307-1.044q.35.094.622.08a.75.75 0 0 0 .482-.204q.213-.19.375-.626l.157-.435-2.395-6.63h1.364l1.658 5.08h.068l1.658-5.08h1.367l-2.697 7.419q-.187.51-.477.865a1.85 1.85 0 0 1-.691.537q-.4.178-.929.178"/></g><defs><clipPath id="a"><path fill="#fff" d="M0 0h720v90H0z"/></clipPath><clipPath id="b"><path fill="#fff" d="M-12 5h730v646H-12z"/></clipPath></defs></svg>