<svg xmlns="http://www.w3.org/2000/svg" width="720" height="90" fill="none"><g clip-path="url(#a)"><path fill="#fff" d="M0 0h720v90H0z"/><g fill="#c1c3c8" clip-path="url(#b)" opacity=".5"><circle cx="3" cy="20" r="1"/><circle cx="87" cy="20" r="1"/><circle cx="73" cy="20" r="1"/><circle cx="17" cy="20" r="1"/><circle cx="101" cy="20" r="1"/><circle cx="3" cy="6" r="1"/><circle cx="87" cy="6" r="1"/><circle cx="73" cy="6" r="1"/><circle cx="17" cy="6" r="1"/><circle cx="101" cy="6" r="1"/><circle cx="3" cy="34" r="1"/><circle cx="87" cy="34" r="1"/><circle cx="73" cy="34" r="1"/><circle cx="17" cy="34" r="1"/><circle cx="101" cy="34" r="1"/><circle cx="45" cy="20" r="1"/><circle cx="129" cy="20" r="1"/><circle cx="31" cy="20" r="1"/><circle cx="115" cy="20" r="1"/><circle cx="59" cy="20" r="1"/><circle cx="143" cy="20" r="1"/><circle cx="45" cy="6" r="1"/><circle cx="129" cy="6" r="1"/><circle cx="31" cy="6" r="1"/><circle cx="115" cy="6" r="1"/><circle cx="59" cy="6" r="1"/><circle cx="143" cy="6" r="1"/><circle cx="45" cy="34" r="1"/><circle cx="129" cy="34" r="1"/><circle cx="31" cy="34" r="1"/><circle cx="115" cy="34" r="1"/><circle cx="59" cy="34" r="1"/><circle cx="143" cy="34" r="1"/><circle cx="3" cy="62" r="1"/><circle cx="87" cy="62" r="1"/><circle cx="73" cy="62" r="1"/><circle cx="17" cy="62" r="1"/><circle cx="101" cy="62" r="1"/><circle cx="3" cy="48" r="1"/><circle cx="87" cy="48" r="1"/><circle cx="3" cy="90" r="1"/><circle cx="87" cy="90" r="1"/><circle cx="73" cy="48" r="1"/><circle cx="73" cy="90" r="1"/><circle cx="17" cy="48" r="1"/><circle cx="101" cy="48" r="1"/><circle cx="17" cy="90" r="1"/><circle cx="101" cy="90" r="1"/><circle cx="3" cy="76" r="1"/><circle cx="87" cy="76" r="1"/><circle cx="73" cy="76" r="1"/><circle cx="17" cy="76" r="1"/><circle cx="101" cy="76" r="1"/><circle cx="45" cy="62" r="1"/><circle cx="129" cy="62" r="1"/><circle cx="31" cy="62" r="1"/><circle cx="115" cy="62" r="1"/><circle cx="59" cy="62" r="1"/><circle cx="143" cy="62" r="1"/><circle cx="45" cy="48" r="1"/><circle cx="129" cy="48" r="1"/><circle cx="45" cy="90" r="1"/><circle cx="129" cy="90" r="1"/><circle cx="31" cy="48" r="1"/><circle cx="115" cy="48" r="1"/><circle cx="31" cy="90" r="1"/><circle cx="115" cy="90" r="1"/><circle cx="59" cy="48" r="1"/><circle cx="143" cy="48" r="1"/><circle cx="59" cy="90" r="1"/><circle cx="143" cy="90" r="1"/><circle cx="45" cy="76" r="1"/><circle cx="129" cy="76" r="1"/><circle cx="31" cy="76" r="1"/><circle cx="115" cy="76" r="1"/><circle cx="59" cy="76" r="1"/><circle cx="143" cy="76" r="1"/><circle cx="171" cy="20" r="1"/><circle cx="255" cy="20" r="1"/><circle cx="157" cy="20" r="1"/><circle cx="241" cy="20" r="1"/><circle cx="185" cy="20" r="1"/><circle cx="269" cy="20" r="1"/><circle cx="171" cy="6" r="1"/><circle cx="255" cy="6" r="1"/><circle cx="157" cy="6" r="1"/><circle cx="241" cy="6" r="1"/><circle cx="185" cy="6" r="1"/><circle cx="269" cy="6" r="1"/><circle cx="171" cy="34" r="1"/><circle cx="255" cy="34" r="1"/><circle cx="157" cy="34" r="1"/><circle cx="241" cy="34" r="1"/><circle cx="185" cy="34" r="1"/><circle cx="269" cy="34" r="1"/><circle cx="213" cy="20" r="1"/><circle cx="297" cy="20" r="1"/><circle cx="199" cy="20" r="1"/><circle cx="283" cy="20" r="1"/><circle cx="227" cy="20" r="1"/><circle cx="311" cy="20" r="1"/><circle cx="213" cy="6" r="1"/><circle cx="297" cy="6" r="1"/><circle cx="199" cy="6" r="1"/><circle cx="283" cy="6" r="1"/><circle cx="227" cy="6" r="1"/><circle cx="311" cy="6" r="1"/><circle cx="213" cy="34" r="1"/><circle cx="297" cy="34" r="1"/><circle cx="199" cy="34" r="1"/><circle cx="283" cy="34" r="1"/><circle cx="227" cy="34" r="1"/><circle cx="311" cy="34" r="1"/><circle cx="171" cy="62" r="1"/><circle cx="255" cy="62" r="1"/><circle cx="157" cy="62" r="1"/><circle cx="241" cy="62" r="1"/><circle cx="185" cy="62" r="1"/><circle cx="269" cy="62" r="1"/><circle cx="171" cy="48" r="1"/><circle cx="255" cy="48" r="1"/><circle cx="171" cy="90" r="1"/><circle cx="255" cy="90" r="1"/><circle cx="157" cy="48" r="1"/><circle cx="241" cy="48" r="1"/><circle cx="157" cy="90" r="1"/><circle cx="241" cy="90" r="1"/><circle cx="185" cy="48" r="1"/><circle cx="269" cy="48" r="1"/><circle cx="185" cy="90" r="1"/><circle cx="269" cy="90" r="1"/><circle cx="171" cy="76" r="1"/><circle cx="255" cy="76" r="1"/><circle cx="157" cy="76" r="1"/><circle cx="241" cy="76" r="1"/><circle cx="185" cy="76" r="1"/><circle cx="269" cy="76" r="1"/><circle cx="213" cy="62" r="1"/><circle cx="297" cy="62" r="1"/><circle cx="199" cy="62" r="1"/><circle cx="283" cy="62" r="1"/><circle cx="227" cy="62" r="1"/><circle cx="311" cy="62" r="1"/><circle cx="213" cy="48" r="1"/><circle cx="297" cy="48" r="1"/><circle cx="213" cy="90" r="1"/><circle cx="297" cy="90" r="1"/><circle cx="199" cy="48" r="1"/><circle cx="283" cy="48" r="1"/><circle cx="199" cy="90" r="1"/><circle cx="283" cy="90" r="1"/><circle cx="227" cy="48" r="1"/><circle cx="311" cy="48" r="1"/><circle cx="227" cy="90" r="1"/><circle cx="311" cy="90" r="1"/><circle cx="213" cy="76" r="1"/><circle cx="297" cy="76" r="1"/><circle cx="199" cy="76" r="1"/><circle cx="283" cy="76" r="1"/><circle cx="227" cy="76" r="1"/><circle cx="311" cy="76" r="1"/><circle cx="339" cy="20" r="1"/><circle cx="423" cy="20" r="1"/><circle cx="325" cy="20" r="1"/><circle cx="409" cy="20" r="1"/><circle cx="353" cy="20" r="1"/><circle cx="437" cy="20" r="1"/><circle cx="339" cy="6" r="1"/><circle cx="423" cy="6" r="1"/><circle cx="325" cy="6" r="1"/><circle cx="409" cy="6" r="1"/><circle cx="353" cy="6" r="1"/><circle cx="437" cy="6" r="1"/><circle cx="339" cy="34" r="1"/><circle cx="423" cy="34" r="1"/><circle cx="325" cy="34" r="1"/><circle cx="409" cy="34" r="1"/><circle cx="353" cy="34" r="1"/><circle cx="437" cy="34" r="1"/><circle cx="381" cy="20" r="1"/><circle cx="465" cy="20" r="1"/><circle cx="367" cy="20" r="1"/><circle cx="451" cy="20" r="1"/><circle cx="395" cy="20" r="1"/><circle cx="479" cy="20" r="1"/><circle cx="381" cy="6" r="1"/><circle cx="465" cy="6" r="1"/><circle cx="367" cy="6" r="1"/><circle cx="451" cy="6" r="1"/><circle cx="395" cy="6" r="1"/><circle cx="479" cy="6" r="1"/><circle cx="381" cy="34" r="1"/><circle cx="465" cy="34" r="1"/><circle cx="367" cy="34" r="1"/><circle cx="451" cy="34" r="1"/><circle cx="395" cy="34" r="1"/><circle cx="479" cy="34" r="1"/><circle cx="339" cy="62" r="1"/><circle cx="423" cy="62" r="1"/><circle cx="325" cy="62" r="1"/><circle cx="409" cy="62" r="1"/><circle cx="353" cy="62" r="1"/><circle cx="437" cy="62" r="1"/><circle cx="339" cy="48" r="1"/><circle cx="423" cy="48" r="1"/><circle cx="339" cy="90" r="1"/><circle cx="423" cy="90" r="1"/><circle cx="325" cy="48" r="1"/><circle cx="409" cy="48" r="1"/><circle cx="325" cy="90" r="1"/><circle cx="409" cy="90" r="1"/><circle cx="353" cy="48" r="1"/><circle cx="437" cy="48" r="1"/><circle cx="353" cy="90" r="1"/><circle cx="437" cy="90" r="1"/><circle cx="339" cy="76" r="1"/><circle cx="423" cy="76" r="1"/><circle cx="325" cy="76" r="1"/><circle cx="409" cy="76" r="1"/><circle cx="353" cy="76" r="1"/><circle cx="437" cy="76" r="1"/><circle cx="381" cy="62" r="1"/><circle cx="465" cy="62" r="1"/><circle cx="367" cy="62" r="1"/><circle cx="451" cy="62" r="1"/><circle cx="395" cy="62" r="1"/><circle cx="479" cy="62" r="1"/><circle cx="381" cy="48" r="1"/><circle cx="465" cy="48" r="1"/><circle cx="381" cy="90" r="1"/><circle cx="465" cy="90" r="1"/><circle cx="367" cy="48" r="1"/><circle cx="451" cy="48" r="1"/><circle cx="367" cy="90" r="1"/><circle cx="451" cy="90" r="1"/><circle cx="395" cy="48" r="1"/><circle cx="479" cy="48" r="1"/><circle cx="395" cy="90" r="1"/><circle cx="479" cy="90" r="1"/><circle cx="381" cy="76" r="1"/><circle cx="465" cy="76" r="1"/><circle cx="367" cy="76" r="1"/><circle cx="451" cy="76" r="1"/><circle cx="395" cy="76" r="1"/><circle cx="479" cy="76" r="1"/><circle cx="507" cy="20" r="1"/><circle cx="591" cy="20" r="1"/><circle cx="493" cy="20" r="1"/><circle cx="577" cy="20" r="1"/><circle cx="521" cy="20" r="1"/><circle cx="605" cy="20" r="1"/><circle cx="507" cy="6" r="1"/><circle cx="591" cy="6" r="1"/><circle cx="493" cy="6" r="1"/><circle cx="577" cy="6" r="1"/><circle cx="521" cy="6" r="1"/><circle cx="605" cy="6" r="1"/><circle cx="507" cy="34" r="1"/><circle cx="591" cy="34" r="1"/><circle cx="493" cy="34" r="1"/><circle cx="577" cy="34" r="1"/><circle cx="521" cy="34" r="1"/><circle cx="605" cy="34" r="1"/><circle cx="549" cy="20" r="1"/><circle cx="633" cy="20" r="1"/><circle cx="535" cy="20" r="1"/><circle cx="619" cy="20" r="1"/><circle cx="563" cy="20" r="1"/><circle cx="647" cy="20" r="1"/><circle cx="549" cy="6" r="1"/><circle cx="633" cy="6" r="1"/><circle cx="535" cy="6" r="1"/><circle cx="619" cy="6" r="1"/><circle cx="563" cy="6" r="1"/><circle cx="647" cy="6" r="1"/><circle cx="549" cy="34" r="1"/><circle cx="633" cy="34" r="1"/><circle cx="535" cy="34" r="1"/><circle cx="619" cy="34" r="1"/><circle cx="563" cy="34" r="1"/><circle cx="647" cy="34" r="1"/><circle cx="507" cy="62" r="1"/><circle cx="591" cy="62" r="1"/><circle cx="493" cy="62" r="1"/><circle cx="577" cy="62" r="1"/><circle cx="521" cy="62" r="1"/><circle cx="605" cy="62" r="1"/><circle cx="507" cy="48" r="1"/><circle cx="591" cy="48" r="1"/><circle cx="507" cy="90" r="1"/><circle cx="591" cy="90" r="1"/><circle cx="493" cy="48" r="1"/><circle cx="577" cy="48" r="1"/><circle cx="493" cy="90" r="1"/><circle cx="577" cy="90" r="1"/><circle cx="521" cy="48" r="1"/><circle cx="605" cy="48" r="1"/><circle cx="521" cy="90" r="1"/><circle cx="605" cy="90" r="1"/><circle cx="507" cy="76" r="1"/><circle cx="591" cy="76" r="1"/><circle cx="493" cy="76" r="1"/><circle cx="577" cy="76" r="1"/><circle cx="521" cy="76" r="1"/><circle cx="605" cy="76" r="1"/><circle cx="549" cy="62" r="1"/><circle cx="633" cy="62" r="1"/><circle cx="535" cy="62" r="1"/><circle cx="619" cy="62" r="1"/><circle cx="563" cy="62" r="1"/><circle cx="647" cy="62" r="1"/><circle cx="549" cy="48" r="1"/><circle cx="633" cy="48" r="1"/><circle cx="549" cy="90" r="1"/><circle cx="633" cy="90" r="1"/><circle cx="535" cy="48" r="1"/><circle cx="619" cy="48" r="1"/><circle cx="535" cy="90" r="1"/><circle cx="619" cy="90" r="1"/><circle cx="563" cy="48" r="1"/><circle cx="647" cy="48" r="1"/><circle cx="563" cy="90" r="1"/><circle cx="647" cy="90" r="1"/><circle cx="549" cy="76" r="1"/><circle cx="633" cy="76" r="1"/><circle cx="535" cy="76" r="1"/><circle cx="619" cy="76" r="1"/><circle cx="563" cy="76" r="1"/><circle cx="647" cy="76" r="1"/><circle cx="675" cy="20" r="1"/><circle cx="661" cy="20" r="1"/><circle cx="689" cy="20" r="1"/><circle cx="675" cy="6" r="1"/><circle cx="661" cy="6" r="1"/><circle cx="689" cy="6" r="1"/><circle cx="675" cy="34" r="1"/><circle cx="661" cy="34" r="1"/><circle cx="689" cy="34" r="1"/><circle cx="675" cy="62" r="1"/><circle cx="661" cy="62" r="1"/><circle cx="689" cy="62" r="1"/><circle cx="675" cy="48" r="1"/><circle cx="675" cy="90" r="1"/><circle cx="661" cy="48" r="1"/><circle cx="661" cy="90" r="1"/><circle cx="689" cy="48" r="1"/><circle cx="689" cy="90" r="1"/><circle cx="675" cy="76" r="1"/><circle cx="661" cy="76" r="1"/><circle cx="689" cy="76" r="1"/><circle cx="703" cy="20" r="1"/><circle cx="703" cy="6" r="1"/><circle cx="703" cy="34" r="1"/><circle cx="703" cy="62" r="1"/><circle cx="703" cy="48" r="1"/><circle cx="703" cy="90" r="1"/><circle cx="703" cy="76" r="1"/><circle cx="717" cy="20" r="1"/><circle cx="717" cy="6" r="1"/><circle cx="717" cy="34" r="1"/><circle cx="717" cy="62" r="1"/><circle cx="717" cy="48" r="1"/><circle cx="717" cy="90" r="1"/><circle cx="717" cy="76" r="1"/></g><rect width="118.727" height="54.727" x="120.636" y="17.636" fill="#cfd4fc" rx="9.545"/><rect width="118.727" height="54.727" x="120.636" y="17.636" stroke="#3d50f5" stroke-width="1.273" rx="9.545"/><rect width="30.546" height="30.546" x="132.728" y="29.727" fill="#3d50f5" rx="3.818"/><path fill="#fff" d="M153.053 41.462a.955.955 0 0 1 1.35 0l2.863 2.863a.954.954 0 0 1 0 1.35l-2.863 2.864a.955.955 0 0 1-1.35-1.35l1.234-1.234h-7.241a.955.955 0 1 1 0-1.91h7.241l-1.234-1.234a.954.954 0 0 1 0-1.35M142.273 45a.954.954 0 1 0-1.908-.002.954.954 0 0 0 1.908.002m1.909 0a2.864 2.864 0 1 1-5.727 0 2.864 2.864 0 0 1 5.727 0"/><path fill="#17181c" d="M174.308 42.788a1.24 1.24 0 0 0-.534-.922q-.465-.33-1.211-.33-.524 0-.899.159-.375.157-.574.429-.2.27-.204.62 0 .289.131.5.137.213.366.362.23.145.511.244.28.1.565.168l.868.217q.524.121 1.008.33.488.207.872.524.388.315.615.764.226.448.226 1.048a2.5 2.5 0 0 1-.416 1.433q-.416.614-1.202.963-.783.343-1.894.343-1.08 0-1.876-.334-.79-.335-1.238-.977-.443-.641-.479-1.563h1.649q.037.483.299.804.261.321.682.48.425.157.949.157.547 0 .958-.162.417-.168.651-.461.236-.3.24-.696a.88.88 0 0 0-.213-.597 1.55 1.55 0 0 0-.583-.398 5.6 5.6 0 0 0-.867-.289l-1.053-.271q-1.144-.294-1.808-.89-.66-.601-.66-1.596 0-.818.443-1.433a2.9 2.9 0 0 1 1.216-.953q.768-.345 1.74-.344.985 0 1.726.344.745.338 1.171.944.424.602.438 1.383zm6.19 6.848q-1.017 0-1.762-.448a3.04 3.04 0 0 1-1.157-1.252q-.408-.804-.407-1.88 0-1.075.407-1.885.411-.809 1.157-1.256.745-.447 1.762-.447t1.763.447q.745.447 1.152 1.256.412.81.412 1.885 0 1.076-.412 1.88a3 3 0 0 1-1.152 1.252q-.746.448-1.763.448m.009-1.311q.552 0 .922-.303a1.83 1.83 0 0 0 .552-.822q.185-.516.185-1.149 0-.637-.185-1.152a1.83 1.83 0 0 0-.552-.827q-.37-.307-.922-.307-.565 0-.94.307a1.86 1.86 0 0 0-.556.827q-.18.515-.18 1.152 0 .633.18 1.148.186.516.556.823.375.303.94.303m9.131-1.745v-4.022h1.636V49.5h-1.586v-1.234h-.072a2.1 2.1 0 0 1-.773.954q-.533.37-1.316.37-.682 0-1.206-.302a2.1 2.1 0 0 1-.814-.89q-.294-.59-.294-1.42v-4.42h1.637v4.167q0 .66.361 1.048.362.39.949.39.362 0 .701-.177.339-.176.556-.524.22-.353.221-.882m3.319 2.92v-6.942h1.586v1.157h.072q.19-.6.651-.927.466-.33 1.062-.33.137 0 .303.014.173.01.285.032v1.505a1.7 1.7 0 0 0-.33-.064 3 3 0 0 0-.429-.031q-.448 0-.805.194-.352.19-.556.529a1.5 1.5 0 0 0-.203.782V49.5zm7.788.136q-1.04 0-1.785-.457a3.06 3.06 0 0 1-1.144-1.26q-.397-.81-.397-1.863 0-1.057.406-1.867a3.04 3.04 0 0 1 1.148-1.265q.747-.456 1.763-.456.846 0 1.496.311.655.307 1.044.873.389.56.443 1.31h-1.564a1.5 1.5 0 0 0-.452-.836q-.353-.339-.944-.339-.502 0-.882.271-.38.267-.592.769-.207.501-.208 1.202 0 .71.208 1.22.208.507.583.782.38.27.891.271.361 0 .646-.135.29-.14.484-.403.194-.261.266-.637h1.564a2.7 2.7 0 0 1-.434 1.306q-.375.565-1.021.886-.646.317-1.519.317m7.391 0q-1.044 0-1.803-.434a2.93 2.93 0 0 1-1.162-1.239q-.407-.804-.407-1.893 0-1.072.407-1.88a3.1 3.1 0 0 1 1.148-1.266q.737-.456 1.731-.456a3.5 3.5 0 0 1 1.211.207q.574.204 1.013.633.442.429.696 1.094.252.66.253 1.573v.501h-5.69v-1.102h4.121a1.76 1.76 0 0 0-.203-.837 1.5 1.5 0 0 0-.556-.583 1.56 1.56 0 0 0-.822-.212q-.502 0-.882.244-.38.24-.592.633-.207.389-.212.854v.963q0 .605.221 1.04.222.428.619.66.399.225.931.225.357 0 .647-.1.29-.104.501-.302.213-.2.321-.493l1.528.172q-.144.606-.551 1.058-.403.447-1.031.696a4 4 0 0 1-1.437.244"/><rect width="32.5" height="15.5" x="128.25" y="9.25" fill="#0f1c8a" rx="1.75"/><rect width="32.5" height="15.5" x="128.25" y="9.25" stroke="#3d50f5" stroke-width=".5" rx="1.75"/><path fill="#fff" d="M132.717 21v-7.273h4.659v1.105h-3.341v1.974h3.022v1.104h-3.022V21zm5.725 0v-5.454h1.246v.909h.057a1.36 1.36 0 0 1 1.346-.988q.106 0 .238.011.135.007.224.025v1.182a1.4 1.4 0 0 0-.26-.05 2.4 2.4 0 0 0-.337-.024q-.351 0-.632.152-.277.15-.437.416-.16.267-.16.614V21zm6.119.107q-.798 0-1.385-.352a2.4 2.4 0 0 1-.909-.984q-.32-.631-.319-1.477 0-.845.319-1.48a2.4 2.4 0 0 1 .909-.988q.587-.352 1.385-.352.8 0 1.385.352.587.351.906.987.323.636.323 1.481t-.323 1.477q-.32.633-.906.984-.585.352-1.385.352m.007-1.03q.434 0 .725-.238.29-.242.433-.646.146-.405.146-.902 0-.501-.146-.906a1.44 1.44 0 0 0-.433-.65 1.1 1.1 0 0 0-.725-.241q-.444 0-.738.241-.291.242-.437.65-.142.405-.142.906 0 .496.142.901.146.405.437.647.294.238.738.238m3.698.923v-5.454h1.229v.926h.064q.17-.468.564-.731.395-.267.941-.267.555 0 .934.27.384.267.54.728h.057a1.5 1.5 0 0 1 .611-.724q.433-.274 1.026-.274.752 0 1.229.476.475.475.475 1.389V21h-1.289v-3.462q0-.508-.27-.742a.96.96 0 0 0-.66-.238q-.465 0-.728.29-.26.289-.259.75V21h-1.261v-3.516q0-.422-.256-.674-.252-.252-.66-.252a.93.93 0 0 0-.504.142 1 1 0 0 0-.363.394 1.2 1.2 0 0 0-.135.59V21z"/><path fill="#d6e7e5" d="M490.182 17.637h99.636a9.545 9.545 0 0 1 9.545 9.545v35.636a9.545 9.545 0 0 1-9.545 9.545h-99.636a9.545 9.545 0 0 1-9.545-9.545V27.182a9.545 9.545 0 0 1 9.545-9.545"/><path stroke="#00695c" stroke-width="1.273" d="M490.182 17.637h99.636a9.545 9.545 0 0 1 9.545 9.545v35.636a9.545 9.545 0 0 1-9.545 9.545h-99.636a9.545 9.545 0 0 1-9.545-9.545V27.182a9.545 9.545 0 0 1 9.545-9.545Z"/><rect width="30.546" height="30.546" x="492.728" y="29.727" fill="#00695c" rx="3.818"/><path fill="#fff" d="M505.417 41.461a.954.954 0 0 1 1.349 0l2.864 2.864a.954.954 0 0 1 0 1.35l-2.864 2.864a.953.953 0 1 1-1.349-1.35l1.234-1.234h-7.241a.954.954 0 1 1 0-1.91h7.241l-1.234-1.234a.954.954 0 0 1 0-1.35"/><path fill="#fff" fill-rule="evenodd" d="M517.636 45a2.863 2.863 0 1 1-5.727.002 2.863 2.863 0 0 1 5.727-.002m-2.188-.675a.954.954 0 1 1-1.35 1.348.954.954 0 0 1 1.35-1.348" clip-rule="evenodd"/><path fill="#17181c" d="M528.87 41.65v-1.406h7.386v1.405h-2.861V49.5h-1.664v-7.85zm9.79 7.99q-.66 0-1.189-.235a1.94 1.94 0 0 1-.831-.705q-.303-.465-.303-1.148 0-.588.217-.972.216-.383.592-.614.375-.231.845-.348.474-.122.981-.177.61-.063.99-.113.38-.054.551-.162.177-.114.176-.348v-.027q0-.511-.303-.791-.302-.28-.872-.28-.601 0-.953.261a1.3 1.3 0 0 0-.471.62l-1.527-.217q.18-.633.596-1.058.417-.429 1.017-.642a3.9 3.9 0 0 1 1.329-.216q.502 0 .999.117t.908.389q.412.266.66.727.253.462.253 1.153V49.5h-1.572v-.954h-.055a1.98 1.98 0 0 1-1.093.945q-.403.15-.945.15m.425-1.202q.492 0 .854-.195a1.44 1.44 0 0 0 .556-.524q.2-.325.199-.71v-.817a.8.8 0 0 1-.262.117 4 4 0 0 1-.407.095q-.226.04-.448.072l-.384.055a3 3 0 0 0-.655.162q-.29.114-.457.317a.78.78 0 0 0-.167.515q0 .452.33.682t.841.23m4.886 1.062v-6.942h1.586v1.157h.072q.19-.6.651-.927.465-.33 1.062-.33.136 0 .303.014.171.01.285.032v1.505a1.7 1.7 0 0 0-.33-.064 3 3 0 0 0-.43-.031q-.447 0-.804.194-.352.19-.556.529a1.5 1.5 0 0 0-.203.782V49.5zm7.779 2.748q-.881 0-1.514-.24-.633-.234-1.017-.632a2.2 2.2 0 0 1-.533-.882l1.473-.357q.1.204.289.402.19.204.511.335.326.136.818.136.696 0 1.153-.34.456-.334.456-1.102v-1.315h-.081a2.3 2.3 0 0 1-.371.52q-.24.266-.637.447-.393.18-.99.18a2.85 2.85 0 0 1-1.451-.375q-.646-.38-1.03-1.13-.38-.754-.38-1.889 0-1.143.38-1.93.384-.79 1.035-1.197a2.66 2.66 0 0 1 1.451-.411q.61 0 1.003.207.398.204.633.493.234.285.357.538h.09v-1.148h1.614v7.055q0 .891-.425 1.473-.425.584-1.162.873-.736.288-1.672.289m.014-4.131q.519 0 .885-.253t.556-.728.19-1.139q0-.656-.19-1.148a1.64 1.64 0 0 0-.551-.763q-.362-.276-.89-.276-.547 0-.913.284-.367.285-.552.782a3.2 3.2 0 0 0-.185 1.121q0 .637.185 1.117.19.474.556.74.37.264.909.263m7.995 1.519q-1.044 0-1.804-.434a2.94 2.94 0 0 1-1.161-1.239q-.407-.804-.407-1.893 0-1.072.407-1.88a3.1 3.1 0 0 1 1.148-1.266q.736-.456 1.731-.456.641 0 1.211.207.574.204 1.013.633.442.429.696 1.094.253.66.253 1.573v.501h-5.691v-1.102h4.122a1.76 1.76 0 0 0-.203-.837 1.5 1.5 0 0 0-.556-.583 1.56 1.56 0 0 0-.823-.212q-.501 0-.881.244-.38.24-.592.633-.208.389-.212.854v.963q0 .605.221 1.04.222.428.619.66.398.225.931.225.357 0 .647-.1.289-.104.501-.302.213-.2.321-.493l1.528.172a2.4 2.4 0 0 1-.552 1.058q-.402.447-1.03.696a4 4 0 0 1-1.437.244m7.937-7.078v1.265h-3.991v-1.265zm-3.005-1.663h1.636v6.517q0 .33.099.506.105.172.271.235.168.063.371.063.154 0 .28-.022.132-.023.199-.04l.276 1.278q-.132.045-.375.1-.24.054-.588.063-.615.018-1.107-.185a1.7 1.7 0 0 1-.782-.642q-.285-.435-.28-1.085z"/><path fill="#00695c" d="M490 9.25h29c.966 0 1.75.784 1.75 1.75v12a1.75 1.75 0 0 1-1.75 1.75h-29a1.75 1.75 0 0 1-1.75-1.75V11c0-.966.784-1.75 1.75-1.75"/><path fill="#000" fill-opacity=".4" d="M490 9.25h29c.966 0 1.75.784 1.75 1.75v12a1.75 1.75 0 0 1-1.75 1.75h-29a1.75 1.75 0 0 1-1.75-1.75V11c0-.966.784-1.75 1.75-1.75"/><path stroke="#00695c" stroke-width=".5" d="M490 9.25h29c.966 0 1.75.784 1.75 1.75v12a1.75 1.75 0 0 1-1.75 1.75h-29a1.75 1.75 0 0 1-1.75-1.75V11c0-.966.784-1.75 1.75-1.75Z"/><path fill="#fff" d="M498.898 14.832v-1.105h5.802v1.105h-2.248V21h-1.306v-6.168zm8.452 6.275q-.798 0-1.385-.352a2.4 2.4 0 0 1-.909-.984q-.32-.631-.319-1.477 0-.845.319-1.48a2.4 2.4 0 0 1 .909-.988q.587-.352 1.385-.352.8 0 1.385.352.587.351.906.987.323.636.323 1.481t-.323 1.477q-.32.633-.906.984-.585.352-1.385.352m.007-1.03q.434 0 .725-.238.29-.242.433-.646.146-.405.146-.902 0-.501-.146-.906a1.44 1.44 0 0 0-.433-.65 1.1 1.1 0 0 0-.725-.241q-.444 0-.738.241-.291.242-.437.65-.142.405-.142.906 0 .496.142.901.146.405.437.647.294.238.738.238"/><path fill="#3d50f5" d="M243.25 44.25a.75.75 0 0 0 0 1.5v-1.5m53.972 1.5a.75.75 0 0 0 0-1.5v1.5m121.875-1.5a.75.75 0 1 0 0 1.5v-1.5m58.183 1.28a.75.75 0 0 0 0-1.06l-4.773-4.773a.75.75 0 1 0-1.06 1.06L475.689 45l-4.242 4.243a.75.75 0 0 0 1.06 1.06zM243.25 45v.75h53.972v-1.5H243.25zm175.847 0v.75h57.653v-1.5h-57.653z"/><path fill="#23262f" d="M306.706 42.455v1.022h-3.575v-1.022zm-2.617-1.569h1.275v6.192q0 .37.11.558a.58.58 0 0 0 .286.252q.179.064.388.064.153 0 .268-.022.116-.02.179-.034l.23 1.053a2.494 2.494 0 0 1-.826.136 2.24 2.24 0 0 1-.938-.179 1.6 1.6 0 0 1-.703-.58q-.269-.39-.269-.984zm4.7 10.569q-.286 0-.52-.047a1.7 1.7 0 0 1-.35-.094l.307-1.044q.35.094.622.08a.75.75 0 0 0 .482-.204q.213-.19.375-.626l.158-.435-2.395-6.63h1.363l1.658 5.08h.068l1.658-5.08h1.368l-2.698 7.419q-.187.51-.477.865a1.85 1.85 0 0 1-.69.537 2.3 2.3 0 0 1-.929.178m5.859 0v-9h1.245v1.06h.106q.111-.204.32-.472.209-.27.579-.47.37-.204.98-.204.793 0 1.415.4.622.402.976 1.156.358.754.358 1.815t-.354 1.82q-.353.753-.971 1.163-.618.405-1.411.405-.597 0-.976-.2a1.85 1.85 0 0 1-.588-.47 3.6 3.6 0 0 1-.328-.477h-.077v3.474zm1.249-5.728q0 .69.2 1.21t.58.814q.379.29.929.29.57 0 .954-.302.384-.307.58-.831.2-.525.2-1.18 0-.649-.196-1.164a1.8 1.8 0 0 0-.58-.814q-.383-.298-.958-.298-.555 0-.938.285-.379.285-.575.797t-.196 1.193m8.847 3.405q-.968 0-1.667-.413a2.8 2.8 0 0 1-1.073-1.172q-.375-.759-.375-1.777 0-1.006.375-1.773.379-.766 1.056-1.197.682-.43 1.594-.43.553 0 1.074.183.52.183.933.575t.652 1.018q.239.623.239 1.513v.452h-5.203v-.955h3.954q0-.503-.204-.89a1.55 1.55 0 0 0-.576-.618 1.6 1.6 0 0 0-.86-.226q-.537 0-.938.264-.396.26-.614.682a2 2 0 0 0-.213.908v.745q0 .657.231 1.117.234.46.651.703.418.239.976.239.363 0 .661-.103.299-.106.515-.315t.333-.516l1.206.218q-.145.533-.52.933-.37.396-.933.618a3.5 3.5 0 0 1-1.274.217m7.504-3.754q0-1.602.422-2.949a8.8 8.8 0 0 1 1.231-2.484h1.168q-.315.42-.588 1.035-.273.614-.477 1.347-.205.729-.32 1.513a10.5 10.5 0 0 0 .085 3.592q.2 1.04.542 1.93.34.89.758 1.453h-1.168a8.8 8.8 0 0 1-1.231-2.484q-.422-1.347-.422-2.953m6.736 3.754q-.967 0-1.666-.413a2.8 2.8 0 0 1-1.074-1.172q-.375-.759-.375-1.777 0-1.006.375-1.773.38-.766 1.057-1.197.682-.43 1.594-.43.553 0 1.074.183.519.183.933.575.413.391.652 1.018.239.623.239 1.513v.452h-5.204v-.955h3.955q0-.503-.205-.89a1.55 1.55 0 0 0-.575-.618 1.6 1.6 0 0 0-.861-.226q-.537 0-.937.264-.396.26-.614.682a2 2 0 0 0-.213.908v.745q0 .657.23 1.117.235.46.652.703.418.239.976.239.363 0 .661-.103.297-.106.515-.315.217-.21.333-.516l1.206.218q-.145.533-.52.933-.371.396-.934.618a3.5 3.5 0 0 1-1.274.217m4.93-.051a.83.83 0 0 1-.601-.247.82.82 0 0 1-.252-.605q0-.35.252-.597a.82.82 0 0 1 .601-.251.82.82 0 0 1 .601.251.8.8 0 0 1 .251.597q0 .234-.119.43a.9.9 0 0 1-.307.307.8.8 0 0 1-.426.115m5.171 2.51q-.78 0-1.342-.205a2.6 2.6 0 0 1-.912-.54 2.3 2.3 0 0 1-.529-.738l1.095-.452q.115.187.307.397.196.213.529.362.336.15.865.149.724 0 1.197-.354.474-.35.473-1.116v-1.287h-.081q-.114.209-.332.464-.213.256-.588.444-.375.186-.976.187-.775 0-1.398-.362-.618-.367-.98-1.078-.358-.717-.358-1.76t.354-1.79q.357-.746.98-1.142.623-.4 1.41-.4.61 0 .985.204.375.2.584.469.213.268.328.473h.094v-1.061h1.248v6.69q0 .843-.392 1.385-.392.54-1.061.801a4.1 4.1 0 0 1-1.5.26m-.013-3.746q.55 0 .929-.255.384-.26.58-.742.2-.486.2-1.163 0-.66-.196-1.164a1.73 1.73 0 0 0-.575-.784q-.38-.285-.938-.285-.575 0-.959.298a1.8 1.8 0 0 0-.579.801 3.2 3.2 0 0 0-.192 1.134q0 .643.196 1.129t.58.758q.387.273.954.273m5.382 1.236a.82.82 0 0 1-.6-.247.82.82 0 0 1-.252-.605q0-.35.252-.597a.82.82 0 0 1 .6-.251.82.82 0 0 1 .601.251.8.8 0 0 1 .252.597q0 .234-.12.43a.9.9 0 0 1-.306.307.8.8 0 0 1-.427.115m12.681-5.97h-1.329a2.02 2.02 0 0 0-.797-1.3 2.2 2.2 0 0 0-.678-.34 2.6 2.6 0 0 0-.788-.116q-.754 0-1.351.38-.592.378-.937 1.112-.341.732-.341 1.79 0 1.065.341 1.798.345.733.941 1.108.597.375 1.343.375.413 0 .784-.111.375-.116.677-.337a2.041 2.041 0 0 0 .806-1.283l1.329.005a3.6 3.6 0 0 1-.413 1.184 3.3 3.3 0 0 1-.78.93 3.5 3.5 0 0 1-1.082.6q-.61.213-1.33.213-1.133 0-2.02-.537-.886-.54-1.397-1.547-.507-1.005-.507-2.399 0-1.397.511-2.399.512-1.005 1.398-1.542.886-.542 2.015-.542.695 0 1.296.2.605.197 1.086.58.482.38.797.93.316.545.426 1.248m4.099 6.021q-.92 0-1.607-.422a2.85 2.85 0 0 1-1.065-1.18q-.38-.759-.379-1.773 0-1.019.379-1.781a2.84 2.84 0 0 1 1.065-1.185q.687-.422 1.607-.422t1.606.422 1.066 1.185.379 1.781q0 1.014-.379 1.773-.38.758-1.066 1.18t-1.606.422m.004-1.07q.597 0 .989-.315.391-.315.579-.84.192-.524.192-1.154 0-.627-.192-1.15a1.9 1.9 0 0 0-.579-.849q-.393-.32-.989-.32-.6 0-.997.32a1.9 1.9 0 0 0-.584.848q-.187.525-.187 1.15 0 .631.187 1.156.192.524.584.84.396.315.997.315m5.611-2.948V49h-1.274v-6.545h1.223v1.065h.081q.226-.52.708-.835.485-.316 1.223-.316.669 0 1.171.282.504.276.78.826.277.55.277 1.36V49h-1.274v-4.01q0-.711-.371-1.112-.37-.405-1.018-.405-.443 0-.788.192a1.4 1.4 0 0 0-.542.562q-.195.367-.196.887m8.821-2.66v1.023h-3.575v-1.022zm-2.616-1.568h1.274v6.192q0 .37.111.558a.58.58 0 0 0 .285.252q.18.064.388.064.154 0 .269-.022l.179-.034.23 1.053a2 2 0 0 1-.316.085 2.5 2.5 0 0 1-.511.051 2.2 2.2 0 0 1-.937-.179 1.6 1.6 0 0 1-.704-.58q-.268-.39-.268-.984zm5.799 8.259q-.623 0-1.125-.23a1.9 1.9 0 0 1-.797-.678q-.29-.442-.29-1.086 0-.555.213-.912.213-.358.575-.567a3 3 0 0 1 .81-.316q.447-.106.912-.161l.955-.111q.366-.046.532-.15.166-.1.166-.332v-.03q0-.558-.315-.865-.31-.306-.929-.306-.644 0-1.014.285a1.53 1.53 0 0 0-.507.627l-1.198-.273q.213-.597.623-.963.413-.37.95-.537.537-.17 1.129-.17.391 0 .831.093.443.09.827.332.387.243.635.695.246.447.247 1.163V49h-1.244v-.895h-.052a1.8 1.8 0 0 1-.37.486q-.248.238-.635.396a2.5 2.5 0 0 1-.929.158m.277-1.023q.528 0 .903-.209.38-.208.575-.545.201-.34.201-.729v-.844a.7.7 0 0 1-.264.128q-.192.056-.439.098l-.482.073-.392.05a3.2 3.2 0 0 0-.678.159q-.302.11-.485.32-.18.204-.179.545 0 .473.349.715.35.24.891.24m4.518.878v-6.545h1.274V49zm.643-7.555a.8.8 0 0 1-.571-.222.72.72 0 0 1-.234-.537q0-.316.234-.537a.8.8 0 0 1 .571-.226q.333 0 .567.226a.7.7 0 0 1 .239.537q0 .311-.239.537a.8.8 0 0 1-.567.222m3.487 3.669V49h-1.274v-6.545h1.223v1.065h.081q.226-.52.708-.835.485-.316 1.223-.316.669 0 1.171.282.504.276.78.826.277.55.277 1.36V49h-1.274v-4.01q0-.711-.371-1.112-.37-.405-1.018-.405-.444 0-.788.192a1.4 1.4 0 0 0-.542.562q-.196.367-.196.887m10.671-1.061-1.155.204a1.4 1.4 0 0 0-.23-.422 1.1 1.1 0 0 0-.418-.328 1.5 1.5 0 0 0-.66-.128q-.541 0-.904.243-.362.24-.362.618 0 .328.243.529.243.2.784.328l1.04.238q.903.21 1.347.644t.443 1.129q0 .588-.341 1.048-.337.456-.942.716-.6.26-1.393.26-1.1 0-1.794-.469-.695-.472-.853-1.342l1.232-.187q.115.48.473.728.358.243.933.243.627 0 1.002-.26.375-.264.375-.643a.67.67 0 0 0-.231-.516q-.225-.21-.694-.315l-1.108-.243q-.917-.21-1.355-.665-.435-.456-.435-1.155 0-.579.324-1.014a2.1 2.1 0 0 1 .895-.677 3.3 3.3 0 0 1 1.308-.248q1.06 0 1.671.46.609.456.805 1.224m3.847 1.325q0 1.605-.422 2.953a8.8 8.8 0 0 1-1.231 2.484h-1.168q.315-.42.588-1.035.273-.614.477-1.343.205-.732.32-1.517t.115-1.542q0-1.01-.2-2.05a11.4 11.4 0 0 0-.542-1.93q-.34-.89-.758-1.453h1.168a8.8 8.8 0 0 1 1.231 2.484q.422 1.346.422 2.949"/></g><defs><clipPath id="a"><path fill="#fff" d="M0 0h720v90H0z"/></clipPath><clipPath id="b"><path fill="#fff" d="M-12 5h730v646H-12z"/></clipPath></defs></svg>