<svg xmlns="http://www.w3.org/2000/svg" width="720" height="68" fill="none"><g clip-path="url(#a)"><path fill="#fff" d="M0 0h720v68H0z"/><g fill="#c1c3c8" clip-path="url(#b)" opacity=".5"><circle cx="3" cy="15" r="1"/><circle cx="87" cy="15" r="1"/><circle cx="73" cy="15" r="1"/><circle cx="17" cy="15" r="1"/><circle cx="101" cy="15" r="1"/><circle cx="3" cy="1" r="1"/><circle cx="87" cy="1" r="1"/><circle cx="73" cy="1" r="1"/><circle cx="17" cy="1" r="1"/><circle cx="101" cy="1" r="1"/><circle cx="3" cy="29" r="1"/><circle cx="87" cy="29" r="1"/><circle cx="73" cy="29" r="1"/><circle cx="17" cy="29" r="1"/><circle cx="101" cy="29" r="1"/><circle cx="45" cy="15" r="1"/><circle cx="129" cy="15" r="1"/><circle cx="31" cy="15" r="1"/><circle cx="115" cy="15" r="1"/><circle cx="59" cy="15" r="1"/><circle cx="143" cy="15" r="1"/><circle cx="45" cy="1" r="1"/><circle cx="129" cy="1" r="1"/><circle cx="31" cy="1" r="1"/><circle cx="115" cy="1" r="1"/><circle cx="59" cy="1" r="1"/><circle cx="143" cy="1" r="1"/><circle cx="45" cy="29" r="1"/><circle cx="129" cy="29" r="1"/><circle cx="31" cy="29" r="1"/><circle cx="115" cy="29" r="1"/><circle cx="59" cy="29" r="1"/><circle cx="143" cy="29" r="1"/><circle cx="3" cy="57" r="1"/><circle cx="87" cy="57" r="1"/><circle cx="73" cy="57" r="1"/><circle cx="17" cy="57" r="1"/><circle cx="101" cy="57" r="1"/><circle cx="3" cy="43" r="1"/><circle cx="87" cy="43" r="1"/><circle cx="73" cy="43" r="1"/><circle cx="17" cy="43" r="1"/><circle cx="101" cy="43" r="1"/><circle cx="45" cy="57" r="1"/><circle cx="129" cy="57" r="1"/><circle cx="31" cy="57" r="1"/><circle cx="115" cy="57" r="1"/><circle cx="59" cy="57" r="1"/><circle cx="143" cy="57" r="1"/><circle cx="45" cy="43" r="1"/><circle cx="129" cy="43" r="1"/><circle cx="31" cy="43" r="1"/><circle cx="115" cy="43" r="1"/><circle cx="59" cy="43" r="1"/><circle cx="143" cy="43" r="1"/><circle cx="171" cy="15" r="1"/><circle cx="255" cy="15" r="1"/><circle cx="157" cy="15" r="1"/><circle cx="241" cy="15" r="1"/><circle cx="185" cy="15" r="1"/><circle cx="269" cy="15" r="1"/><circle cx="171" cy="1" r="1"/><circle cx="255" cy="1" r="1"/><circle cx="157" cy="1" r="1"/><circle cx="241" cy="1" r="1"/><circle cx="185" cy="1" r="1"/><circle cx="269" cy="1" r="1"/><circle cx="171" cy="29" r="1"/><circle cx="255" cy="29" r="1"/><circle cx="157" cy="29" r="1"/><circle cx="241" cy="29" r="1"/><circle cx="185" cy="29" r="1"/><circle cx="269" cy="29" r="1"/><circle cx="213" cy="15" r="1"/><circle cx="297" cy="15" r="1"/><circle cx="199" cy="15" r="1"/><circle cx="283" cy="15" r="1"/><circle cx="227" cy="15" r="1"/><circle cx="311" cy="15" r="1"/><circle cx="213" cy="1" r="1"/><circle cx="297" cy="1" r="1"/><circle cx="199" cy="1" r="1"/><circle cx="283" cy="1" r="1"/><circle cx="227" cy="1" r="1"/><circle cx="311" cy="1" r="1"/><circle cx="213" cy="29" r="1"/><circle cx="297" cy="29" r="1"/><circle cx="199" cy="29" r="1"/><circle cx="283" cy="29" r="1"/><circle cx="227" cy="29" r="1"/><circle cx="311" cy="29" r="1"/><circle cx="171" cy="57" r="1"/><circle cx="255" cy="57" r="1"/><circle cx="157" cy="57" r="1"/><circle cx="241" cy="57" r="1"/><circle cx="185" cy="57" r="1"/><circle cx="269" cy="57" r="1"/><circle cx="171" cy="43" r="1"/><circle cx="255" cy="43" r="1"/><circle cx="157" cy="43" r="1"/><circle cx="241" cy="43" r="1"/><circle cx="185" cy="43" r="1"/><circle cx="269" cy="43" r="1"/><circle cx="213" cy="57" r="1"/><circle cx="297" cy="57" r="1"/><circle cx="199" cy="57" r="1"/><circle cx="283" cy="57" r="1"/><circle cx="227" cy="57" r="1"/><circle cx="311" cy="57" r="1"/><circle cx="213" cy="43" r="1"/><circle cx="297" cy="43" r="1"/><circle cx="199" cy="43" r="1"/><circle cx="283" cy="43" r="1"/><circle cx="227" cy="43" r="1"/><circle cx="311" cy="43" r="1"/><circle cx="339" cy="15" r="1"/><circle cx="423" cy="15" r="1"/><circle cx="325" cy="15" r="1"/><circle cx="409" cy="15" r="1"/><circle cx="353" cy="15" r="1"/><circle cx="437" cy="15" r="1"/><circle cx="339" cy="1" r="1"/><circle cx="423" cy="1" r="1"/><circle cx="325" cy="1" r="1"/><circle cx="409" cy="1" r="1"/><circle cx="353" cy="1" r="1"/><circle cx="437" cy="1" r="1"/><circle cx="339" cy="29" r="1"/><circle cx="423" cy="29" r="1"/><circle cx="325" cy="29" r="1"/><circle cx="409" cy="29" r="1"/><circle cx="353" cy="29" r="1"/><circle cx="437" cy="29" r="1"/><circle cx="381" cy="15" r="1"/><circle cx="465" cy="15" r="1"/><circle cx="367" cy="15" r="1"/><circle cx="451" cy="15" r="1"/><circle cx="395" cy="15" r="1"/><circle cx="479" cy="15" r="1"/><circle cx="381" cy="1" r="1"/><circle cx="465" cy="1" r="1"/><circle cx="367" cy="1" r="1"/><circle cx="451" cy="1" r="1"/><circle cx="395" cy="1" r="1"/><circle cx="479" cy="1" r="1"/><circle cx="381" cy="29" r="1"/><circle cx="465" cy="29" r="1"/><circle cx="367" cy="29" r="1"/><circle cx="451" cy="29" r="1"/><circle cx="395" cy="29" r="1"/><circle cx="479" cy="29" r="1"/><circle cx="339" cy="57" r="1"/><circle cx="423" cy="57" r="1"/><circle cx="325" cy="57" r="1"/><circle cx="409" cy="57" r="1"/><circle cx="353" cy="57" r="1"/><circle cx="437" cy="57" r="1"/><circle cx="339" cy="43" r="1"/><circle cx="423" cy="43" r="1"/><circle cx="325" cy="43" r="1"/><circle cx="409" cy="43" r="1"/><circle cx="353" cy="43" r="1"/><circle cx="437" cy="43" r="1"/><circle cx="381" cy="57" r="1"/><circle cx="465" cy="57" r="1"/><circle cx="367" cy="57" r="1"/><circle cx="451" cy="57" r="1"/><circle cx="395" cy="57" r="1"/><circle cx="479" cy="57" r="1"/><circle cx="381" cy="43" r="1"/><circle cx="465" cy="43" r="1"/><circle cx="367" cy="43" r="1"/><circle cx="451" cy="43" r="1"/><circle cx="395" cy="43" r="1"/><circle cx="479" cy="43" r="1"/><circle cx="507" cy="15" r="1"/><circle cx="591" cy="15" r="1"/><circle cx="493" cy="15" r="1"/><circle cx="577" cy="15" r="1"/><circle cx="521" cy="15" r="1"/><circle cx="605" cy="15" r="1"/><circle cx="507" cy="1" r="1"/><circle cx="591" cy="1" r="1"/><circle cx="493" cy="1" r="1"/><circle cx="577" cy="1" r="1"/><circle cx="521" cy="1" r="1"/><circle cx="605" cy="1" r="1"/><circle cx="507" cy="29" r="1"/><circle cx="591" cy="29" r="1"/><circle cx="493" cy="29" r="1"/><circle cx="577" cy="29" r="1"/><circle cx="521" cy="29" r="1"/><circle cx="605" cy="29" r="1"/><circle cx="549" cy="15" r="1"/><circle cx="633" cy="15" r="1"/><circle cx="535" cy="15" r="1"/><circle cx="619" cy="15" r="1"/><circle cx="563" cy="15" r="1"/><circle cx="647" cy="15" r="1"/><circle cx="549" cy="1" r="1"/><circle cx="633" cy="1" r="1"/><circle cx="535" cy="1" r="1"/><circle cx="619" cy="1" r="1"/><circle cx="563" cy="1" r="1"/><circle cx="647" cy="1" r="1"/><circle cx="549" cy="29" r="1"/><circle cx="633" cy="29" r="1"/><circle cx="535" cy="29" r="1"/><circle cx="619" cy="29" r="1"/><circle cx="563" cy="29" r="1"/><circle cx="647" cy="29" r="1"/><circle cx="507" cy="57" r="1"/><circle cx="591" cy="57" r="1"/><circle cx="493" cy="57" r="1"/><circle cx="577" cy="57" r="1"/><circle cx="521" cy="57" r="1"/><circle cx="605" cy="57" r="1"/><circle cx="507" cy="43" r="1"/><circle cx="591" cy="43" r="1"/><circle cx="493" cy="43" r="1"/><circle cx="577" cy="43" r="1"/><circle cx="521" cy="43" r="1"/><circle cx="605" cy="43" r="1"/><circle cx="549" cy="57" r="1"/><circle cx="633" cy="57" r="1"/><circle cx="535" cy="57" r="1"/><circle cx="619" cy="57" r="1"/><circle cx="563" cy="57" r="1"/><circle cx="647" cy="57" r="1"/><circle cx="549" cy="43" r="1"/><circle cx="633" cy="43" r="1"/><circle cx="535" cy="43" r="1"/><circle cx="619" cy="43" r="1"/><circle cx="563" cy="43" r="1"/><circle cx="647" cy="43" r="1"/><circle cx="675" cy="15" r="1"/><circle cx="661" cy="15" r="1"/><circle cx="689" cy="15" r="1"/><circle cx="675" cy="1" r="1"/><circle cx="661" cy="1" r="1"/><circle cx="689" cy="1" r="1"/><circle cx="675" cy="29" r="1"/><circle cx="661" cy="29" r="1"/><circle cx="689" cy="29" r="1"/><circle cx="675" cy="57" r="1"/><circle cx="661" cy="57" r="1"/><circle cx="689" cy="57" r="1"/><circle cx="675" cy="43" r="1"/><circle cx="661" cy="43" r="1"/><circle cx="689" cy="43" r="1"/><circle cx="703" cy="15" r="1"/><circle cx="703" cy="1" r="1"/><circle cx="703" cy="29" r="1"/><circle cx="703" cy="57" r="1"/><circle cx="703" cy="43" r="1"/><circle cx="717" cy="15" r="1"/><circle cx="717" cy="1" r="1"/><circle cx="717" cy="29" r="1"/><circle cx="717" cy="57" r="1"/><circle cx="717" cy="43" r="1"/></g><rect width="115" height="43" x="12.5" y="12.5" fill="#edeef3" rx="7.5"/><rect width="115" height="43" x="12.5" y="12.5" stroke="#555962" rx="7.5"/><rect width="24" height="24" x="22" y="22" fill="#555962" rx="3"/><path fill="#edeef3" d="M39.25 31.75a.75.75 0 0 1-.75.75H37a.75.75 0 0 1-.75-.75h-.75v7.5H40v-7.5zm-11.25-3v9h6v-6a1.5 1.5 0 0 1 1.5-1.5h2.25v-1.5zm11.25 1.5H40a1.5 1.5 0 0 1 1.5 1.5v7.5a1.5 1.5 0 0 1-1.5 1.5h-4.5a1.5 1.5 0 0 1-1.5-1.5h-6a1.5 1.5 0 0 1-1.5-1.5v-9a1.5 1.5 0 0 1 1.5-1.5h9.75a1.5 1.5 0 0 1 1.5 1.5z"/><path fill="#17181c" d="M50.717 38v-7.273h1.318v6.169h3.203V38zm7.987.106q-.8 0-1.385-.351a2.4 2.4 0 0 1-.91-.984q-.319-.631-.319-1.477 0-.845.32-1.48.323-.637.909-.988.585-.352 1.385-.352.798 0 1.385.352.585.351.905.987.324.636.324 1.481t-.324 1.477q-.32.633-.905.984t-1.385.351m.007-1.03q.433 0 .724-.237.291-.242.434-.646.145-.405.145-.902 0-.501-.145-.906a1.43 1.43 0 0 0-.434-.65 1.1 1.1 0 0 0-.724-.241q-.444 0-.739.241-.291.242-.437.65-.141.405-.141.906 0 .496.142.902.145.405.436.646.295.238.739.238m6.077 1.03q-.817 0-1.403-.358a2.4 2.4 0 0 1-.898-.99q-.313-.637-.313-1.464 0-.831.32-1.467.32-.639.902-.994.585-.359 1.385-.359.663 0 1.175.245.515.242.82.686.306.44.349 1.03h-1.23a1.18 1.18 0 0 0-.354-.657q-.277-.267-.742-.267-.395 0-.693.213-.298.21-.465.604a2.5 2.5 0 0 0-.163.945q0 .557.163.958.163.398.458.615.298.213.7.213.284 0 .507-.107.228-.11.38-.316.153-.206.21-.5h1.228q-.046.579-.34 1.026a2 2 0 0 1-.803.696q-.507.248-1.193.248m4.962.004q-.519 0-.934-.185a1.52 1.52 0 0 1-.654-.554q-.238-.365-.238-.902 0-.461.17-.763a1.3 1.3 0 0 1 .466-.483q.295-.18.664-.273.373-.096.77-.139.48-.05.778-.089.3-.041.434-.128.138-.088.138-.273V34.3q0-.402-.238-.622-.237-.22-.685-.22-.472 0-.75.206-.273.206-.369.487l-1.2-.17q.142-.498.469-.832a2.04 2.04 0 0 1 .799-.504q.472-.17 1.044-.17.394 0 .784.092t.714.305q.323.21.519.572.199.362.199.905V38h-1.236v-.75h-.043a1.6 1.6 0 0 1-.33.427q-.21.195-.53.316-.315.117-.741.117m.334-.944q.386 0 .67-.153a1.13 1.13 0 0 0 .437-.412 1.05 1.05 0 0 0 .157-.558v-.642a.6.6 0 0 1-.206.092 3 3 0 0 1-.32.075q-.177.031-.352.056l-.301.043a2.3 2.3 0 0 0-.515.128.86.86 0 0 0-.359.248.6.6 0 0 0-.131.405q0 .356.259.536.26.181.66.181m5.124-6.439V38h-1.286v-7.273zm5.826 7.369q-.642 0-1.15-.33t-.803-.96q-.294-.627-.295-1.526 0-.91.299-1.534.3-.63.813-.948a2.1 2.1 0 0 1 1.14-.324q.48 0 .788.164.31.159.49.387.182.224.28.422h.054v-2.72h1.29V38h-1.265v-.86h-.078a2.2 2.2 0 0 1-.288.423 1.6 1.6 0 0 1-.497.377q-.309.156-.778.156m.359-1.055q.408 0 .696-.22.287-.224.437-.621.15-.399.149-.927 0-.53-.15-.92a1.3 1.3 0 0 0-.433-.607 1.12 1.12 0 0 0-.7-.217q-.429 0-.716.224-.288.223-.434.618a2.6 2.6 0 0 0-.145.902q0 .51.145.912.15.398.437.629.291.227.714.227m6.33 1.066q-.82 0-1.416-.341-.593-.345-.913-.973-.32-.633-.32-1.488 0-.842.32-1.478.323-.639.902-.994.58-.359 1.36-.359.504 0 .952.164.45.16.795.497.349.337.547.86.2.518.2 1.235v.394h-4.472v-.866h3.239a1.4 1.4 0 0 0-.16-.657 1.16 1.16 0 0 0-.437-.458 1.23 1.23 0 0 0-.646-.167q-.394 0-.693.192a1.3 1.3 0 0 0-.465.497 1.4 1.4 0 0 0-.167.67v.757q0 .477.174.817.174.337.487.519.312.177.731.177.282 0 .508-.078a1.1 1.1 0 0 0 .395-.238 1 1 0 0 0 .252-.387l1.2.135q-.114.476-.433.83-.316.353-.81.548-.495.192-1.13.191m8.23-5.562L94.01 38h-1.42l-1.943-5.455h1.37l1.255 4.052h.056l1.257-4.052zm.89 5.455v-5.455h1.285V38zm.645-6.229a.75.75 0 0 1-.525-.202.65.65 0 0 1-.22-.494q0-.29.22-.493a.74.74 0 0 1 .526-.206q.308 0 .525.206.22.203.22.493a.65.65 0 0 1-.22.494.74.74 0 0 1-.525.202m4.341 6.335q-.817 0-1.403-.358a2.4 2.4 0 0 1-.898-.99q-.313-.637-.313-1.464 0-.831.32-1.467.32-.639.902-.994.585-.359 1.385-.359.663 0 1.175.245.515.242.82.686.306.44.348 1.03h-1.228a1.18 1.18 0 0 0-.355-.657q-.277-.267-.743-.267-.393 0-.692.213-.298.21-.465.604a2.5 2.5 0 0 0-.164.945q0 .557.164.958.163.398.458.615.299.213.699.213.285 0 .508-.107a1 1 0 0 0 .38-.316q.153-.206.21-.5h1.228q-.046.579-.34 1.026a2 2 0 0 1-.803.696q-.508.248-1.193.248m5.807 0q-.82 0-1.417-.34-.593-.345-.913-.973-.32-.633-.319-1.488 0-.842.319-1.478a2.4 2.4 0 0 1 .902-.994q.58-.359 1.36-.359.505 0 .952.164.451.16.796.497.348.337.546.86.2.518.199 1.235v.394h-4.471v-.866h3.239a1.4 1.4 0 0 0-.16-.657 1.16 1.16 0 0 0-.437-.458 1.23 1.23 0 0 0-.646-.167 1.25 1.25 0 0 0-.692.192 1.3 1.3 0 0 0-.466.497 1.44 1.44 0 0 0-.166.67v.757q0 .477.174.817.174.337.486.519.312.177.732.177.28 0 .507-.078.228-.082.395-.238a1 1 0 0 0 .252-.387l1.2.135q-.114.476-.433.83a2.1 2.1 0 0 1-.81.548 3.1 3.1 0 0 1-1.129.191m7.824-4.119-1.172.128a.9.9 0 0 0-.174-.334.86.86 0 0 0-.327-.252 1.2 1.2 0 0 0-.504-.096q-.4 0-.675.174-.27.175-.266.451a.47.47 0 0 0 .174.387q.181.15.597.245l.93.2q.774.166 1.151.528.38.363.383.949a1.48 1.48 0 0 1-.302.909q-.294.39-.82.61-.525.22-1.207.22-1.002 0-1.613-.419a1.69 1.69 0 0 1-.728-1.175l1.254-.12a.88.88 0 0 0 .362.557q.277.188.721.188.458 0 .735-.188.28-.188.281-.465a.49.49 0 0 0-.182-.387q-.177-.153-.553-.235l-.931-.195q-.784-.164-1.161-.55-.376-.39-.373-.988a1.4 1.4 0 0 1 .273-.873q.281-.373.778-.576a3 3 0 0 1 1.154-.206q.959 0 1.51.409.553.408.685 1.104"/><rect width="115" height="43" x="157.5" y="12.5" fill="#f9c3d6" rx="7.5"/><rect width="115" height="43" x="157.5" y="12.5" stroke="#f53d7d" rx="7.5"/><rect width="24" height="24" x="167" y="22" fill="#8a0f3a" rx="3"/><path fill="#f9c3d6" d="M176.97 32.72a.75.75 0 1 1 1.06 1.06l-.97.97 1.19 1.19.97-.97a.75.75 0 1 1 1.06 1.06l-.97.97.22.22a.75.75 0 0 1 0 1.06l-1.125 1.125a3.4 3.4 0 0 1-4.251.501l-1.374 1.374a.75.75 0 1 1-1.06-1.06l1.373-1.374a3.397 3.397 0 0 1-.251-3.155c.178-.416.437-.791.761-1.105l1.117-1.116.055-.05a.75.75 0 0 1 1.005.05l.22.22zm-2.324 2.944a1.9 1.9 0 0 0-.578 1.35c-.002.253.046.504.141.737q.104.252.275.466a.75.75 0 0 1 .299.298 1.893 1.893 0 0 0 2.553-.162l.603-.603-2.689-2.69zm10.574-8.944a.75.75 0 1 1 1.06 1.06l-1.374 1.374q.159.25.273.526a3.4 3.4 0 0 1-.775 3.724l.001.001-1.125 1.125a.75.75 0 0 1-1.06 0l-3.75-3.75a.75.75 0 0 1 0-1.06l1.125-1.125a3.4 3.4 0 0 1 4.251-.502zm-3.205 2.348a1.9 1.9 0 0 0-1.351.578l-.604.604 2.69 2.69.603-.604c.182-.176.326-.386.425-.618a1.917 1.917 0 0 0 .013-1.47 2 2 0 0 0-.276-.465.73.73 0 0 1-.299-.3 1.9 1.9 0 0 0-1.201-.415"/><path fill="#17181c" d="M201.942 33.181h-1.328a1.7 1.7 0 0 0-.209-.579 1.6 1.6 0 0 0-.38-.433 1.6 1.6 0 0 0-.519-.266 2 2 0 0 0-.621-.093q-.593 0-1.051.299-.459.294-.718.866-.258.569-.259 1.389 0 .834.259 1.406.264.568.718.86.457.287 1.047.287.327 0 .611-.085.288-.09.515-.26.231-.17.387-.419.16-.248.22-.568l1.328.007q-.074.519-.323.973-.245.454-.642.803-.399.345-.931.54a3.5 3.5 0 0 1-1.182.191q-.96 0-1.712-.443a3.1 3.1 0 0 1-1.186-1.282q-.433-.84-.433-2.01 0-1.176.436-2.01.438-.838 1.19-1.282a3.3 3.3 0 0 1 1.705-.444q.607 0 1.129.17t.93.501q.409.327.671.803.267.471.348 1.08m3.529 4.926q-.798 0-1.385-.352a2.4 2.4 0 0 1-.909-.984q-.32-.631-.319-1.477 0-.845.319-1.48a2.4 2.4 0 0 1 .909-.988q.587-.352 1.385-.352.8 0 1.385.352.587.351.906.987.323.636.323 1.481t-.323 1.477q-.32.633-.906.984-.585.351-1.385.351m.008-1.03q.433 0 .724-.238.29-.242.433-.646.146-.405.146-.902 0-.501-.146-.906a1.44 1.44 0 0 0-.433-.65 1.1 1.1 0 0 0-.724-.241q-.445 0-.739.241-.291.242-.437.65-.142.405-.142.906 0 .496.142.902.146.405.437.646.294.238.739.238m4.983-2.273V38h-1.286v-5.455h1.229v.927h.064q.188-.458.6-.728.415-.27 1.026-.27.565 0 .984.242.423.24.653.7.234.457.231 1.111V38h-1.285v-3.274q0-.547-.285-.856-.28-.309-.777-.309-.338 0-.6.15a1.04 1.04 0 0 0-.409.422 1.4 1.4 0 0 0-.145.671m6.093 0V38h-1.285v-5.455h1.229v.927h.063q.189-.458.601-.728.415-.27 1.026-.27.564 0 .984.242.422.24.653.7.234.457.231 1.111V38h-1.286v-3.274q0-.547-.284-.856-.28-.309-.777-.309a1.2 1.2 0 0 0-.601.15 1.04 1.04 0 0 0-.408.422 1.4 1.4 0 0 0-.146.671m7.223 3.302q-.82 0-1.416-.34-.594-.345-.913-.973-.32-.633-.32-1.488 0-.842.32-1.478.323-.639.902-.994.579-.359 1.36-.359.504 0 .952.164.45.16.795.497.348.337.547.86.2.518.199 1.235v.394h-4.471v-.866h3.239a1.4 1.4 0 0 0-.16-.657 1.16 1.16 0 0 0-.437-.458 1.23 1.23 0 0 0-.646-.167q-.395 0-.693.192a1.3 1.3 0 0 0-.465.497 1.4 1.4 0 0 0-.167.67v.757q0 .477.174.817.174.337.487.519.312.177.731.177.28 0 .508-.078a1.1 1.1 0 0 0 .394-.238 1 1 0 0 0 .252-.387l1.201.135a1.9 1.9 0 0 1-.434.83q-.315.353-.809.548a3.1 3.1 0 0 1-1.13.191m5.893 0q-.817 0-1.403-.358a2.4 2.4 0 0 1-.899-.99q-.312-.637-.312-1.464 0-.831.32-1.467a2.4 2.4 0 0 1 .902-.994q.585-.359 1.385-.359.663 0 1.175.245.515.242.82.686.306.44.348 1.03h-1.228a1.18 1.18 0 0 0-.356-.657q-.276-.267-.742-.267-.393 0-.692.213-.299.21-.465.604a2.5 2.5 0 0 0-.164.945q0 .557.164.958.163.398.458.615.298.213.699.213.285 0 .508-.107a1 1 0 0 0 .38-.316q.153-.206.21-.5h1.228q-.045.579-.341 1.026a2 2 0 0 1-.802.696q-.508.248-1.193.248m6.116-5.56v.994h-3.136v-.995zm-2.362-1.307h1.286v5.12q0 .26.078.398.081.135.213.185.13.05.291.05.12 0 .22-.018.103-.018.156-.032l.217 1.005q-.103.035-.295.078a2.4 2.4 0 0 1-.461.05q-.483.013-.87-.146a1.36 1.36 0 0 1-.615-.504q-.223-.342-.22-.853zm5.757 6.867q-.798 0-1.385-.351a2.4 2.4 0 0 1-.909-.984q-.32-.631-.319-1.477 0-.845.319-1.48a2.4 2.4 0 0 1 .909-.988q.587-.352 1.385-.352.8 0 1.385.352.587.351.906.987.323.636.323 1.481t-.323 1.477q-.32.633-.906.984-.585.351-1.385.351m.007-1.03q.434 0 .725-.237.29-.242.433-.646.146-.405.146-.902 0-.501-.146-.906a1.44 1.44 0 0 0-.433-.65 1.1 1.1 0 0 0-.725-.241q-.443 0-.738.241-.291.242-.437.65-.142.405-.142.906 0 .496.142.902.146.405.437.646.295.238.738.238m3.698.924v-5.455h1.247v.91h.056q.15-.473.512-.728.366-.26.834-.26.107 0 .238.011.135.007.224.025v1.182a1.4 1.4 0 0 0-.259-.05 2.4 2.4 0 0 0-.338-.024q-.351 0-.632.153-.276.148-.437.415a1.2 1.2 0 0 0-.159.614V38z"/><path fill="#555962" d="M130.72 33.47a.75.75 0 0 0 0 1.06l4.773 4.773a.75.75 0 1 0 1.06-1.06L132.311 34l4.242-4.243a.75.75 0 0 0-1.06-1.06zm23.56 1.06a.75.75 0 0 0 0-1.06l-4.773-4.773a.75.75 0 1 0-1.06 1.06L152.689 34l-4.242 4.243a.75.75 0 0 0 1.06 1.06zM131.25 34v.75h22.5v-1.5h-22.5z"/><rect width="115" height="43" x="302.5" y="12.5" fill="#edd1fa" rx="7.5"/><rect width="115" height="43" x="302.5" y="12.5" stroke="#bb3df5" rx="7.5"/><rect width="24" height="24" x="312" y="22" fill="#660891" rx="3"/><path fill="#edd1fa" d="M322 37.358v-1.997h-1.333v1.997H318a.667.667 0 0 0 0 1.334h2.667A1.337 1.337 0 0 0 322 37.358M324.667 38.025V35.36h-1.334v2.664a.668.668 0 0 0 1.334 0M326 35.36v1.998a1.334 1.334 0 0 0 1.333 1.334H330a.667.667 0 0 0 0-1.334h-2.667v-1.997zM327.333 31.358a.666.666 0 1 1 0 1.333h-4a.666.666 0 0 1 0-1.333z"/><path fill="#edd1fa" fill-rule="evenodd" d="M328 35.358h-8c-.8 0-1.509-.444-1.763-.666a2.667 2.667 0 0 1-.904-2v-1.334A2.67 2.67 0 0 1 320 28.692h8a2.67 2.67 0 0 1 2.667 2.666v1.333a2.67 2.67 0 0 1-.904 2c-.348.392-1.32.608-1.763.667m.943-4.942c.25.25.39.589.39.942v1.333A1.333 1.333 0 0 1 328 34.026h-8a1.336 1.336 0 0 1-1.333-1.334v-1.333A1.333 1.333 0 0 1 320 30.025h8c.354 0 .693.14.943.39" clip-rule="evenodd"/><path fill="#edd1fa" d="M320 32.031v-.006a.667.667 0 0 1 1.333 0v.006a.666.666 0 1 1-1.333 0"/><path fill="#17181c" d="M342.035 30.727V38h-1.318v-7.273zm3.749 7.38q-.799 0-1.385-.352a2.4 2.4 0 0 1-.909-.984q-.32-.631-.32-1.477 0-.845.32-1.48.322-.637.909-.988.586-.352 1.385-.352t1.385.352q.585.351.905.987.324.636.324 1.481t-.324 1.477q-.32.633-.905.984-.586.351-1.385.351m.007-1.03q.433 0 .724-.238.292-.242.434-.646.145-.405.145-.902 0-.501-.145-.906a1.43 1.43 0 0 0-.434-.65 1.1 1.1 0 0 0-.724-.241q-.444 0-.739.241a1.46 1.46 0 0 0-.436.65q-.142.405-.142.906 0 .496.142.902.145.405.436.646.295.238.739.238m3.034-5.245v-1.105h5.803v1.105h-2.248V38h-1.307v-6.168zm14.274 1.218a1.9 1.9 0 0 0-.245-.515 1.6 1.6 0 0 0-.369-.394 1.5 1.5 0 0 0-.49-.245 2 2 0 0 0-.604-.086q-.585 0-1.044.295-.458.295-.721.867-.26.568-.259 1.384 0 .825.259 1.396.26.572.721.87a1.95 1.95 0 0 0 1.073.295q.553 0 .958-.213.409-.213.629-.604.22-.394.22-.923l.298.046h-1.974v-1.03h2.951v.874q0 .933-.398 1.615t-1.094 1.052q-.696.365-1.598.365-1.005 0-1.764-.45a3.1 3.1 0 0 1-1.183-1.29q-.423-.837-.423-1.988 0-.881.249-1.573.252-.693.703-1.176.452-.486 1.058-.738.608-.255 1.321-.256.604 0 1.126.177.522.174.927.498.408.322.671.767.263.443.345.98zm4.19 5.06q-.519 0-.934-.185a1.5 1.5 0 0 1-.654-.554q-.238-.365-.238-.902 0-.461.171-.763t.465-.483q.295-.18.664-.273.373-.096.771-.139.48-.05.777-.089.299-.041.434-.128.138-.088.138-.273V34.3q0-.402-.238-.622t-.685-.22q-.473 0-.749.206a1 1 0 0 0-.37.487l-1.2-.17q.142-.498.469-.832a2.04 2.04 0 0 1 .799-.504q.472-.17 1.044-.17.394 0 .785.092.39.092.713.305.324.21.519.572.198.362.199.905V38h-1.236v-.75h-.043a1.57 1.57 0 0 1-.859.743 2.1 2.1 0 0 1-.742.117m.334-.944q.387 0 .671-.153.284-.156.436-.412.157-.255.157-.558v-.642a.6.6 0 0 1-.206.092 3 3 0 0 1-.32.075q-.177.031-.351.056l-.302.043a2.2 2.2 0 0 0-.515.128.86.86 0 0 0-.359.248.6.6 0 0 0-.131.405q0 .356.259.536.26.181.661.181m6.562-4.62v.994h-3.136v-.995zm-2.361-1.307h1.285v5.12q0 .26.078.398.082.135.213.185a.8.8 0 0 0 .291.05q.121 0 .221-.018.102-.018.156-.032l.216 1.005q-.102.035-.294.078-.189.042-.462.05-.483.013-.87-.146a1.35 1.35 0 0 1-.614-.504q-.224-.342-.22-.853zm5.792 6.867q-.82 0-1.417-.34a2.3 2.3 0 0 1-.912-.973q-.32-.633-.32-1.488 0-.842.32-1.478.323-.639.902-.994.579-.359 1.36-.359.504 0 .952.164.45.16.795.497.348.337.547.86.199.518.199 1.235v.394h-4.471v-.866h3.238a1.4 1.4 0 0 0-.159-.657 1.16 1.16 0 0 0-.437-.458 1.23 1.23 0 0 0-.646-.167q-.394 0-.693.192a1.3 1.3 0 0 0-.465.497 1.4 1.4 0 0 0-.167.67v.757q0 .477.174.817.174.337.487.519.312.177.731.177.28 0 .508-.078a1.1 1.1 0 0 0 .394-.238 1 1 0 0 0 .252-.387l1.2.135q-.113.476-.433.83-.315.353-.809.548a3.1 3.1 0 0 1-1.13.191m4.61-.106-1.542-5.455h1.311l.959 3.836h.049l.98-3.836h1.297l.98 3.814h.053l.945-3.814h1.314L387.027 38h-1.339l-1.023-3.686h-.074L383.568 38zm8.813.11q-.519 0-.934-.185a1.5 1.5 0 0 1-.654-.554q-.238-.365-.238-.902 0-.461.171-.763t.465-.483q.295-.18.664-.273.373-.096.771-.139.48-.05.777-.089.299-.041.434-.128.138-.088.138-.273V34.3q0-.402-.238-.622t-.685-.22q-.473 0-.749.206a1 1 0 0 0-.37.487l-1.2-.17q.142-.498.469-.832a2.04 2.04 0 0 1 .799-.504q.472-.17 1.044-.17.394 0 .785.092.39.092.713.305.324.21.519.572.198.362.199.905V38h-1.236v-.75h-.043a1.57 1.57 0 0 1-.859.743 2.1 2.1 0 0 1-.742.117m.334-.944q.387 0 .671-.153.284-.156.436-.412.157-.255.157-.558v-.642a.6.6 0 0 1-.206.092 3 3 0 0 1-.32.075q-.177.031-.351.056l-.302.043a2.2 2.2 0 0 0-.515.128.86.86 0 0 0-.359.248.6.6 0 0 0-.131.405q0 .356.259.536.26.181.661.181m4.442 2.88a2.6 2.6 0 0 1-.838-.136l.298-1q.28.081.501.077a.6.6 0 0 0 .387-.138q.171-.132.288-.44l.11-.295-1.978-5.568h1.363l1.257 4.119h.057l1.261-4.12h1.367l-2.184 6.115a2.5 2.5 0 0 1-.405.743 1.65 1.65 0 0 1-.618.476q-.362.165-.866.166"/><path fill="#f53d7d" d="M275.72 33.47a.75.75 0 0 0 0 1.06l4.773 4.773a.75.75 0 1 0 1.06-1.06L277.311 34l4.242-4.243a.75.75 0 0 0-1.06-1.06zm23.56 1.06a.75.75 0 0 0 0-1.06l-4.773-4.773a.75.75 0 1 0-1.06 1.06L297.689 34l-4.242 4.243a.75.75 0 0 0 1.06 1.06zM276.25 34v.75h22.5v-1.5h-22.5z"/><rect width="115" height="43" x="447.5" y="12.5" fill="#d6e7e5" rx="7.5"/><rect width="115" height="43" x="447.5" y="12.5" stroke="#00695c" rx="7.5"/><rect width="24" height="24" x="457" y="22" fill="#00695c" rx="3"/><g clip-path="url(#c)"><path fill="#fff" d="M463.079 28.79c6.148 0 11.131 4.983 11.131 11.131s-4.983 11.132-11.131 11.132-11.132-4.984-11.132-11.132 4.984-11.131 11.132-11.131m-.034 1.54c-5.315 0-9.624 4.31-9.624 9.625s4.309 9.624 9.624 9.624 9.624-4.309 9.624-9.624-4.309-9.624-9.624-9.624m0 1.204a8.421 8.421 0 1 1 0 16.842 8.421 8.421 0 0 1 0-16.842m0 1.203a7.218 7.218 0 1 0 0 14.436 7.218 7.218 0 0 0 0-14.436m0 1.203a6.015 6.015 0 1 1 0 12.03 6.015 6.015 0 0 1 0-12.03m0 1.203a4.812 4.812 0 1 0 0 9.625 4.812 4.812 0 0 0 0-9.625m0 1.203a3.61 3.61 0 1 1 0 7.218 3.61 3.61 0 0 1 0-7.218"/></g><path fill="#17181c" d="M485.717 30.727h1.613l2.159 5.27h.085l2.159-5.27h1.612V38h-1.264v-4.996h-.068l-2.009 4.975h-.945l-2.01-4.986h-.067V38h-1.265zm11.772 4.83h1.194l.706.916.504.597 1.211 1.555h-1.278l-.824-1.044-.351-.497zm3.789-1.193q0 1.175-.44 2.013a3.1 3.1 0 0 1-1.193 1.279q-.753.444-1.708.443a3.3 3.3 0 0 1-1.712-.443 3.2 3.2 0 0 1-1.193-1.282q-.437-.84-.437-2.01 0-1.176.437-2.01.44-.838 1.193-1.282a3.3 3.3 0 0 1 1.712-.444q.955 0 1.708.444.756.444 1.193 1.282.44.834.44 2.01m-1.324 0q0-.828-.259-1.396-.256-.572-.711-.863a1.9 1.9 0 0 0-1.047-.295q-.594 0-1.048.295-.454.291-.714.863-.255.568-.255 1.396 0 .827.255 1.399.26.568.714.863a1.9 1.9 0 0 0 1.048.29q.593 0 1.047-.29.455-.295.711-.863.259-.572.259-1.4m1.938-2.532v-1.105h5.802v1.105h-2.247V38h-1.307v-6.168zm6.601 0v-1.105h5.803v1.105h-2.248V38h-1.307v-6.168zm7.184 3.203q0-1.332.352-2.447a7 7 0 0 1 1.055-2.067h1.211q-.27.352-.505.863-.234.508-.408 1.115-.171.604-.27 1.254-.096.65-.096 1.282 0 .842.167 1.704.17.864.458 1.598.291.739.654 1.208h-1.211a7 7 0 0 1-1.055-2.064 8.1 8.1 0 0 1-.352-2.446m7.927-1.048-1.171.128a1 1 0 0 0-.174-.334.9.9 0 0 0-.327-.252 1.2 1.2 0 0 0-.504-.096q-.402 0-.675.174-.27.175-.266.451a.47.47 0 0 0 .174.387q.18.15.596.245l.931.2q.774.166 1.15.528.38.363.384.949a1.5 1.5 0 0 1-.302.909q-.295.39-.821.61a3.1 3.1 0 0 1-1.207.22q-1.002 0-1.612-.419a1.69 1.69 0 0 1-.728-1.175l1.253-.12a.88.88 0 0 0 .363.557q.277.188.72.188.459 0 .736-.188.28-.188.28-.465a.48.48 0 0 0-.181-.387q-.177-.153-.554-.235l-.93-.195q-.786-.164-1.162-.55-.377-.39-.372-.988a1.4 1.4 0 0 1 .273-.873q.28-.373.778-.576a3 3 0 0 1 1.154-.206q.959 0 1.509.409.554.408.685 1.104m3.472 1.048q0 1.327-.355 2.447a7 7 0 0 1-1.052 2.063h-1.211q.274-.352.505-.86.234-.507.405-1.115.174-.607.269-1.257a8.4 8.4 0 0 0-.071-2.983 9 9 0 0 0-.458-1.601q-.287-.739-.65-1.208h1.211a7 7 0 0 1 1.052 2.067 8 8 0 0 1 .355 2.447"/><path fill="#bb3df5" d="M420.72 33.47a.75.75 0 0 0 0 1.06l4.773 4.773a.75.75 0 1 0 1.06-1.06L422.311 34l4.242-4.243a.75.75 0 0 0-1.06-1.06zm23.56 1.06a.75.75 0 0 0 0-1.06l-4.773-4.773a.75.75 0 1 0-1.06 1.06L442.689 34l-4.242 4.243a.75.75 0 0 0 1.06 1.06zM421.25 34v.75h22.5v-1.5h-22.5z"/><rect width="115" height="43" x="592.5" y="12.5" fill="#cfd4fc" rx="7.5"/><rect width="115" height="43" x="592.5" y="12.5" stroke="#3d50f5" rx="7.5"/><rect width="24" height="24" x="602" y="22" fill="#3d50f5" rx="3"/><path fill="#cfd4fc" d="M613.584 26.5a7.05 7.05 0 0 0-3.638 1.01 1.7 1.7 0 0 0-1.081-.385c-.945 0-1.72.775-1.72 1.72.001.394.137.773.38 1.075a7.05 7.05 0 0 0-1.025 3.664.4.4 0 0 0 .03.159q.03.076.089.135a.407.407 0 0 0 .584 0 .4.4 0 0 0 .119-.294c0-1.158.315-2.238.861-3.168.214.093.444.148.681.148.945 0 1.72-.774 1.72-1.719 0-.234-.053-.462-.145-.675a6.23 6.23 0 0 1 3.145-.848.42.42 0 0 0 .294-.119.4.4 0 0 0 .122-.292.41.41 0 0 0-.416-.411m-4.72 1.447c.278 0 .525.118.696.332l.008.01a.9.9 0 0 1 .194.556c0 .5-.397.898-.897.898a.899.899 0 0 1-.001-1.795"/><path fill="#cfd4fc" fill-rule="evenodd" d="M609.638 31.32a.399.399 0 0 0 .004.543c.319.321.948.948.948.948l.555-.554-.945-.946a.4.4 0 0 0-.282-.109.38.38 0 0 0-.28.118m1.507.937-1.717 1.717a.48.48 0 0 0 0 .675l.851.85 1.488 1.49 1.429 1.428a.477.477 0 0 0 .675 0l1.162-1.162 1.777-1.777 1.718-1.718a.48.48 0 0 0 0-.675l-.874-.873-1.488-1.488-1.406-1.407a.477.477 0 0 0-.675 0l-1.162 1.162zm1.778-1.778-.946-.945a.39.39 0 0 0-.282-.11.383.383 0 0 0-.385.403.4.4 0 0 0 .109.259c.319.321.948.948.948.948zm3.243.245.946-.946a.39.39 0 0 0 .108-.282.38.38 0 0 0-.402-.385.4.4 0 0 0-.259.11c-.321.319-.948.947-.948.947zm1.488 1.488.946-.946a.4.4 0 0 0 .109-.281.38.38 0 0 0-.402-.386.4.4 0 0 0-.259.11c-.321.319-.948.948-.948.948zm-.844 3.266.946.945a.39.39 0 0 0 .282.11.383.383 0 0 0 .385-.403.4.4 0 0 0-.11-.259c-.319-.321-.948-.948-.948-.948zm-1.777 1.777.946.945a.39.39 0 0 0 .282.11.38.38 0 0 0 .385-.403.4.4 0 0 0-.11-.259c-.319-.321-.948-.948-.948-.948zm-3.266-.267-.945.946a.39.39 0 0 0-.109.282.38.38 0 0 0 .402.385.4.4 0 0 0 .259-.11c.321-.318.948-.947.948-.947zm-1.488-1.488-.945.946a.38.38 0 0 0-.109.282.38.38 0 0 0 .402.385.4.4 0 0 0 .259-.11c.321-.319.947-.948.947-.948zm4.089-4.245a.4.4 0 0 1 .295-.123.37.37 0 0 1 .214.07l.774.568c.15.108.194.312.104.483a.406.406 0 0 1-.466.208l.287 1.122a.41.41 0 0 1-.281.484l-2.092.639.386 1.494a.41.41 0 0 1-.279.488.367.367 0 0 1-.472-.258l-.482-1.864a.41.41 0 0 1 .28-.485l2.094-.639-.193-.755a.396.396 0 0 1-.497.082.37.37 0 0 1-.14-.47l.381-.913a.4.4 0 0 1 .087-.13" clip-rule="evenodd"/><path fill="#cfd4fc" d="M614.416 41.5a7.05 7.05 0 0 0 3.638-1.01c.303.247.685.384 1.081.384.945 0 1.72-.774 1.72-1.719a1.72 1.72 0 0 0-.38-1.075 7.05 7.05 0 0 0 1.025-3.664.4.4 0 0 0-.03-.159.407.407 0 0 0-.673-.135.4.4 0 0 0-.119.294 6.23 6.23 0 0 1-.861 3.168 1.7 1.7 0 0 0-.681-.149c-.945 0-1.72.775-1.72 1.72 0 .234.053.462.145.675a6.23 6.23 0 0 1-3.145.848.42.42 0 0 0-.294.119.4.4 0 0 0-.122.292.41.41 0 0 0 .416.411m4.72-1.447a.87.87 0 0 1-.696-.332l-.008-.01a.9.9 0 0 1-.194-.556c0-.5.397-.898.897-.898a.899.899 0 0 1 .001 1.795"/><path fill="#17181c" d="M630.398 31.832v-1.105h5.802v1.105h-2.248V38h-1.306v-6.168zm8.15 2.972V38h-1.286v-7.273h1.257v2.745h.064q.192-.461.593-.728.405-.27 1.03-.27.568 0 .991.238.422.239.653.696.235.459.235 1.119V38h-1.286v-3.274q0-.55-.284-.856-.28-.309-.788-.309-.341 0-.611.15a1.04 1.04 0 0 0-.419.422q-.15.276-.149.671M643.395 38v-5.455h1.285V38zm.646-6.229a.75.75 0 0 1-.525-.202.65.65 0 0 1-.221-.494q0-.29.221-.493a.74.74 0 0 1 .525-.206q.309 0 .526.206.22.203.22.493a.65.65 0 0 1-.22.494.74.74 0 0 1-.526.202m3.247 3.033V38h-1.286v-5.455h1.229v.927h.064q.188-.458.6-.728.416-.27 1.026-.27.565 0 .984.242.423.24.653.7.236.457.231 1.111V38h-1.285v-3.274q0-.547-.284-.856-.281-.309-.778-.309-.337 0-.6.15a1.04 1.04 0 0 0-.409.422 1.4 1.4 0 0 0-.145.671m7.18 5.355q-.692 0-1.189-.188a2.1 2.1 0 0 1-.799-.497 1.7 1.7 0 0 1-.419-.693l1.157-.28q.078.16.227.316.15.16.402.263.255.105.643.106.546 0 .905-.266.359-.262.359-.867V37.02h-.064a1.8 1.8 0 0 1-.291.408 1.5 1.5 0 0 1-.501.352q-.309.142-.778.142-.628 0-1.14-.295a2.1 2.1 0 0 1-.809-.888q-.299-.593-.299-1.484 0-.898.299-1.516.302-.622.813-.941a2.1 2.1 0 0 1 1.14-.324q.479 0 .788.164.312.159.497.387.185.224.281.422h.071v-.902h1.268v5.544q0 .7-.334 1.157a2 2 0 0 1-.913.686 3.6 3.6 0 0 1-1.314.227m.011-3.246q.408 0 .696-.198.288-.2.437-.572.149-.373.149-.895 0-.515-.149-.902a1.3 1.3 0 0 0-.434-.6 1.12 1.12 0 0 0-.699-.217q-.43 0-.717.224-.288.224-.434.614a2.5 2.5 0 0 0-.145.88q0 .502.145.878.15.373.437.582.291.207.714.206m8.178-2.926-1.172.128a.9.9 0 0 0-.174-.334.86.86 0 0 0-.326-.252 1.2 1.2 0 0 0-.505-.096 1.23 1.23 0 0 0-.674.174q-.27.175-.267.451a.47.47 0 0 0 .174.387q.182.15.597.245l.93.2q.774.166 1.151.528.38.363.383.949a1.48 1.48 0 0 1-.302.909q-.294.39-.82.61t-1.207.22q-1.002 0-1.612-.419a1.68 1.68 0 0 1-.728-1.175l1.253-.12a.89.89 0 0 0 .362.557q.277.188.721.188.459 0 .735-.188.28-.188.281-.465a.49.49 0 0 0-.181-.387q-.178-.153-.554-.235l-.931-.195q-.785-.164-1.161-.55-.376-.39-.373-.988a1.4 1.4 0 0 1 .274-.873 1.8 1.8 0 0 1 .777-.576 3 3 0 0 1 1.155-.206q.959 0 1.509.409.554.408.685 1.104M663.891 38v-7.273h2.784q.789 0 1.311.249.525.245.784.671.264.426.263.966 0 .444-.17.76a1.44 1.44 0 0 1-.458.508 2 2 0 0 1-.643.28v.071q.387.022.742.238.359.213.586.604.227.39.227.945 0 .564-.273 1.015-.273.447-.824.707t-1.385.259zm1.318-1.1h1.417q.717 0 1.033-.274a.9.9 0 0 0 .32-.71 1.09 1.09 0 0 0-.615-.995 1.5 1.5 0 0 0-.703-.152h-1.452zm0-3.08h1.303q.34 0 .614-.124a.964.964 0 0 0 .59-.913q0-.421-.299-.696-.294-.273-.877-.273h-1.331zm7.577 4.286q-.799 0-1.385-.351a2.4 2.4 0 0 1-.909-.984q-.32-.631-.32-1.477 0-.845.32-1.48.322-.637.909-.988.586-.352 1.385-.352t1.385.352q.585.351.905.987.324.636.324 1.481t-.324 1.477q-.32.633-.905.984-.586.351-1.385.351m.007-1.03q.433 0 .724-.237.292-.242.434-.646.145-.405.145-.902 0-.501-.145-.906a1.43 1.43 0 0 0-.434-.65 1.1 1.1 0 0 0-.724-.241q-.444 0-.739.241a1.46 1.46 0 0 0-.436.65q-.143.405-.143.906 0 .496.143.902.145.405.436.646.295.238.739.238m5.267 1.034q-.518 0-.934-.185a1.53 1.53 0 0 1-.653-.554q-.238-.365-.238-.902 0-.461.17-.763a1.3 1.3 0 0 1 .466-.483 2.3 2.3 0 0 1 .664-.273q.372-.096.77-.139.48-.05.778-.089.298-.041.433-.128.139-.088.139-.273V34.3q0-.402-.238-.622t-.686-.22q-.472 0-.749.206-.273.206-.369.487l-1.201-.17q.142-.498.469-.832a2.04 2.04 0 0 1 .799-.504q.473-.17 1.044-.17.395 0 .785.092t.714.305q.323.21.518.572.2.362.199.905V38h-1.236v-.75h-.042a1.55 1.55 0 0 1-.86.743 2.1 2.1 0 0 1-.742.117m.334-.944q.387 0 .671-.153.285-.156.437-.412a1.05 1.05 0 0 0 .156-.558v-.642a.6.6 0 0 1-.206.092 3 3 0 0 1-.319.075q-.178.031-.352.056l-.302.043a2.3 2.3 0 0 0-.515.128.85.85 0 0 0-.358.248.6.6 0 0 0-.132.405q0 .356.259.536.26.181.661.181m3.839.834v-5.455h1.246v.91h.057a1.36 1.36 0 0 1 1.346-.988q.106 0 .238.011.135.007.224.025v1.182a1.4 1.4 0 0 0-.26-.05 2.4 2.4 0 0 0-.337-.024q-.351 0-.632.153-.277.148-.437.415-.16.266-.16.614V38zm5.764.096q-.643 0-1.15-.33-.508-.33-.803-.96-.294-.627-.295-1.526 0-.91.299-1.534.302-.63.813-.948a2.1 2.1 0 0 1 1.14-.324q.479 0 .788.164.309.159.49.387.181.224.281.422h.053v-2.72h1.289V38h-1.264v-.86h-.078a2.3 2.3 0 0 1-.288.423 1.6 1.6 0 0 1-.497.377q-.309.156-.778.156m.359-1.055q.408 0 .696-.22a1.4 1.4 0 0 0 .437-.621q.149-.399.149-.927 0-.53-.149-.92a1.3 1.3 0 0 0-.434-.607 1.12 1.12 0 0 0-.699-.217q-.43 0-.718.224a1.36 1.36 0 0 0-.433.618 2.6 2.6 0 0 0-.145.902q0 .51.145.912.15.398.437.629.291.227.714.227"/><path fill="#00695c" d="M565.72 33.47a.75.75 0 0 0 0 1.06l4.773 4.773a.75.75 0 1 0 1.06-1.06L567.311 34l4.242-4.243a.75.75 0 0 0-1.06-1.06zm23.56 1.06a.75.75 0 0 0 0-1.06l-4.773-4.773a.75.75 0 1 0-1.06 1.06L587.689 34l-4.242 4.243a.75.75 0 0 0 1.06 1.06zM566.25 34v.75h22.5v-1.5h-22.5z"/></g><defs><clipPath id="a"><path fill="#fff" d="M0 0h720v68H0z"/></clipPath><clipPath id="b"><path fill="#fff" d="M-12 0h730v646H-12z"/></clipPath><clipPath id="c"><rect width="11.368" height="11.368" x="463.315" y="28.316" fill="#fff" rx=".947"/></clipPath></defs></svg>