<svg width="52" height="36" viewBox="0 0 52 36" fill="none" xmlns="http://www.w3.org/2000/svg">
<path d="M34.2192 15.9946H17.1099V19.8346H34.2192V15.9946Z" fill="#555962"/>
<path d="M42.752 2H31.4453L34.176 5.88267L42.4533 8.4C43.9893 8.86933 44.9706 10.32 44.928 11.8133V24.1867C44.928 25.7227 43.9466 27.1307 42.4533 27.6L34.2186 30.1173L31.4453 34H42.752C47.488 34 51.2853 30.16 51.2853 25.4667V10.5333C51.328 5.84 47.488 2 42.752 2Z" fill="#555962"/>
<path d="M8.53333 2H19.84L17.1093 5.88267L8.87467 8.4C7.33867 8.86933 6.35733 10.32 6.4 11.8133V24.1867C6.4 25.7227 7.38133 27.1307 8.87467 27.6L17.1093 30.1173L19.84 34H8.53333C3.84 34 0 30.16 0 25.4667V10.5333C0 5.84 3.84 2 8.53333 2Z" fill="#555962"/>
</svg>
