<svg width="58" height="36" viewBox="0 0 58 36" fill="none" xmlns="http://www.w3.org/2000/svg">
<g clip-path="url(#clip0_896_74498)">
<path d="M15.8368 18.0149L14.2134 24.6979H17.4396L15.8735 18.0149H15.8368Z" fill="#F7981F"/>
<path d="M0 25.2878V26.2605C0 31.096 5.25324 35.9871 11.7292 35.9871H46.2708C52.7468 35.9871 58 31.0946 58 26.2605V25.2878C58 20.7925 53.4528 15.1478 47.6065 14.6513C47.4759 10.6321 44.1689 7.41474 40.1017 7.41474C38.5223 7.41474 37.0575 7.90253 35.848 8.72915C33.5289 3.58834 28.352 0 22.3208 0C14.132 0 7.49457 6.60272 7.49457 14.7535C7.49457 14.8996 7.51219 15.0383 7.51659 15.1814C3.12347 16.4477 0 21.5651 0 25.2878ZM18.6396 29.7495L17.8 26.427H13.812L12.9328 29.7495H10.6621L14.5356 16.1921H17.3215L20.9088 29.7495H18.6396ZM31.8673 29.7495H29.3486L27.5931 19.5351H27.555L25.8185 29.7495H23.2998L20.6651 16.1921H22.8609L24.6531 26.7293H24.6927L26.4849 16.1921H28.7762L30.608 26.7862H30.6461L32.4207 16.1921H34.5769L31.8673 29.7495ZM39.8419 30.0138C36.4645 30.0138 35.7012 27.775 35.7012 25.8749V25.5521H37.8765V25.8939C37.8765 27.5457 38.6016 28.381 40.109 28.381C41.4829 28.381 42.1683 27.4113 42.1683 26.4036C42.1683 24.9796 41.4447 24.3531 40.2235 23.9938L38.7337 23.4798C36.7478 22.7203 35.8906 21.6965 35.8906 19.76C35.8906 17.2903 37.5697 15.9234 40.1266 15.9234C43.6185 15.9234 43.9811 18.0877 43.9811 19.4912V19.7965H41.8058V19.5117C41.8058 18.2761 41.2524 17.5547 39.8977 17.5547C38.9627 17.5547 38.0658 18.0688 38.0658 19.5117C38.0658 20.6698 38.6574 21.2569 40.109 21.8075L41.5768 22.3406C43.504 23.0226 44.3451 24.0698 44.3451 25.9289C44.3465 28.8192 42.5896 30.0138 39.8419 30.0138Z" fill="#F7981F"/>
<path d="M14.5381 16.1922L10.6646 29.7496H12.9352L13.8144 26.427H17.8024L18.642 29.7496H20.9127L17.3254 16.1922H14.5381ZM14.2137 24.6979L15.8356 18.0148H15.8723L17.437 24.6979H14.2137Z" fill="white"/>
<path d="M30.6446 26.7863H30.605L28.7731 16.1922H26.4834L24.6912 26.7279H24.6516L22.8594 16.1922H20.6636L23.2983 29.7496H25.817L27.5519 19.5352H27.5916L29.3471 29.7496H31.8658L34.5739 16.1922H32.4192L30.6446 26.7863Z" fill="white"/>
<path d="M41.5787 22.3455L40.1109 21.8124C38.6607 21.2618 38.0677 20.6747 38.0677 19.5166C38.0677 18.0737 38.9646 17.5596 39.8996 17.5596C41.2543 17.5596 41.8077 18.281 41.8077 19.5166V19.8014H43.983V19.4961C43.983 18.0927 43.6204 15.9283 40.1285 15.9283C37.5716 15.9283 35.8925 17.2952 35.8925 19.7649C35.8925 21.7014 36.7497 22.7252 38.7356 23.4847L40.2254 23.9987C41.4466 24.358 42.1702 24.986 42.1702 26.4085C42.1702 27.4147 41.4833 28.3859 40.1109 28.3859C38.6035 28.3859 37.8784 27.5506 37.8784 25.8988V25.557H35.7031V25.8798C35.7031 27.7799 36.4678 30.0187 39.8438 30.0187C42.5915 30.0187 44.347 28.8241 44.347 25.9368C44.347 24.0732 43.5059 23.0261 41.5787 22.3455Z" fill="white"/>
</g>
<defs>
<clipPath id="clip0_896_74498">
<rect width="58" height="36" fill="white"/>
</clipPath>
</defs>
</svg>
