<svg width="56" height="36" viewBox="0 0 56 36" fill="none" xmlns="http://www.w3.org/2000/svg">
<g clip-path="url(#clip0_902_92772)">
<path fill-rule="evenodd" clip-rule="evenodd" d="M25.9167 9.1458L18.2783 12.0645V0L25.9167 2.6271V9.1458Z" fill="#804998"/>
<path fill-rule="evenodd" clip-rule="evenodd" d="M11.4346 2.04309V9.92392L17.089 12.0646V0.09729L11.4346 2.04309ZM12.0298 9.34028L11.7322 9.24308V2.72439L12.0298 2.62719L12.3274 2.52999L12.625 2.43279V9.5356L12.3274 9.4384L12.0298 9.3412V9.34028ZM13.5178 9.72952L13.121 9.63232V2.33514L13.5178 2.23794L13.9146 2.14029L14.3114 2.04309V10.0216L13.9146 9.9244L13.5178 9.73V9.72952ZM15.3034 10.3132L14.8074 10.1183V1.84869L15.3034 1.75149L15.7994 1.55709L16.3946 1.36224V10.6057L15.7994 10.4113L15.3034 10.3141V10.3132Z" fill="#804998"/>
<path fill-rule="evenodd" clip-rule="evenodd" d="M43.6746 9.1458L36.0361 12.0645V0L43.6746 2.6271V9.1458Z" fill="#804998"/>
<path fill-rule="evenodd" clip-rule="evenodd" d="M29.1904 2.04309V9.92392L34.8448 12.0646V0.09729L29.1904 2.04309ZM29.7856 9.34028L29.488 9.24308V2.72439L29.7856 2.62719L30.0832 2.52999L30.3803 2.43279V9.5356L30.0832 9.4384L29.7856 9.3412V9.34028ZM31.2736 9.72952L30.8768 9.63232V2.33514L31.2736 2.23794L31.6704 2.14029L32.0672 2.04309V10.0216L31.6704 9.9244L31.2736 9.73V9.72952ZM33.0592 10.3132L32.5632 10.1183V1.84869L33.0592 1.75149L33.5552 1.55709L34.1504 1.36224V10.6057L33.5552 10.4113L33.0592 10.3141V10.3132Z" fill="#804998"/>
<path fill-rule="evenodd" clip-rule="evenodd" d="M25.9167 33.081L18.2783 36.0001V23.9352L25.9167 26.5623V33.081Z" fill="#804998"/>
<path fill-rule="evenodd" clip-rule="evenodd" d="M11.4346 25.9782V33.8595L17.089 36.0001V24.0324L11.4346 25.9782ZM12.0298 33.2754L11.7322 33.1782V26.6595L12.0298 26.5623L12.3274 26.4651L12.625 26.3679V33.4703L12.3274 33.373L12.0298 33.2759V33.2754ZM13.5178 33.6646L13.121 33.5674V26.2703L13.5178 26.173L13.9146 26.0759L14.3114 25.9786V33.9571L13.9146 33.8599L13.5178 33.6655V33.6646ZM15.3034 34.2483L14.8074 34.0539V25.7838L15.3034 25.6866L15.7994 25.4922L16.3946 25.2978V34.5412L15.7994 34.3468L15.3034 34.2497V34.2483Z" fill="#804998"/>
<path fill-rule="evenodd" clip-rule="evenodd" d="M43.6746 33.081L36.0361 36.0001V23.9352L43.6746 26.5623V33.081Z" fill="#804998"/>
<path fill-rule="evenodd" clip-rule="evenodd" d="M29.1904 25.9782V33.8595L34.8448 36.0001V24.0324L29.1904 25.9782ZM29.7856 33.2754L29.488 33.1782V26.6595L29.7856 26.5623L30.0832 26.4651L30.3803 26.3679V33.4703L30.0832 33.373L29.7856 33.2759V33.2754ZM31.2736 33.6646L30.8768 33.5674V26.2703L31.2736 26.173L31.6704 26.0759L32.0672 25.9786V33.9571L31.6704 33.8599L31.2736 33.6655V33.6646ZM33.0592 34.2483L32.5632 34.0539V25.7838L33.0592 25.6866L33.5552 25.4922L34.1504 25.2978V34.5412L33.5552 34.3468L33.0592 34.2497V34.2483Z" fill="#804998"/>
<path fill-rule="evenodd" clip-rule="evenodd" d="M35.341 21.1134L27.8018 23.9354V11.9676L35.341 14.5947V21.1134Z" fill="#804998"/>
<path fill-rule="evenodd" clip-rule="evenodd" d="M20.8579 13.9134V21.7943L26.5123 23.9354V11.9676L20.8579 13.9134ZM21.4531 21.2106L21.156 21.1134V14.5947L21.4531 14.4975L21.7507 14.4003L22.0483 14.3031V21.4059L21.7507 21.3087L21.4531 21.2115V21.2106ZM22.9411 21.6971L22.5443 21.5999V14.3027L22.9411 14.2055L23.3379 14.1083L23.7347 14.0106V21.9891L23.3379 21.8919L22.9411 21.6975V21.6971ZM24.7267 22.2807L24.2307 22.0863V13.8162L24.7267 13.719L25.2227 13.5242L25.8179 13.3298V22.5732L25.2227 22.3788L24.7267 22.2816V22.2807Z" fill="#804998"/>
<path fill-rule="evenodd" clip-rule="evenodd" d="M17.6828 21.1134L10.1436 23.9354V11.9676L17.6828 14.5947V21.1134Z" fill="#804998"/>
<path fill-rule="evenodd" clip-rule="evenodd" d="M3.2002 13.9134V21.7943L8.8546 23.9349V11.9676L3.2002 13.9134ZM3.7954 21.2106L3.4978 21.1134V14.5947L3.7954 14.4975L4.093 14.4003L4.3906 14.3031V21.4059L4.093 21.3087L3.79585 21.2115L3.7954 21.2106ZM5.2834 21.6971L4.8866 21.5999V14.3027L5.2834 14.2055L5.6802 14.1083L6.077 14.0106V21.9891L5.6802 21.8919L5.2834 21.6975V21.6971ZM7.069 22.2807L6.57299 22.0863V13.8162L7.069 13.719L7.565 13.5242L8.1602 13.3298V22.5732L7.565 22.3788L7.069 22.2816V22.2807Z" fill="#804998"/>
<path fill-rule="evenodd" clip-rule="evenodd" d="M52.7999 21.1134L45.2607 23.9354V11.9676L52.7999 14.5947V21.1134Z" fill="#804998"/>
<path opacity="0.2" fill-rule="evenodd" clip-rule="evenodd" d="M25.9167 9.1458L18.2783 12.0645V0L25.9167 2.6271V9.1458Z" fill="white"/>
<path opacity="0.2" fill-rule="evenodd" clip-rule="evenodd" d="M43.6746 9.1458L36.0361 12.0645V0L43.6746 2.6271V9.1458Z" fill="white"/>
<path opacity="0.2" fill-rule="evenodd" clip-rule="evenodd" d="M25.9167 33.081L18.2783 36.0001V23.9352L25.9167 26.5623V33.081Z" fill="white"/>
<path opacity="0.2" fill-rule="evenodd" clip-rule="evenodd" d="M43.6746 33.081L36.0361 36.0001V23.9352L43.6746 26.5623V33.081Z" fill="white"/>
<path opacity="0.2" fill-rule="evenodd" clip-rule="evenodd" d="M35.3409 21.1134L27.8018 23.9354V11.9676L35.3409 14.5947V21.1134Z" fill="white"/>
<path opacity="0.2" fill-rule="evenodd" clip-rule="evenodd" d="M17.6828 21.1134L10.1436 23.9354V11.9676L17.6828 14.5947V21.1134Z" fill="white"/>
<path opacity="0.2" fill-rule="evenodd" clip-rule="evenodd" d="M52.7999 21.1134L45.2607 23.9354V11.9676L52.7999 14.5947V21.1134Z" fill="white"/>
<path fill-rule="evenodd" clip-rule="evenodd" d="M38.3174 13.9134V21.7943L43.9718 23.9349V11.9676L38.3174 13.9134ZM38.9126 21.2106L38.615 21.1134V14.5947L38.9126 14.4975L39.2102 14.4003L39.5078 14.3031V21.4059L39.2102 21.3087L38.9126 21.2115V21.2106ZM40.4006 21.6971L40.0038 21.5999V14.3027L40.4006 14.2055L40.7974 14.1083L41.1942 14.0106V21.9891L40.7974 21.8919L40.4006 21.6975V21.6971ZM42.1862 22.2807L41.6902 22.0863V13.8162L42.1862 13.719L42.6822 13.5242L43.2774 13.3298V22.5732L42.6822 22.3788L42.1862 22.2816V22.2807Z" fill="#804998"/>
</g>
<defs>
<clipPath id="clip0_902_92772">
<rect width="56" height="36" fill="white"/>
</clipPath>
</defs>
</svg>
