<svg width="125" height="36" viewBox="0 0 125 36" fill="none" xmlns="http://www.w3.org/2000/svg">
<path d="M21.5089 34.0735C27.4821 33.0179 32.416 32.1461 32.4732 32.1336L32.5749 32.1113L26.9357 25.4081C23.8348 21.7201 21.2964 18.6889 21.2964 18.672C21.2964 18.639 27.1196 2.61281 27.1526 2.55659C27.1633 2.53696 31.1258 9.37395 36.7589 19.1306L46.4196 35.8671L46.4928 35.9956L28.5714 35.992L10.6491 35.9902L21.5098 34.0726L21.5089 34.0735ZM90.2391 32.4512C87.5106 32.2763 85.924 30.7237 85.5034 27.8183C85.3918 27.0446 85.3918 27.0241 85.3802 22.0066L85.3686 17.1488H87.7838L87.7927 21.8469C87.8016 26.0818 87.807 26.578 87.8481 26.876C88.0124 28.0851 88.3391 28.898 88.8963 29.4816C89.3427 29.9483 89.8641 30.2222 90.5874 30.3668C90.9284 30.4355 91.8981 30.4355 92.2088 30.3668C92.9069 30.2246 93.5466 29.8776 94.0463 29.37C94.6373 28.7802 95.074 27.9432 95.2847 26.9965L95.3561 26.6779L95.3641 21.9397L95.3722 17.2014H97.8373V32.0988H95.3972V30.9164C95.3972 30.1133 95.3891 29.7386 95.3704 29.7439C95.3552 29.7493 95.2927 29.8448 95.2311 29.9572C94.7862 30.7475 94.1331 31.4009 93.3427 31.8462C92.4222 32.3522 91.4999 32.5324 90.2391 32.4512ZM117.93 32.4396C116.936 32.3573 115.975 32.0438 115.124 31.5241C113.377 30.4444 112.344 28.6633 112.041 26.2148C111.936 25.3671 111.924 24.2276 112.011 23.5075C112.206 21.8977 112.839 20.3183 113.74 19.1904C114.058 18.8139 114.408 18.4647 114.785 18.1464C115.564 17.524 116.476 17.089 117.45 16.8748C118.015 16.7508 119.011 16.6937 119.611 16.749C121.12 16.8891 122.503 17.5985 123.444 18.7157C124.398 19.8516 124.923 21.4373 124.99 23.3915C125.001 23.6975 125.003 24.2338 124.995 24.5836L124.982 25.2198L119.698 25.227L114.413 25.2332V25.4688C114.413 26.1871 114.588 27.0036 114.89 27.6996C115.15 28.2984 115.598 28.9533 115.964 29.2701C116.716 29.9198 117.653 30.3161 118.644 30.4025C119.017 30.4364 119.969 30.4007 120.394 30.3347C121.608 30.1482 122.762 29.6725 123.694 28.9739C123.803 28.8918 123.909 28.815 123.927 28.8043C123.954 28.7865 123.961 29.0006 123.961 29.9037L123.96 31.0253L123.71 31.1788C122.632 31.8386 121.424 32.2572 120.169 32.4057C119.786 32.453 118.386 32.4735 117.93 32.4396ZM122.529 22.9837C122.529 21.7817 122.022 20.4468 121.305 19.7588C120.794 19.268 120.175 18.9682 119.439 18.8549C119.091 18.8014 118.358 18.8219 117.991 18.8959C117.241 19.0387 116.553 19.4045 116.015 19.9453C115.423 20.5321 114.975 21.2484 114.707 22.0378C114.595 22.3735 114.511 22.7175 114.454 23.0667L114.436 23.1925H122.529V22.9828V22.9837ZM50.8472 32.064L54.8347 21.5943L58.8115 11.1586H61.3669L61.4722 11.4299C61.7963 12.2597 69.4329 32.0747 69.4329 32.0854C69.4329 32.0916 68.8213 32.097 68.074 32.097H66.7142L65.6133 29.1684L64.5124 26.2398H55.649L55.6106 26.3388C55.5892 26.3933 55.1196 27.7112 54.566 29.2674L53.5588 32.0961H52.1972C51.1187 32.097 50.8383 32.0907 50.8472 32.064ZM63.7044 24.0045C63.7044 24 62.9633 21.9932 62.0588 19.5456C60.3651 14.9653 60.2704 14.6895 60.1365 13.9542C60.074 13.6098 60.0419 13.6 60.0044 13.915C59.9776 14.1399 59.8624 14.6431 59.7731 14.9215C59.7285 15.0598 58.9669 17.1523 58.0785 19.5705C57.191 21.9887 56.4642 23.9786 56.4642 23.9902C56.4642 24.0027 58.0928 24.0134 60.0838 24.0134C62.0749 24.0134 63.7044 24.0099 63.7044 24.0045ZM70.2552 31.716V31.3349L74.6704 25.2689L79.0856 19.202L75.0883 19.1895L71.091 19.1761L71.0838 18.1625L71.0767 17.1479H82.6409V17.8332L78.2249 23.9322C75.7963 27.2874 73.8088 30.0366 73.8088 30.0446C73.8088 30.0509 75.7731 30.0562 78.1722 30.0562H82.5347V32.0979H70.2552V31.716ZM102.655 32.08C102.645 32.0702 102.638 28.707 102.638 24.605V17.1479H105.052V18.6854C105.052 19.5313 105.061 20.2228 105.074 20.2228C105.086 20.2228 105.145 20.0845 105.204 19.915C105.484 19.1271 105.946 18.4163 106.553 17.8403C107.074 17.3339 107.741 17.0027 108.46 16.8927C108.666 16.8597 108.841 16.8534 109.255 16.8641C109.775 16.8775 110.046 16.9159 110.362 17.0185L110.461 17.0515V19.5554L110.177 19.4126C109.673 19.161 109.176 19.061 108.578 19.0923C108.08 19.1077 107.593 19.2461 107.161 19.4952C106.729 19.7443 106.366 20.0964 106.103 20.52C105.562 21.403 105.218 22.3921 105.094 23.42C105.074 23.5985 105.062 25.0432 105.058 27.8906L105.051 32.0988H103.862C103.208 32.0988 102.665 32.089 102.655 32.08ZM0 32.0283C0 32.0194 2.65714 27.4087 5.90535 21.7844L11.8098 11.5566L18.6919 5.78502C22.4767 2.61013 25.583 0.00900256 25.5955 0.00454093C25.608 7.93124e-05 25.558 0.125005 25.4848 0.282946L18.0125 16.3002L10.6732 32.0318L5.3366 32.039C2.40178 32.0426 0 32.0381 0 32.0283Z" fill="#0089D6"/>
</svg>
