<svg width="95" height="36" viewBox="0 0 95 36" fill="none" xmlns="http://www.w3.org/2000/svg">
<path fill-rule="evenodd" clip-rule="evenodd" d="M15.1641 16.6848L16.4663 17.9794L15.1641 19.2741H5.99843V23.5878L0.408691 17.9794L5.99843 12.4656V16.6848H15.1641Z" fill="#932279"/>
<path fill-rule="evenodd" clip-rule="evenodd" d="M19.3121 15.1643L18.0175 16.4666L16.7229 15.1643V5.99857H12.4092L18.0175 0.40892L23.5313 5.99857H19.3121V15.1643Z" fill="#EFA724"/>
<path fill-rule="evenodd" clip-rule="evenodd" d="M20.8384 19.3143L19.5361 18.0197L20.8384 16.7251H30.0041V12.4114L35.5938 18.0197L30.0041 23.5335V19.3143H20.8384Z" fill="#262577"/>
<path fill-rule="evenodd" clip-rule="evenodd" d="M16.687 20.8362L17.9816 19.534L19.2763 20.8362V30.002H23.5899L17.9816 35.5917L12.4678 30.002H16.687V20.8362Z" fill="#9CCD2A"/>
<path d="M5.6665 5.67055H16.8034V16.8075H5.6665V5.67055Z" fill="#9CCD2A"/>
<path fill-rule="evenodd" clip-rule="evenodd" d="M5.27393 5.27206H17.2063V17.2045H5.27393V5.27206ZM6.06939 6.06753V16.4091H16.4108V6.06753H6.06939Z" fill="white"/>
<path d="M19.1938 5.67055H30.3308V16.8075H19.1938V5.67055Z" fill="#932279"/>
<path fill-rule="evenodd" clip-rule="evenodd" d="M18.7935 5.27206H30.7259V17.2045H18.7935V5.27206ZM19.589 6.06753V16.4091H29.9305V6.06753H19.589Z" fill="white"/>
<path d="M19.1938 19.1939H30.3308V30.3309H19.1938V19.1939Z" fill="#EFA724"/>
<path fill-rule="evenodd" clip-rule="evenodd" d="M18.7935 18.7954H30.7259V30.7279H18.7935V18.7954ZM19.589 19.5909V29.9323H29.9305V19.5909H19.589Z" fill="white"/>
<path d="M5.6665 19.1939H16.8034V30.3309H5.6665V19.1939Z" fill="#262577"/>
<path fill-rule="evenodd" clip-rule="evenodd" d="M5.27393 18.7954H17.2063V30.7279H5.27393V18.7954ZM6.06939 19.5909V29.9323H16.4108V19.5909H6.06939Z" fill="white"/>
<path fill-rule="evenodd" clip-rule="evenodd" d="M0 18L8.43749 9.56247L16.875 18L8.43749 26.4375L0 18ZM1.12498 18L8.43749 25.3126L15.75 18L8.43749 10.6874L1.12498 18ZM9.56256 8.43749L18 0L26.4374 8.43749L18 16.875L9.56256 8.43749ZM10.6874 8.43749L18 15.75L25.3126 8.43749L18 1.12489L10.6874 8.43749ZM27.5625 9.56238L36 18L27.5625 26.4374L19.125 18L27.5625 9.56238ZM20.25 18L27.5625 25.3125L34.875 18L27.5625 10.6874L20.25 18ZM9.56247 27.5625L18 19.1249L26.4374 27.5625L18 36L9.56247 27.5625ZM10.6874 27.5625L18 34.875L25.3125 27.5625L18 20.2499L10.6874 27.5625Z" fill="white"/>
<path fill-rule="evenodd" clip-rule="evenodd" d="M80.2153 20.4422C82.9953 20.4422 87.0174 19.869 87.0174 16.5624C87.0256 16.3071 87.0024 16.0519 86.9484 15.8023L85.2929 8.61115C84.9108 7.02892 84.5751 6.31113 81.7975 4.92226C79.6418 3.82008 74.9464 2.00002 73.5575 2.00002C72.264 2.00002 71.8886 3.66683 70.3465 3.66683C68.8621 3.66683 67.7599 2.42237 66.3711 2.42237C65.0377 2.42237 64.1688 3.3312 63.4979 5.20031C63.4979 5.20031 61.6291 10.4714 61.3891 11.2358C61.351 11.3762 61.3346 11.5215 61.3404 11.6668C61.3404 13.7155 69.4072 20.4333 80.2156 20.4333L80.2153 20.4422ZM87.4444 17.9043C87.8287 19.7243 87.8287 19.9153 87.8287 20.1552C87.8287 23.2667 84.3312 24.9934 79.7332 24.9934C69.3422 24.9992 60.24 18.9109 60.24 14.8864C60.2392 14.3261 60.3534 13.7717 60.5756 13.2575C56.8377 13.4442 52 14.1109 52 18.3822C52 25.378 68.5755 34 81.6997 34C91.7619 34 94.2994 29.4491 94.2994 25.8558C94.2994 23.0287 91.855 19.82 87.4483 17.9043" fill="#EE0000"/>
<path fill-rule="evenodd" clip-rule="evenodd" d="M87.4476 17.9038C87.832 19.7239 87.8319 19.9148 87.8319 20.1548C87.8319 23.2658 84.3344 24.9926 79.7364 24.9926C69.3453 24.9994 60.2432 18.9104 60.2432 14.8859C60.2424 14.3257 60.3566 13.7713 60.5788 13.2571L61.392 11.2439C61.3547 11.3814 61.3383 11.5237 61.3432 11.666C61.3432 13.7147 69.41 20.4326 80.2186 20.4326C82.9986 20.4326 87.0206 19.8594 87.0206 16.5523C87.0288 16.2972 87.0056 16.0421 86.9517 15.7926L87.4476 17.9038Z" fill="black"/>
</svg>
