<svg width="36" height="36" viewBox="0 0 36 36" fill="none" xmlns="http://www.w3.org/2000/svg">
<path fill-rule="evenodd" clip-rule="evenodd" d="M15.1641 16.6848L16.4663 17.9794L15.1641 19.2741H5.99843V23.5878L0.408691 17.9794L5.99843 12.4656V16.6848H15.1641Z" fill="#932279"/>
<path fill-rule="evenodd" clip-rule="evenodd" d="M19.3121 15.1643L18.0175 16.4666L16.7229 15.1643V5.99857H12.4092L18.0175 0.40892L23.5313 5.99857H19.3121V15.1643Z" fill="#EFA724"/>
<path fill-rule="evenodd" clip-rule="evenodd" d="M20.8384 19.3143L19.5361 18.0197L20.8384 16.7251H30.0041V12.4114L35.5938 18.0197L30.0041 23.5335V19.3143H20.8384Z" fill="#262577"/>
<path fill-rule="evenodd" clip-rule="evenodd" d="M16.687 20.8362L17.9816 19.534L19.2763 20.8362V30.002H23.5899L17.9816 35.5917L12.4678 30.002H16.687V20.8362Z" fill="#9CCD2A"/>
<path d="M5.6665 5.67055H16.8034V16.8075H5.6665V5.67055Z" fill="#9CCD2A"/>
<path fill-rule="evenodd" clip-rule="evenodd" d="M5.27393 5.27206H17.2063V17.2045H5.27393V5.27206ZM6.06939 6.06753V16.4091H16.4108V6.06753H6.06939Z" fill="white"/>
<path d="M19.1938 5.67055H30.3308V16.8075H19.1938V5.67055Z" fill="#932279"/>
<path fill-rule="evenodd" clip-rule="evenodd" d="M18.7935 5.27206H30.7259V17.2045H18.7935V5.27206ZM19.589 6.06753V16.4091H29.9305V6.06753H19.589Z" fill="white"/>
<path d="M19.1938 19.1939H30.3308V30.3309H19.1938V19.1939Z" fill="#EFA724"/>
<path fill-rule="evenodd" clip-rule="evenodd" d="M18.7935 18.7954H30.7259V30.7279H18.7935V18.7954ZM19.589 19.5909V29.9323H29.9305V19.5909H19.589Z" fill="white"/>
<path d="M5.6665 19.1939H16.8034V30.3309H5.6665V19.1939Z" fill="#262577"/>
<path fill-rule="evenodd" clip-rule="evenodd" d="M5.27393 18.7954H17.2063V30.7279H5.27393V18.7954ZM6.06939 19.5909V29.9323H16.4108V19.5909H6.06939Z" fill="white"/>
<path fill-rule="evenodd" clip-rule="evenodd" d="M0 18L8.43749 9.56247L16.875 18L8.43749 26.4375L0 18ZM1.12498 18L8.43749 25.3126L15.75 18L8.43749 10.6874L1.12498 18ZM9.56256 8.43749L18 0L26.4374 8.43749L18 16.875L9.56256 8.43749ZM10.6874 8.43749L18 15.75L25.3126 8.43749L18 1.12489L10.6874 8.43749ZM27.5625 9.56238L36 18L27.5625 26.4374L19.125 18L27.5625 9.56238ZM20.25 18L27.5625 25.3125L34.875 18L27.5625 10.6874L20.25 18ZM9.56247 27.5625L18 19.1249L26.4374 27.5625L18 36L9.56247 27.5625ZM10.6874 27.5625L18 34.875L25.3125 27.5625L18 20.2499L10.6874 27.5625Z" fill="white"/>
</svg>
