<svg width="36" height="36" viewBox="0 0 36 36" fill="none" xmlns="http://www.w3.org/2000/svg">
<path d="M17.9458 35.9993V29.0191C25.3112 29.0191 31.0288 21.692 28.2005 13.9156C27.1627 11.0576 24.864 8.75104 21.9948 7.71006C14.2427 4.89378 6.93833 10.6084 6.93833 17.9974H0C0 6.22055 11.3534 -2.96532 23.6634 0.893284C29.0351 2.5879 33.3281 6.87352 34.9967 12.262C38.8419 24.6105 29.686 35.9993 17.9458 35.9993Z" fill="#0080FF"/>
<path fill-rule="evenodd" clip-rule="evenodd" d="M17.9743 29.0601H11.036V22.1001H17.9743V29.0601ZM11.036 34.3867H5.72664V29.0601H11.036V34.3867ZM5.72597 29.0601H1.27002V24.5896H5.72597V29.0601Z" fill="#0080FF"/>
</svg>
