<svg width="97" height="36" viewBox="0 0 97 36" fill="none" xmlns="http://www.w3.org/2000/svg">
<g clip-path="url(#clip0_370_17432)">
<path d="M0 31.4545C0.0644223 31.3445 0.0589965 31.217 0.0855072 31.098C0.422591 29.5883 1.80794 28.4528 3.3527 28.4109C4.17412 28.3886 4.91855 28.5963 5.57864 29.0915C5.60199 29.109 5.62218 29.139 5.66284 29.1269C5.69533 29.0763 5.67891 29.0181 5.67898 28.9635C5.68015 28.0142 5.67788 27.0651 5.68077 26.1159C5.68207 25.6843 5.94917 25.4071 6.346 25.4131C6.7061 25.4186 6.98405 25.6859 6.98439 26.0464C6.98618 28.0647 6.99902 30.0832 6.97807 32.1014C6.962 33.6523 5.65316 35.1061 4.11375 35.3414C4.03635 35.3533 3.94961 35.3411 3.88285 35.3999H3.13135C3.11143 35.3549 3.06926 35.3712 3.03609 35.3671C1.64819 35.1942 0.460296 34.1503 0.105287 32.7952C0.0650404 32.6414 0.0668948 32.4785 0 32.3312V31.4545ZM5.67816 31.9007C5.68015 30.699 4.68916 29.7069 3.4891 29.7093C3.05654 29.7096 2.63374 29.838 2.27413 30.0784C1.91451 30.3188 1.6342 30.6604 1.46859 31.06C1.30308 31.4597 1.25973 31.8994 1.34402 32.3237C1.42831 32.7479 1.63645 33.1377 1.94216 33.4437C2.24786 33.7497 2.63741 33.9583 3.06159 34.043C3.48576 34.1278 3.92554 34.0849 4.32536 33.9198C4.7252 33.7547 5.06711 33.4747 5.3079 33.1153C5.54869 32.756 5.67753 32.3333 5.67816 31.9007ZM31.282 35.3999C31.1772 35.3363 31.0548 35.3426 30.941 35.3168C29.3862 34.965 28.2773 33.5748 28.2368 31.98C28.1901 30.1424 29.5585 28.846 30.8313 28.5217C32.8387 28.0103 34.8326 29.2925 35.1848 31.3358C35.2145 31.5108 35.2289 31.6879 35.228 31.8654C35.227 32.2874 34.973 32.5533 34.5498 32.5541C33.1671 32.5568 31.7844 32.5572 30.4017 32.5553C30.1879 32.5553 29.9738 32.5591 29.7601 32.5537C29.652 32.5509 29.6395 32.584 29.6732 32.6815C29.9283 33.4223 30.7262 34.0285 31.516 34.0858C32.1624 34.1327 32.7304 33.9651 33.2123 33.5181C33.4948 33.2561 33.8919 33.2733 34.1375 33.5401C34.3816 33.8053 34.3672 34.2227 34.0896 34.4838C33.577 34.9749 32.9185 35.286 32.2136 35.3701C32.1734 35.3751 32.1289 35.3646 32.0962 35.3999H31.282ZM31.7337 31.2619L33.6564 31.2618C33.8424 31.2618 33.8424 31.2615 33.7705 31.0848C33.4014 30.1777 32.4484 29.6063 31.4583 29.7412C30.6232 29.855 30.0178 30.3065 29.6873 31.0965C29.6205 31.2562 29.6272 31.2616 29.7954 31.2617C30.4415 31.2621 31.0876 31.2621 31.7337 31.2619ZM22.5769 35.3999C22.5531 35.3639 22.5115 35.3731 22.4783 35.3613C22.3544 35.3183 22.2463 35.2391 22.1681 35.1339C22.0898 35.0287 22.0449 34.9024 22.0393 34.7714C22.0345 34.6568 22.0365 34.5419 22.0365 34.4271C22.0364 31.6829 22.0365 28.9385 22.0367 26.1943C22.0367 26.0902 22.0297 25.9854 22.0586 25.8833C22.1028 25.7344 22.1982 25.6058 22.3279 25.5203C22.4576 25.4348 22.6133 25.3978 22.7676 25.4159C23.0808 25.4546 23.3288 25.7103 23.3322 26.0275C23.34 26.7474 23.3362 27.4674 23.3364 28.1874C23.3368 29.0899 23.3369 29.9933 23.3365 30.8977C23.4127 30.9126 23.4536 30.8553 23.502 30.8239C24.6787 30.0609 25.8549 29.297 27.0305 28.5323C27.4729 28.2458 28.0085 28.4835 28.0693 28.9948C28.0999 29.2524 28.0066 29.4605 27.7787 29.6071C26.972 30.1262 26.1699 30.6523 25.3622 31.1699C25.2442 31.2456 25.221 31.2875 25.3262 31.4045C26.1772 32.3509 27.0239 33.3014 27.8662 34.2556C28.245 34.682 28.0957 35.2074 27.5481 35.3808C27.5391 35.3836 27.5323 35.3933 27.5244 35.3999H27.3052C27.0891 35.341 26.9459 35.1885 26.803 35.0271C25.9327 34.0442 25.0607 33.0629 24.1868 32.0831C24.1226 32.0105 24.0761 31.9974 23.9943 32.0551C23.8242 32.175 23.6502 32.2904 23.4715 32.3968C23.3707 32.4568 23.3321 32.5255 23.3333 32.6465C23.34 33.3342 23.3384 34.0221 23.3356 34.7098C23.3341 35.0564 23.1673 35.2717 22.8341 35.3753C22.8204 35.3817 22.8076 35.39 22.7961 35.3999H22.5769ZM10.7718 35.3999C10.658 35.3307 10.5251 35.3435 10.4019 35.3165C9.7048 35.1628 9.07165 34.799 8.58785 34.2742C8.10404 33.7494 7.79288 33.0888 7.69633 32.3816C7.45492 30.58 8.59495 28.9065 10.3438 28.4954C12.2599 28.0448 14.1706 29.2519 14.5804 31.1716C14.9847 33.0656 13.7595 34.9405 11.8653 35.3284C11.7512 35.3519 11.6293 35.3381 11.5233 35.3999H10.7718ZM13.3429 31.8937C13.3422 30.6933 12.3459 29.7026 11.146 29.7093C9.95001 29.716 8.96163 30.7086 8.96644 31.8981C8.96652 32.3311 9.09509 32.7544 9.33586 33.1143C9.57662 33.4742 9.91876 33.7545 10.319 33.9199C10.5847 34.0296 10.8694 34.086 11.1569 34.0857C11.5899 34.0852 12.013 33.9562 12.3727 33.7152C12.7324 33.4742 13.0125 33.1319 13.1776 32.7317C13.2872 32.4659 13.3434 32.1811 13.3429 31.8937ZM18.4121 35.3999C18.3037 35.3317 18.1761 35.3453 18.058 35.3194C17.3524 35.1664 16.7118 34.7981 16.2244 34.2655C15.7371 33.7328 15.4272 33.0619 15.3374 32.3456C15.1108 30.5663 16.2445 28.8964 17.9804 28.5035C19.1065 28.2487 20.1456 28.4615 21.0433 29.2225C21.3624 29.4931 21.3941 29.9408 21.1207 30.2172C20.8874 30.4532 20.5039 30.469 20.2225 30.2454C19.92 30.0051 19.5921 29.8258 19.2085 29.7485C17.9641 29.4975 16.7168 30.4284 16.6231 31.6935C16.5525 32.6471 16.9376 33.3818 17.7794 33.8252C18.613 34.2642 19.4299 34.1772 20.1785 33.5879C20.4878 33.3444 20.9045 33.3621 21.1367 33.634C21.379 33.9177 21.3326 34.3277 21.0225 34.5929C20.5247 35.0206 19.9107 35.2903 19.259 35.3675C19.2259 35.3718 19.1835 35.3543 19.1637 35.3999H18.4121ZM41.2083 29.4192C41.1018 29.7004 40.9301 29.9048 40.6066 29.9338C40.4658 29.9464 40.3415 29.8912 40.2145 29.8456C38.9796 29.403 37.6633 30.0716 37.3129 31.3196C37.2588 31.5158 37.232 31.7185 37.2334 31.922C37.2339 32.8035 37.2205 33.6853 37.2393 34.5664C37.2482 34.9861 37.1036 35.2672 36.6991 35.3999H36.4486C36.433 35.3878 36.4162 35.3773 36.3985 35.3686C36.0832 35.2496 35.9259 35.04 35.9255 34.7069C35.9232 32.8347 35.9233 30.9625 35.9258 29.0903C35.9263 28.7332 36.1645 28.4529 36.4777 28.4163C36.8334 28.3748 37.1348 28.5694 37.215 28.8988C37.2343 28.978 37.2336 29.062 37.2439 29.1618C37.3093 29.117 37.3681 29.0778 37.4259 29.0371C38.1822 28.5027 39.0256 28.3329 39.9349 28.4362C40.1162 28.4546 40.2955 28.4888 40.4706 28.5384C40.7907 28.6328 41.0634 28.7861 41.2083 29.1061V29.4192Z" fill="#2596EC"/>
<path d="M23.9526 0.142639C24.0746 0.219081 24.1138 0.327527 24.1128 0.471825C24.1072 1.24297 24.1106 2.01425 24.1099 2.78546C24.1097 3.01547 24.0313 3.09521 23.8006 3.09556C22.9199 3.09667 22.0392 3.09664 21.1585 3.09549C20.9274 3.09521 20.8511 3.01698 20.8509 2.78464C20.8501 2.01336 20.8536 1.24214 20.8478 0.470932C20.8468 0.326222 20.8877 0.218943 21.0092 0.142639L23.9526 0.142639ZM17.9632 10.8138C21.3864 10.8137 24.8095 10.8197 28.2325 10.8091C28.9963 10.8078 29.7518 10.6502 30.4524 10.3462C30.573 10.2941 30.6143 10.2532 30.5331 10.1135C29.8833 8.99445 29.8121 7.80676 30.1442 6.5782C30.3417 5.85195 30.6746 5.1695 31.1252 4.56669C31.1679 4.50907 31.196 4.48105 31.2738 4.52356C32.5482 5.21998 33.4186 6.24112 33.8012 7.65594C33.8334 7.76596 33.8569 7.87839 33.8713 7.99213C33.8817 8.08938 33.9203 8.09233 34.004 8.07976C34.893 7.94645 35.7794 7.92949 36.6583 8.15696C37.1434 8.28258 37.5922 8.47784 37.9761 8.81149C38.0572 8.88202 38.075 8.93271 38.0407 9.03195C37.5473 10.4565 36.5292 11.3191 35.1189 11.7558C34.5619 11.9283 33.9855 11.9868 33.4041 11.9707C33.2622 11.9668 33.2078 12.0156 33.1588 12.1391C32.573 13.6159 31.878 15.0362 30.9691 16.3452C29.0016 19.1793 26.3313 21.0196 23.0277 21.9657C21.5471 22.3898 20.0354 22.6075 18.4976 22.6676C16.8013 22.734 15.1203 22.6274 13.463 22.2473C12.3436 21.9905 11.2689 21.6178 10.3242 20.9398C9.19111 20.1265 8.41083 19.0323 7.83796 17.7794C7.28777 16.576 6.96298 15.3086 6.78887 13.9993C6.69826 13.2959 6.65106 12.5875 6.64753 11.8782C6.64148 11.2235 7.05322 10.8142 7.7096 10.8141C11.1275 10.8135 14.5454 10.8133 17.9632 10.8138Z" fill="#2496EC"/>
<path d="M14.7676 7.25038C15.2055 7.25038 15.6436 7.25045 16.0815 7.25058C16.3096 7.25093 16.394 7.33266 16.3945 7.56116C16.3959 8.33807 16.3959 9.11498 16.3945 9.8919C16.3941 10.1218 16.3137 10.2082 16.0848 10.2089C15.2036 10.2119 14.3224 10.2119 13.4411 10.2091C13.2113 10.2083 13.1281 10.1225 13.1276 9.8954C13.1258 9.11849 13.1258 8.34157 13.1275 7.56466C13.1279 7.33019 13.2128 7.25072 13.4535 7.25052C13.8915 7.25004 14.3295 7.25004 14.7676 7.25038ZM14.7555 6.65464C14.3176 6.65464 13.8795 6.65554 13.4415 6.6543C13.2171 6.65368 13.128 6.56639 13.1276 6.34153C13.1261 5.56462 13.1261 4.7877 13.1276 4.01079C13.1281 3.77563 13.2131 3.69376 13.4534 3.69349C14.3242 3.69233 15.195 3.69231 16.0657 3.69342C16.3135 3.69376 16.3944 3.77515 16.3947 4.02302C16.3958 4.78949 16.3958 5.55596 16.3948 6.32244C16.3946 6.57642 16.3138 6.6543 16.0539 6.65451C15.6211 6.65497 15.1883 6.65501 14.7555 6.65464ZM18.6579 7.25038C19.0959 7.25038 19.5339 7.24969 19.9719 7.25065C20.1874 7.25113 20.2766 7.33712 20.2772 7.55402C20.279 8.33615 20.279 9.11828 20.2772 9.90041C20.2765 10.1194 20.193 10.2079 19.9742 10.2087C19.0878 10.212 18.2013 10.212 17.3148 10.2088C17.0957 10.208 17.0096 10.1192 17.0089 9.90275C17.0066 9.12062 17.0065 8.33848 17.0087 7.55635C17.0093 7.33403 17.1004 7.25079 17.3282 7.25052C17.7714 7.24999 18.2147 7.24994 18.6579 7.25038ZM26.3506 7.25038C26.7886 7.25038 27.2266 7.25038 27.6646 7.25052C27.8989 7.25086 27.9821 7.33389 27.9824 7.57276C27.9835 8.34446 27.9835 9.11615 27.9824 9.88791C27.9819 10.1191 27.9017 10.2079 27.6758 10.2087C26.7894 10.212 25.903 10.2119 25.0165 10.2087C24.7991 10.2078 24.7145 10.1184 24.7138 9.89959C24.7115 9.12268 24.7115 8.34576 24.7136 7.56885C24.7143 7.33211 24.8007 7.25079 25.0365 7.25052C25.4745 7.24999 25.9126 7.24994 26.3506 7.25038ZM18.6279 6.65464C18.1952 6.65464 17.7624 6.65533 17.3296 6.6543C17.096 6.65375 17.0088 6.56783 17.0084 6.33226C17.007 5.56063 17.007 4.78894 17.0085 4.01725C17.009 3.77989 17.094 3.69397 17.3288 3.69356C18.2048 3.69211 19.0808 3.69211 19.9568 3.69356C20.1925 3.6939 20.2769 3.77886 20.2774 4.01615C20.2788 4.7878 20.2788 5.55944 20.2773 6.33109C20.2768 6.57415 20.1912 6.65416 19.9419 6.65444C19.5039 6.65506 19.0659 6.65506 18.6279 6.65464ZM10.9434 7.25038C11.3865 7.25038 11.8295 7.24955 12.2727 7.25072C12.4795 7.25127 12.5703 7.33554 12.5711 7.54481C12.5741 8.33189 12.5741 9.11897 12.5711 9.90605C12.5702 10.126 12.4854 10.2031 12.2619 10.2034C11.3809 10.2045 10.5 10.2045 9.61906 10.2034C9.38747 10.2032 9.30574 10.1237 9.30526 9.8954C9.30378 9.11354 9.30385 8.33168 9.30546 7.54983C9.30594 7.33547 9.39598 7.251 9.61418 7.25058C10.0573 7.24983 10.5003 7.24976 10.9434 7.25038Z" fill="#2596EC"/>
<path d="M22.4803 3.69938C22.9181 3.69945 23.356 3.69862 23.7939 3.69972C24.0359 3.70034 24.1101 3.77541 24.1102 4.01785C24.1107 4.78932 24.1107 5.56078 24.1101 6.33225C24.11 6.57173 24.0297 6.65374 23.7941 6.65388C22.9183 6.65456 22.0426 6.65456 21.1668 6.65388C20.9312 6.65374 20.8512 6.57187 20.851 6.33231C20.8504 5.56083 20.8505 4.78941 20.851 4.01792C20.8512 3.77438 20.9245 3.70027 21.1666 3.69972C21.6045 3.69862 22.0424 3.69938 22.4803 3.69938ZM22.4709 10.2034C22.033 10.2034 21.5952 10.2045 21.1573 10.2029C20.9264 10.2021 20.8513 10.1248 20.8511 9.89072C20.8504 9.1141 20.8504 8.33749 20.8511 7.56087C20.8513 7.33127 20.9321 7.2505 21.1607 7.25037C22.0416 7.24975 22.9225 7.24975 23.8034 7.25037C24.0299 7.25057 24.1099 7.33223 24.1101 7.56396C24.1109 8.3406 24.1109 9.11724 24.1101 9.89388C24.11 10.1234 24.0313 10.2023 23.8 10.203C23.357 10.2044 22.9139 10.2034 22.4709 10.2034Z" fill="#2496EC"/>
<path d="M38.8108 34.4457C38.8709 34.4457 38.9304 34.4575 38.9859 34.4805C39.0411 34.5038 39.0913 34.5375 39.1336 34.5799C39.1755 34.6225 39.2092 34.6729 39.2318 34.7285C39.2543 34.7841 39.2657 34.8435 39.2655 34.9034C39.2649 34.9635 39.2523 35.0228 39.2284 35.0778C39.2049 35.1329 39.1709 35.1828 39.1281 35.2247C39.085 35.2664 39.0341 35.2992 38.9784 35.3214C38.9227 35.3434 38.8632 35.3542 38.8033 35.3531C38.5423 35.3511 38.33 35.1387 38.3376 34.8874C38.3435 34.7666 38.3962 34.6528 38.4846 34.5703C38.5729 34.4877 38.69 34.4431 38.8108 34.4457ZM39.0148 35.1516C39.148 35.0561 39.1844 34.903 39.1123 34.7437C39.0801 34.6686 39.0215 34.6079 38.9475 34.5732C38.8736 34.5383 38.7896 34.5317 38.7112 34.5546C38.6407 34.5753 38.5783 34.6174 38.5327 34.6751C38.4872 34.7328 38.4606 34.803 38.4564 34.8763C38.4468 35.0244 38.5347 35.1798 38.6728 35.224C38.7957 35.2637 38.9269 35.2867 39.0168 35.1493L39.0148 35.1516Z" fill="#2596EC"/>
<path d="M39.0154 35.149C38.9357 35.1422 38.8815 35.1087 38.8684 35.021C38.8616 34.9722 38.8224 34.9538 38.7757 34.9585C38.7201 34.9641 38.7366 35.0097 38.7331 35.0429C38.7283 35.0814 38.7448 35.1371 38.6789 35.1321C38.6177 35.1275 38.6329 35.0734 38.6308 35.0345C38.6287 34.9824 38.6308 34.9302 38.6308 34.878C38.6308 34.6804 38.7173 34.6196 38.9076 34.6819C38.9653 34.7009 39.0161 34.7543 38.9893 34.7942C38.8993 34.9262 39.0209 35.0324 39.0133 35.1513L39.0154 35.149ZM38.8032 34.7459C38.7599 34.741 38.7345 34.7563 38.7345 34.804C38.7338 34.8454 38.7427 34.8755 38.7929 34.871C38.8355 34.8672 38.8808 34.8615 38.8794 34.8065C38.878 34.7635 38.841 34.7508 38.8032 34.7459Z" fill="#2596EC"/>
<path opacity="0.5" fill-rule="evenodd" clip-rule="evenodd" d="M52.8839 13.1923H50.1367V16.6263H46.7026V19.3735H50.1367V22.8075H52.8839V19.3735H56.3179V16.6263H52.8839V13.1923Z" fill="white"/>
<path d="M78.0142 17.1983H97.6342V0L78.0142 2.88269V17.1983ZM76.6312 17.1983V3.08512L62.3843 5.17761V17.1983H76.6312ZM76.6312 18.5899H62.3843V30.7637L76.6312 32.8799V18.5899ZM78.0142 18.5899V33.0858L97.6342 36V18.5899H78.0142Z" fill="#0078D6"/>
</g>
<defs>
<clipPath id="clip0_370_17432">
<rect width="96.3243" height="36" fill="white"/>
</clipPath>
</defs>
</svg>
