<svg width="29" height="36" viewBox="0 0 29 36" fill="none" xmlns="http://www.w3.org/2000/svg">
<path d="M4.60856 30.2507C4.36856 30.0467 4.0497 29.9798 3.80028 29.7921C3.74456 29.571 3.53456 29.5744 3.37771 29.5178C2.94485 29.361 2.54629 29.4835 2.32514 29.8195C2.13143 30.1144 2.20686 30.5112 2.512 30.8515C2.70057 31.0615 2.94485 31.203 3.14628 31.3967C3.39999 31.6409 3.44628 31.8424 3.31771 32.1209C3.18999 32.3978 3.00314 32.4955 2.656 32.4604C2.04743 32.3987 1.64972 32.0181 1.30858 31.5587C0.188304 30.0458 1.49715 28.2561 2.71686 28.089C3.42828 27.9913 4.04027 28.2313 4.63684 28.5621C5.28484 28.9221 5.86683 29.391 6.53197 29.7218C7.46539 30.1847 8.43224 30.3955 9.47023 30.1392C10.4585 29.895 10.9274 29.3078 10.9359 28.2955C10.9419 27.4418 10.7422 26.619 10.5845 25.7901C10.4474 25.0761 10.6368 24.4736 11.1502 23.9696C11.7656 23.3653 12.4719 22.9667 13.3728 23.0096C13.3511 22.992 13.325 22.9807 13.2973 22.977C11.7562 22.7756 10.1062 24.2884 10.2039 25.827C10.2194 26.0593 10.1439 26.1673 9.9528 26.2873C9.00652 26.8787 7.94624 27.1101 6.87311 27.309C5.45541 27.573 4.11313 27.3887 2.88743 26.5958C2.22829 26.1698 1.78515 25.5887 1.73886 24.7719C1.66258 23.433 1.95058 22.1807 2.63628 21.0227C2.79657 20.7527 2.94657 20.475 3.09142 20.1965C3.13 20.1228 3.22171 20.0328 3.09914 19.947C3.05885 19.8099 3.24314 19.7499 3.21142 19.6162C3.25193 19.6211 3.29056 19.636 3.3238 19.6597C3.35704 19.6833 3.38382 19.7149 3.40171 19.7516C3.58171 20.073 3.85513 20.3182 4.08827 20.5959C3.72485 21.2507 3.39056 21.9159 3.25514 22.6624C3.14371 23.2744 3.18314 23.8633 3.52771 24.4033C4.0677 25.2527 4.9197 25.569 5.8514 25.6599C7.45339 25.8141 8.85738 25.3316 10.0497 24.2319C11.0251 23.331 11.2394 22.1662 10.6239 21.0056C10.3479 20.4845 9.98794 20.025 9.62623 19.5648C9.05452 18.8362 8.45024 18.1333 8.02596 17.2968C7.15082 15.5696 7.20825 13.8399 7.96853 12.0982C7.98053 12.1111 7.99939 12.1231 8.00281 12.1385C8.17081 12.838 8.59938 13.0925 9.27738 12.8397C10.2837 12.4634 10.9436 11.7271 11.2411 10.708C11.4125 10.1251 11.2899 9.55684 10.6651 9.33055C10.6214 9.31427 10.5922 9.25684 10.5562 9.21827C11.0534 8.88056 11.6208 8.68684 12.1899 8.54284C13.4816 8.21141 14.8322 8.18208 16.137 8.45713C17.7032 8.77514 19.1475 9.52994 20.3027 10.6343C21.0133 11.308 21.5927 12.0648 21.8439 13.0462C22.1901 14.3945 22.0838 15.6836 21.4813 16.9402C20.9241 18.1025 20.0687 19.0033 19.0607 19.7799C18.2576 20.3979 17.4467 21.0099 16.9127 21.903C16.6916 22.2742 16.4927 22.653 16.3607 23.127C16.5733 22.983 16.5982 22.7756 16.7267 22.6453C16.917 22.6813 17.0027 22.4996 17.151 22.4422C17.9996 22.1139 18.8533 22.1422 19.713 22.3805C19.4524 22.6359 19.1816 22.8819 18.9339 23.1493C18.7299 23.3679 18.4419 23.5059 18.3107 23.7939L18.3099 23.7947C18.2893 23.7639 18.267 23.7622 18.2422 23.7896L18.0365 23.9722C17.7656 24.1667 17.1519 24.255 16.9239 24.0947C17.0327 24.2833 16.9667 24.3776 16.8407 24.477C16.6093 24.6604 16.4722 24.9099 16.395 25.1987C16.239 25.7927 16.6265 26.193 17.1056 26.4056C17.5256 26.5941 17.7913 26.4287 18.0519 25.8681C18.1264 25.707 18.1607 25.8287 18.2096 25.8801C18.1924 25.947 18.2285 26.0019 18.2516 26.0601C18.4282 26.4964 18.5242 26.943 18.4719 27.4204C18.441 27.6981 18.357 27.9604 18.303 28.2313C18.2762 28.2326 18.2492 28.232 18.2225 28.2295C16.4602 27.9467 15.2936 26.5984 15.267 24.8199C15.2653 24.7187 15.3133 24.5961 15.1873 24.5053L15.123 25.2399L15.1273 25.2339C15.0305 25.2819 14.9799 25.3676 14.9302 25.4593C14.6816 25.9179 14.5668 26.415 14.5042 26.9284C14.4819 27.1718 14.3859 27.3424 14.1185 27.4016C13.9479 27.4384 13.8785 27.6141 13.8073 27.7556C13.6008 28.1653 13.7482 28.6298 14.2033 28.7781C14.4716 28.8664 14.6679 28.6967 14.8993 28.6547L15.0399 28.8518C15.5268 29.5393 16.167 29.9961 17.013 30.1058C17.6439 30.1872 18.2447 30.0415 18.813 29.7647C19.2784 29.5482 19.6773 29.2111 19.9684 28.7884C20.4501 28.0753 20.4716 27.3304 20.0336 26.6078C19.6119 25.9136 19.0222 25.3993 18.1882 25.2364C18.0562 25.2107 17.9096 25.1104 17.817 25.3041C17.847 25.359 17.8745 25.4156 17.8985 25.473C18.0656 25.9487 17.7562 26.3987 17.307 26.3378C16.6899 26.253 16.3702 25.6221 16.6573 25.0701C16.9247 24.5567 17.3773 24.3956 17.913 24.3879C18.8559 24.375 19.653 24.777 20.403 25.2939C21.9853 26.3858 22.2201 28.341 21.4779 29.7475C21.0416 30.573 20.2993 31.035 19.4602 31.3744C19.392 31.406 19.3176 31.4217 19.2425 31.4206C19.1674 31.4194 19.0936 31.4012 19.0264 31.3675C18.4273 31.0984 17.8385 30.8061 17.2187 30.585C17.0854 30.5322 16.94 30.5173 16.7987 30.5421C16.2733 30.6398 15.7822 30.8447 15.279 31.011C15.1162 31.0641 15.0022 31.0418 14.859 30.9424C14.0808 30.4041 13.5819 29.6413 13.1456 28.8295C12.9271 28.4224 12.7839 27.9896 12.7762 27.5198C13.1482 27.5078 13.4542 27.3141 13.7113 27.0887C14.3953 26.4861 14.2008 25.5793 13.5622 25.1901C13.3908 25.0864 13.1902 25.1447 13.0419 25.017C13.1208 24.7881 13.2922 24.6141 13.4191 24.4024C13.1113 24.4813 12.9811 24.561 12.8962 24.7161L12.9005 24.7119C12.8628 24.6459 12.8225 24.6964 12.7933 24.7161C12.3262 25.0444 12.0048 25.4704 11.9062 26.0456C11.8222 26.5281 11.9182 26.9927 12.0305 27.4573C12.2396 28.3187 12.4891 29.1698 12.5328 30.0655C12.5739 30.9278 12.1916 31.563 11.5051 32.0104C10.3994 32.7304 9.21823 32.6944 8.01996 32.2521C8.15881 32.2118 8.17596 32.1072 8.18624 31.9804C8.23424 31.3812 7.61025 30.5172 6.84054 30.3792C6.27483 30.2772 5.7674 30.4907 5.79655 31.1258C5.53255 30.9338 5.27026 30.7384 5.00198 30.5515C4.93341 30.5035 4.88455 30.3981 4.77055 30.447L4.77141 30.4478C4.81255 30.3707 4.76541 30.3784 4.71484 30.3895L4.71827 30.3938C4.74398 30.3304 4.7097 30.3252 4.66084 30.3355L4.66513 30.3398C4.68141 30.2884 4.63941 30.273 4.60856 30.2507ZM11.5848 18.3665C11.5505 18.3922 11.5154 18.4162 11.4802 18.4411C11.0259 18.8885 10.9548 19.4328 11.1168 20.0139C11.2642 20.5462 11.8711 20.847 12.5808 20.7459C13.1593 20.6636 13.5879 20.3516 13.7833 19.7893C13.9633 19.2708 13.8725 18.7908 13.4679 18.3991C13.0496 17.9945 12.5636 17.9045 12.0228 18.1179C11.8586 18.1637 11.7082 18.249 11.5848 18.3665ZM15.0553 18.5439C15.0622 18.6065 15.0442 18.6365 14.9696 18.6348C14.7948 18.6305 14.6499 18.7153 14.5102 18.8096C13.9573 19.095 13.7516 20.1039 14.1296 20.6713C14.4571 21.1642 15.2182 21.3442 15.8568 21.0802C16.467 20.8273 16.8425 20.2196 16.7696 19.6025C16.7036 19.0488 16.2313 18.5568 15.6605 18.4591C15.4539 18.4239 15.2422 18.4076 15.0553 18.5439ZM12.5371 10.7543C13.2622 10.7543 13.7439 10.456 14.1313 9.9914C14.3139 9.77026 14.3696 9.51055 14.2222 9.23712C14.0791 8.97141 13.8433 8.86513 13.5571 8.85141C12.9151 8.82313 12.4771 9.15741 12.1154 9.64684C11.9354 9.88941 11.8454 10.1405 11.9602 10.4234C12.0004 10.5387 12.0809 10.6357 12.1869 10.6965C12.2929 10.7573 12.4172 10.7778 12.5371 10.7543Z" fill="#A7B9CC"/>
<path d="M7.97134 12.0993C7.21106 13.841 7.15363 15.5707 8.02877 17.2978C8.45305 18.1344 9.05733 18.8364 9.62904 19.5658C9.99075 20.0261 10.3507 20.4855 10.6267 21.0058C11.2422 22.1681 11.0279 23.3321 10.0525 24.2329C8.86019 25.3335 7.45534 25.8161 5.85421 25.6609C4.92251 25.5709 4.07137 25.2538 3.53052 24.4044C3.18595 23.8644 3.14738 23.2755 3.25795 22.6644C3.39337 21.917 3.72766 21.2518 4.09108 20.597C4.32439 20.2894 4.53004 19.9619 4.70565 19.6181C5.03136 19.0061 4.95422 18.4044 4.64136 17.8104C4.56851 17.6733 4.49051 17.6673 4.36108 17.7307C4.12708 17.8447 3.88023 17.933 3.64623 18.0478C3.32652 18.2064 3.05223 18.143 2.76424 17.951C2.36995 17.6887 1.97224 17.4247 1.53167 17.2387C1.20425 17.0416 0.995107 16.7793 0.993393 16.3713C0.98794 16.0297 0.967348 15.6885 0.931679 15.3487C0.919679 15.2184 1.00025 15.0084 0.845966 14.975C0.702824 14.945 0.598253 15.131 0.520254 15.2621C0.457189 15.3704 0.407129 15.4858 0.371112 15.6059C0.261399 15.9676 0.273399 16.3353 0.335112 16.703C0.399398 17.0896 0.58711 17.3887 0.963393 17.5507C1.25311 17.6716 1.55225 17.7693 1.85824 17.8413C1.98339 17.8867 2.10681 17.939 2.22595 17.999C2.75738 18.3015 3.26309 18.6281 3.20738 19.3567C2.89452 18.6753 2.30738 18.3521 1.62853 18.1507C1.33478 18.0706 1.04856 17.965 0.773109 17.8353C0.28197 17.5901 0.0531146 17.1753 0.0171149 16.649C-0.0223133 16.097 -0.0257419 15.5467 0.372826 15.0924C0.496254 14.951 0.61711 14.8019 0.827109 14.7916C0.851 14.794 0.874928 14.7874 0.89425 14.7731C0.913572 14.7589 0.926911 14.738 0.931679 14.7144C0.934593 14.6984 0.933413 14.6819 0.928251 14.6664C0.899108 14.4659 1.03368 14.4144 1.18453 14.3519C2.04167 13.9953 2.93823 13.7622 3.82023 13.481C4.10676 13.3935 4.41423 13.4034 4.69451 13.5093C5.2285 13.6979 5.76507 13.8804 6.28192 14.1127C6.50821 14.2139 6.61621 14.3279 6.58192 14.6201C6.52192 15.1456 6.53478 15.6804 6.53392 16.211C6.53306 16.4313 6.47392 16.5898 6.27164 16.697C5.77964 16.9576 5.2945 17.2284 4.80422 17.4924C4.67994 17.5593 4.59594 17.585 4.71251 17.771C5.11793 18.4207 5.15479 19.103 4.79993 19.7964C4.47422 20.435 4.06965 21.0341 3.81423 21.7095C3.6128 22.2203 3.52392 22.7684 3.55366 23.3167C3.60337 24.0924 4.18537 24.7824 5.01336 25.0395C6.25621 25.4244 7.46049 25.2949 8.61848 24.7224C9.24919 24.4128 9.81729 23.9894 10.2942 23.4735C10.7767 22.9507 10.8976 22.3429 10.6619 21.6761C10.4142 20.975 9.93675 20.4204 9.47476 19.8573C8.89533 19.1501 8.24391 18.5038 7.76048 17.7153C7.06277 16.5787 6.81506 15.3547 6.94706 14.0416C7.10735 12.4507 7.72705 11.0639 8.83533 9.9119C9.78332 8.92619 10.967 8.34334 12.2853 8.04506C13.8976 7.67649 15.5793 7.74506 17.1556 8.24563C17.1898 8.25677 17.225 8.26448 17.261 8.27134C17.267 8.27306 17.2756 8.26448 17.3047 8.24906C16.9996 7.55049 16.8984 6.83135 17.2181 6.10622C17.549 5.35536 18.209 5.06222 19.0121 4.9028C18.749 4.7228 18.5261 4.57108 18.3024 4.42023C18.2587 4.38908 18.2129 4.36101 18.1653 4.33623C17.5267 4.02337 17.183 3.58281 17.3613 2.81224C17.4684 2.35282 17.4898 1.87282 17.5987 1.40739C17.693 1.00454 17.9313 0.7774 18.3187 0.7054C19.1475 0.551116 19.9764 0.385688 20.8275 0.391688C21.0795 0.396831 21.3247 0.467973 21.5407 0.597401C21.6547 0.662543 21.7344 0.686543 21.8304 0.55883C22.2967 -0.0583082 23.4718 -0.182593 24.0992 0.277689C24.8458 0.826256 25.3138 1.57625 25.4278 2.5071C25.5101 3.18424 25.1963 3.72681 24.7429 4.19652C24.5886 4.35594 24.4575 4.50851 24.4601 4.74937C24.4626 4.90794 24.3606 5.00394 24.2098 5.06308C23.3355 5.40251 22.4235 5.60479 21.5098 5.79765C21.2192 5.8585 20.939 6.02565 20.621 5.84565C20.5095 5.78308 20.4152 5.9545 20.315 6.01793C19.7587 6.37621 19.4458 6.86821 19.5187 7.55563L19.4527 7.5582C19.2118 6.6925 19.6884 6.14736 20.3304 5.66479C19.9961 5.47536 19.6841 5.30051 19.3747 5.12051C19.3452 5.10213 19.3124 5.08978 19.2781 5.08419C19.2438 5.0786 19.2088 5.07987 19.175 5.08794C18.407 5.22937 17.6518 5.9425 17.501 6.7045C17.4033 7.20164 17.4238 7.7142 17.5635 8.20106C17.5791 8.26566 17.6105 8.32536 17.655 8.37475C17.6994 8.42414 17.7555 8.46166 17.8181 8.48391C18.1395 8.62362 18.4558 8.77705 18.7618 8.94676C20.2635 9.77819 21.4832 10.8856 22.1989 12.4816C22.4304 13.1433 22.5538 13.8384 22.5624 14.5396C22.5701 15.8313 22.1552 16.991 21.4515 18.0676C21.0615 18.665 20.5824 19.1715 20.0527 19.6335C19.3455 20.2515 18.5913 20.813 17.849 21.389C17.4067 21.7404 17.0278 22.1664 16.7304 22.6464C16.6018 22.7758 16.5761 22.9841 16.3636 23.1281C16.4956 22.6541 16.6944 22.2761 16.9156 21.905C17.4496 21.011 18.2604 20.399 19.0635 19.781C20.0715 19.0044 20.927 18.1036 21.4849 16.9413C22.0875 15.6847 22.1929 14.3956 21.8467 13.0473C21.5955 12.0659 21.0152 11.309 20.3064 10.6345C19.1509 9.53001 17.7064 8.7752 16.1398 8.45734C14.835 8.1826 13.4843 8.21222 12.1927 8.54391C11.6245 8.68877 11.057 8.88162 10.559 9.21933C9.35561 9.87247 8.51133 10.8496 7.97134 12.0993ZM17.597 3.37709C17.5473 3.54166 17.6613 3.65395 17.8053 3.76623C18.131 4.02166 18.5073 4.1948 18.8561 4.4108C19.3807 4.7348 19.919 5.03565 20.4581 5.33565C20.7598 5.50365 20.7744 5.49422 20.7924 5.13165C20.8181 4.56594 20.8824 4.00195 20.9878 3.44566C21.0392 3.19024 20.9758 3.07024 20.7744 2.94853C19.8629 2.39639 18.9552 1.8381 18.0513 1.27368C17.8755 1.16397 17.8584 1.25825 17.8344 1.38682C17.7144 2.0331 17.6578 2.6871 17.597 3.37709ZM24.5132 2.93481C24.5561 2.6331 24.5166 2.56453 24.2818 2.61596C23.4084 2.81567 22.5247 2.96738 21.6332 3.07024C21.4104 3.09338 21.2544 3.18595 21.2304 3.44566C21.1678 4.13309 21.0864 4.8188 21.0212 5.50622C21.0084 5.65022 21.1018 5.65193 21.2218 5.62108C21.4815 5.55251 21.7455 5.49851 22.0095 5.44365C22.6944 5.30051 23.3749 5.14365 24.0375 4.91565C24.1644 4.87108 24.1935 4.79823 24.2098 4.67908C24.2417 4.38536 24.2921 4.09393 24.3606 3.80652C24.4455 3.48424 24.4164 3.14567 24.5132 2.93481ZM18.089 0.974541C18.1224 1.00711 18.1575 1.03883 18.1944 1.06711C19.1047 1.67825 20.045 2.24139 20.9887 2.79853C21.1452 2.8906 21.3307 2.92029 21.5081 2.88167C22.0121 2.78824 22.5195 2.7111 23.0244 2.62281C23.3964 2.55767 23.7675 2.48567 24.1755 2.41024C24.143 2.38012 24.1087 2.35206 24.0726 2.32624C23.2815 1.88568 22.4749 1.47082 21.7035 0.998541C21.2201 0.702829 20.7247 0.623115 20.1838 0.689972C19.7107 0.7474 19.2367 0.803114 18.7653 0.872542C18.5467 0.904256 18.317 0.866542 18.089 0.974541ZM3.32566 17.8258C3.56309 17.7804 3.72594 17.6467 3.91023 17.5618C4.63451 17.2276 5.33222 16.8401 6.02307 16.4407C6.09145 16.408 6.14784 16.3547 6.18429 16.2883C6.22074 16.2219 6.2354 16.1456 6.22621 16.0704C6.20859 15.6655 6.20859 15.26 6.22621 14.855C6.23478 14.6116 6.14907 14.609 5.95964 14.687C5.1625 15.0136 4.38765 15.3933 3.57337 15.6779C3.42166 15.731 3.32052 15.8244 3.32309 16.0139C3.33166 16.6087 3.32566 17.2036 3.32566 17.8258ZM1.2891 14.5584C1.91824 14.8893 2.52595 15.2004 3.12338 15.5296C3.17473 15.5622 3.23377 15.5807 3.29456 15.5833C3.35536 15.5859 3.41575 15.5724 3.46966 15.5441C4.13137 15.263 4.79822 14.9939 5.46164 14.7127C5.67164 14.6244 5.89878 14.5687 6.13021 14.3964C5.55593 14.1796 5.02793 13.9662 4.48879 13.781C4.26251 13.7039 4.01137 13.667 3.77137 13.7382C2.93352 13.979 2.10546 14.2526 1.2891 14.5584ZM3.14738 17.879C3.17995 17.3467 3.11395 16.8581 3.18509 16.3756C3.25795 15.8819 3.22023 15.7987 2.75567 15.6084C2.717 15.5869 2.67978 15.5628 2.64424 15.5364C2.16596 15.2621 1.64396 15.0753 1.13568 14.7239C1.17596 15.3547 1.27282 15.9136 1.28653 16.4776C1.29168 16.6884 1.40653 16.8264 1.60282 16.9378C2.11538 17.2293 2.64167 17.5001 3.14738 17.879ZM22.9001 0.233118C22.6301 0.210833 22.3044 0.317117 22.0104 0.53483C21.8441 0.658258 21.8235 0.744828 22.0327 0.857113C22.8409 1.28825 23.6389 1.73739 24.4481 2.16682C24.6418 2.26967 24.7335 2.41453 24.7275 2.61596C24.7206 2.8851 24.6949 3.15424 24.6641 3.42167C24.6572 3.48166 24.6084 3.55366 24.6709 3.58624C24.7438 3.62395 24.7764 3.54252 24.8029 3.48766C24.8603 3.37624 24.9126 3.26138 24.9581 3.14481C25.2478 2.34682 24.8818 1.69025 24.4884 1.04825C24.1506 0.497116 23.6398 0.239975 22.9001 0.233118Z" fill="#121316"/>
<path d="M18.191 25.2375C19.0259 25.4004 19.6139 25.9146 20.0365 26.6089C20.4745 27.3315 20.453 28.0763 19.9713 28.7895C19.6799 29.2129 19.2813 29.5498 18.8159 29.7666C18.2476 30.0426 17.6468 30.1883 17.0159 30.1069C16.1699 29.9972 15.5296 29.5412 15.0428 28.8529L14.9022 28.6558C14.6062 28.1307 14.4689 27.531 14.5071 26.9295C14.5696 26.4161 14.6845 25.9189 14.9331 25.4604C14.9828 25.3686 15.0334 25.2829 15.1302 25.2358C15.0736 25.3575 15.0136 25.4775 14.9631 25.6009C14.7359 26.1495 14.6202 26.7195 14.7059 27.3126C14.9116 28.7518 16.3885 30.1412 18.1542 29.5412C18.5716 29.3998 18.9599 29.2018 19.2908 28.8452C18.5108 28.7818 17.7856 28.6686 17.0991 28.3781C16.3551 28.0626 15.7774 27.5809 15.4731 26.8035C15.2759 26.2978 15.2279 25.7646 15.1259 25.2409L15.1902 24.5064C15.3162 24.5972 15.2674 24.7198 15.2699 24.8209C15.2956 26.5995 16.4631 27.9478 18.2253 28.2306C18.2521 28.2331 18.279 28.2336 18.3059 28.2323C18.7122 28.3643 19.1365 28.3352 19.553 28.3721C19.6456 28.3806 19.6979 28.3223 19.7356 28.2418C19.8568 27.9961 19.9206 27.726 19.9221 27.452C19.9236 27.1781 19.8627 26.9073 19.7442 26.6603C19.7345 26.6307 19.7173 26.6041 19.6944 26.5831C19.6714 26.5621 19.6434 26.5474 19.613 26.5404C19.0953 26.4298 18.653 26.1572 18.2125 25.8804C18.1636 25.8298 18.1293 25.7081 18.0548 25.8701C17.795 26.4298 17.5285 26.5943 17.1085 26.4066C16.6293 26.1932 16.2419 25.7938 16.3988 25.1998C16.4751 24.9109 16.6113 24.6615 16.8436 24.4781C16.9705 24.3787 17.0356 24.2844 16.9268 24.0958C17.1548 24.2561 17.7685 24.1678 18.0393 23.9732C18.0496 24.0418 18.0436 24.1284 18.1585 24.0881C19.8256 24.2732 21.1087 25.0421 21.8956 26.5566C21.9702 26.7006 22.043 26.7683 22.2162 26.7606C23.0099 26.7229 23.8036 26.6783 24.5201 26.2892C25.0996 25.9746 25.5633 25.5375 25.8401 24.8706C25.373 25.0524 24.9393 25.2118 24.5133 25.3892C24.191 25.5229 23.9107 25.5452 23.5704 25.3678C22.9859 25.0618 22.3533 24.8518 21.7584 24.5569C21.377 24.3684 21.1705 24.1044 21.1807 23.6784C21.1919 23.1924 21.1002 22.7115 21.1267 22.223C21.1396 21.9787 21.221 21.8244 21.4713 21.803C21.6582 21.7858 21.7336 21.6872 21.8056 21.5184C22.307 20.3535 23.6553 19.6387 25.007 19.7921C25.9096 19.895 26.645 20.3038 27.2441 20.9724C27.4104 21.1584 27.6453 21.1627 27.8553 21.2235C28.3198 21.3572 28.3173 21.347 28.319 21.8364C28.3215 22.5452 28.2615 23.2507 28.3061 23.9638C28.3685 24.8375 28.1589 25.7091 27.7061 26.4589C27.2887 27.1489 26.6656 27.6101 25.9576 27.9632C24.8298 28.5294 23.5853 28.8244 22.3233 28.8246C22.2264 28.8246 22.1227 28.7792 22.073 28.9438C21.719 30.0975 20.7153 31.1329 19.4442 31.5203C19.7733 31.6917 20.0673 31.8469 20.3622 31.9995C20.4419 32.0406 20.5276 32.0706 20.6082 32.1109C21.3624 32.4863 21.2219 32.3303 21.2056 33.1394C21.1987 33.4994 21.1525 33.8586 21.1362 34.2177C21.1364 34.2757 21.1205 34.3327 21.0902 34.3822C21.0599 34.4317 21.0165 34.4718 20.9647 34.498C20.1865 34.966 19.4108 35.44 18.629 35.9037C18.4276 36.0228 18.2253 36.0443 18.0008 35.8943C17.0356 35.2497 16.0482 34.6403 15.0985 33.9709C14.6228 33.6349 14.3982 33.2012 14.3614 32.6474C14.3408 32.3432 14.2799 32.0423 14.3056 31.7329C14.3262 31.4792 14.4299 31.3206 14.6699 31.2426C14.7536 31.2076 14.8349 31.1672 14.9134 31.1217C14.3202 30.8937 13.9345 30.4626 13.4991 30.0966C13.3985 30.0077 13.3029 29.9133 13.2128 29.8138C13.1699 29.7709 13.1314 29.6989 13.0705 29.7169C12.9805 29.7443 13.0148 29.8369 13.0191 29.902C13.0499 30.2492 13.0191 30.5989 12.9282 30.9349C12.7242 31.6909 12.198 32.182 11.5491 32.536C10.3988 33.1626 9.2134 33.166 7.9937 32.692C6.97799 32.2977 6.12514 31.6729 5.32543 30.9572C5.13943 30.79 4.92686 30.6503 4.77344 30.448C4.88744 30.3992 4.93629 30.5046 5.00486 30.5526C5.27315 30.7395 5.53543 30.9349 5.79943 31.1269C6.47314 31.6369 7.19656 32.0457 8.02284 32.2532C9.22112 32.6954 10.4014 32.7314 11.508 32.0114C12.1945 31.564 12.5768 30.9289 12.5357 30.0666C12.4928 29.1709 12.2425 28.3198 12.0334 27.4583C11.9211 26.9938 11.8251 26.5301 11.9091 26.0466C12.0085 25.4706 12.3291 25.0455 12.7962 24.7172C12.8254 24.6975 12.8648 24.6469 12.9025 24.7129C12.8904 24.7442 12.873 24.7732 12.8511 24.7986C12.1277 25.3695 12.0282 26.1212 12.2237 26.9586C12.2837 26.5558 12.3797 26.1598 12.5134 25.7749C12.6539 25.3824 12.8537 25.0129 13.1065 24.6812C13.0122 24.6178 12.9719 24.7386 12.8982 24.7172C12.9839 24.5629 13.1142 24.4824 13.4211 24.4035C13.2951 24.6152 13.1237 24.7892 13.0448 25.0181C12.6754 25.8229 12.6488 26.6638 12.7791 27.5209C12.7868 27.9898 12.9299 28.4235 13.1485 28.8306C13.5857 29.6423 14.0828 30.4052 14.8628 30.9443C15.0051 31.0429 15.1199 31.0652 15.2819 31.012C15.7851 30.8457 16.2762 30.6409 16.8016 30.5432C16.9429 30.5184 17.0883 30.5332 17.2216 30.586C17.8413 30.8072 18.4302 31.1003 19.0293 31.3686C19.0965 31.4022 19.1703 31.4203 19.2454 31.4214C19.3205 31.4226 19.3949 31.4069 19.463 31.3755C20.3022 31.036 21.0445 30.574 21.4807 29.7486C22.2239 28.3421 21.9882 26.3869 20.4059 25.2949C19.6567 24.7781 18.8596 24.3761 17.9159 24.3889C17.3811 24.3975 16.9276 24.5578 16.6602 25.0712C16.3731 25.6232 16.6919 26.2541 17.3099 26.3389C17.7591 26.4006 18.0685 25.9498 17.9013 25.4741C17.8776 25.4162 17.8504 25.3598 17.8199 25.3052C17.9048 25.2821 17.9485 25.3446 18.005 25.3884C18.2476 25.5881 18.5108 25.7621 18.7876 25.9095C18.9925 26.0115 19.187 26.1469 19.4836 26.2009C19.295 25.9549 19.0636 25.7449 18.8005 25.5812C18.6008 25.4604 18.3942 25.3515 18.1919 25.2384L18.191 25.2375ZM27.8587 24.0487C27.871 23.8484 27.8633 23.6474 27.8355 23.4487C27.8107 23.2258 27.7755 23.0029 27.7361 22.7818C27.3873 20.8293 25.5367 19.6224 23.6116 20.1041C22.9773 20.2627 22.463 20.6158 22.1193 21.1841C22.0422 21.3118 21.9204 21.4824 22.0036 21.6041C22.0722 21.7052 22.2522 21.5912 22.3739 21.5578C22.7364 21.4584 23.1299 21.4558 23.4607 21.2578C23.6922 21.1129 23.9689 21.0579 24.2381 21.1035C24.9581 21.2235 25.5384 21.587 25.9404 22.1938C27.0521 23.8687 26.1924 26.1795 24.2279 26.8446C23.6227 27.0486 23.0004 27.1146 22.3696 27.1129C22.1544 27.1129 22.115 27.1789 22.1579 27.3743C22.2247 27.7018 22.2384 28.0369 22.199 28.3686C22.1673 28.6858 22.1733 28.6832 22.4776 28.6403C23.429 28.5058 24.3341 28.2135 25.2144 27.8389C25.7287 27.6203 26.2207 27.3538 26.6416 26.9843C27.5021 26.2284 27.8201 25.2315 27.8587 24.0487ZM20.6013 32.4212C19.9593 32.1297 19.3739 31.8555 18.7825 31.5949C18.1921 31.3306 17.6184 31.0303 17.0648 30.6957C17.034 30.6768 16.9993 30.6651 16.9634 30.6617C16.9274 30.6583 16.8911 30.6632 16.8573 30.676L14.7822 31.3549C14.6391 31.402 14.6219 31.4577 14.7616 31.5392C15.0488 31.7072 15.3274 31.8923 15.6188 32.05C16.5059 32.5283 17.4402 32.9149 18.2948 33.454C18.3873 33.5123 18.4825 33.5269 18.5733 33.4686C19.2185 33.0628 19.8969 32.7124 20.6013 32.4212ZM18.3599 34.7397H18.3582C18.3582 34.5331 18.3385 34.3231 18.3625 34.1191C18.3942 33.856 18.2853 33.712 18.0616 33.5886C16.9328 32.9689 15.7525 32.44 14.6965 31.6926C14.5234 31.5709 14.4951 31.6617 14.5045 31.81C14.5216 32.0886 14.5705 32.3672 14.5628 32.644C14.5499 33.0897 14.7128 33.3829 15.1028 33.634C16.1262 34.2914 17.1342 34.9729 18.173 35.608C18.3376 35.7091 18.3659 35.6594 18.3616 35.4966C18.3556 35.2446 18.3599 34.9917 18.3599 34.7397ZM24.0016 25.1758C23.9441 24.5098 23.9784 23.8678 23.9844 23.2258C23.9861 23.1152 23.9167 23.1058 23.8319 23.0818C23.0836 22.865 22.3387 22.6361 21.6325 22.3035C21.4027 22.1955 21.3873 22.2607 21.3856 22.4681C21.3822 22.8829 21.5579 23.2824 21.4927 23.6989C21.4473 23.9878 21.6024 24.1352 21.8253 24.2432C22.5222 24.5801 23.2319 24.8826 24.0016 25.1758ZM18.5742 34.6257H18.5768C18.5768 34.8871 18.581 35.1486 18.575 35.4091C18.5716 35.5703 18.6282 35.6097 18.7619 35.5206C18.9093 35.4211 19.0525 35.3149 19.2008 35.2163C19.6444 34.9299 20.1008 34.6639 20.5687 34.4191C20.6793 34.3591 20.849 34.3077 20.8405 34.1466C20.8165 33.6837 20.963 33.2406 20.963 32.7803C20.963 32.5283 20.8602 32.5317 20.6887 32.6157C20.0527 32.9303 19.4193 33.25 18.7808 33.5603C18.6188 33.6392 18.5622 33.7489 18.5708 33.9237C18.5836 34.1569 18.5742 34.3909 18.5742 34.6257ZM24.1147 24.1129H24.113C24.113 24.3915 24.1259 24.6718 24.1087 24.9495C24.0941 25.1886 24.167 25.2289 24.3813 25.1406C24.8613 24.9435 25.3473 24.7575 25.8333 24.5749C25.8841 24.5577 25.9296 24.5276 25.9652 24.4875C26.0008 24.4473 26.0254 24.3986 26.0364 24.3461C26.201 23.7718 26.123 23.2147 25.9198 22.6661C25.8736 22.541 25.8024 22.5092 25.6704 22.5581C25.2084 22.7295 24.7447 22.8967 24.2767 23.0492C24.1481 23.0921 24.1087 23.1487 24.1121 23.2755C24.119 23.5541 24.1147 23.8335 24.1147 24.1129ZM21.4884 21.9615C21.6393 22.1261 21.8176 22.193 21.9942 22.2487C22.553 22.4227 23.1136 22.5847 23.6424 22.847C23.7753 22.9129 23.933 22.9712 24.1087 22.9044C24.5925 22.7217 25.0806 22.5508 25.5727 22.3918C25.7296 22.3421 25.7364 22.295 25.6447 22.1775C25.349 21.7995 24.959 21.5064 24.5133 21.329C24.4035 21.2898 24.2848 21.2829 24.1713 21.3092C23.8139 21.365 23.4804 21.5064 23.1282 21.5818C22.5873 21.6984 22.049 21.8304 21.4884 21.9615ZM28.0858 21.581L27.7995 21.7258C27.8844 21.8861 27.9041 22.0824 28.0858 22.2504V21.5818V21.581ZM27.9658 21.4481C27.8158 21.395 27.7104 21.3324 27.5767 21.3324C27.6915 21.6195 27.6941 21.6204 27.9658 21.4481ZM13.0594 29.6603C13.0542 29.6552 13.0482 29.6432 13.0448 29.644C13.0334 29.6476 13.0225 29.6525 13.0122 29.6586C13.0165 29.6646 13.0225 29.6758 13.0268 29.6758C13.0383 29.6722 13.0493 29.667 13.0594 29.6603Z" fill="#121316"/>
<path d="M3.09677 19.9485C3.21934 20.0342 3.12762 20.1242 3.08905 20.1971C2.9442 20.4765 2.7942 20.7542 2.63477 21.0242C1.94906 22.1822 1.66021 23.4345 1.73649 24.7734C1.78278 25.5902 2.22592 26.1705 2.88505 26.5973C4.11076 27.3902 5.45303 27.5745 6.87074 27.3105C7.94387 27.1108 9.00501 26.8811 9.95043 26.2888C10.1416 26.1688 10.2161 26.0608 10.2016 25.8285C10.1039 24.2899 11.753 22.7771 13.2958 22.9785C13.3232 22.9824 13.349 22.9936 13.3704 23.0111C12.4704 22.9682 11.7633 23.3668 11.1487 23.9711C10.6344 24.4751 10.4459 25.0768 10.5813 25.7916C10.7399 26.6205 10.9396 27.4433 10.9327 28.297C10.925 29.3085 10.4561 29.8965 9.467 30.1399C8.42987 30.397 7.46302 30.187 6.5296 29.7233C5.86446 29.3925 5.28246 28.9236 4.63533 28.5636C4.0379 28.2328 3.42591 27.9928 2.71534 28.0905C1.49478 28.2576 0.185932 30.0473 1.30621 31.5602C1.64735 32.0196 2.04506 32.4002 2.65363 32.4619C3.00077 32.4962 3.18762 32.3993 3.31619 32.1224C3.44476 31.8447 3.39762 31.6424 3.14391 31.3982C2.94248 31.2044 2.6982 31.063 2.50963 30.853C2.20449 30.5127 2.12906 30.1159 2.32277 29.821C2.54391 29.485 2.94248 29.3625 3.37534 29.5193C3.53133 29.5759 3.74219 29.5725 3.7979 29.7936C3.61191 29.7636 3.46105 29.6393 3.27077 29.6136C2.98534 29.575 2.6562 29.6882 2.53963 29.9102C2.4042 30.1665 2.50877 30.3945 2.66563 30.6079C2.83448 30.8393 3.07705 30.9816 3.29991 31.1479C3.74219 31.4736 3.83476 31.7247 3.69076 32.2107C3.57933 32.5896 3.26048 32.8107 2.78048 32.8304C2.26449 32.8527 1.83849 32.6376 1.47335 32.2956C0.703642 31.5756 0.332502 30.7322 0.604215 29.6522C0.904212 28.4548 2.2182 27.5385 3.44476 27.6988C4.14247 27.7905 4.74247 28.0999 5.32361 28.4668C6.07617 28.9416 6.82788 29.4165 7.69787 29.6607C8.30558 29.8347 8.95186 29.8236 9.55357 29.6299C10.2007 29.4259 10.5307 28.8199 10.4424 28.0348C10.3944 27.6079 10.3267 27.1828 10.2941 26.7542C10.2787 26.5519 10.2059 26.5828 10.0799 26.6453C9.57243 26.8939 9.07786 27.1682 8.54558 27.3602C7.74844 27.643 6.91445 27.8145 6.06931 27.8659C5.0498 27.9407 4.0289 27.7406 3.11305 27.2865C1.89763 26.6916 1.26678 25.7659 1.34907 24.3431C1.42878 22.9408 1.9482 21.7134 2.7402 20.5811C2.88163 20.384 3.00077 20.1714 3.09677 19.9485ZM18.3084 23.7954C18.4395 23.5074 18.7284 23.3694 18.9315 23.1508C19.1801 22.8834 19.4501 22.6365 19.7106 22.3819C20.1975 21.9534 20.6381 21.4794 21.0761 21.0037C21.9975 20.0025 22.8478 18.9551 23.392 17.6848C23.8909 16.5226 24.016 15.3209 23.74 14.1054C23.5325 13.1907 23.1176 12.3358 22.5272 11.6069C22.1458 11.0506 21.6855 10.5595 21.2475 10.0503C20.7375 9.45633 20.2326 8.86062 19.7989 8.20748L19.8666 8.14062C20.5206 8.90948 21.2689 9.58404 21.9769 10.2998C23.0586 11.3917 23.926 12.6303 24.2397 14.1783C24.4737 15.3311 24.3923 16.46 23.956 17.5571C23.5772 18.5103 22.9866 19.3177 22.3103 20.0857C21.1112 21.4485 19.7698 22.6528 18.3726 23.8022C18.3469 23.8236 18.3281 23.8159 18.3084 23.7954Z" fill="#121316"/>
<path d="M1.52344 17.2393C1.96315 17.4253 2.36086 17.6893 2.756 17.9515C3.044 18.1435 3.31828 18.207 3.63885 18.0493C3.87199 17.9335 4.11885 17.8453 4.35284 17.7313C4.48227 17.6678 4.56027 17.673 4.63313 17.811C4.94598 18.405 5.02312 19.0067 4.69741 19.6187C4.52181 19.9624 4.31615 20.29 4.08285 20.5975C3.84971 20.3198 3.57714 20.0747 3.39628 19.7532C3.37846 19.7165 3.35169 19.6849 3.31844 19.6612C3.28519 19.6375 3.24652 19.6226 3.206 19.6178L3.19914 19.3572C3.25485 18.6287 2.74914 18.303 2.21772 17.9995C2.09834 17.9398 1.97556 17.8871 1.85001 17.8418C1.80286 17.607 1.56458 17.4758 1.52344 17.2393Z" fill="#708192"/>
<path d="M19.8677 8.14023L19.7991 8.20795C19.6449 8.01166 19.494 7.81366 19.4477 7.55824C19.4709 7.55824 19.4923 7.55652 19.5146 7.55566C19.5831 7.78109 19.7349 7.95423 19.8677 8.14023ZM18.1543 24.0881C18.0386 24.1284 18.0454 24.0418 18.0352 23.9741L18.2409 23.7907L18.3 23.855C18.3 23.963 18.06 23.921 18.1543 24.0881Z" fill="#14456B"/>
<path d="M18.2976 23.8543L18.2384 23.7908C18.2633 23.7634 18.2856 23.7651 18.3061 23.796C18.3105 23.8093 18.3134 23.8231 18.3147 23.8371C18.3147 23.8431 18.3036 23.8491 18.2976 23.8543ZM4.65625 30.3368C4.70682 30.3257 4.74025 30.3317 4.71454 30.3951C4.6993 30.3946 4.68482 30.3883 4.67411 30.3775C4.66341 30.3666 4.65646 30.352 4.65625 30.3368Z" fill="#121316"/>
<path d="M4.71175 30.3908C4.76232 30.3797 4.80947 30.3711 4.76832 30.4491C4.74951 30.4296 4.73065 30.4102 4.71175 30.3908ZM4.60547 30.252C4.63633 30.2742 4.67833 30.2897 4.66204 30.3411C4.61404 30.3308 4.60633 30.294 4.60547 30.252Z" fill="#121316"/>
<path d="M22.5324 11.6074C23.1231 12.3363 23.5384 13.1911 23.7461 14.106C24.0213 15.3214 23.8961 16.5231 23.3973 17.6854C22.853 18.9557 22.0027 20.0031 21.0813 21.0042C20.6433 21.4799 20.2027 21.9539 19.7159 22.3825C18.8562 22.1451 18.0025 22.1168 17.1539 22.4442C17.0056 22.5016 16.9199 22.6842 16.7305 22.6473C17.0279 22.1673 17.4067 21.7422 17.849 21.3899C18.5913 20.8139 19.3456 20.2525 20.0527 19.6345C20.5824 19.1716 21.0616 18.6659 21.4516 18.0685C22.1553 16.9911 22.5701 15.8322 22.5624 14.5405C22.5531 13.8396 22.4301 13.1449 22.1981 12.4834C22.3713 12.2143 22.3884 11.8868 22.5324 11.6074Z" fill="#708192"/>
<path d="M7.96875 12.0987C8.50875 10.849 9.35302 9.87189 10.5564 9.21875C10.5924 9.25732 10.6216 9.31561 10.6653 9.33104C11.2902 9.55732 11.4119 10.1256 11.2413 10.7085C10.9439 11.7276 10.2839 12.4639 9.2776 12.8402C8.5996 13.093 8.17189 12.8384 8.00304 12.139C7.99961 12.1236 7.98075 12.1116 7.96875 12.0987Z" fill="#87A0C0"/>
<path d="M14.5111 18.812C14.6508 18.7177 14.7956 18.632 14.9714 18.6371C15.0451 18.6389 15.0631 18.6089 15.0562 18.5463C15.1634 18.542 15.2414 18.572 15.1968 18.6989C15.1496 18.8334 15.2148 18.9243 15.2979 19.01C15.348 19.0626 15.4111 19.101 15.4808 19.1213C15.5505 19.1416 15.6243 19.1432 15.6948 19.1257C15.8885 19.0854 15.9853 18.95 15.9948 18.7451C16.7173 19.2646 16.7199 20.2306 16.0282 20.7543C15.6442 21.0457 14.9594 21.0843 14.5454 20.8263C14.0971 20.5477 14.0542 20.108 14.1005 19.6391C14.1331 19.3109 14.3234 19.0623 14.5119 18.812H14.5111Z" fill="#FDFDFD"/>
<path d="M12.5382 10.7563C12.4183 10.78 12.2939 10.7596 12.1879 10.6988C12.0819 10.638 12.0014 10.5409 11.9614 10.4254C11.8465 10.1426 11.9365 9.89144 12.1156 9.64887C12.4791 9.1603 12.9162 8.82516 13.5582 8.8543C13.8445 8.86716 14.0802 8.9743 14.2233 9.2383C14.3708 9.51258 14.3151 9.77229 14.1316 9.99258C13.7451 10.458 13.2634 10.7554 12.5374 10.7563H12.5382Z" fill="#87A0C0"/>
<path d="M18.2079 25.8807C18.6485 26.1567 19.0908 26.4293 19.6085 26.5399C19.6389 26.5468 19.6669 26.5615 19.6899 26.5826C19.7129 26.6036 19.73 26.6302 19.7396 26.6599C19.8582 26.9069 19.9191 27.1776 19.9176 27.4516C19.9161 27.7256 19.8523 27.9956 19.731 28.2413C19.6933 28.3219 19.641 28.3793 19.5485 28.3716C19.1319 28.3347 18.7076 28.363 18.3013 28.2319C18.3553 27.9619 18.4385 27.6987 18.4702 27.421C18.5225 26.9427 18.4273 26.497 18.2499 26.0599C18.2268 26.0025 18.1899 25.9493 18.2079 25.8807Z" fill="#708192"/>
<path d="M8.01758 32.2536C7.1913 32.0462 6.46787 31.6365 5.79417 31.1274C5.76502 30.4931 6.27245 30.2788 6.83902 30.3808C7.60787 30.5179 8.23186 31.3836 8.18472 31.9819C8.17358 32.1088 8.15643 32.2134 8.01758 32.2536ZM12.7738 27.5214C12.6435 26.6643 12.6701 25.8234 13.0395 25.0186C13.1878 25.1471 13.3884 25.0871 13.5598 25.1917C14.1984 25.5808 14.393 26.4877 13.709 27.0903C13.4518 27.3165 13.1458 27.5103 12.7738 27.5214Z" fill="#87A0C0"/>
<path d="M14.515 18.8097C14.3281 19.06 14.137 19.3085 14.1044 19.6368C14.0581 20.1057 14.101 20.5454 14.5501 20.8239C14.9633 21.0811 15.6481 21.0425 16.0321 20.752C16.7238 20.2291 16.7213 19.2622 15.9996 18.7428C15.9884 18.9477 15.8924 19.0831 15.6987 19.1234C15.6282 19.1408 15.5544 19.1393 15.4847 19.119C15.415 19.0987 15.3519 19.0603 15.3018 19.0077C15.2187 18.922 15.1536 18.8311 15.2007 18.6965C15.2453 18.5705 15.1673 18.5397 15.0601 18.544C15.247 18.4077 15.4587 18.424 15.6653 18.4583C16.2361 18.556 16.7084 19.0488 16.7744 19.6025C16.8473 20.2197 16.4718 20.8282 15.8616 21.0802C15.223 21.3442 14.4618 21.1642 14.1344 20.6714C13.7564 20.1031 13.963 19.0942 14.515 18.8097ZM12.0276 18.118C12.5684 17.9045 13.0544 17.9945 13.4727 18.3991C13.8773 18.7908 13.969 19.2708 13.7881 19.7894C13.5927 20.3525 13.1641 20.6637 12.5856 20.746C11.875 20.8471 11.269 20.5462 11.1216 20.014C10.9604 19.4328 11.0307 18.8885 11.485 18.442L11.4936 18.532C11.3844 18.675 11.3012 18.836 11.2476 19.0077C11.0719 19.5828 11.2536 20.1854 11.6779 20.4194C12.331 20.7794 13.2027 20.5068 13.5293 19.84C13.807 19.276 13.597 18.5663 13.0861 18.34C13.0296 18.6237 12.8496 18.7514 12.595 18.6888C12.349 18.628 12.2479 18.4283 12.3336 18.1523L12.0919 18.1745L12.0276 18.118Z" fill="#121316"/>
<path d="M14.4992 26.9287C14.4608 27.5302 14.5977 28.1299 14.8935 28.655C14.6629 28.697 14.4666 28.8667 14.1992 28.7784C13.7441 28.6301 13.5958 28.1656 13.8023 27.7558C13.8735 27.6144 13.9429 27.4387 14.1143 27.4019C14.3809 27.3427 14.4769 27.173 14.4992 26.9287Z" fill="#87A0C0"/>
<path d="M12.02 18.1182L12.0843 18.1747L11.6257 18.4113L11.582 18.3667C11.7055 18.2493 11.8572 18.1636 12.02 18.1182Z" fill="#14456B"/>
<path d="M11.4929 18.5336L11.4844 18.4436L11.5889 18.3682L11.6327 18.4127L11.4929 18.5336Z" fill="#14456B"/>
<path d="M22.5334 11.6068C22.3894 11.8862 22.3722 12.2137 22.1991 12.4819C21.4843 10.886 20.2645 9.77853 18.7628 8.94711C18.4559 8.77784 18.1409 8.62338 17.8191 8.48426C17.7564 8.46213 17.7001 8.42466 17.6555 8.37526C17.6109 8.32586 17.5794 8.2661 17.5637 8.2014C17.4251 7.71444 17.404 7.20156 17.502 6.70484C17.6529 5.94199 18.408 5.22971 19.176 5.08828C19.2098 5.08017 19.2448 5.07887 19.2791 5.08446C19.3134 5.09006 19.3462 5.10243 19.3757 5.12086C19.6843 5.30085 19.9971 5.47571 20.3314 5.66514C19.6886 6.1477 19.2128 6.69284 19.4537 7.55941C19.4991 7.81398 19.6508 8.01198 19.8051 8.20826C20.2388 8.86054 20.7437 9.45625 21.2537 10.0502C21.6917 10.5594 22.152 11.0505 22.5334 11.6068Z" fill="#A7B9CC"/>
<path d="M17.5892 3.37728C17.6509 2.68728 17.7075 2.03329 17.8266 1.38701C17.8506 1.25844 17.8677 1.16415 18.0435 1.27386C18.9469 1.83957 19.8546 2.39843 20.7666 2.94871C20.968 3.07042 21.0306 3.19042 20.9809 3.44585C20.8746 4.00299 20.8094 4.56612 20.7854 5.13183C20.7666 5.4944 20.752 5.50383 20.4503 5.33583C19.912 5.03583 19.3729 4.73498 18.8483 4.41098C18.4994 4.19498 18.124 4.02184 17.7975 3.76642C17.6535 3.65413 17.5395 3.54185 17.5892 3.37728Z" fill="#21A2F8"/>
<path d="M24.5088 2.935C24.4119 3.14585 24.4402 3.48442 24.3562 3.80671C24.2877 4.09385 24.2371 4.38527 24.2054 4.67927C24.1891 4.79927 24.1599 4.87127 24.0339 4.91584C23.3705 5.1447 22.6899 5.30155 22.0051 5.44384C21.7411 5.49869 21.4771 5.55269 21.2165 5.62126C21.0965 5.65298 21.004 5.65041 21.0168 5.50641C21.082 4.81898 21.1625 4.13328 21.226 3.44585C21.25 3.18614 21.406 3.09357 21.6288 3.06957C22.5193 2.96696 23.4035 2.81559 24.2774 2.61614C24.5122 2.56472 24.5517 2.63329 24.5088 2.935Z" fill="#14456B"/>
<path d="M18.0898 0.974083C18.3178 0.866084 18.5476 0.903798 18.7661 0.871227C19.2375 0.802656 19.7115 0.746942 20.1847 0.688657C20.7247 0.622657 21.2201 0.702371 21.7044 0.998083C22.4758 1.47036 23.2824 1.88522 24.0744 2.32579C24.1095 2.3515 24.1438 2.37979 24.1764 2.40979C23.7684 2.48521 23.3964 2.55721 23.0252 2.62236C22.5195 2.71064 22.0138 2.78778 21.509 2.88121C21.3317 2.91944 21.1465 2.88944 20.9904 2.79721C20.0458 2.24093 19.1047 1.67779 18.1953 1.06665C18.1582 1.03811 18.1229 1.00719 18.0898 0.974083Z" fill="#5DC0F8"/>
<path d="M3.31992 17.8249C3.31992 17.2018 3.32421 16.6078 3.31649 16.0129C3.31306 15.8243 3.4142 15.7301 3.56677 15.6769C4.38105 15.3923 5.15591 15.0126 5.95304 14.6861C6.14333 14.6081 6.22904 14.6106 6.21875 14.8541C6.20333 15.2586 6.1999 15.6649 6.21875 16.0695C6.22815 16.1446 6.21367 16.2208 6.17737 16.2873C6.14107 16.3537 6.08478 16.4071 6.01647 16.4398C5.32562 16.8392 4.62791 17.2266 3.90277 17.5609C3.71934 17.6466 3.55649 17.7795 3.31992 17.8249Z" fill="#21A2F8"/>
<path d="M1.28906 14.5595C2.10542 14.2537 2.93348 13.98 3.77133 13.7392C4.01133 13.6681 4.26161 13.7049 4.48875 13.7821C5.02789 13.9672 5.55674 14.1806 6.12931 14.3975C5.8996 14.5698 5.6716 14.6255 5.46074 14.7146C4.79904 14.9949 4.13218 15.2641 3.46962 15.5461C3.41566 15.5742 3.35521 15.5876 3.2944 15.5849C3.23359 15.5822 3.17458 15.5635 3.12333 15.5306C2.52591 15.2015 1.9182 14.8904 1.28906 14.5595Z" fill="#5DC0F8"/>
<path d="M3.14451 17.8778C2.6388 17.4989 2.11252 17.2281 1.59995 16.9366C1.40367 16.8252 1.28881 16.6872 1.28281 16.4764C1.2691 15.9124 1.1731 15.3535 1.13281 14.7227C1.64109 15.0741 2.16309 15.2609 2.64137 15.5352C2.67651 15.5609 2.71423 15.5849 2.7528 15.6072C3.21737 15.7975 3.25508 15.8806 3.18222 16.3744C3.11108 16.8561 3.17708 17.3455 3.14451 17.8778Z" fill="#14456B"/>
<path d="M22.8928 0.233192C23.6325 0.240049 24.1434 0.49719 24.4811 1.04747C24.8754 1.69032 25.2405 2.34689 24.9508 3.14403C24.905 3.26119 24.8533 3.37592 24.7957 3.48774C24.77 3.5426 24.7357 3.62488 24.6637 3.58631C24.6011 3.55374 24.65 3.48088 24.6568 3.42174C24.6877 3.15431 24.7134 2.88517 24.7202 2.61603C24.7262 2.4146 24.6345 2.26975 24.4408 2.16689C23.6317 1.73747 22.8337 1.28833 22.0254 0.857188C21.8163 0.74576 21.8368 0.658332 22.0031 0.534904C22.2971 0.317192 22.6228 0.211764 22.8928 0.233192ZM1.52442 17.2388C1.56556 17.4762 1.80384 17.6065 1.85098 17.8413C1.5452 17.769 1.2459 17.6715 0.956134 17.5499C0.579852 17.3888 0.392139 17.0896 0.327854 16.7031C0.26614 16.3354 0.25414 15.9676 0.363853 15.6059C0.399853 15.4859 0.449567 15.3702 0.513852 15.2622C0.590994 15.1311 0.695565 14.9451 0.83785 14.9751C0.992134 15.0085 0.91242 15.2185 0.92442 15.3488C0.956991 15.6891 0.98442 16.0311 0.986134 16.3714C0.987848 16.7794 1.19699 17.0416 1.52442 17.2388ZM27.8514 24.0487C27.8128 25.2316 27.4948 26.2284 26.6342 26.9844C26.2142 27.3538 25.7222 27.6204 25.2071 27.839C24.3268 28.2135 23.4217 28.5058 22.4703 28.6404C22.166 28.6833 22.16 28.685 22.1917 28.3678C22.2311 28.037 22.2174 27.7018 22.1505 27.3744C22.1077 27.179 22.1471 27.1121 22.3623 27.113C22.9931 27.1147 23.6154 27.0487 24.2205 26.8447C26.1851 26.1796 27.0448 23.8687 25.9331 22.1939C25.5302 21.587 24.9499 21.2236 24.2308 21.1036C23.9615 21.058 23.6849 21.1129 23.4534 21.2579C23.1225 21.4559 22.7291 21.4585 22.3665 21.5579C22.2448 21.5913 22.0648 21.7053 21.9963 21.6042C21.9131 21.4825 22.0357 21.3119 22.112 21.1842C22.4557 20.6159 22.9691 20.2628 23.6042 20.1042C25.5294 19.6225 27.3799 20.8285 27.7288 22.7819C27.7691 23.003 27.8034 23.2259 27.8282 23.4487C27.8556 23.6476 27.8634 23.8482 27.8514 24.0487Z" fill="#A7B9CC"/>
<path d="M20.5999 32.4205C19.8953 32.7119 19.2173 33.0616 18.5719 33.4679C18.481 33.5262 18.3859 33.5116 18.2933 33.4533C17.4387 32.9133 16.5045 32.5276 15.6182 32.0493C15.325 31.8916 15.0473 31.7065 14.761 31.5385C14.6205 31.4562 14.6376 31.4013 14.7808 31.3542L16.8559 30.6753C16.8897 30.6626 16.9259 30.6578 16.9619 30.6612C16.9978 30.6646 17.0325 30.6762 17.0633 30.695C17.617 31.0293 18.1904 31.3302 18.781 31.595C19.3724 31.8548 19.9579 32.1282 20.5999 32.4205Z" fill="#5DC0F8"/>
<path d="M18.3609 34.7398C18.3609 34.9909 18.3566 35.2438 18.3626 35.4949C18.3669 35.6595 18.3386 35.7083 18.174 35.6072C17.1352 34.972 16.1272 34.2906 15.1038 33.6332C14.7138 33.3821 14.5509 33.0889 14.5638 32.6432C14.5724 32.3664 14.5235 32.0878 14.5055 31.8092C14.4961 31.6609 14.5244 31.5692 14.6975 31.6918C15.7535 32.4392 16.9346 32.9681 18.0626 33.5878C18.2855 33.7112 18.3952 33.8552 18.3635 34.1192C18.3395 34.3223 18.3583 34.5323 18.3583 34.7389L18.3609 34.7398Z" fill="#21A2F8"/>
<path d="M24.0028 25.1757C23.2642 24.8967 22.5381 24.5855 21.8265 24.2432C21.6037 24.1352 21.4494 23.9877 21.494 23.6989C21.5591 23.2832 21.3826 22.8829 21.3868 22.468C21.3886 22.2606 21.404 22.1955 21.6337 22.3035C22.34 22.636 23.0848 22.8649 23.8331 23.0817C23.918 23.1066 23.9874 23.116 23.9865 23.2257C23.9797 23.8686 23.9445 24.5097 24.0028 25.1757ZM18.5746 34.6265C18.5746 34.3925 18.5831 34.1585 18.5711 33.9245C18.5626 33.7497 18.6191 33.6399 18.7811 33.5611C19.4197 33.2517 20.0531 32.9311 20.6891 32.6165C20.8606 32.5317 20.9634 32.5291 20.9634 32.7811C20.9634 33.2414 20.8168 33.6854 20.8408 34.1474C20.8494 34.3085 20.6797 34.3608 20.5691 34.4199C20.1037 34.6702 19.6417 34.9256 19.2003 35.2171C19.0529 35.3156 18.9097 35.4228 18.7623 35.5205C18.6286 35.6105 18.572 35.5719 18.5754 35.4099C18.5814 35.1494 18.5771 34.8871 18.5771 34.6265H18.5746Z" fill="#14456B"/>
<path d="M24.1133 24.112C24.1133 23.8334 24.1175 23.5549 24.1107 23.2754C24.1073 23.1486 24.1467 23.0911 24.2753 23.0491C24.743 22.8944 25.2076 22.7307 25.669 22.558C25.801 22.5091 25.8721 22.5409 25.9175 22.666C26.1215 23.2146 26.1995 23.7717 26.035 24.346C26.0238 24.3984 25.9992 24.4469 25.9636 24.4869C25.928 24.5269 25.8825 24.5569 25.8318 24.574C25.3451 24.7558 24.861 24.9447 24.3798 25.1406C24.1655 25.228 24.0927 25.1886 24.1073 24.9494C24.1244 24.6708 24.1115 24.3923 24.1115 24.1129L24.1133 24.112Z" fill="#21A2F8"/>
<path d="M21.4805 21.9613C22.041 21.8302 22.5793 21.6982 23.1202 21.5816C23.4716 21.5053 23.8059 21.3647 24.1633 21.309C24.2768 21.2824 24.3955 21.289 24.5053 21.3279C24.951 21.5062 25.341 21.7993 25.6367 22.1764C25.7284 22.2947 25.7224 22.341 25.5647 22.3916C25.0726 22.5503 24.5844 22.7212 24.1007 22.9042C23.925 22.971 23.7665 22.9127 23.6345 22.8467C23.1065 22.5844 22.5459 22.4224 21.987 22.2484C21.8096 22.1936 21.6313 22.1259 21.4805 21.9613Z" fill="#5DC0F8"/>
<path d="M28.0832 21.5811V22.2496C27.9014 22.0816 27.8817 21.8853 27.7969 21.7251L28.0832 21.5811Z" fill="#21A2F8"/>
<path d="M27.9634 21.4487C27.6916 21.621 27.6891 21.6201 27.5742 21.333C27.7079 21.333 27.8134 21.3956 27.9634 21.4487Z" fill="#87A0C0"/>
<path d="M13.0588 29.6603C13.0485 29.6662 13.0376 29.6708 13.0262 29.674C13.0228 29.674 13.0168 29.6637 13.0116 29.6568C13.0219 29.651 13.0328 29.6464 13.0442 29.6431C13.0476 29.6431 13.0536 29.6543 13.0588 29.6603ZM11.4919 18.5321L11.6316 18.4112L12.0902 18.1746L12.3319 18.1523C12.2462 18.4283 12.3473 18.6281 12.5933 18.6889C12.8479 18.7515 13.0279 18.6238 13.0845 18.3392C13.5953 18.5663 13.8045 19.276 13.5285 19.84C13.201 20.5069 12.3285 20.7795 11.6771 20.4195C11.2519 20.1855 11.0711 19.5829 11.2459 19.0078C11.2999 18.8363 11.3831 18.6752 11.4919 18.5321Z" fill="#FDFDFD"/>
</svg>
