<svg width="30" height="36" viewBox="0 0 30 36" fill="none" xmlns="http://www.w3.org/2000/svg">
<g clip-path="url(#clip0_902_92747)">
<path d="M4.96574 28.3929L1.49561 29.1857V6.68494L4.96574 7.47919V28.3929Z" fill="#F68536"/>
<path d="M9.29543 29.7211L4.96582 30.9529V4.94847L9.29543 6.17886V29.7211ZM14.8494 31.0856L9.29543 33.1206V2.78082L14.8494 4.81491V31.0856ZM29.6999 28.4608L14.8494 35.8951V0L29.6999 7.43427V28.4608Z" fill="#F68536"/>
<path d="M11.8872 1.48212L14.8475 0V35.8951L11.8872 34.4133V1.48212ZM7.00188 3.92751L9.29351 2.78037V33.1147L7.00188 31.9676V3.92751ZM3.13843 5.86188L4.96385 4.94802V30.947L3.13843 30.0326V5.86188ZM1.49371 6.68493L0.00488281 7.43031V28.4652L1.49371 29.21V6.68493Z" fill="#9D5025"/>
</g>
<defs>
<clipPath id="clip0_902_92747">
<rect width="29.7" height="36" fill="white"/>
</clipPath>
</defs>
</svg>
