<svg width="33" height="36" viewBox="0 0 33 36" fill="none" xmlns="http://www.w3.org/2000/svg">
<g clip-path="url(#clip0_902_92746)">
<path d="M12.5493 12.3574H14.0235V16.717L18.2684 12.3574H20.2144L15.5566 17.1608L20.5089 22.7033H18.6224L14.0235 17.5304V22.7033H12.5494L12.5493 12.3574Z" fill="#4060DB"/>
<path d="M17.1679 8.2519L24.4278 12.4546C24.4886 12.49 24.5391 12.5406 24.5742 12.6017C24.6093 12.6627 24.6278 12.7319 24.6279 12.8023V21.208C24.6279 21.3513 24.7046 21.4839 24.8284 21.5556L31.307 25.3063C31.5741 25.461 31.9078 25.2672 31.9078 24.9587V8.58765C31.9078 8.44441 31.8315 8.31197 31.7082 8.24006L17.569 0.0547974C17.3019 -0.0997184 16.9678 0.093924 16.9678 0.402956V7.90431C16.9678 8.04793 17.0438 8.18 17.1679 8.2519Z" fill="#4060DB"/>
<path d="M23.413 23.3146L16.153 27.5174C16.0293 27.5893 15.8763 27.5893 15.7526 27.5174L7.47958 22.7281C7.41868 22.6928 7.36811 22.642 7.33293 22.5809C7.29773 22.5198 7.27915 22.4506 7.27905 22.38V12.8013C7.2792 12.7308 7.29781 12.6616 7.333 12.6006C7.3682 12.5396 7.41876 12.4889 7.47963 12.4536L14.7396 8.2512C14.8005 8.21596 14.851 8.16537 14.8863 8.10436C14.9214 8.04335 14.94 7.97419 14.94 7.90371V0.402257C14.94 0.0933205 14.6061 -0.0999429 14.339 0.0540992L0.199656 8.23984C0.0758692 8.31174 0 8.44419 0 8.58752V26.5948C0 26.7384 0.0763032 26.8705 0.199656 26.943L15.7526 35.946C15.8763 36.018 16.0293 36.018 16.153 35.946L30.2923 27.761C30.5593 27.6064 30.5593 27.22 30.2923 27.0655L23.8136 23.3146C23.6893 23.2427 23.5368 23.2427 23.413 23.3146Z" fill="#2777FF"/>
</g>
<defs>
<clipPath id="clip0_902_92746">
<rect width="32.2105" height="36" fill="white"/>
</clipPath>
</defs>
</svg>
