<svg width="40" height="36" viewBox="0 0 40 36" fill="none" xmlns="http://www.w3.org/2000/svg">
<g clip-path="url(#clip0_902_92779)">
<path d="M8.68354 34.1834L0.480449 19.8167C0.165043 19.2644 -0.000976562 18.6378 -0.000976562 18C-0.000976562 17.3622 0.165043 16.7356 0.480449 16.1833L8.68354 1.81686C8.99898 1.26443 9.45269 0.805696 9.99902 0.486768C10.5454 0.167842 11.1652 -3.92562e-05 11.7961 6.88535e-09H28.2022C28.833 1.62104e-05 29.4528 0.167924 29.9991 0.486848C30.5454 0.805772 30.999 1.26448 31.3144 1.81686L39.5174 16.1833C39.8331 16.7357 39.999 17.3623 39.999 18.0002C39.999 18.638 39.8331 19.2646 39.5174 19.817L31.3144 34.1832C30.999 34.7355 30.5454 35.1942 29.9991 35.5132C29.4528 35.8321 28.833 36 28.2022 36H11.7961C11.1652 36.0001 10.5454 35.8322 9.99902 35.5133C9.45265 35.1944 8.99894 34.7359 8.68354 34.1834Z" fill="url(#paint0_linear_902_92779)"/>
<path opacity="0.07" fill-rule="evenodd" clip-rule="evenodd" d="M37.1604 23.9449L31.3143 34.1833C30.9989 34.7357 30.5453 35.1944 29.999 35.5133C29.4527 35.8323 28.833 36.0002 28.2021 36.0002H26.5897L12.3492 21.6012L14.4911 20.6761L12.3629 18.5243L14.4911 17.5659L12.3398 15.3907L14.7408 14.8109L15.1257 13.1419L16.9814 12.8196L17.4942 10.264L19.5789 12.3719L20.5554 10.259L22.6648 12.3918L23.6348 10.2685L37.1604 23.9449Z" fill="black"/>
<path d="M21.8215 15.8187H18.2561C18.0474 15.8187 17.8765 15.9916 17.8765 16.2023L17.8768 19.8066C17.8772 19.9083 17.9173 20.0056 17.9883 20.0776C18.0594 20.1494 18.1556 20.19 18.2561 20.1906H21.8211C21.9217 20.1902 22.018 20.1496 22.0892 20.0776C22.1603 20.0058 22.2004 19.9084 22.2008 19.8066V16.2023C22.2008 15.9916 22.0299 15.8187 21.8215 15.8187Z" fill="white"/>
<path d="M27.4656 15.528C27.653 15.528 27.8062 15.3725 27.8062 15.1836V14.6224C27.8062 14.4334 27.653 14.278 27.4656 14.278H25.7312V12.6393C25.7306 12.5379 25.6905 12.4407 25.6195 12.3689C25.5486 12.2972 25.4525 12.2566 25.3521 12.2561H23.7243L23.7246 10.4961C23.7246 10.3074 23.5715 10.152 23.3843 10.152L22.829 10.1523C22.6415 10.1523 22.4884 10.3074 22.4884 10.4964L22.4887 12.2557H20.6574V10.4957C20.6574 10.3074 20.5043 10.152 20.3175 10.152L19.7615 10.1523C19.5743 10.1523 19.4212 10.3074 19.4212 10.4964L19.4215 12.2557L17.5903 12.2561V10.4957C17.5903 10.3074 17.4372 10.152 17.2503 10.152H16.6947C16.5078 10.152 16.354 10.3074 16.354 10.4964L16.3547 12.2561H14.7275C14.627 12.2564 14.5306 12.2969 14.4595 12.3686C14.3883 12.4404 14.3481 12.5377 14.3475 12.6393V14.2783H12.6134C12.4269 14.2783 12.2734 14.4337 12.2734 14.6227L12.2738 15.1845C12.2738 15.3735 12.4269 15.5283 12.6138 15.5283H14.3475L14.3481 17.3799H12.6138C12.4269 17.3799 12.2734 17.5347 12.2734 17.7237L12.2738 18.2852C12.2738 18.4748 12.4269 18.6296 12.6138 18.6296H14.3481V20.4812L12.6138 20.4809C12.4269 20.4809 12.2734 20.636 12.2734 20.825L12.2738 21.3865C12.2738 21.5761 12.4269 21.7306 12.6138 21.7306H14.3481V23.3705C14.3481 23.5806 14.5191 23.7537 14.7272 23.7537H16.3547V25.5128C16.3547 25.7024 16.5078 25.8572 16.695 25.8572H17.25C17.4368 25.8572 17.59 25.7024 17.59 25.5128L17.5903 23.7537H19.4212L19.4215 25.5128C19.4215 25.7024 19.5747 25.8572 19.7622 25.8572H20.3172C20.504 25.8572 20.6572 25.7024 20.6572 25.5128L20.6574 23.7537H22.4884L22.4887 25.5128C22.4887 25.7024 22.6418 25.8572 22.8293 25.8572H23.384C23.5712 25.8572 23.7246 25.7024 23.7246 25.5128V23.7537H25.3515C25.452 23.7533 25.5482 23.7127 25.6192 23.6409C25.6903 23.569 25.7304 23.4717 25.7309 23.3702L25.7312 21.7306L27.4656 21.7303C27.6527 21.7303 27.8059 21.5757 27.8059 21.3865V20.8256C27.8059 20.636 27.6527 20.4812 27.4652 20.4812H25.7315V18.6296L27.4656 18.6289C27.653 18.6289 27.8062 18.4748 27.8062 18.2852V17.7243C27.8062 17.5347 27.653 17.3799 27.4656 17.3799H25.7312V15.5283L27.4656 15.528ZM24.4509 22.4652H15.6278V13.5437L24.4515 13.5433L24.4509 22.4652Z" fill="white"/>
</g>
<defs>
<linearGradient id="paint0_linear_902_92779" x1="19.9991" y1="0.000315982" x2="19.9991" y2="35.9441" gradientUnits="userSpaceOnUse">
<stop stop-color="#4387FD"/>
<stop offset="1" stop-color="#4683EA"/>
</linearGradient>
<clipPath id="clip0_902_92779">
<rect width="40" height="36" fill="white"/>
</clipPath>
</defs>
</svg>
