<svg width="40" height="36" viewBox="0 0 40 36" fill="none" xmlns="http://www.w3.org/2000/svg">
<path d="M39.5163 16.1528L31.2987 1.8393C30.6708 0.723144 29.5014 0.0235808 28.2142 0H11.779C10.4996 0.0235808 9.32231 0.723144 8.69441 1.8393L0.476809 16.1135C-0.158936 17.2218 -0.158936 18.5817 0.476809 19.69L8.69441 34.09C9.31446 35.2218 10.4839 35.945 11.779 35.9921H28.222C29.5092 35.945 30.6865 35.2297 31.3066 34.0978L39.5242 19.7843C40.1599 18.6603 40.1599 17.2769 39.5163 16.1528Z" fill="url(#paint0_linear_902_92790)"/>
<path opacity="0.07" d="M28.0092 13.1262L20.0036 9.5498L12.3511 13.7157L12.0371 22.8965L25.1131 35.9996H28.2369C29.524 35.9524 30.7014 35.2371 31.3214 34.1053L37.7495 22.8729L28.0092 13.1262Z" fill="#010202"/>
<path d="M27.8051 12.9847L20.4116 8.70088C20.1526 8.55153 19.8308 8.55153 19.5639 8.70088L12.1704 12.9847C11.9114 13.1341 11.7466 13.417 11.7466 13.7157V22.2755C11.7466 22.5742 11.9114 22.8572 12.1704 23.0066L19.5639 27.2904C19.8229 27.4397 20.1447 27.4397 20.4116 27.2904L27.8051 23.0066C28.0641 22.8572 28.2289 22.5742 28.2289 22.2755V13.7157C28.2289 13.417 28.0719 13.1341 27.8051 12.9847ZM26.8004 21.4502L24.2182 19.9568V16.0266L20.4037 18.2197V22.645L23.8022 20.6799L26.3844 22.1734L19.9877 25.8677L13.591 22.1734L16.1733 20.6799L19.5717 22.645V18.2354L15.773 16.0424V19.9568L13.1907 21.4502V14.0616L19.5874 10.3673V13.3463L16.189 15.3114L20.0034 17.5044L23.8179 15.3114L20.4194 13.3463V10.3673L26.8161 14.0616V21.4502H26.8004Z" fill="white"/>
<defs>
<linearGradient id="paint0_linear_902_92790" x1="20.0001" y1="0.000315913" x2="20.0001" y2="35.9362" gradientUnits="userSpaceOnUse">
<stop stop-color="#4387FD"/>
<stop offset="1" stop-color="#4683EA"/>
</linearGradient>
</defs>
</svg>
