<svg width="40" height="36" viewBox="0 0 40 36" fill="none" xmlns="http://www.w3.org/2000/svg">
<path d="M26.0848 28.7997L22.0027 35.9993H11.3099C10.8415 35.9994 10.3813 35.874 9.97599 35.6359C9.57063 35.3978 9.23439 35.0554 9.00122 34.6433L0.352642 19.343C0.121576 18.9341 0 18.4711 0 17.9998C0 17.5285 0.121576 17.0654 0.352642 16.6566L3.64371 10.8361L7.70693 17.9995L13.832 28.7997H26.0848Z" fill="#F8BB16"/>
<path d="M39.5675 19.3436L30.9189 34.6433C30.6858 35.0556 30.3496 35.3981 29.9443 35.6363C29.5389 35.8746 29.0788 36 28.6103 36H22.0034L26.0862 28.8003L32.2139 17.9995L26.0862 7.19992H34.2211L39.5675 16.656C39.7989 17.0648 39.9206 17.528 39.9206 17.9995C39.9206 18.4709 39.7989 18.9348 39.5675 19.3436Z" fill="#EA4334"/>
<path d="M34.2199 7.19969H13.8322L7.7071 17.9992L3.64453 10.8365L9.00204 1.35737C9.23499 0.944939 9.57115 0.602221 9.97653 0.363875C10.3819 0.12553 10.8421 7.03551e-06 11.3107 0L28.6091 0C29.5623 0 30.4431 0.517189 30.9178 1.35671L34.2199 7.19969Z" fill="#0074BC"/>
<path d="M32.2139 17.9997L26.0869 28.8005H13.8369L7.70996 17.9997L13.835 7.2009H26.0869L32.2139 17.9997ZM19.9629 12.5993C18.5513 12.5994 17.1974 13.1687 16.1992 14.1814C15.2011 15.1941 14.6407 16.5676 14.6406 17.9997C14.6406 19.432 15.201 20.8063 16.1992 21.8191C17.1974 22.8317 18.5513 23.4 19.9629 23.4001C20.6619 23.4001 21.3542 23.2603 22 22.989C22.6458 22.7176 23.2333 22.3205 23.7275 21.8191C24.2217 21.3177 24.6134 20.7221 24.8809 20.0671C25.1484 19.4119 25.2861 18.7089 25.2861 17.9997C25.2861 17.2906 25.1483 16.5884 24.8809 15.9333C24.6134 15.2782 24.2217 14.6828 23.7275 14.1814C23.2333 13.6799 22.6458 13.2819 22 13.0105C21.3543 12.7392 20.6618 12.5993 19.9629 12.5993Z" fill="#E2E3E4"/>
<path opacity="0.2" d="M9.00269 1.58129C9.23566 1.16922 9.57167 0.826795 9.97678 0.588587C10.3819 0.350379 10.8418 0.224818 11.31 0.224578H28.6085C29.5623 0.224578 30.4425 0.742427 30.9171 1.58129L34.0929 7.19969H34.2192L30.9171 1.35671C30.6841 0.944498 30.348 0.601976 29.9428 0.363755C29.5375 0.125535 29.0775 5.66757e-05 28.6091 2.12482e-08H11.3107C10.8422 -5.96026e-05 10.382 0.125363 9.97664 0.36359C9.57127 0.601816 9.23507 0.944401 9.00204 1.35671L3.64453 10.8359L3.70898 10.9482L9.00269 1.58129Z" fill="white"/>
<path opacity="0.2" d="M7.7085 17.9988L13.8336 7.19931H34.2213L34.095 6.97473H13.8336L7.7085 17.7743" fill="#2C3079"/>
<path opacity="0.2" d="M0.353823 16.8818L3.64554 11.0607L7.70811 18.2254L13.8332 29.0249H25.9578L26.086 28.8003H13.8332L7.70811 17.9995L3.64554 10.8361L0.353823 16.6566C0.105179 17.0989 -0.0146979 17.6037 0.00811331 18.1124C0.0249606 17.6801 0.143497 17.2582 0.353823 16.8818Z" fill="white"/>
<path opacity="0.2" d="M22.1316 35.7746H11.3111C10.8427 35.7746 10.3826 35.6493 9.97727 35.4112C9.57191 35.1731 9.23567 34.8307 9.0025 34.4185L0.353273 19.1182C0.1428 18.7417 0.0242566 18.3195 0.00756264 17.887C-0.0119689 18.389 0.0987113 18.8929 0.353273 19.3434L9.00315 34.6431C9.23629 35.0553 9.5725 35.3978 9.97786 35.636C10.3832 35.8742 10.8433 35.9997 11.3118 35.9998H22.004L22.1323 35.7752L22.1316 35.7746Z" fill="#BE3B26"/>
<g opacity="0.2">
<path opacity="0.2" d="M32.3372 17.9995L26.2141 7.19995H26.0852L32.2129 17.9995H32.3372ZM39.5672 19.1184L30.918 34.4187C30.6848 34.8309 30.3486 35.1734 29.9432 35.4115C29.5379 35.6496 29.0777 35.7749 28.6093 35.7748H22.1313L22.0024 35.9994H28.6093C29.0777 35.9994 29.5378 35.8741 29.9432 35.636C30.3485 35.3979 30.6848 35.0555 30.918 34.6433L39.5672 19.3437C39.8161 18.9012 39.936 18.3961 39.9129 17.8872C39.8961 18.3197 39.7776 18.7419 39.5672 19.1184Z" fill="#3F2723"/>
</g>
<g opacity="0.2">
<path opacity="0.2" d="M34.2194 7.42453L39.5665 16.8819C39.7814 17.265 39.8947 17.6877 39.9129 18.1124C39.9324 17.6104 39.8217 17.1065 39.5665 16.6566L34.2194 7.19995H26.0845L26.2134 7.42453M26.0845 29.0249L32.3366 18.0001H32.2129L26.0845 28.799L22.0024 35.9987H22.1307L26.0845 29.0249Z" fill="white"/>
</g>
</svg>
