<?xml version="1.0" encoding="UTF-8"?>
<svg id="svg6" width="36" height="36" fill="none" version="1.1" viewBox="0 0 36 36" xmlns="http://www.w3.org/2000/svg">
 <g id="g6" fill="var(--sl-color-white, #17181C)">
  <path id="path1" d="m9.8301 8.7217c-0.04118-0.03906-0.08601-0.0811-0.13032-0.12367-0.90841-0.87272-1.6114-1.8818-2.0361-3.0745-0.11885-0.33382-0.20857-0.67429-0.19266-1.0338 0.00151-0.03412 0.00141-0.06834 0.00376-0.10239 0.03204-0.46411 0.34266-0.69863 0.79621-0.58872 0.14306 0.03705 0.28149 0.0901 0.41266 0.15815 0.4961 0.24878 0.90045 0.61658 1.2723 1.0199 0.66042 0.70283 1.1901 1.5179 1.564 2.4069 0.0081 0.02118 0.0175 0.04188 0.028 0.06199 0.0051 0.00926 0.016 0.01533 0.0403 0.03736 1.7701-1.0619 3.7724-1.6763 5.8334-1.79-0.0127-0.06308-0.0203-0.11129-0.0322-0.1584-0.2103-0.8703-0.2749-1.7694-0.191-2.6609 0.0369-0.53418 0.1445-1.0611 0.32-1.567 0.0849-0.26645 0.2186-0.51478 0.3943-0.73234 0.0664-0.077709 0.143-0.14605 0.2277-0.20315 0.0845-0.059703 0.1852-0.092096 0.2886-0.092817s0.2045 0.030265 0.2898 0.088785c0.1801 0.12202 0.3251 0.28914 0.4205 0.48469 0.1776 0.33166 0.3053 0.68774 0.3789 1.0567 0.1677 0.78023 0.2192 1.581 0.1528 2.3763-0.0329 0.4854-0.1171 0.96594-0.2513 1.4336 0.5127 0.09446 1.0231 0.16766 1.5226 0.28635 0.4984 0.1159 0.9898 0.26022 1.4717 0.43224 0.4859 0.17832 0.9611 0.38433 1.4235 0.61699 0.4568 0.22783 0.8917 0.49973 1.3476 0.75875 0.0148-0.03117 0.0363-0.06838 0.0509-0.10815 0.4748-1.3136 1.2928-2.4762 2.3688-3.3669 0.2512-0.21564 0.5397-0.38359 0.8512-0.49558 0.0858-0.02991 0.1746-0.05031 0.2648-0.06085 0.451-0.05164 0.6404 0.23216 0.6737 0.5711 0.025 0.24986 0.0061 0.50216-0.0557 0.74553-0.1647 0.62865-0.4253 1.2282-0.7726 1.7775-0.4889 0.78997-1.0692 1.5016-1.8067 2.0758-0.0217 0.01695-0.0409 0.03731-0.0777 0.0713 0.7213 0.66533 1.3638 1.4114 1.9147 2.2236-0.0399 0.0103-0.0806 0.0174-0.1216 0.0214-0.7629 0.0011-1.5258-0.0013-2.2886 0.0033-0.045-0.0011-0.089-0.0126-0.1287-0.0338-0.0396-0.0211-0.0738-0.0512-0.0998-0.0879-1.6644-1.8184-3.9083-3.003-6.3488-3.3515-0.7217-0.105-1.4524-0.13322-2.1801-0.08418-2.1696 0.13248-4.2453 0.93245-5.9427 2.2904-0.4383 0.3457-0.8471 0.7272-1.2223 1.1406-0.0333 0.0413-0.0757 0.0743-0.124 0.0963-0.0483 0.0219-0.1011 0.0323-0.15411 0.0303-0.72868-0.0051-1.4574-0.0026-2.1861-0.0026h-0.15495c0.04449-0.1733 0.49249-0.7875 0.99961-1.3358 0.37818-0.40888 0.7788-0.79699 1.1857-1.2109z"/>
  <path id="path2" d="m28.406 25.05c-0.5069 0.7093-1.0853 1.3647-1.7261 1.9557 0.051 0.0426 0.0926 0.0771 0.134 0.1117 1.1124 0.9099 1.9517 2.1096 2.4252 3.4665 0.126 0.3309 0.1801 0.6848 0.1586 1.0382-0.0066 0.0906-0.0247 0.1799-0.0539 0.2659-0.0366 0.1217-0.1166 0.2258-0.2249 0.2925-0.1082 0.0667-0.2372 0.0913-0.3624 0.0691-0.169-0.0219-0.3334-0.0707-0.487-0.1444-0.2345-0.1158-0.4561-0.2561-0.661-0.4187-1.0792-0.8867-1.8986-2.0487-2.3714-3.3629-0.0135-0.037-0.0283-0.0735-0.052-0.1352-0.5747 0.38-1.1766 0.7171-1.8009 1.0086-0.6212 0.2832-1.2637 0.5173-1.9215 0.7001-0.6683 0.1814-1.3496 0.3111-2.0379 0.388 0.0121 0.0605 0.019 0.1087 0.0315 0.1554 0.2183 0.8564 0.2906 1.7435 0.2139 2.6239-0.0288 0.5519-0.136 1.0968-0.3184 1.6184-0.0869 0.2159-0.187 0.4261-0.2999 0.6296-0.0457 0.0789-0.1024 0.1509-0.1684 0.2139-0.2866 0.2959-0.6287 0.2984-0.908-0.0053-0.1104-0.1225-0.2049-0.2584-0.2813-0.4045-0.2216-0.4158-0.3356-0.868-0.417-1.3291-0.1047-0.6294-0.1376-1.2687-0.0978-1.9055 0.0216-0.4663 0.0912-0.9292 0.2077-1.3813 0.0101-0.0384 0.0193-0.077 0.0267-0.116 0.0019-0.0099-0.0046-0.0214-0.0123-0.0531-2.0607-0.1165-4.0619-0.7342-5.8297-1.7996-0.0295 0.0655-0.0549 0.1206-0.0793 0.1761-0.4955 1.156-1.258 2.1781-2.2249 2.9823-0.25598 0.2188-0.54999 0.3886-0.86738 0.5011-0.14875 0.0596-0.31107 0.0771-0.4691 0.0504-0.08726-0.0157-0.16897-0.0537-0.23716-0.1103-0.06819-0.0567-0.12052-0.13-0.15187-0.2129-0.10197-0.2466-0.0839-0.503-0.04928-0.7573 0.0568-0.3544 0.16112-0.6995 0.31015-1.026 0.44159-1.0284 1.0915-1.9542 1.9088-2.7189 0.03305-0.0313 0.06694-0.0617 0.09942-0.0936 0.01032-0.0148 0.01913-0.0306 0.0263-0.0472-0.77006-0.6678-1.4581-1.4247-2.0498-2.2548 0.07089-0.0058 0.11831-0.0129 0.16574-0.013 0.75704-7e-4 1.5141 2e-3 2.271-0.0031 0.0504-0.0016 0.1005 0.0082 0.1466 0.0284 0.0461 0.0203 0.0871 0.0506 0.1201 0.0887 0.823 0.8467 1.7819 1.5496 2.837 2.0797 1.1162 0.5744 2.3299 0.9351 3.5787 1.0637 3.3926 0.3298 6.311-0.6987 8.7551-3.0855 0.0547-0.0591 0.1217-0.1055 0.1963-0.1359 0.0745-0.0304 0.1548-0.0441 0.2352-0.0401 0.7057 0.0088 1.4116 0.0036 2.1174 0.0036h0.1824l0.0127 0.0427z"/>
  <path id="path3" d="m25.253 14.239c0.2007 0 0.3939 0.0137 0.5843-0.0036 0.2157-0.0195 0.37 0.0576 0.5273 0.2026 0.9081 0.8368 1.8257 1.6633 2.7402 2.4931 0.046 0.0418 0.0929 0.0824 0.152 0.1347 0.055-0.0473 0.1066-0.0895 0.1558-0.1343 0.9427-0.8582 1.8846-1.717 2.8259-2.5767 0.039-0.0402 0.0863-0.0716 0.1385-0.092 0.0522-0.0205 0.1082-0.0295 0.1642-0.0265 0.2317 0.0094 0.4641 0.0027 0.7085 0.0027v7.5866c-0.124 0.0362-1.791 0.0434-1.99 0.0044v-3.8421l-0.0386-0.0183c-0.6488 0.5917-1.2976 1.1834-1.9612 1.7885-0.6642-0.5984-1.3206-1.1896-1.9769-1.7809l-0.0378 0.0138c-0.0017 0.3206-6e-4 0.6414-7e-4 0.9621-2e-4 0.3187-3e-4 0.6374-1e-4 0.956v1.9348h-1.9748c-0.037-0.1276-0.0542-7.1756-0.0166-7.6049z"/>
  <path id="path4" d="m7.0298 14.248h1.963c0.03964 0.1262 0.04739 7.414 0.00682 7.5978h-1.9647c-0.01082-0.4826-0.00341-0.9636-0.00477-1.4444-0.00135-0.4768-2.9e-4 -0.9536-2.9e-4 -1.4428h-2.4327v2.8613c-0.14828 0.0443-1.824 0.0485-1.9906 0.0088v-7.5798h1.9828v2.6776c0.14169 0.0409 2.2265 0.0485 2.4388 0.0093 5.9e-4 -0.2143 0.00144-0.4339 0.00173-0.6535 3e-4 -0.2276 3.2e-4 -0.4553 7e-5 -0.683v-0.666-0.6853z"/>
  <path id="path5" d="m11.345 21.842v-7.5725c0.1164-0.0381 4.4313-0.053 4.7133-0.0147v1.6138c-0.0633 0.0046-0.1286 0.0132-0.1939 0.0133-0.7684 1e-3 -1.5368 0.0012-2.3052 6e-4h-0.2137v1.2553h2.4009v1.6698h-2.3794c-0.0399 0.1429-0.0508 1.1388-0.0185 1.4145 0.0609 4e-3 0.126 0.0122 0.1912 0.0122 0.7684 9e-4 1.5368 0.0011 2.3052 6e-4h0.2138v1.6071h-4.7137z"/>
  <path id="path6" d="m18.308 21.845c-0.0361-0.2032-0.0288-7.4593 7e-3 -7.5972h1.9556v5.599c0.0844 0.0044 0.1506 0.0108 0.2168 0.0108 0.7742 7e-4 1.5483 9e-4 2.3225 5e-4h0.2093v1.9869h-4.7112z"/>
 </g>
</svg>
