<svg width="41" height="36" viewBox="0 0 41 36" fill="none" xmlns="http://www.w3.org/2000/svg">
<path d="M5.39762 14.3591C5.26291 14.3538 5.13113 14.3182 5.0121 14.2549L1.37575 12.171C1.20942 12.0801 1.08304 11.9304 1.02137 11.7511C0.959691 11.5719 0.967168 11.3761 1.04233 11.202C1.07793 11.1015 1.13373 11.0094 1.20628 10.9312C1.27884 10.8531 1.36662 10.7906 1.46423 10.7477C1.56183 10.7047 1.66719 10.6822 1.77383 10.6815C1.88046 10.6808 1.98611 10.7019 2.08427 10.7436L2.2093 10.8061L5.85607 12.89C6.0332 12.9891 6.16548 13.1526 6.22559 13.3465C6.2857 13.5404 6.26905 13.7499 6.17907 13.9319C6.11024 14.0762 5.99769 14.1952 5.8574 14.2718C5.71712 14.3485 5.55624 14.3791 5.39762 14.3591ZM11.7013 8.1075C11.5661 8.10734 11.4334 8.07164 11.3163 8.00397C11.1993 7.93631 11.1021 7.83906 11.0345 7.72198L8.95061 4.08563C8.85073 3.92109 8.81166 3.72674 8.84022 3.53638C8.86877 3.34602 8.96314 3.17169 9.1069 3.0437C9.2573 2.91934 9.45024 2.85848 9.64478 2.87404C9.83931 2.88961 10.0201 2.98036 10.1488 3.12705C10.1488 3.12705 10.2218 3.19999 10.2426 3.24166L12.3265 6.87802C12.4249 7.04545 12.46 7.24258 12.4256 7.43371C12.3912 7.62484 12.2895 7.79733 12.1389 7.91995C12.012 8.01464 11.8595 8.06908 11.7013 8.07624V8.1075ZM19.495 4.98169V0.813957C19.4942 0.610474 19.5697 0.414087 19.7067 0.263608C19.8437 0.113129 20.0321 0.0195081 20.2348 0.00124832C20.3364 -0.00436159 20.4381 0.0104733 20.5338 0.0448746C20.6296 0.0792759 20.7175 0.132544 20.7923 0.201525C20.8671 0.270506 20.9273 0.353797 20.9694 0.446465C21.0114 0.539134 21.0344 0.639297 21.0371 0.741022V5.02337C21.0385 5.12638 21.0192 5.22863 20.9804 5.32407C20.9416 5.41951 20.8841 5.50622 20.8113 5.57906C20.7384 5.65191 20.6517 5.70942 20.5563 5.74819C20.4609 5.78697 20.3586 5.80622 20.2556 5.80482C20.05 5.77565 19.8612 5.67514 19.7221 5.52088C19.5831 5.36661 19.5027 5.16839 19.495 4.96086V4.98169ZM28.8724 8.1075C28.7209 8.10811 28.5725 8.06467 28.4452 7.98247C28.2929 7.86127 28.1892 7.68945 28.1528 7.49824C28.1165 7.30703 28.15 7.10913 28.2472 6.94053L30.3311 3.30418C30.4353 3.13229 30.6017 3.00715 30.7957 2.95476C30.9897 2.90237 31.1965 2.92676 31.373 3.02286C31.416 3.03847 31.4526 3.06776 31.4772 3.10621C31.6176 3.23641 31.7095 3.41046 31.7379 3.5998C31.7663 3.78913 31.7295 3.9825 31.6335 4.14815L29.5497 7.7845C29.463 7.88285 29.3551 7.96022 29.2342 8.01076C29.1133 8.0613 28.9824 8.08369 28.8516 8.07624L28.8724 8.1075ZM35.124 14.3591C34.9834 14.3595 34.8453 14.3219 34.7243 14.2504C34.6033 14.1789 34.5038 14.0761 34.4363 13.9528C34.3463 13.7708 34.3297 13.5612 34.3898 13.3673C34.4499 13.1734 34.5822 13.01 34.7593 12.9108L38.354 10.8269C38.5179 10.725 38.7128 10.6847 38.9037 10.7134C39.0946 10.742 39.2691 10.8377 39.3959 10.9832C39.5166 11.1359 39.5741 11.3291 39.5566 11.5229C39.5392 11.7167 39.4481 11.8965 39.3022 12.0252C39.3022 12.0252 39.2396 12.0877 39.198 12.1085L35.5095 14.1924C35.4055 14.2866 35.2741 14.3451 35.1344 14.3591H35.124Z" fill="#555962"/>
<path d="M10.5133 31.947C9.21097 30.6095 8.19338 29.0218 7.52209 27.2799C6.85081 25.538 6.53978 23.678 6.6078 21.8125C6.67583 19.9469 7.12149 18.1145 7.91786 16.4261C8.71422 14.7377 9.84474 13.2283 11.241 11.9893C12.6374 10.7502 14.2704 9.80725 16.0416 9.21733C17.8127 8.62741 19.6851 8.40282 21.5455 8.55714C23.4059 8.71146 25.2157 9.24148 26.8654 10.1152C28.5151 10.9888 29.9706 12.188 31.1436 13.6402C31.3833 13.9528 31.6021 14.2549 31.8209 14.5779L30.5393 15.4219C30.3531 15.1366 30.1514 14.8618 29.935 14.5988C29.6352 14.2273 29.3115 13.8757 28.966 13.5464C26.6309 11.4396 23.5767 10.3087 20.4326 10.3866C17.2885 10.4645 14.2941 11.7453 12.0662 13.9652C9.83834 16.1851 8.54672 19.1749 8.45748 22.3186C8.36824 25.4624 9.48816 28.5207 11.5865 30.8634L10.5133 31.947Z" fill="url(#paint0_linear_1002_115222)"/>
<path d="M30.1227 36.0001H8.85683C7.68429 35.9933 6.52463 35.7551 5.44435 35.2991C4.36407 34.8431 3.38444 34.1784 2.56163 33.343C1.73882 32.5076 1.08902 31.518 0.649505 30.4309C0.209988 29.3439 -0.0105997 28.1807 0.000391409 27.0082H1.54245C1.52851 28.9613 2.2875 30.8406 3.65386 32.2363C5.02021 33.6319 6.88305 34.4306 8.83599 34.458H30.1019C32.4923 34.458 34.7853 33.5106 36.4785 31.8232C38.1718 30.1359 39.1272 27.8462 39.1354 25.4557C39.128 23.2365 38.3132 21.0958 36.8432 19.4333L37.9893 18.3914C39.3539 19.9061 40.2491 21.7847 40.5661 23.7986C40.8831 25.8126 40.6083 27.8752 39.7751 29.7359C38.9418 31.5966 37.5861 33.1753 35.8725 34.2799C34.159 35.3846 32.1614 35.9677 30.1227 35.9584V36.0001Z" fill="#555962"/>
<path d="M1.54255 27.0916L0.000488281 27.0082C0.0122906 24.9088 0.763471 22.8806 2.12208 21.28C3.4807 19.6794 5.35985 18.6087 7.42948 18.256L7.68996 19.798C5.97219 20.0989 4.415 20.9944 3.29109 22.3279C2.16718 23.6613 1.5482 25.3477 1.54255 27.0916Z" fill="url(#paint1_linear_1002_115222)"/>
<path d="M21.0893 25.3932H19.5576C19.563 24.0023 19.8436 22.6262 20.3831 21.3442C20.9226 20.0622 21.7104 18.8996 22.7012 17.9234C23.6919 16.9472 24.866 16.1766 26.1559 15.6561C27.4457 15.1356 28.8258 14.8754 30.2166 14.8905C31.6915 14.91 33.1464 15.2349 34.4896 15.8446C35.8328 16.4543 37.0351 17.3357 38.0207 18.4331L36.8641 19.475C35.2745 17.6891 33.0417 16.6062 30.6551 16.4636C28.2685 16.3211 25.9226 17.1304 24.1317 18.7144C23.1954 19.5609 22.4424 20.5902 21.9191 21.7389C21.3958 22.8875 21.1134 24.1312 21.0893 25.3932Z" fill="url(#paint2_linear_1002_115222)"/>
<defs>
<linearGradient id="paint0_linear_1002_115222" x1="21.6516" y1="24.1429" x2="12.3576" y2="10.8582" gradientUnits="userSpaceOnUse">
<stop offset="0.2" stop-color="#8A8A8A" stop-opacity="0"/>
<stop offset="0.5" stop-color="#888C96" stop-opacity="0.2"/>
<stop offset="0.79" stop-color="#888C96" stop-opacity="0.74"/>
<stop offset="1" stop-color="#888C96"/>
</linearGradient>
<linearGradient id="paint1_linear_1002_115222" x1="-0.905995" y1="25.4349" x2="8.45058" y2="20.0273" gradientUnits="userSpaceOnUse">
<stop offset="0.08" stop-color="#888C96"/>
<stop offset="0.88" stop-color="#888C96" stop-opacity="0"/>
</linearGradient>
<linearGradient id="paint2_linear_1002_115222" x1="20.4745" y1="26.4664" x2="34.7073" y2="14.5258" gradientUnits="userSpaceOnUse">
<stop offset="0.14" stop-color="#888C96" stop-opacity="0"/>
<stop offset="0.91" stop-color="#888C96"/>
</linearGradient>
</defs>
</svg>
