<svg width="36" height="36" viewBox="0 0 36 36" fill="none" xmlns="http://www.w3.org/2000/svg">
<path d="M32.8507 8.73957C32.6448 8.08088 32.1508 7.54571 31.5333 7.21637L18.9772 1.2059C18.6479 1.04123 18.2774 1.00006 17.948 1.00006C17.6187 1.00006 17.2482 1.00006 16.9188 1.0824L4.36271 7.13403C3.74519 7.4222 3.29235 7.95738 3.12768 8.65723L0.040112 22.2014C-0.0833908 22.9012 0.0812796 23.6011 0.492955 24.1774L9.17932 34.9221C9.67333 35.4162 10.3732 35.7455 11.073 35.7867H24.9053C25.6463 35.869 26.3462 35.5397 26.799 34.9221L35.4854 24.1774C35.8971 23.6011 36.0617 22.9012 35.9794 22.2014L32.8507 8.73957Z" fill="#326DE6"/>
<path d="M30.9159 21.6662C30.8747 21.6662 30.8336 21.6662 30.8336 21.6251C30.8336 21.5839 30.7512 21.5839 30.6689 21.5839C30.5042 21.5427 30.3396 21.5427 30.1749 21.5427C30.0925 21.5427 30.0102 21.5427 29.9279 21.5016H29.8867C29.4339 21.4604 28.9398 21.3781 28.487 21.2546C28.3635 21.2134 28.24 21.0899 28.1988 20.9664L27.8695 20.8841C28.0342 19.6902 27.9518 18.4552 27.7048 17.2613C27.4167 16.0674 26.9226 14.9148 26.264 13.8856L26.511 13.6386V13.5974C26.511 13.4739 26.5521 13.3092 26.6345 13.2269C27.005 12.8975 27.3755 12.6505 27.7872 12.4035C27.8695 12.3624 27.9518 12.3212 28.0342 12.28C28.1988 12.1977 28.3223 12.1154 28.487 12.033C28.5282 11.9919 28.5693 11.9919 28.6105 11.9507C28.6517 11.9095 28.6105 11.9095 28.6105 11.8684C28.981 11.5802 29.0634 11.0862 28.7752 10.7157C28.6517 10.551 28.4047 10.4275 28.1988 10.4275C27.993 10.4275 27.7872 10.5098 27.6225 10.6333L27.5813 10.6745C27.5402 10.7157 27.499 10.7568 27.4578 10.7568C27.3343 10.8803 27.2108 11.0038 27.1285 11.1273C27.0873 11.2097 27.005 11.2508 26.9638 11.292C26.6756 11.6213 26.3051 11.9507 25.9346 12.1977C25.8523 12.2389 25.7699 12.28 25.6876 12.28C25.6464 12.28 25.5641 12.28 25.5229 12.2389H25.4818L25.1524 12.4447C24.8231 12.1154 24.4526 11.786 24.1232 11.4567C22.6 10.2628 20.7063 9.5218 18.7715 9.31596L18.7303 8.98662V9.02779C18.6068 8.94546 18.5656 8.82195 18.5245 8.69845C18.5245 8.24561 18.5245 7.79276 18.6068 7.29875V7.25758C18.6068 7.17525 18.648 7.09291 18.648 7.01058C18.6891 6.84591 18.6891 6.68124 18.7303 6.51657V6.26956C18.7715 5.85789 18.4421 5.44621 18.0304 5.40504C17.7834 5.36388 17.5364 5.48738 17.3306 5.69322C17.1659 5.85789 17.0836 6.06373 17.0836 6.26956V6.4754C17.0836 6.64007 17.1248 6.80474 17.1659 6.96941C17.2071 7.05175 17.2071 7.13408 17.2071 7.21642V7.25758C17.2894 7.71043 17.2894 8.16327 17.2894 8.65728C17.2483 8.78079 17.2071 8.90429 17.0836 8.98662V9.06896L17.0424 9.3983C16.5896 9.43947 16.1367 9.5218 15.6427 9.60414C13.7078 10.0158 11.9376 11.045 10.5791 12.4859L10.3321 12.3212H10.2909C10.2498 12.3212 10.2086 12.3624 10.1263 12.3624C10.0439 12.3624 9.9616 12.3212 9.87926 12.28C9.50875 11.9919 9.13824 11.6625 8.85007 11.3332C8.8089 11.2508 8.72657 11.2097 8.6854 11.1685C8.5619 11.045 8.47956 10.9215 8.35606 10.798C8.31489 10.7568 8.27372 10.7568 8.23256 10.7157C8.19139 10.6745 8.19139 10.6745 8.19139 10.6745C8.02672 10.551 7.82088 10.4687 7.61504 10.4687C7.36804 10.4687 7.1622 10.551 7.0387 10.7568C6.79169 11.1273 6.87403 11.6213 7.20337 11.9095C7.24453 11.9095 7.24453 11.9507 7.24453 11.9507C7.24453 11.9507 7.32687 12.033 7.36804 12.033C7.49154 12.1154 7.65621 12.1977 7.82088 12.28C7.90322 12.3212 7.98555 12.3624 8.06789 12.4035C8.47956 12.6505 8.89124 12.8975 9.22058 13.2269C9.30291 13.3092 9.38525 13.4739 9.34408 13.5974V13.5562L9.59109 13.8032C9.54992 13.8856 9.50875 13.9267 9.46758 14.0091C8.19139 16.0263 7.65621 18.414 8.02672 20.7606L7.69738 20.8429C7.69738 20.8841 7.65621 20.8841 7.65621 20.8841C7.61504 21.0076 7.49154 21.0899 7.36804 21.1722C6.91519 21.2957 6.46235 21.3781 5.96834 21.4192C5.886 21.4192 5.80367 21.4192 5.72133 21.4604C5.55666 21.4604 5.39199 21.5016 5.22732 21.5016C5.18616 21.5016 5.14499 21.5427 5.06265 21.5427C5.02149 21.5427 5.02149 21.5427 4.98032 21.5839C4.52747 21.6662 4.2393 22.0779 4.32164 22.5308C4.40397 22.9013 4.77448 23.1483 5.14499 23.1071C5.22732 23.1071 5.26849 23.1071 5.35083 23.0659C5.39199 23.0659 5.39199 23.0659 5.39199 23.0248C5.39199 22.9836 5.5155 23.0248 5.55666 23.0248C5.72133 22.9836 5.886 22.9013 6.00951 22.8601C6.09184 22.8189 6.17418 22.7778 6.25651 22.7778H6.29768C6.75052 22.6131 7.1622 22.4896 7.65621 22.4073H7.69738C7.82088 22.4073 7.94438 22.4484 8.02672 22.5308C8.06789 22.5308 8.06789 22.5719 8.06789 22.5719L8.43839 22.5308C9.05591 24.4245 10.2086 26.1123 11.8141 27.3474C12.1846 27.6355 12.514 27.8825 12.9257 28.0884L12.7198 28.3766C12.7198 28.4177 12.761 28.4177 12.761 28.4177C12.8433 28.5412 12.8433 28.7059 12.8022 28.8294C12.6375 29.2411 12.3905 29.6528 12.1435 30.0233V30.0644C12.1023 30.1468 12.0611 30.1879 11.9788 30.2703C11.8965 30.3526 11.8141 30.5173 11.6906 30.6819C11.6495 30.7231 11.6495 30.7643 11.6083 30.8054C11.6083 30.8054 11.6083 30.8466 11.5671 30.8466C11.3613 31.2583 11.526 31.7523 11.8965 31.9581C11.9788 31.9993 12.1023 32.0405 12.1846 32.0405C12.514 32.0405 12.8022 31.8346 12.9668 31.5465C12.9668 31.5465 12.9668 31.5053 13.008 31.5053C13.008 31.4641 13.0492 31.423 13.0903 31.3818C13.1315 31.2171 13.2138 31.0936 13.255 30.9289L13.3373 30.6819C13.4608 30.2291 13.6667 29.8174 13.8725 29.4057C13.9549 29.2822 14.0784 29.1999 14.2019 29.1587C14.243 29.1587 14.243 29.1587 14.243 29.1176L14.4077 28.7882C15.5604 29.2411 16.7542 29.4469 17.9893 29.4469C18.7303 29.4469 19.4713 29.3646 20.2123 29.1587C20.6652 29.0764 21.118 28.9117 21.5297 28.7882L21.6944 29.0764C21.7355 29.0764 21.7355 29.0764 21.7355 29.1176C21.859 29.1587 21.9825 29.2411 22.0649 29.3646C22.2707 29.7763 22.4765 30.1879 22.6 30.6408V30.6819L22.6824 30.9289C22.7235 31.0936 22.7647 31.2583 22.847 31.3818C22.8882 31.423 22.8882 31.4641 22.9294 31.5053C22.9294 31.5053 22.9294 31.5465 22.9706 31.5465C23.1352 31.8346 23.4234 32.0405 23.7527 32.0405C23.8762 32.0405 23.9586 31.9993 24.0821 31.9581C24.2467 31.8758 24.4114 31.7111 24.4526 31.5053C24.4938 31.2995 24.4938 31.0936 24.4114 30.8878C24.4114 30.8466 24.3703 30.8466 24.3703 30.8466C24.3703 30.8054 24.3291 30.7643 24.2879 30.7231C24.2056 30.5584 24.1232 30.4349 23.9997 30.3114C23.9586 30.2291 23.9174 30.1879 23.8351 30.1056V30.0233C23.5469 29.6528 23.3411 29.2411 23.1764 28.8294C23.1352 28.7059 23.1352 28.5412 23.2176 28.4177C23.2176 28.3766 23.2587 28.3766 23.2587 28.3766L23.1352 28.0472C25.2348 26.771 26.8403 24.795 27.5813 22.4484L27.9107 22.4896C27.9518 22.4896 27.9518 22.4484 27.9518 22.4484C28.0342 22.3661 28.1577 22.3249 28.2812 22.3249H28.3223C28.7752 22.4073 29.228 22.5308 29.6397 22.6954H29.6809C29.7632 22.7366 29.8455 22.7778 29.9279 22.7778C30.0925 22.8601 30.216 22.9424 30.3807 22.9836C30.4219 22.9836 30.4631 23.0248 30.5454 23.0248C30.5866 23.0248 30.5866 23.0248 30.6277 23.0659C30.7101 23.1071 30.7512 23.1071 30.8336 23.1071C31.2041 23.1071 31.5334 22.8601 31.6569 22.5308C31.6157 22.0779 31.2864 21.7486 30.9159 21.6662ZM19.0185 20.39L17.9069 20.9252L16.7954 20.39L16.5072 19.1962L17.2894 18.2082H18.5245L19.3066 19.1962L19.0185 20.39ZM25.7288 17.7142C25.9346 18.5787 25.9758 19.4432 25.8934 20.3077L21.9825 19.1962C21.612 19.1138 21.4062 18.7433 21.4885 18.3728C21.5297 18.2493 21.5709 18.167 21.6532 18.0847L24.7408 15.2853C25.1936 16.0263 25.5229 16.8496 25.7288 17.7142ZM23.5057 13.7621L20.13 16.1498C19.8418 16.3145 19.4301 16.2733 19.2243 15.9851C19.142 15.9028 19.1008 15.8204 19.1008 15.6969L18.8538 11.539C20.6652 11.7449 22.2707 12.527 23.5057 13.7621ZM16.0544 11.6625L16.8777 11.4978L16.6719 15.6146C16.6719 15.9851 16.3426 16.2733 15.9721 16.2733C15.8486 16.2733 15.7662 16.2321 15.6427 16.191L12.2258 13.7621C13.2962 12.7329 14.6135 11.9919 16.0544 11.6625ZM11.032 15.2853L14.0784 18.0023C14.3665 18.2493 14.4077 18.661 14.1607 18.9492C14.0784 19.0727 13.996 19.1138 13.8313 19.155L9.83809 20.3077C9.71459 18.5787 10.1263 16.8085 11.032 15.2853ZM10.3321 22.2426L14.4077 21.5427C14.737 21.5427 15.0664 21.7486 15.1075 22.0779C15.1487 22.2014 15.1487 22.3661 15.0664 22.4896L13.502 26.277C12.0611 25.3302 10.9085 23.8893 10.3321 22.2426ZM19.6771 27.3474C19.1008 27.4709 18.5245 27.5532 17.9069 27.5532C17.0424 27.5532 16.1367 27.3885 15.3134 27.1415L17.3306 23.4776C17.5364 23.2306 17.8658 23.1483 18.1539 23.3129C18.2774 23.3953 18.3598 23.4776 18.4833 23.6011L20.4593 27.1827C20.2123 27.2239 19.9653 27.265 19.6771 27.3474ZM24.6996 23.7658C24.0821 24.7538 23.2176 25.6183 22.2295 26.2358L20.624 22.3661C20.5417 22.0367 20.7063 21.7074 20.9945 21.5839C21.118 21.5427 21.2415 21.5016 21.365 21.5016L25.4818 22.2014C25.2759 22.7778 25.0289 23.3129 24.6996 23.7658Z" fill="white"/>
</svg>
