<svg width="36" height="36" viewBox="0 0 36 36" fill="none" xmlns="http://www.w3.org/2000/svg">
<path fill-rule="evenodd" clip-rule="evenodd" d="M18.0346 0.474089C17.5454 0.474089 17.057 0.589824 16.5914 0.798497L4.81368 6.43355C4.35909 6.64654 3.95917 6.96059 3.64447 7.35172C3.32977 7.74286 3.10861 8.20073 2.99787 8.69037L0.087841 21.3291C-0.144505 22.3295 0.0878438 23.3545 0.740167 24.169L8.88631 34.294C9.1961 34.6812 9.58945 34.9933 10.0369 35.2069C10.4844 35.4205 10.9743 35.5302 11.4702 35.5277H24.5289C25.0246 35.5301 25.5144 35.4203 25.9617 35.2067C26.409 34.9931 26.8022 34.6811 27.1119 34.294L35.2589 24.169C35.5787 23.7777 35.8039 23.3179 35.9169 22.8253C36.0299 22.3327 36.0276 21.8207 35.9104 21.3291L33.0012 8.6895C32.8903 8.1999 32.6691 7.74209 32.3545 7.35097C32.0398 6.95986 31.6399 6.64577 31.1854 6.43267L19.4541 0.798497C19.0105 0.586457 18.5254 0.475081 18.0337 0.472336L18.0346 0.474089ZM18.0346 1.56743C18.359 1.56743 18.6861 1.63757 18.9885 1.77698L30.7663 7.38661C31.3713 7.68909 31.836 8.2476 31.9763 8.89905L34.8863 21.5387C35.0494 22.2138 34.8863 22.9117 34.4444 23.4474L26.2974 33.5725C26.0887 33.8351 25.8232 34.0469 25.5208 34.1921C25.2185 34.3373 24.8871 34.412 24.5517 34.4107H11.4938C10.8187 34.4107 10.1664 34.1082 9.74818 33.5725L1.60116 23.4474C1.39332 23.1804 1.24606 22.8714 1.1696 22.5418C1.09314 22.2122 1.08931 21.8699 1.15839 21.5387L4.06841 8.89905C4.23149 8.22393 4.67339 7.6663 5.27837 7.38661L17.057 1.75331C17.3692 1.6335 17.7003 1.57055 18.0346 1.56743Z" fill="#326DE6"/>
<path fill-rule="evenodd" clip-rule="evenodd" d="M11.2183 31.454C11.4218 31.7088 11.6803 31.9143 11.9743 32.0552C12.2684 32.1961 12.5905 32.2687 12.9166 32.2676L23.1635 32.2501C23.8176 32.2501 24.4375 31.9424 24.8548 31.4356L31.1019 23.5709C31.2825 23.3254 31.2623 22.8432 31.2623 22.4381V11.4547L17.8406 19.1844L4.43115 11.4634V22.4372C4.43115 22.8493 4.5767 23.2517 4.84499 23.5884L11.2183 31.4531V31.454Z" fill="#1FBFCF"/>
<path fill-rule="evenodd" clip-rule="evenodd" d="M17.8406 19.1833L31.2623 11.4563L17.8274 3.73187L4.43115 11.4624L17.8406 19.1833Z" fill="#C9E9EC"/>
<path fill-rule="evenodd" clip-rule="evenodd" d="M21.037 25.154C20.653 25.3995 20.1278 25.3293 19.813 24.9436C19.7078 24.8384 19.6727 24.6989 19.6377 24.5595L19.322 18.8561C21.7054 19.1303 23.9258 20.2032 25.6217 21.9003L21.037 25.154ZM16.2796 24.4193C16.2437 24.9094 15.8588 25.3293 15.3344 25.3293C15.1942 25.3293 15.0188 25.2943 14.9136 25.2241L10.2605 21.9003C11.6915 20.4688 13.4998 19.4736 15.4747 19.0306C15.8596 18.9604 16.2095 18.8903 16.5944 18.821L16.2796 24.4193ZM29.3655 22.0747L29.7154 21.76V21.6898C29.7154 21.5145 29.7496 21.34 29.8898 21.1655C30.3098 20.7797 30.835 20.465 31.4645 20.081C31.5697 20.0108 31.6741 19.9757 31.7793 19.9056C31.9888 19.8004 32.1642 19.6952 32.3746 19.5549C32.4088 19.5207 32.479 19.4856 32.5491 19.4155C32.5842 19.3804 32.6192 19.3804 32.6192 19.3453C33.1094 18.9262 33.2137 18.2266 32.8639 17.7715C32.6885 17.526 32.3746 17.3857 32.059 17.3857C31.7784 17.3857 31.5347 17.491 31.2892 17.6663L31.219 17.7365C31.1489 17.7715 31.1138 17.8417 31.0437 17.8767C30.8683 18.0512 30.7298 18.1915 30.5895 18.366C30.5194 18.4361 30.4492 18.5413 30.344 18.6115C29.8548 19.1358 29.3997 19.5558 28.9455 19.8705C28.8403 19.9407 28.7351 19.9757 28.6299 19.9757C28.5598 19.9757 28.4896 19.9757 28.4195 19.9407H28.3493L27.9302 20.2212C27.4761 19.7302 26.9859 19.3111 26.4958 18.8912C24.3869 17.2427 21.8488 16.2348 19.1835 15.9873L19.1484 15.5314L19.0783 15.4612C18.9731 15.3569 18.8328 15.2517 18.7977 15.007C18.7626 14.4477 18.8328 13.8173 18.9029 13.1176V13.0825C18.9029 12.9773 18.938 12.8379 18.9731 12.7327C19.0081 12.5223 19.0432 12.3127 19.0783 12.0681V11.7524C19.0783 11.1238 18.5873 10.5986 17.9937 10.5986C17.7131 10.5986 17.4326 10.7389 17.2239 10.9484C17.0135 11.1589 16.9083 11.4386 16.9083 11.7533V12.0339C16.9083 12.2776 16.9433 12.4881 17.0135 12.6976C17.0485 12.8028 17.0485 12.908 17.0836 13.0483V13.0834C17.1538 13.7822 17.259 14.4126 17.1888 14.972C17.1538 15.2175 17.0135 15.3227 16.9083 15.4279L16.8381 15.4972L16.803 15.9513C16.1744 16.0215 15.544 16.0916 14.9145 16.2319C12.2637 16.8117 9.84937 18.1776 7.98705 20.1511L7.63634 19.9056H7.5662C7.49605 19.9056 7.42591 19.9407 7.35664 19.9407C7.25143 19.9407 7.14622 19.9056 7.04188 19.8355C6.58683 19.5207 6.13266 19.0656 5.64254 18.5413C5.5724 18.4712 5.50226 18.366 5.39704 18.2958C5.25676 18.1205 5.11735 17.9811 4.94287 17.8066C4.9078 17.7715 4.83766 17.7365 4.76752 17.6663C4.73245 17.6312 4.69737 17.6312 4.69737 17.5962C4.48695 17.4208 4.20813 17.3156 3.92756 17.3156C3.6128 17.3156 3.29804 17.4559 3.12356 17.7014C2.77285 18.1564 2.87806 18.8561 3.36818 19.2761C3.40325 19.2761 3.40325 19.3111 3.43832 19.3111C3.50847 19.3462 3.54353 19.4164 3.61368 19.4514C3.82323 19.5908 3.99771 19.6961 4.20813 19.8004C4.31335 19.8355 4.41856 19.9056 4.5229 19.9757C5.15242 20.3606 5.67761 20.6754 6.09671 21.0603C6.27207 21.2357 6.27207 21.411 6.27207 21.5846V21.6548L6.62278 21.9704C6.55264 22.0756 6.4825 22.1449 6.44743 22.2501C6.03709 22.8989 5.68813 23.574 5.39792 24.2702L7.39259 26.7313C7.66307 25.7709 8.06305 24.8518 8.5815 23.9993L12.7453 27.708C13.1302 28.0237 13.1653 28.6181 12.8505 29.003C12.7453 29.1433 12.605 29.2477 12.4297 29.2836L10.0264 29.9807L11.2206 31.4545C11.638 31.9788 12.264 32.2682 12.918 32.2682L23.1658 32.2506C23.8199 32.2506 24.4389 31.9438 24.8571 31.4361L25.9785 30.0245L23.5218 29.3178C23.2891 29.2512 23.0906 29.0982 22.9671 28.89C22.8435 28.6819 22.8042 28.4344 22.8572 28.1982C22.8923 28.0579 22.9624 27.9176 23.0668 27.8133L27.3007 23.9993C27.8338 24.8852 28.2402 25.8414 28.508 26.84L30.5422 24.2781C30.2134 23.5115 29.8198 22.7743 29.3655 22.0747Z" fill="#326DE6"/>
</svg>
