<svg width="36" height="36" viewBox="0 0 36 36" fill="none" xmlns="http://www.w3.org/2000/svg">
<path d="M36 9.90318C35.5987 9.06691 35.1269 8.26632 34.5898 7.51007L28.8108 9.61303C29.4755 10.2974 30.0467 11.0668 30.5095 11.9012L36 9.90318ZM10.452 16.2955L4.67139 18.3985C4.74496 19.326 4.90532 20.2419 5.12934 21.1388L10.6215 19.1392C10.4392 18.203 10.3822 17.2467 10.452 16.2955Z" fill="#C22133"/>
<path d="M23.2827 8.26544C24.4491 8.81254 25.5071 9.56585 26.4057 10.4891L32.1855 8.38613C30.5357 6.06732 28.3119 4.21671 25.732 3.01549C17.4689 -0.837456 7.61132 2.75014 3.75921 11.0115C2.55344 13.5898 2.03896 16.4374 2.26631 19.2746L8.04696 17.1716C8.14108 15.8866 8.46678 14.6292 9.00834 13.46C11.5122 8.09185 17.9153 5.76239 23.2827 8.26544ZM29.4477 18.8265C29.3525 20.1124 29.0237 21.3702 28.4772 22.5381C25.9742 27.9071 19.5702 30.2366 14.2037 27.7343C13.0346 27.1901 11.9741 26.4377 11.0741 25.514L5.30666 27.6128C6.95317 29.9329 9.17529 31.7844 11.7544 32.9851C20.0183 36.8372 29.8742 33.2497 33.7264 24.9866C34.9316 22.41 35.4445 19.5638 35.2143 16.7285L29.4477 18.8265Z" fill="#DB212E"/>
<path d="M30.8707 11.7706L25.3785 13.7694C26.4093 15.6104 26.877 17.7136 26.7234 19.8179L32.4909 17.7199C32.3259 15.6533 31.7764 13.6356 30.8707 11.7706ZM5.49216 21.0066L0 23.0071C0.506617 25.0172 1.38228 26.9157 2.58241 28.6059L8.34983 26.5062C6.87996 24.9919 5.8864 23.0798 5.49216 21.0066Z" fill="#EB2126"/>
<path d="M35.1626 8.38052C34.9808 8.08458 34.7923 7.79361 34.5906 7.51007L28.8108 9.61386C29.0654 9.87425 29.2985 10.1503 29.5217 10.4331L35.1635 8.38052H35.1626ZM10.4297 17.4561C10.4153 17.0692 10.4227 16.6817 10.452 16.2955L4.67139 18.3985C4.70115 18.7688 4.74744 19.1367 4.80283 19.5037L10.4297 17.4561Z" fill="#AD213B"/>
<path d="M35.2219 16.7281L29.4537 18.8261C29.3911 19.6693 29.2274 20.5019 28.966 21.306L35.2451 19.0179C35.2897 18.2507 35.2823 17.4861 35.2219 16.7281ZM5.31348 27.6132C5.76117 28.2419 6.25258 28.8383 6.78406 29.3979L13.0632 27.1081C12.3411 26.6573 11.6757 26.1217 11.0809 25.5127L5.31348 27.6132Z" fill="#BA2133"/>
</svg>
