<svg width="36" height="36" viewBox="0 0 36 36" fill="none" xmlns="http://www.w3.org/2000/svg">
<path d="M11.5901 1.52588e-05C11.3688 0.0132359 11.1581 0.0992984 10.9908 0.244788C10.749 0.111011 10.4724 0.0534029 10.1973 0.079509C9.92218 0.105615 9.66137 0.214218 9.44903 0.39109C9.24635 0.322704 9.02765 0.317709 8.82207 0.37677C8.61648 0.435832 8.43378 0.556145 8.29831 0.721676C8.00106 0.659181 7.69286 0.67242 7.40206 0.760176C7.11126 0.847932 6.84719 1.00739 6.63413 1.22388C5.41027 1.07758 5.05436 1.92163 5.48342 2.71785C5.39036 2.81837 5.31833 2.93647 5.27155 3.06521C5.22477 3.19396 5.20419 3.33075 5.211 3.46756C5.21781 3.60437 5.25189 3.73844 5.31124 3.86189C5.37058 3.98535 5.45399 4.09571 5.55657 4.18649C5.47452 4.42689 5.46931 4.68686 5.54165 4.93035C5.61399 5.17385 5.76031 5.3888 5.9603 5.5454C5.91362 5.78265 5.94285 6.02858 6.04386 6.24827C6.14487 6.46797 6.31251 6.65026 6.523 6.76927C6.53896 7.06383 6.63523 7.3484 6.80137 7.59216C6.96751 7.83591 7.19719 8.02955 7.46552 8.1521C7.51231 8.44935 7.65908 8.72175 7.8816 8.92431C8.10411 9.12688 8.38906 9.24749 8.68939 9.26624C8.77106 9.52943 8.93292 9.76054 9.15234 9.92725C9.37177 10.094 9.6378 10.188 9.91325 10.1961C8.84324 10.6929 7.95403 11.5098 7.3686 12.534C6.78317 13.5582 6.53044 14.739 6.64539 15.9131L6.41327 16.3295C5.76042 16.774 5.21056 17.3535 4.80083 18.0287C4.3911 18.704 4.13105 19.4593 4.03824 20.2436C3.94543 21.028 4.02202 21.8231 4.26284 22.5754C4.50366 23.3276 4.9031 24.0194 5.43418 24.604C5.61932 25.4395 5.87341 26.2582 6.19382 27.0517C6.33243 28.1304 6.75596 29.1527 7.42081 30.0134C8.08567 30.874 8.96784 31.542 9.97656 31.9486C11.0785 32.8328 12.3198 33.5279 13.6496 34.0053C14.2096 34.6301 14.8945 35.1304 15.6599 35.474C16.4254 35.8176 17.2544 35.9968 18.0935 36H18.1666C19.0057 35.9968 19.8347 35.8176 20.6002 35.474C21.3656 35.1304 22.0505 34.6301 22.6105 34.0053C23.9403 33.5279 25.1816 32.8328 26.2835 31.9486C27.2923 31.542 28.1744 30.874 28.8393 30.0134C29.5041 29.1527 29.9277 28.1304 30.0663 27.0517C30.3867 26.2582 30.6408 25.4395 30.8259 24.604C31.357 24.0194 31.7564 23.3276 31.9973 22.5754C32.2381 21.8231 32.3147 21.028 32.2219 20.2436C32.129 19.4593 31.869 18.704 31.4593 18.0287C31.0495 17.3535 30.4997 16.774 29.8468 16.3295L29.4557 15.9131C29.5556 14.7599 29.3023 13.6036 28.7294 12.5978C28.1565 11.592 27.2912 10.7843 26.2484 10.2819C26.5238 10.2738 26.7899 10.1798 27.0093 10.0131C27.2287 9.84635 27.3906 9.61525 27.4722 9.35205C27.7726 9.33331 28.0575 9.21269 28.28 9.01012C28.5025 8.80756 28.6493 8.53516 28.6961 8.23791C28.9644 8.11537 29.1941 7.92173 29.3603 7.67797C29.5264 7.43422 29.6227 7.14964 29.6386 6.85508C29.8491 6.73607 30.0168 6.55378 30.1178 6.33409C30.2188 6.11439 30.248 5.86846 30.2013 5.63121C30.4013 5.47461 30.5476 5.25966 30.62 5.01616C30.6923 4.77267 30.6871 4.5127 30.6051 4.2723C30.7076 4.18152 30.791 4.07116 30.8504 3.9477C30.9097 3.82425 30.9438 3.69018 30.9506 3.55337C30.9574 3.41656 30.9369 3.27977 30.8901 3.15102C30.8433 3.02228 30.7713 2.90418 30.6782 2.80366C31.1073 2.0201 30.6782 1.17605 29.5275 1.30969C29.3174 1.06785 29.047 0.886018 28.7438 0.782723C28.4406 0.679427 28.1154 0.658363 27.8014 0.721676C27.6669 0.558637 27.4863 0.4399 27.2834 0.380934C27.0804 0.321968 26.8643 0.325506 26.6634 0.39109C26.451 0.214218 26.1902 0.105615 25.9151 0.079509C25.64 0.0534029 25.3634 0.111011 25.1216 0.244788C24.8873 0.0882372 24.6095 0.00990447 24.328 0.0210243C24.0464 0.0321442 23.7756 0.132146 23.5545 0.306686C23.329 0.226736 23.0867 0.206092 22.851 0.246739C22.6152 0.287386 22.3939 0.38796 22.2082 0.5388C21.9151 0.47258 21.6084 0.503623 21.3346 0.627232C21.0607 0.75084 20.8345 0.960288 20.6903 1.22388H20.212C19.146 1.96514 18.3813 3.06428 18.0569 4.32154C17.7486 3.03745 16.9822 1.91001 15.9018 1.15073H15.4235C15.2685 0.900466 15.0378 0.706168 14.7648 0.59611C14.4918 0.486051 14.1908 0.465974 13.9056 0.5388C13.7172 0.383534 13.4915 0.280388 13.2508 0.239658C13.0101 0.198929 12.763 0.222039 12.534 0.306686C12.2392 0.152483 11.9206 0.0488211 11.5915 1.52588e-05H11.5901Z" fill="black"/>
<path d="M9.03261 3.34103C11.4298 4.42572 13.624 5.91199 15.5205 7.7357C14.9817 9.96399 12.0557 10.0737 10.9908 10.0146C11.0913 9.98165 11.1843 9.92896 11.2643 9.85964C11.3442 9.79031 11.4095 9.70575 11.4564 9.61089C10.8231 9.52957 10.197 9.39881 9.58406 9.21982C9.68534 9.21525 9.784 9.1861 9.87149 9.13487C9.95899 9.08365 10.0327 9.0119 10.0863 8.92581C9.48738 8.79142 8.91595 8.55542 8.39676 8.22806C8.63176 8.2649 8.87204 8.21273 9.07059 8.08176C8.4857 7.82759 7.94115 7.4892 7.45424 7.07734C7.68841 7.10762 7.92633 7.06951 8.13933 6.96762C7.66173 6.67667 7.22547 6.32274 6.84231 5.91537C7.06695 5.97766 7.30661 5.95564 7.51614 5.85348C7.0817 5.50773 6.70554 5.09453 6.402 4.62961C6.52066 4.69279 6.65302 4.72583 6.78745 4.72583C6.92187 4.72583 7.05424 4.69279 7.1729 4.62961C6.78632 4.26402 6.44529 3.85309 6.15723 3.40574C6.39475 3.45975 6.64136 3.45975 6.87889 3.40574C6.74857 2.95778 6.52786 2.54126 6.23038 2.18188C6.78064 2.22146 7.33304 2.22146 7.8833 2.18188L7.47957 1.69233C8.09296 1.58039 8.7255 1.64428 9.30411 1.87661C9.52497 1.70499 9.30411 1.48554 9.02277 1.26468C9.54623 1.32998 10.06 1.45749 10.5533 1.6445C10.7854 1.42364 10.3817 1.2281 10.1876 0.98333C10.7619 1.06968 11.3098 1.28306 11.7912 1.60792C12.0726 1.35049 11.7912 1.1437 11.6323 0.922838C12.1361 1.11677 12.5945 1.41275 12.9785 1.79221C13.0295 1.75288 13.072 1.70364 13.1034 1.64745C13.1348 1.59127 13.1546 1.5293 13.1614 1.46529C13.1682 1.40127 13.162 1.33654 13.1432 1.27498C13.1243 1.21343 13.0932 1.15633 13.0517 1.10712C13.4722 1.33797 13.8393 1.6548 14.1292 2.03698C14.2218 1.95737 14.2878 1.8514 14.3185 1.73324C14.3492 1.61508 14.343 1.49038 14.3009 1.37581C14.7412 1.75004 15.1505 2.15934 15.5247 2.59968C15.6397 2.44225 15.7075 2.25539 15.7203 2.06089C16.871 3.17504 18.4986 5.98993 16.1367 7.10407C14.0146 5.42859 11.6042 4.15519 9.02417 3.34666L9.03261 3.34103ZM27.1487 3.34103C24.7515 4.42572 22.5573 5.91199 20.6608 7.7357C21.2235 9.96399 24.1256 10.0737 25.1905 10.0146C25.0036 9.93414 24.8546 9.78514 24.7741 9.59823C25.4075 9.51691 26.0335 9.38615 26.6465 9.20716C26.5474 9.2006 26.4513 9.17051 26.3661 9.11937C26.281 9.06824 26.2093 8.99754 26.1569 8.91315C26.7558 8.77876 27.3272 8.54276 27.8464 8.2154C27.6078 8.25516 27.3629 8.20287 27.1613 8.0691C27.7462 7.81493 28.2908 7.47654 28.7777 7.06469C28.5435 7.09496 28.3056 7.05685 28.0926 6.95496C28.5702 6.66401 29.0065 6.31008 29.3896 5.90271C29.165 5.965 28.9253 5.94298 28.7158 5.84082C29.1502 5.49507 29.5264 5.08187 29.8299 4.61695C29.7113 4.68013 29.5789 4.71317 29.4445 4.71317C29.31 4.71317 29.1777 4.68013 29.059 4.61695C29.4456 4.25136 29.7866 3.84043 30.0747 3.39308C29.8372 3.44708 29.5906 3.44708 29.353 3.39308C29.4834 2.94512 29.7041 2.5286 30.0015 2.16921C29.4513 2.2088 28.8989 2.2088 28.3486 2.16921L28.765 1.74016C28.1516 1.62822 27.5191 1.6921 26.9405 1.92444C26.7196 1.75282 26.9405 1.53337 27.2218 1.31251C26.6984 1.37781 26.1845 1.50532 25.6913 1.69233C25.4099 1.41098 25.801 1.2281 26.0092 0.981921C25.4348 1.06827 24.887 1.28165 24.4055 1.60652C24.1242 1.34908 24.4055 1.14229 24.5645 0.921432C24.0606 1.11537 23.6023 1.41135 23.2182 1.7908C23.1663 1.75242 23.1227 1.70389 23.0901 1.64817C23.0576 1.59245 23.0366 1.53069 23.0286 1.46664C23.0206 1.40258 23.0256 1.33756 23.0435 1.27553C23.0613 1.21349 23.0916 1.15572 23.1324 1.10572C22.7119 1.33656 22.3448 1.65339 22.0548 2.03557C21.9623 1.95596 21.8963 1.84999 21.8656 1.73184C21.8349 1.61368 21.8411 1.48897 21.8832 1.3744C21.4429 1.74864 21.0336 2.15793 20.6594 2.59827C20.5444 2.44084 20.4766 2.25399 20.4638 2.05949C19.3131 3.17363 17.6855 5.98852 20.0474 7.10267C22.1543 5.43197 24.5478 4.15874 27.1107 3.34525L27.1487 3.34103Z" fill="#75A928"/>
<path d="M22.2276 26.073C22.1895 27.1143 21.7405 28.0982 20.9789 28.8094C20.2173 29.5207 19.2051 29.9014 18.1635 29.8684C17.12 29.9149 16.1006 29.5454 15.3293 28.8408C14.5581 28.1363 14.098 27.1544 14.0502 26.1109C14.0884 25.0696 14.5373 24.0857 15.2989 23.3745C16.0605 22.6632 17.0728 22.2825 18.1143 22.3155C19.1579 22.269 20.1772 22.6385 20.9485 23.3431C21.7198 24.0476 22.1798 25.0295 22.2276 26.073ZM15.7636 15.3015C16.5939 15.9597 17.1313 16.9185 17.2596 17.9701C17.3878 19.0218 17.0965 20.0817 16.4487 20.9201C15.9297 21.8488 15.0672 22.537 14.0464 22.8368C13.0256 23.1366 11.928 23.0242 10.9891 22.5237C10.1589 21.8656 9.62143 20.9068 9.49319 19.8551C9.36496 18.8034 9.65628 17.7436 10.304 16.9052C10.8231 15.9765 11.6856 15.2883 12.7063 14.9885C13.7271 14.6886 14.8248 14.801 15.7636 15.3015ZM20.3426 15.0933C19.5123 15.7515 18.9749 16.7103 18.8466 17.7619C18.7184 18.8136 19.0097 19.8735 19.6575 20.7119C20.1765 21.6406 21.039 22.3288 22.0598 22.6286C23.0806 22.9284 24.1782 22.816 25.1171 22.3155C25.9473 21.6574 26.4848 20.6986 26.613 19.6469C26.7412 18.5952 26.4499 17.5354 25.8021 16.697C25.2831 15.7683 24.4206 15.0801 23.3998 14.7803C22.3791 14.4804 21.2814 14.5928 20.3426 15.0933ZM7.29502 17.1373C9.13082 16.6478 7.90695 24.714 6.42565 24.0529C5.93982 23.5826 5.57007 23.0057 5.34566 22.3679C5.12125 21.7301 5.04833 21.0488 5.13267 20.3779C5.217 19.707 5.45629 19.065 5.83158 18.5025C6.20688 17.9401 6.7079 17.4727 7.29502 17.1373ZM28.4468 17.0149C26.611 16.5254 27.8349 24.5917 29.3162 23.9305C29.802 23.4602 30.1718 22.8834 30.3962 22.2455C30.6206 21.6077 30.6935 20.9264 30.6092 20.2555C30.5248 19.5846 30.2856 18.9426 29.9103 18.3802C29.535 17.8177 29.0339 17.3503 28.4468 17.0149ZM22.229 11.018C25.3872 10.4792 28.0192 12.3642 27.9095 15.7925C27.811 17.1387 21.1036 11.2023 22.229 11.018ZM13.4847 10.9195C10.3266 10.3807 7.69453 12.2658 7.80426 15.694C7.90273 17.0023 14.6467 11.1165 13.4847 10.9195ZM18.0285 10.1247C16.1434 10.1247 14.3709 11.5202 14.3709 12.3642C14.3709 13.2083 15.8649 14.4321 18.0285 14.4575C20.1921 14.4828 21.686 13.6247 21.686 12.5724C21.686 11.5202 19.6181 10.1247 17.9525 10.1247H18.0285ZM18.1509 31.043C19.7911 30.9698 21.9941 31.5691 22.0053 32.3653C22.0166 33.1615 20.0106 34.8876 18.0383 34.8131C16.0661 34.7385 14.0108 33.1489 14.0361 32.5341C14.0361 31.6409 16.4839 30.9445 18.1495 30.9923L18.1509 31.043ZM12.0779 26.3163C13.3018 27.7231 13.766 30.2088 12.7996 30.9304C11.8332 31.6521 9.62881 31.261 8.03778 28.9723C6.97287 27.038 7.10933 25.0925 7.86615 24.4791C8.99155 23.794 10.7429 24.7239 12.0892 26.2798L12.0779 26.3163ZM23.9903 25.8662C22.7664 27.3475 22.0208 30.0526 22.938 30.922C23.82 31.5972 26.1946 31.51 27.946 29.0735C28.4568 28.3299 28.7403 27.4538 28.762 26.5519C28.7837 25.65 28.5428 24.7612 28.0684 23.9938C26.9908 23.161 25.4378 24.2259 23.9917 25.8648L23.9903 25.8662Z" fill="#BC1142"/>
</svg>
