<?xml version="1.0" encoding="UTF-8"?>
<svg id="svg26" width="174" height="36" fill="none" version="1.1" viewBox="0 0 174 36" xmlns="http://www.w3.org/2000/svg">
 <g id="g26" clip-path="url(#clip0_1002_115182)">
  <path id="path1" d="m17.763 0c-4.2184 8.9313e-4 -8.2989 1.5027-11.511 4.2368-3.2125 2.7341-5.3473 6.5221-6.0225 10.686-0.67522 4.1641 0.15321 8.4325 2.3371 12.042 2.1839 3.6092 5.5807 6.3235 9.5827 7.6574 0.8882 0.1629 1.2125-0.3856 1.2125-0.8564 0-0.4217-0.0154-1.5389-0.0241-3.0214-4.9415 1.0736-5.9842-2.3813-5.9842-2.3813-0.32645-1.0738-1.026-1.9954-1.9724-2.5986-1.613-1.1023 0.12198-1.0799 0.12198-1.0799 0.56305 0.0777 1.1009 0.283 1.5725 0.6003 0.4716 0.3173 0.86448 0.7381 1.1486 1.2304 0.24061 0.4383 0.56575 0.8245 0.95662 1.1363 0.39086 0.3119 0.83968 0.5431 1.3205 0.6803 0.4808 0.1373 0.984 0.1779 1.4806 0.1195 0.4965-0.0585 0.9766-0.2148 1.4123-0.46 0.081-0.9008 0.481-1.7429 1.128-2.3749-3.9449-0.4484-8.092-1.9724-8.092-8.78-0.02587-1.7649 0.62894-3.4721 1.8285-4.767-0.54198-1.5323-0.4797-3.2135 0.17418-4.7014 0 0 1.4916-0.47774 4.8852 1.8211 2.9114-0.79723 5.9835-0.79723 8.8949 0 3.3916-2.2988 4.8805-1.8211 4.8805-1.8211 0.6556 1.4874 0.7188 3.169 0.1767 4.7014 1.1997 1.2947 1.8538 3.0022 1.8261 4.767 0 6.8246-4.1537 8.3263-8.1111 8.7662 0.4239 0.4307 0.7508 0.947 0.9588 1.5144s0.2923 1.1727 0.2472 1.7753c0 2.375-0.022 4.2909-0.022 4.8734 0 0.4751 0.3202 1.0278 1.2218 0.8543 4.0005-1.3364 7.3951-4.0523 9.5767-7.662 2.1817-3.6097 3.0081-7.8778 2.3315-12.041-0.6768-4.1631-2.8126-7.9497-6.0252-10.683-3.2127-2.7329-7.2928-4.2337-11.511-4.2342z" clip-rule="evenodd" fill="var(--sl-color-white, #17181C)" fill-rule="evenodd"/>
  <path id="path2" d="m111.1 11.637c-0.219 0.7363-0.333 1.5-0.339 2.2683l1.219 0.5902c-0.023-0.7248 7e-3 -1.4502 0.087-2.1708 5e-3 -0.0497 9e-3 -0.0787 9e-3 -0.0787-1e-3 0.0266-8e-3 0.0522-9e-3 0.0787-0.058 0.7127-0.06 1.4288-6e-3 2.1419 0.632-0.5366 1.235-1.1059 1.807-1.7056-0.608-1.2401-1.363-1.4567-1.363-1.4567s-1.08-0.4355-1.405 0.3327zm3.171 6.1411c2e-3 -1e-3 4e-3 -0.0026 5e-3 -0.0046 2e-3 -0.0018 2e-3 -4e-3 3e-3 -0.0062l-0.069 0.0607c-1e-3 0.0057-7e-3 0.0106-8e-3 0.0164 0.024-0.0229 0.048-0.0459 0.069-0.0663zm1.056 3.2233c-0.058 0.0624-0.117 0.1214-0.176 0.1804 0.03-0.0278 0.063-0.0614 0.091-0.0926 0.029-0.0276 0.058-0.0569 0.085-0.0878z" fill="#DF5A2C"/>
  <path id="path3" d="m115.33 21.001c-0.058 0.0624-0.117 0.1214-0.176 0.1804 0.03-0.0278 0.063-0.0614 0.091-0.0926 0.029-0.0276 0.058-0.057 0.085-0.0878z" fill="#DF5A2C" opacity=".35"/>
  <path id="path4" d="m114.88 20.028c0.01-0.0073 0.017-0.018 0.028-0.0254 0.038-0.0385 0.077-0.0771 0.109-0.1165-0.042 0.0468-0.091 0.0927-0.137 0.1419z" fill="#DF5A2C"/>
  <path id="path5" d="m114.88 20.028c0.01-0.0073 0.017-0.018 0.028-0.0254 0.038-0.0385 0.077-0.0771 0.109-0.1165-0.042 0.0468-0.091 0.0927-0.137 0.1419z" fill="#DF5A2C" opacity=".35"/>
  <path id="path6" d="m112.3 18.094c-0.056-0.3986-0.107-0.7977-0.155-1.1973-0.046-0.3999-0.083-0.8009-0.111-1.2025-3e-3 -0.0229-4e-3 -0.0459-5e-3 -0.0689-0.026-0.3863-0.046-0.7627-0.054-1.1315l-1.217-0.5869c-3e-3 0.0738-8e-3 0.15-0.012 0.2294-0.011 0.2916-0.021 0.6014-0.023 0.927-3e-3 0.3671 0 0.7499 7e-3 1.151 8e-3 0.3687 0.023 0.7534 0.044 1.1447 0.019 0.335 0.041 0.6732 0.068 1.0182 1e-3 0.0149 2e-3 0.024 3e-3 0.0389l1.628 0.8248c-0.057-0.385-0.117-0.7676-0.173-1.1469zm2.405 9.6272c0.09 0.3042 0.181 0.6175 0.28 0.9351 3e-3 0.0033 1e-3 0.0091 4e-3 0.0124 0.014 0.0466 0.025 0.0898 0.041 0.1339 0.065 0.2144 0.129 0.4047 0.263 0.8403 0.326-0.0201 0.652 0.0577 0.935 0.2235-0.222-0.2713-0.541-0.4448-0.889-0.4831 0.997-0.665 1.653-1.5216 1.56-2.5434-9e-3 -0.0935-0.023-0.1865-0.04-0.2787-0.01 0.2078-0.076 0.4091-0.191 0.5825s-0.276 0.3122-0.464 0.4016c0.395-0.5987 0.579-1.3121 0.522-2.027-0.014-0.177-0.036-0.3533-0.065-0.5285-0.047 0.452-0.211 0.8838-0.477 1.2526-0.265 0.3688-0.622 0.662-1.036 0.8503l-0.494 0.4548c0.018 0.059 0.033 0.1147 0.051 0.1737z" fill="#DF5A2C"/>
  <path id="path7" d="m114.08 26.333c-0.104-0.3864-0.207-0.7785-0.312-1.174-0.1-0.3823-0.196-0.7656-0.289-1.1498-0.095-0.3879-0.186-0.7783-0.277-1.1686-0.094-0.3995-0.18-0.7982-0.264-1.1992-0.085-0.3953-0.162-0.7955-0.241-1.1898-0.028-0.143-0.055-0.2864-0.08-0.4301-0.045-0.2454-0.088-0.4911-0.129-0.7372-5e-3 -0.0124-5e-3 -0.0273-9e-3 -0.0398l-1.619-0.8262c4e-3 0.0258 6e-3 0.0518 6e-3 0.0779 0.033 0.3665 0.065 0.7389 0.108 1.1131 0.042 0.3799 0.091 0.7607 0.146 1.1457 0.049 0.3246 0.101 0.6465 0.154 0.9719 0.012 0.064 0.024 0.1312 0.036 0.1951 0.074 0.4026 0.153 0.7912 0.24 1.1542 0.097 0.4119 0.201 0.7983 0.305 1.1581 0.07 0.2361 0.14 0.4631 0.21 0.6784 0.061 0.1812 0.128 0.3634 0.193 0.5422 0.155 0.4209 0.326 0.8295 0.511 1.2283l1.636 0.8289c-0.087-0.3008-0.168-0.6065-0.256-0.9166-0.023-0.0864-0.045-0.1728-0.069-0.2625z" fill="#DF5A2C"/>
  <path id="path8" d="m112.79 26.737c0.222 0.4785 0.472 0.9426 0.752 1.3898 0.01 0.0134 0.02 0.0326 0.029 0.0459-0.406-0.1115-0.83-0.1443-1.248-0.0966 0.76 0.2108 1.452 0.6142 2.01 1.1709-0.27 0.2375-0.597 0.4015-0.949 0.4765 0.349 0.0577 0.708 0.0261 1.042-0.092-0.322 0.346-0.541 0.7738-0.635 1.2363 0.231-0.4552 0.588-0.8338 1.03-1.0897 0.492 1.6283 1.083 3.3935 1.738 5.2456 0.05-0.0649 0.083-0.1409 0.097-0.2216 0.014-0.0806 7e-3 -0.1634-0.02-0.2408-0.121-0.3328-0.901-2.5357-1.79-5.5261-0.025-0.084-0.047-0.1704-0.076-0.2576-8e-3 -0.025-0.013-0.0466-0.021-0.0715-0.091-0.3134-0.185-0.6358-0.278-0.9674-0.021-0.0773-0.043-0.1488-0.064-0.226l-2e-3 -0.0034-1.637-0.8289c6e-3 0.0195 0.013 0.0385 0.022 0.0566zm-0.121-7.4601c9e-3 0.0548 0.019 0.1038 0.029 0.1585 0.031 0.162 0.06 0.3263 0.093 0.4915 0.035 0.1802 0.072 0.3637 0.108 0.5531 0.018 0.0946 0.037 0.1892 0.056 0.2872 0.06 0.2905 0.124 0.5879 0.19 0.8943 0.08 0.377 0.169 0.7641 0.265 1.1669 0.089 0.3812 0.185 0.7783 0.287 1.1821 0.098 0.3854 0.197 0.78 0.306 1.188 0.096 0.3614 0.2 0.7329 0.304 1.1135 3e-3 0.0182 0.012 0.0373 0.015 0.0556 0.106 0.3747 0.214 0.762 0.329 1.1559 1e-3 0.0088 3e-3 0.0174 8e-3 0.025l0.494-0.4548c-0.012 0.0041-0.023 0.0113-0.039 0.0178 0.671-0.7378 1.092-1.669 1.202-2.6605 0.054-0.4936 0.049-0.9917-0.015-1.4842-0.052-0.4277-0.131-0.8517-0.238-1.2693-0.104-0.4192-0.225-0.8343-0.362-1.2441-0.101 0.1973-0.228 0.3802-0.377 0.5438l-0.085 0.0936c-0.029 0.0312-0.06 0.059-0.092 0.0926 0.392-0.6404 0.52-1.4086 0.355-2.1415-0.11 0.3095-0.276 0.5964-0.489 0.8468-0.032 0.0394-0.071 0.0779-0.109 0.1164-0.011 0.0074-0.018 0.0181-0.031 0.0278 0.135-0.2172 0.241-0.4508 0.317-0.6951 0.015-0.0477 0.028-0.0963 0.037-0.1454 0.018-0.0744 0.029-0.1497 0.041-0.225 4e-3 -0.0497 0.011-0.096 0.016-0.1457 9e-3 -0.1175 9e-3 -0.2356-3e-3 -0.353-2e-3 -0.0389-3e-3 -0.0746-9e-3 -0.1111-9e-3 -0.0547-0.016-0.1062-0.026-0.1552-0.034-0.2018-0.077-0.4021-0.127-0.6003-0.02-0.0789-0.042-0.1573-0.065-0.2352-0.01-0.0283-0.015-0.0557-0.025-0.084-0.027-0.0782-0.049-0.1497-0.072-0.2095-0.027-0.0703-0.057-0.1392-0.09-0.2064-8e-3 0.0341-0.02 0.067-0.036 0.0982-0.143 0.2928-0.331 0.562-0.556 0.7979-1e-3 0.0012-3e-3 0.0027-4e-3 0.0045-2e-3 0.0018-2e-3 4e-3 -3e-3 0.0062-0.023 0.0219-0.046 0.0452-0.067 0.0698 2e-3 -0.0058 7e-3 -0.0107 9e-3 -0.0165l-1.555 1.424c0.013 0.0108 0.015 0.02 0.014 0.0258z" fill="#DF5A2C"/>
  <path id="path9" d="m112.06 14.466c0.019 0.3407 0.049 0.7247 0.088 1.1485 0 0.0223 4e-3 0.0444 7e-3 0.0663 0.036 0.3699 0.081 0.7681 0.139 1.2037 0.049 0.375 0.104 0.7717 0.172 1.1999 0.055 0.3701 0.124 0.7569 0.194 1.1678l1.555-1.4239c0.264-0.421 0.401-0.91 0.39-1.4071-2e-3 -0.1276-8e-3 -0.255-0.018-0.3821-0.026-0.4114-0.073-0.8211-0.14-1.2278-0.058-0.3703-0.135-0.7374-0.232-1.0995-0.05-0.1889-0.109-0.3751-0.178-0.5578-0.053-0.1311-0.11-0.2604-0.171-0.3878-0.573 0.5964-1.176 1.1637-1.806 1.6998zm3.184 6.6259c-0.029 0.0311-0.06 0.059-0.091 0.0926 0.028-0.0329 0.058-0.0638 0.091-0.0926z" fill="#DF5A2C"/>
  <path id="path10" d="m115.25 21.092c-0.029 0.0312-0.061 0.059-0.092 0.0926 0.029-0.0328 0.059-0.0638 0.092-0.0926z" fill="#DF5A2C" opacity=".35"/>
  <path id="path11" d="m115.25 21.093c-0.029 0.0312-0.06 0.0591-0.091 0.0927 0.028-0.0329 0.059-0.0638 0.091-0.0927zm-0.368-1.0613c0.01-0.0072 0.017-0.018 0.031-0.0278-0.01 0.0074-0.017 0.018-0.031 0.0278z" fill="#DF5A2C"/>
  <path id="path12" d="m114.88 20.032c0.01-0.0072 0.017-0.018 0.031-0.0278-0.01 0.0074-0.017 0.018-0.031 0.0278z" fill="#DF5A2C" opacity=".35"/>
  <path id="path13" d="m114.88 20.032c0.01-0.0072 0.017-0.018 0.031-0.0278-0.01 0.0074-0.017 0.018-0.031 0.0278z" fill="#DF5A2C"/>
  <path id="path14" d="m63.568 5.7754h5.6934c0.3008-0.03033 0.6015 0.05735 0.8388 0.24453 0.0733 0.06677 0.1326 0.14741 0.1745 0.23725 0.0424 0.08982 0.066 0.18739 0.0693 0.28669 0.0242 0.21126 0.0589 0.42114 0.1051 0.62871 0.0462 0.37251 0.0935 0.75681 0.1397 1.1526 0.0693 0.37252 0.1282 0.75681 0.1745 1.1527 0.2564 1.467 0.4654 2.9574 0.6283 4.4709 0.1858 1.507 0.4072 3.0093 0.6642 4.5058 0.0947 0.4735 0.164 0.9516 0.2091 1.4322 0.0462 0.4806 0.1155 0.9586 0.2102 1.4321l0.0693 0.3493c0.0207 0.1121 0.0835 0.2121 0.1756 0.2794 0.038 0.0177 0.0731 0.0413 0.1039 0.0699 0.03 0.0104 0.0612 0.0127 0.0924 0.0065 0.0306-6e-3 0.059-0.0204 0.082-0.0415 0.1024-0.0316 0.1963-0.0857 0.2749-0.1584 0.0785-0.0726 0.14-0.1616 0.1802-0.2607 0.1155-0.2329 0.2322-0.4425 0.3489-0.6288 0.2795-0.5355 0.5475-1.0595 0.8027-1.5717 0.2565-0.5357 0.536-1.0713 0.8386-1.6069l2.2363-4.2613c0.7656-1.439 1.5222-2.8827 2.2697-4.3312 0.186-0.37252 0.3731-0.73348 0.5591-1.0828 0.209-0.37251 0.4077-0.74514 0.5937-1.1178 0.0935-0.1862 0.1975-0.37251 0.3142-0.55882 0.1212-0.19082 0.2899-0.34722 0.4897-0.45407 0.1624-0.11651 0.358-0.17773 0.5578-0.17464h6.0087c0.1748-0.01824 0.3499 0.03184 0.4886 0.13976 0.2322 0.13965 0.3027 0.40751 0.2091 0.80336-0.0693 0.37251-0.1398 0.75681-0.2091 1.1526l-1.0476 5.2393-2.6198 12.994-0.5937 3.0388c-0.0475 0.2586-0.1061 0.515-0.1755 0.7685-0.0535 0.2092-0.1765 0.3939-0.3489 0.5239-0.165 0.1173-0.3576 0.1895-0.559 0.2096h-3.3186c-0.1492-0.0435-0.3007-0.0785-0.4539-0.1048-0.0625-0.0158-0.1203-0.0461-0.1687-0.0886-0.0486-0.0426-0.0866-0.096-0.1109-0.1559-0.0732-0.1394-0.0976-0.2992-0.0693-0.4541 0.0462-0.1863 0.0936-0.3842 0.1398-0.5938l0.3488-1.7814 1.817-8.9767c0.0462-0.3261 0.0924-0.6287 0.1397-0.9081 0.0694-0.3028 0.1283-0.6055 0.1745-0.9082l0.1397-0.5589c0.0451-0.1947 0.0682-0.3939 0.0693-0.5938-0.0231-0.1738-0.0231-0.35 0-0.5239 0.0474-0.1862 0.0116-0.3027-0.1039-0.3493-0.0296-0.0124-0.0622-0.0156-0.0936-0.0094-0.0311 0.0064-0.0596 0.0218-0.082 0.0444l-0.104 0.1047c-0.1223 0.0993-0.2284 0.2171-0.3141 0.3493l-0.2103 0.3493c-0.209 0.3493-0.4193 0.7103-0.6283 1.0828-0.186 0.3726-0.3962 0.7451-0.6284 1.1178l-0.2102 0.419c-0.0509 0.1484-0.1212 0.2893-0.2091 0.4192-0.1871 0.3027-0.3615 0.6055-0.5244 0.9081-0.1448 0.3121-0.3079 0.6154-0.4886 0.9083-0.0486 0.0749-0.0842 0.1575-0.1051 0.2444-0.0256 0.0742-0.061 0.1447-0.1051 0.2096-0.1416 0.213-0.2696 0.4346-0.3835 0.6636-0.1012 0.2468-0.2302 0.4812-0.3846 0.6986-0.142 0.213-0.2704 0.4347-0.3847 0.6637-0.0971 0.242-0.2138 0.4756-0.3488 0.6986-0.4159 0.6688-0.8005 1.3564-1.1528 2.0608-0.3518 0.6801-0.7126 1.3554-1.0823 2.0259-0.0625 0.0578-0.1104 0.1296-0.1398 0.2095-0.0033 0.0401-0.0139 0.0791-0.0311 0.1154-0.0185 0.0358-0.0436 0.0678-0.074 0.0943-0.1652 0.2597-0.3165 0.5278-0.4539 0.8033-0.1217 0.2656-0.2618 0.5223-0.4193 0.7684-0.0879 0.1545-0.1812 0.306-0.2795 0.454-0.0862 0.132-0.1921 0.2498-0.3142 0.3493-0.1157 0.0826-0.2464 0.1419-0.3847 0.1747-0.1536 0.0054-0.3061 0.0289-0.4539 0.0699h-0.8028c-0.1629 0-0.3615 0.0116-0.5937 0.035h-0.6642c-0.1984 6e-4 -0.3967-0.0111-0.5937-0.035-0.1396-5e-3 -0.2741-0.0538-0.3843-0.1397-0.1429-0.0914-0.253-0.226-0.3143-0.3843-0.03-0.19-0.0767-0.377-0.1397-0.5588-0.0464-0.2779-0.0813-0.5576-0.1048-0.8384-0.022-0.2944-0.0687-0.5865-0.1398-0.8731l-0.0349-0.3144c-0.071-0.2866-0.1177-0.5788-0.1397-0.8732-0.0202-0.3062-0.067-0.6101-0.1398-0.9082v-0.1746c-2e-4 -0.0713-0.0119-0.1421-0.0349-0.2095-0.0711-0.2154-0.1179-0.438-0.1397-0.6638-0.0235-0.2344-0.0585-0.4675-0.1047-0.6985v-0.1747c2e-3 -0.0601-0.01-0.1199-0.035-0.1746-0.0462-0.2311-0.0812-0.4642-0.1048-0.6986-6e-4 -0.2368-0.0359-0.4721-0.1047-0.6986-0.0966-0.4864-0.1781-0.9756-0.2445-1.467-0.0454-0.5037-0.1153-1.005-0.2096-1.5019-0.0945-0.592-0.176-1.1859-0.2445-1.7814-0.044-0.5915-0.1494-1.1768-0.3144-1.7465-0.0332-0.276-0.1037-0.5463-0.2096-0.8033-0.0406-0.0422-0.0878-0.0776-0.1397-0.1048-0.0232-0.0465-0.0698-0.0465-0.1398 0-0.069 0.0346-0.1297 0.0837-0.1779 0.144-0.0483 0.0603-0.0828 0.1304-0.1014 0.2053-0.0248 0.1684-0.0718 0.3328-0.1397 0.4889-0.0926 0.1613-0.1519 0.3395-0.1747 0.524-0.0248 0.1744-0.0481 0.3491-0.0699 0.5239-0.0471 0.2586-0.1053 0.515-0.1746 0.7685-0.0471 0.2585-0.1054 0.5149-0.1747 0.7684l-1.8511 9.2911-0.3493 1.7116-0.1398 0.5588c-0.016 0.1708-0.0899 0.331-0.2095 0.4541-0.073 0.0893-0.1632 0.1632-0.2651 0.2172-0.102 0.054-0.2138 0.087-0.3287 0.0972-0.1706 0.0475-0.3469 0.0711-0.524 0.0699-0.1853-0.0233-0.372-0.035-0.5588-0.035h-2.5149c-0.1823-0.0114-0.3551-0.0854-0.489-0.2096-0.0616-0.0709-0.1062-0.155-0.1304-0.2458s-0.0274-0.1859-0.0094-0.2781l0.1398-0.7685 0.5937-3.0738 2.6197-12.994 0.978-4.8901c0.0234-0.13965 0.0466-0.30263 0.0699-0.48895 0.044-0.19854 0.0905-0.3965 0.1397-0.59382 0.0466-0.18632 0.0932-0.36096 0.1397-0.52395 0.0699-0.18631 0.1281-0.32596 0.1747-0.41918 0.168-0.17918 0.3878-0.30132 0.6287-0.34929 0.0699-0.02322 0.1164-0.02322 0.1398 0 0.0597-0.00243 0.1186-0.0142 0.1747-0.03488zm41.749 23.507c0 0.2577-0.024 0.5148-0.07 0.7683-0.019 0.1211-0.072 0.2345-0.152 0.3272-0.08 0.0926-0.185 0.1608-0.302 0.1968-0.166 0.0705-0.345 0.1061-0.525 0.1048h-3.073c-0.155-0.0098-0.303-0.0713-0.419-0.1747-0.137-0.0893-0.236-0.2261-0.279-0.3842-0.039-0.1709-0.123-0.328-0.245-0.454-0.049-0.0481-0.109-0.084-0.174-0.1048-0.035-0.0253-0.076-0.0418-0.1182-0.0478-0.0428-6e-3 -0.0864-0.0016-0.1271 0.0128-0.1342 0.044-0.2631 0.1026-0.3846 0.1746-0.1109 0.0675-0.2275 0.126-0.3488 0.1747-0.1435 0.0953-0.2955 0.1771-0.454 0.2445-0.1397 0.0699-0.2911 0.1398-0.4539 0.2096-0.3289 0.1406-0.6674 0.2573-1.013 0.3493-0.35 0.0698-0.6989 0.1514-1.0477 0.2445-0.1713 0.0446-0.3474 0.068-0.5244 0.0699-0.1398 0.0232-0.2911 0.0465-0.4539 0.0698h-0.2091c-0.0678 0.0229-0.1387 0.0347-0.2102 0.0349h-0.3847c-0.2302 0.0467-0.4674 0.0467-0.6977 0h-0.3141c-0.1592-0.0459-0.3241-0.0694-0.4898-0.0699-0.1405 0.0232-0.2845 0.0112-0.4193-0.0348l-0.6283-0.1398c-0.1964-0.019-0.3868-0.0785-0.5591-0.1746-0.5724-0.2198-1.0949-0.5524-1.5363-0.9781-0.4168-0.4608-0.6954-1.0297-0.8039-1.6416-0.0483-0.1717-0.0834-0.3468-0.1051-0.5239 0-0.1984-0.0116-0.3967-0.0347-0.5938-0.0231-0.1153-0.0231-0.234 0-0.3493 0.0453-0.111 0.0692-0.2295 0.0705-0.3493 0-0.0699 0.0116-0.2095 0.0347-0.4192 0.0268-0.168 0.0737-0.3321 0.1397-0.4889 0.0809-0.1905 0.1398-0.3899 0.1744-0.5939l0.3489-0.7683c0.1271-0.259 0.2795-0.5047 0.4551-0.7336 0.444-0.6123 1.0012-1.134 1.6413-1.5369 0.6814-0.3916 1.4089-0.6966 2.1658-0.9081 0.3165-0.1142 0.6446-0.1961 0.9772-0.2445 0.3269-0.0466 0.6642-0.1048 1.013-0.1747 0.1941-0.0475 0.3939-0.071 0.5937-0.0698 0.223-0.0218 0.4447-0.0568 0.6642-0.1048 0.1585-0.0463 0.3251-0.0582 0.4886-0.035 0.1883-0.0031 0.3758-0.0265 0.5591-0.0698 0.1594-0.0461 0.3234-0.0695 0.4886-0.0699 0.1778-0.0018 0.3534-0.0252 0.5244-0.0698 0.5128-0.1165 0.9787-0.2096 1.3977-0.2794 0.464-0.1041 0.895-0.3199 1.257-0.6288 0.225-0.1993 0.413-0.4355 0.559-0.6986 0.02-0.056 0.032-0.1149 0.034-0.1746 1e-3 -0.0488 0.013-0.0966 0.036-0.1398 0.025-0.0286 0.044-0.0618 0.056-0.0977s0.016-0.074 0.013-0.1118c0.017-0.072 0.04-0.1422 0.07-0.2095v-0.524c-0.035-0.3289-0.166-0.6403-0.377-0.8953-0.211-0.2549-0.493-0.4416-0.811-0.5367-0.237-0.0801-0.483-0.1271-0.733-0.1398-0.289-0.047-0.582-0.0587-0.8734-0.0349-0.3038 0-0.6075 0.0235-0.9079 0.0698-0.2486 0.0393-0.4938 0.0977-0.7334 0.1746-0.1618 0.0459-0.3142 0.1166-0.454 0.2097-0.1446 0.0728-0.2846 0.1545-0.4193 0.2444-0.1633 0.1132-0.3153 0.2419-0.4539 0.3843-0.1398 0.132-0.2576 0.2853-0.3489 0.454-0.1511 0.2138-0.2911 0.4353-0.4193 0.6636-0.0637 0.1079-0.1495 0.2011-0.2518 0.2736-0.1024 0.0721-0.2189 0.1217-0.3419 0.1456-0.1943 0.0475-0.3937 0.071-0.5937 0.0699h-1.9567c-0.1286 0.0011-0.2568 0.0127-0.3835 0.0349-0.0944 3e-3 -0.1887-0.0087-0.2795-0.0349h-0.3153c-0.0547-0.025-0.1144-0.037-0.1745-0.0349-0.0323 9e-4 -0.0646-0.0049-0.0947-0.0168-0.0298-0.0122-0.0569-0.0302-0.0797-0.0531-0.1628-0.0465-0.2564-0.1979-0.2795-0.454 7e-4 -0.1199 0.0247-0.2385 0.0705-0.3493 0.0462-0.1165 0.0924-0.2212 0.1397-0.3144 0.1155-0.2561 0.2322-0.489 0.3489-0.6986 0.1293-0.2166 0.2691-0.4265 0.4193-0.6287l0.559-0.6986c0.2518-0.2736 0.5337-0.5195 0.8374-0.7335 0.0936-0.0393 0.1773-0.0989 0.2449-0.1747 0.1186-0.0781 0.235-0.1596 0.3489-0.2445 0.1166-0.0699 0.2448-0.1396 0.3846-0.2095 0.4293-0.2502 0.8863-0.4495 1.3618-0.5938 0.4898-0.163 0.9784-0.3143 1.4681-0.4541 0.2981-0.0693 0.6018-0.116 0.9079-0.1398 0.3165-0.0254 0.6319-0.072 0.9426-0.1396 0.1386-0.0239 0.2807-0.0239 0.4193 0 0.1286 0.0304 0.2636 0.0181 0.385-0.035 0.897-0.0255 1.796 0.0095 2.689 0.1049 0.776 0.0731 1.54 0.2493 2.271 0.5239 0.619 0.2204 1.18 0.5787 1.641 1.0478 0.455 0.4427 0.76 1.0168 0.873 1.6417 0.071 0.4514 0.071 0.9109 0 1.3622-0.07 0.5123-0.163 1.0362-0.279 1.5718l-1.572 7.7892c-0.07 0.4425-0.152 0.8966-0.244 1.3623-0.09 0.4008-0.126 0.8121-0.105 1.2224-3e-3 0.0826-0.014 0.1646-0.035 0.2445v0.2097zm-4.052-5.3791c0.049-0.124 0.083-0.2527 0.105-0.3843 0.021-0.1387 0.032-0.2787 0.035-0.4191-1e-3 -0.1289 0.01-0.2576 0.034-0.3843 0.014-0.0516 0.011-0.1062-8e-3 -0.1561-0.019-0.0501-0.052-0.0931-0.097-0.1233-0.138-0.1078-0.313-0.1579-0.488-0.1396-0.083 0.0202-0.164 0.0434-0.245 0.0697-0.094 3e-3 -0.188 0.0147-0.28 0.035-0.171 0.0483-0.3462 0.0833-0.5229 0.1048-0.1994 0.0256-0.3976 0.0606-0.5937 0.1048-0.1024 0.0272-0.2083 0.0389-0.3142 0.0349-0.3111 0.0676-0.6264 0.1143-0.9437 0.1397-0.3082 0.0244-0.6127 0.083-0.9079 0.1747l-0.5591 0.1397c-0.1683 0.0248-0.3326 0.0717-0.4886 0.1397-0.5379 0.2111-1.0258 0.5323-1.4323 0.9431-0.4447 0.4765-0.7046 1.0956-0.7334 1.7465-0.0361 0.3399 0.0372 0.6825 0.209 0.978 0.1121 0.2766 0.3246 0.5011 0.5937 0.6287 0.3235 0.1461 0.6642 0.2517 1.0131 0.3143 0.3915 0.071 0.7912 0.0945 1.1874 0.0699 0.4258-0.0433 0.8468-0.1251 1.2579-0.2445 0.5983-0.1569 1.1496-0.4565 1.6067-0.8732 0.46-0.4428 0.839-0.9631 1.118-1.5369 0.069-0.1591 0.127-0.3225 0.175-0.489 0.049-0.1934 0.118-0.3808 0.209-0.5589l0.07-0.3143zm44.561-2.4101c-7e-3 0.2165-0.055 0.4297-0.14 0.6287-0.058 0.1887-0.182 0.35-0.35 0.4541-0.156 0.1096-0.335 0.1813-0.523 0.2095-0.234 0.0234-0.49 0.0466-0.768 0.0699h-0.804c-0.257-0.0233-0.489-0.0349-0.699-0.0349h-9.012c-0.131-0.0015-0.261 0.0222-0.384 0.0698-0.16 0.0584-0.303 0.1542-0.419 0.2794-0.077 0.0873-0.148 0.1808-0.21 0.2795-0.066 0.1048-0.102 0.2256-0.104 0.3493 0.023 0.1387 0.023 0.2804 0 0.4191 1e-3 0.1289 0.013 0.2573 0.035 0.3843 0.048 0.484 0.179 0.9563 0.384 1.3971 0.234 0.3744 0.543 0.6957 0.908 0.9431 0.157 0.1139 0.335 0.1969 0.523 0.2445 0.204 0.0217 0.404 0.0686 0.595 0.1397 0.241 0.0547 0.487 0.0897 0.734 0.1048 0.291 0.0248 0.584 0.0131 0.873-0.035h0.314c0.232-0.0465 0.454-0.0931 0.663-0.1396l0.63-0.2097c0.255-0.1164 0.546-0.2677 0.873-0.454 0.278-0.152 0.537-0.3398 0.768-0.5588 0.14-0.1628 0.291-0.3147 0.454-0.4541 0.148-0.1528 0.326-0.2719 0.524-0.3493 0.286-0.1214 0.599-0.1693 0.908-0.1398h1.433c0.14-0.0253 0.284-0.0132 0.418 0.035h0.35c0.161 0.0273 0.315 0.0867 0.454 0.1747 0.069 0.0465 0.093 0.1513 0.069 0.3143 5e-3 0.1466-0.031 0.2917-0.104 0.4192-0.173 0.307-0.372 0.5991-0.594 0.8732-0.196 0.2674-0.405 0.5238-0.629 0.7684-0.599 0.7217-1.306 1.3462-2.096 1.8512-0.842 0.5089-1.745 0.908-2.689 1.1877-0.26 0.0889-0.53 0.1475-0.803 0.1746-0.283 0.0277-0.563 0.0743-0.839 0.1396-0.104 0.0235-0.211 0.0235-0.314 0-0.095 3e-4 -0.188 0.012-0.28 0.035h-0.383c-0.135 0.0461-0.279 0.0581-0.42 0.0349-0.129 0.0011-0.257-0.0106-0.384-0.0349-0.162-0.0234-0.327-0.0234-0.489 0-0.152 0.0225-0.307 0.0105-0.454-0.035-0.122-0.0476-0.253-0.0713-0.384-0.0697-0.121 0.0041-0.24-0.0198-0.349-0.0699-0.259-0.0471-0.516-0.1054-0.77-0.1746-0.222-0.0428-0.435-0.1257-0.628-0.2446-0.219-0.088-0.44-0.1695-0.664-0.2445-0.196-0.0856-0.383-0.1909-0.558-0.3143-0.636-0.4496-1.201-0.991-1.677-1.6067-0.455-0.6564-0.787-1.3903-0.978-2.1657-0.069-0.2517-0.116-0.5088-0.14-0.7685 0-0.2826-0.035-0.5641-0.104-0.8382v-0.2445c0.023-0.0914 0.034-0.1852 0.034-0.2794-0.023-0.3023-0.023-0.6059 0-0.9082l0.14-0.978c0.024-0.1267 0.036-0.2554 0.035-0.3843 0.021-0.1314 0.056-0.2602 0.105-0.3842l0.105-0.4191 0.28-0.8383c0.162-0.3958 0.314-0.7801 0.454-1.1526 0.136-0.367 0.311-0.7183 0.523-1.0479 1.411-2.3557 3.578-4.1652 6.147-5.1346 0.337-0.1363 0.689-0.2302 1.049-0.2794 0.349-0.0699 0.722-0.1514 1.117-0.2445 0.174-0.0225 0.349-0.0342 0.524-0.035 0.175-7e-4 0.35-0.0124 0.524-0.0349 1.007-0.0502 2.015 0.0921 2.969 0.4192 0.745 0.2539 1.442 0.6318 2.061 1.1176 0.191 0.1444 0.366 0.3083 0.523 0.4891 0.177 0.1514 0.331 0.3279 0.455 0.5239 0.048 0.1179 0.134 0.2162 0.244 0.2795 0.141 0.2568 0.258 0.5257 0.35 0.8033 0.116 0.2562 0.244 0.524 0.384 0.8034 0.071 0.2154 0.117 0.438 0.139 0.6637 0.048 0.2095 0.094 0.4424 0.14 0.6986 0.047 0.3121 0.07 0.6273 0.07 0.943l0.07 0.978c-4e-3 0.2136-0.04 0.4254-0.105 0.6287-0.045 0.1946-0.057 0.3953-0.035 0.5938l-0.069 0.3843zm-4.856-2.0609c0.102-0.1109 0.175-0.2458 0.212-0.3924 0.037-0.1465 0.036-0.2997-2e-3 -0.4458-0.046-0.3493-0.082-0.6055-0.105-0.7685-0.171-0.5757-0.527-1.0791-1.013-1.4321-0.466-0.3493-1.176-0.5356-2.13-0.5588-0.036 0.0233-0.076 0.0384-0.119 0.0445-0.042 6e-3 -0.085 0.0027-0.126-0.0096-0.08-0.0235-0.165-0.0235-0.245 0-0.136 0.0458-0.276 0.0808-0.419 0.1048-0.131-0.0015-0.261 0.0222-0.384 0.0698-1.079 0.3152-2.017 0.9939-2.654 1.9212-0.09 0.1228-0.171 0.2511-0.245 0.3841-0.093 0.1395-0.164 0.2927-0.21 0.4541-0.046 0.1351-0.069 0.2766-0.069 0.4192 0 0.0678 0.015 0.1349 0.045 0.1955 0.03 0.0605 0.075 0.1131 0.129 0.1538 0.221 0.1315 0.477 0.1924 0.733 0.1746h5.834c0.143 0.0064 0.286-0.0184 0.419-0.0726 0.132-0.0541 0.252-0.1367 0.349-0.2418zm19.918-7.2303c1.396-0.0466 2.515 0.1514 3.353 0.5938 0.827 0.4048 1.474 1.1018 1.816 1.956 0.119 0.265 0.189 0.5487 0.21 0.8383 0.046 0.2795 0.081 0.5706 0.104 0.8732 0.023 0.174 0.023 0.3501 0 0.5239-0.023 0.1622-0.023 0.3269 0 0.4891-0.042 0.0868-0.054 0.185-0.035 0.2794-0.025 0.3403-0.071 0.6786-0.139 1.0129-0.07 0.3493-0.14 0.6871-0.209 1.013l-0.594 3.1087-1.153 5.6585c-0.093 0.4424-0.187 0.8732-0.279 1.2924-0.031 0.1764-0.108 0.3412-0.225 0.4766-0.118 0.1355-0.269 0.2363-0.44 0.2918-0.158 0.0493-0.323 0.0729-0.488 0.0699h-2.445c-0.245 0.0017-0.49-0.01-0.734-0.0349-0.094-0.0162-0.183-0.0528-0.261-0.1072-0.079-0.0543-0.144-0.125-0.193-0.2072-0.074-0.1642-0.098-0.3462-0.07-0.524 0.047-0.2328 0.093-0.4774 0.139-0.7335l0.49-2.445 1.048-5.2045c0.163-0.8616 0.279-1.6532 0.349-2.3751 0.108-0.639 0.023-1.2957-0.244-1.8862-0.126-0.2385-0.299-0.4485-0.509-0.617-0.211-0.1685-0.454-0.2915-0.714-0.361-0.122-0.0476-0.253-0.0713-0.384-0.0699-0.12-6e-4 -0.239-0.0243-0.35-0.0698-0.15-0.0236-0.303-0.0236-0.454 0-0.128-0.0034-0.257 0.0083-0.383 0.0349-0.093 0.0204-0.186 0.0321-0.28 0.0349-0.071 3e-4 -0.142 0.0121-0.21 0.035-0.492 0.1124-0.963 0.301-1.396 0.5588-0.865 0.5392-1.509 1.369-1.817 2.3403-0.355 1.1358-0.646 2.2902-0.874 3.458l-0.873 4.3661-0.419 2.1307c-0.046 0.2095-0.093 0.4191-0.14 0.6287-0.037 0.186-0.107 0.3637-0.209 0.5239-0.07 0.12-0.167 0.2228-0.282 0.301-0.114 0.0786-0.245 0.1309-0.382 0.1531-0.312 0.0509-0.627 0.0742-0.943 0.0699h-1.746c-0.257 0-0.513-0.0117-0.768-0.0349-0.096 0.0048-0.191-0.0151-0.277-0.0579-0.086-0.0429-0.159-0.1072-0.213-0.1867-0.073-0.1386-0.117-0.2907-0.128-0.4469-0.013-0.1561 7e-3 -0.3131 0.059-0.4612 0.092-0.3959 0.174-0.7685 0.243-1.1178l0.944-4.7503 1.536-7.6844 0.385-1.7814c0.046-0.2561 0.094-0.489 0.14-0.6986 0.044-0.2046 0.154-0.3888 0.314-0.5239 0.03-0.0382 0.067-0.0703 0.108-0.0945 0.042-0.0242 0.089-0.0395 0.137-0.0452 0.113-0.0455 0.23-0.0806 0.349-0.1048h0.175c0.115-0.0232 0.231-0.0348 0.349-0.035h1.852c0.175-6e-4 0.35 0.011 0.523 0.035 0.166-0.0031 0.331 0.0206 0.49 0.0698 0.063 0.028 0.119 0.0713 0.161 0.1261 0.043 0.055 0.071 0.1197 0.082 0.1883 0.05 0.1583 0.073 0.3233 0.071 0.4891 1e-3 0.0829-0.011 0.1654-0.036 0.2444-0.023 0.068-0.023 0.1417 0 0.2096 8e-3 0.0741 0.032 0.1456 0.07 0.2096 0.061 0.0314 0.119 0.0664 0.175 0.1047 0.121 0.0092 0.244-0.0078 0.358-0.05 0.115-0.0419 0.219-0.1082 0.306-0.1945 0.186-0.1913 0.397-0.3559 0.628-0.4889 0.721-0.465 1.495-0.8404 2.306-1.1178 0.216-0.0664 0.439-0.1132 0.663-0.1397 0.233-0.0233 0.49-0.0582 0.769-0.1047 0.104-0.024 0.211-0.024 0.314 0 0.095 0.0067 0.19-0.0052 0.28-0.035zm8.648-0.0275c0.015 0.0162 0.024 0.0351 0.031 0.0557 6e-3 0.0205 7e-3 0.0419 5e-3 0.063 0 0.0578-0.012 0.1151-0.036 0.1678l-7e-3 0.0559c-0.015 0.0377-0.036 0.073-0.062 0.1047-0.025 0.0271-0.056 0.0466-0.091 0.0559-0.058 0.0107-0.116 0.0154-0.175 0.014-0.063-0.0043-0.125-0.0066-0.188-7e-3h-0.105c-0.02 0.0089-0.042 0.0114-0.063 7e-3 -0.019-0.0047-0.039-0.0022-0.056 0.0069-0.059 0.0265-0.107 0.0737-0.133 0.1328-0.015 0.0259-0.024 0.0544-0.028 0.0838l-0.014 0.0978-0.335 1.6487c-4e-3 0.0206-7e-3 0.0417-7e-3 0.0628 0 0.0195-4e-3 0.0387-0.013 0.0559l-0.014 0.0559-0.014 0.042c-1e-3 7e-3 -2e-3 0.0141-7e-3 0.0202-3e-3 0.0063-9e-3 0.0114-0.015 0.0147-9e-3 0.0184-0.021 0.0347-0.037 0.0478s-0.034 0.0229-0.053 0.029c-0.027 0.0099-0.056 0.0147-0.085 0.0139h-0.314c-0.029 0.0038-0.059 7e-4 -0.086-9e-3 -0.028-0.0098-0.054-0.0258-0.074-0.0469-0.015-0.0304-0.019-0.0645-0.014-0.0977 9e-3 -0.0373 0.018-0.0792 0.028-0.1258l0.328-1.6486 0.013-0.0699c0.01-0.0196 0.012-0.0417 7e-3 -0.0628l0.015-0.0979c5e-3 -0.0745-0.019-0.121-0.07-0.1396-0.059-0.0262-0.124-0.0359-0.188-0.028-0.08 0.0046-0.149 7e-3 -0.211 7e-3 -0.023 0-0.046 0.0024-0.069 7e-3 -0.016 4e-4 -0.033-2e-3 -0.048-7e-3 -8e-3 -0.0044-0.016-0.0073-0.024-0.0085-9e-3 -0.0012-0.018-6e-4 -0.026 0.0015-0.014-1e-4 -0.028-0.0025-0.042-7e-3 -0.021-0.0089-0.039-0.0248-0.05-0.0452-0.011-0.0203-0.016-0.0436-0.013-0.0665 7e-3 -0.061 0.016-0.1216 0.029-0.1817 4e-3 -0.028 9e-3 -0.0536 0.014-0.0768 9e-3 -0.0244 0.021-0.0478 0.034-0.0699 0.013-0.0219 0.032-0.0391 0.056-0.0489 0.022-0.0133 0.046-0.025 0.07-0.035 0.014-0.0046 0.023-0.0046 0.028 0 0.012-4e-4 0.023-0.0027 0.035-0.0069h1.865c0.04-1e-4 0.079 0.0022 0.119 0.0069 0.032-0.0014 0.064 0.0084 0.09 0.028zm3.717 0.014c0.019 0.034 0.024 0.0741 0.014 0.1118-5e-3 0.0419-0.012 0.0885-0.021 0.1396l-0.454 2.2705c-8e-3 0.0472-0.02 0.0939-0.034 0.1397-9e-3 0.036-0.026 0.0694-0.05 0.0977-0.02 0.0201-0.044 0.0355-0.071 0.0451-0.026 0.0096-0.055 0.0133-0.083 0.0108h-0.195c-0.03 3e-4 -0.061 0.0026-0.091 0.0071-0.024 8e-4 -0.048-4e-3 -0.069-0.014-0.017-0.0035-0.033-0.0111-0.047-0.0222-0.013-0.0108-0.024-0.0248-0.031-0.0407-4e-3 -0.0348-7e-3 -0.0698-7e-3 -0.1048l0.021-0.1187c1e-3 -0.0165 3e-3 -0.0328 7e-3 -0.0489 5e-3 -0.0233 9e-3 -0.0442 0.014-0.0628l0.182-0.8873 0.028-0.1677c0.013-0.0502 0.02-0.1018 0.021-0.1536-5e-3 -0.0183-7e-3 -0.0371-7e-3 -0.0559 0-0.0082-1e-3 -0.0163-5e-3 -0.0238-3e-3 -0.0074-9e-3 -0.0137-0.016-0.0181-3e-3 -0.0024-7e-3 -0.0043-0.01-0.0057-4e-3 -0.0011-7e-3 -0.0016-0.011-0.0014-0.016 0.0104-0.032 0.0197-0.049 0.028-0.048 0.0587-0.09 0.1219-0.126 0.1886-0.037 0.0691-0.076 0.1367-0.118 0.2026-0.084 0.1444-0.165 0.2911-0.245 0.4401-0.08 0.1444-0.161 0.2864-0.245 0.4262-0.041 0.0734-0.08 0.1479-0.118 0.2235-0.034 0.0692-0.084 0.1292-0.146 0.1747-0.03 0.019-0.064 0.0309-0.099 0.0348h-0.224c-0.02-0.0083-0.041-0.0153-0.062-0.0209-0.018-0.0087-0.035-0.0205-0.049-0.035-0.015-0.0152-0.025-0.0346-0.028-0.0558l-0.014-0.0698c-0.014-0.0408-0.023-0.083-0.028-0.1258-5e-3 -0.0469-0.012-0.0935-0.021-0.1397-0.028-0.1366-0.051-0.2741-0.07-0.4122-0.018-0.1405-0.041-0.2803-0.07-0.4191l-0.041-0.2376c-7e-3 -0.0733-0.034-0.1433-0.078-0.2026-3e-3 -1e-4 -7e-3 3e-4 -0.011 0.0014s-7e-3 0.0031-9e-3 0.0057h-0.014c-0.022 0.0161-0.038 0.0379-0.049 0.0628-0.013 0.0215-0.023 0.0451-0.029 0.0699 0 0.0217-4e-3 0.0431-0.013 0.0628l-0.021 0.1188c-9e-3 0.0177-0.016 0.0365-0.021 0.0559-5e-3 0.0159-7e-3 0.0324-7e-3 0.0489l-0.167 0.8103c-0.012 0.0749-0.026 0.1495-0.042 0.2237-7e-3 0.0645-0.029 0.1266-0.064 0.1815-0.014 0.0103-0.028 0.022-0.041 0.0349-0.01 0.0095-0.022 0.0166-0.035 0.021-0.027 0.0103-0.055 0.0173-0.084 0.0209h-0.28c-0.05 0.0033-0.099-0.0116-0.139-0.0419-0.013-0.0112-0.022-0.0254-0.028-0.0412-6e-3 -0.0159-8e-3 -0.0328-7e-3 -0.0496 5e-3 -0.0419 0.012-0.0885 0.021-0.1396l0.461-2.3053c9e-3 -0.042 0.018-0.0816 0.027-0.1189 0.011-0.0352 0.028-0.0683 0.05-0.0977 0.013-0.0177 0.03-0.0322 0.05-0.0426 0.019-0.0108 0.039-0.0177 0.061-0.0204 0.015-0.0046 0.024-0.0046 0.029 0 0.012-5e-4 0.023-0.0028 0.034-0.0069h0.608c0.019-0.0015 0.038 9e-4 0.055 0.0068 0.019 6e-3 0.035 0.0156 0.05 0.0281 0.02 0.0162 0.035 0.0364 0.046 0.0594s0.016 0.048 0.016 0.0733c0.01 0.0566 0.021 0.1125 0.035 0.1677 0.024 0.1304 0.048 0.2632 0.071 0.3982 0.023 0.1304 0.046 0.2631 0.069 0.3981 0.02 0.0712 0.033 0.1436 0.043 0.2166 0.014 0.0745 0.027 0.1467 0.041 0.2166 9e-3 0.0297 0.016 0.06 0.021 0.0908 5e-3 0.0133 0.012 0.0252 0.021 0.035 0.01 0.0097 0.022 0.0169 0.036 0.0209 0.01 0.0047 0.022 0.0058 0.033 0.0033s0.021-0.0086 0.029-0.0173c0.018-0.0138 0.035-0.0303 0.049-0.0488 0.044-0.0481 0.082-0.1022 0.112-0.1607 0.031-0.059 0.064-0.1173 0.098-0.1747 0.096-0.1526 0.187-0.3087 0.272-0.468 0.088-0.163 0.182-0.3213 0.279-0.4751 0.038-0.0651 0.075-0.1327 0.112-0.2026 0.036-0.0689 0.095-0.1232 0.167-0.1536 0.032-0.0093 0.065-0.014 0.098-0.014h0.504c0.025-0.0047 0.051-0.0047 0.076 0h0.035c0.018 9e-3 0.037 0.016 0.057 0.0209 0.023 0.0047 0.036 0.014 0.041 0.028z" fill="var(--sl-color-white, #17181C)"/>
  <path id="path15" d="m127.03 11.944c-0.761 0.4182-1.46 0.9423-2.075 1.5567l0.513 1.4438c0.557-0.6013 1.157-1.1621 1.795-1.6783 0.042-0.0363 0.069-0.056 0.069-0.056-0.022 0.0204-0.047 0.0355-0.069 0.056-0.614 0.5276-1.184 1.1027-1.708 1.7198 0.935 0.0695 1.873 0.0901 2.81 0.0617 0.496-1.4805 0.061-2.2549 0.061-2.2549s-0.523-1.2086-1.396-0.8488zm-2.327 7.4633c3e-3 7e-4 5e-3 8e-4 8e-3 3e-4s5e-3 -0.0015 7e-3 -3e-3l-0.103-0.0056c-6e-3 0.0039-0.015 0.0026-0.021 0.0065 0.039 9e-4 0.077 0.0017 0.109 0.0018zm-1.711 3.4333c-0.096 5e-3 -0.19 0.0052-0.285 0.0056 0.047 0.0022 0.099 3e-4 0.147-0.0021 0.046 0.0015 0.092 3e-4 0.138-0.0035z" fill="#DF5A2C"/>
  <path id="path16" d="m122.99 22.839c-0.096 0.0049-0.19 0.0052-0.285 0.0055 0.047 0.0022 0.099 4e-4 0.147-0.0021 0.046 0.0015 0.092 4e-4 0.138-0.0034z" fill="#DF5A2C" opacity=".35"/>
  <path id="path17" d="m123.41 21.7c0.014 0.0021 0.029-5e-4 0.043 0.0015 0.061-4e-4 0.123-8e-4 0.181-0.0066-0.071 0.0037-0.148 0.0021-0.224 0.0051z" fill="#DF5A2C"/>
  <path id="path18" d="m123.41 21.7c0.014 0.0021 0.029-5e-4 0.043 0.0015 0.061-4e-4 0.123-8e-4 0.181-0.0066-0.071 0.0037-0.148 0.0021-0.224 0.0051z" fill="#DF5A2C" opacity=".35"/>
  <path id="path19" d="m122.86 18.094c0.277-0.3713 0.553-0.7333 0.827-1.0862 0.287-0.3654 0.574-0.7162 0.865-1.0569 0.018-0.0211 0.035-0.0423 0.052-0.0588 0.286-0.3322 0.569-0.6505 0.855-0.9543l-0.513-1.4393c-0.061 0.0575-0.126 0.1142-0.192 0.1756-0.255 0.2382-0.507 0.4807-0.755 0.7274-0.295 0.293-0.596 0.6041-0.909 0.9322-0.286 0.3037-0.58 0.6253-0.874 0.9562-0.251 0.2853-0.502 0.5752-0.754 0.8745-0.011 0.0125-0.017 0.0212-0.028 0.0336l0.655 1.9574c0.261-0.3549 0.516-0.7105 0.771-1.0614zm-5.713 9.6611c-0.169 0.3162-0.344 0.6409-0.516 0.9755-1e-3 0.0046-7e-3 0.0085-7e-3 0.0132-0.027 0.0482-0.052 0.0919-0.073 0.1409-0.119 0.2242-0.219 0.4272-0.457 0.8849 0.279 0.2435 0.479 0.5647 0.575 0.9225 0.037-0.3944-0.082-0.7878-0.332-1.0952 1.331 0.2568 2.54 0.0885 3.277-0.8073 0.067-0.0828 0.13-0.1684 0.19-0.2564-0.324 0.303-0.679 0.4023-1.309 0.272 0.793-0.1682 1.508-0.5967 2.03-1.2174 0.129-0.1536 0.252-0.3125 0.368-0.4765-0.397 0.326-0.873 0.5428-1.379 0.6289-0.507 0.0859-1.028 0.0381-1.511-0.1388l-0.758-0.0261-0.098 0.1798z" fill="#DF5A2C"/>
  <path id="path20" d="m117.76 26.133c0.223-0.3934 0.451-0.7907 0.681-1.1927 0.222-0.3842 0.45-0.7677 0.682-1.1551s0.468-0.7742 0.704-1.161c0.244-0.3954 0.49-0.7853 0.742-1.1747 0.246-0.3854 0.501-0.7694 0.751-1.1495 0.091-0.1382 0.181-0.2717 0.278-0.4092 0.157-0.2326 0.319-0.4645 0.481-0.6966 7e-3 -0.0131 0.018-0.0257 0.024-0.0389l-0.646-1.9514c-0.018 0.0236-0.037 0.0461-0.058 0.0675-0.264 0.321-0.534 0.646-0.798 0.9815-0.266 0.3396-0.531 0.6845-0.791 1.0394-0.219 0.2994-0.433 0.5995-0.649 0.9041-0.042 0.0601-0.084 0.1249-0.126 0.185-0.26 0.3834-0.505 0.7595-0.724 1.1206-0.249 0.4085-0.473 0.8019-0.674 1.1749-0.131 0.246-0.256 0.4834-0.37 0.7129-0.095 0.1944-0.185 0.3942-0.275 0.5893-0.211 0.4618-0.398 0.927-0.565 1.3948l0.658 1.9672c0.169-0.3114 0.347-0.6215 0.522-0.9416 0.051-0.0872 0.101-0.1745 0.153-0.2665z" fill="#DF5A2C"/>
  <path id="path21" d="m116.4 25.437c-0.202 0.5613-0.368 1.1348-0.499 1.717-2e-3 0.0185-0.01 0.041-0.012 0.0596-0.239-0.4123-0.554-0.7752-0.929-1.0691 0.439 0.8883 0.744 1.7476 0.688 2.5399-0.406-0.0241-0.8-0.1519-1.143-0.3714 0.235 0.3242 0.55 0.5838 0.912 0.7542-0.533 0.0234-1.05 0.1935-1.493 0.4913 0.547-0.1834 1.136-0.2039 1.695-0.0591-0.898 1.7008-1.825 3.5919-2.768 5.6034 0.091-0.0122 0.179-0.047 0.254-0.1012 0.074-0.0544 0.134-0.1265 0.174-0.2099 0.168-0.3638 1.29-2.7563 2.95-5.8705 0.046-0.0879 0.097-0.1753 0.143-0.2679 0.014-0.0265 0.027-0.0482 0.04-0.0746 0.175-0.3248 0.358-0.6581 0.545-1 0.045-0.0786 0.084-0.1534 0.128-0.232l1e-3 -0.0047-0.658-1.9673c-0.012 0.0197-0.021 0.0406-0.028 0.0623zm5.83-6.1016c-0.036 0.0515-0.067 0.0991-0.103 0.1507-0.103 0.1554-0.211 0.3099-0.315 0.4699-0.116 0.1726-0.231 0.3498-0.353 0.5308-0.061 0.0905-0.121 0.1811-0.182 0.2763-0.184 0.2809-0.369 0.5711-0.559 0.87-0.241 0.381-0.479 0.7644-0.713 1.1502-0.231 0.3782-0.469 0.7742-0.709 1.1796-0.226 0.3881-0.461 0.7847-0.697 1.2-0.21 0.3669-0.422 0.7479-0.639 1.1374-0.013 0.0171-0.021 0.0396-0.033 0.0568-0.212 0.3855-0.432 0.7843-0.654 1.1923-6e-3 0.0079-0.01 0.0168-0.012 0.0264l0.759 0.0261c-0.014-0.0067-0.028-0.0087-0.045-0.016 1.126-0.0614 2.205-0.4765 3.081-1.1864 0.435-0.3557 0.826-0.7607 1.167-1.2069 0.298-0.386 0.571-0.7905 0.817-1.2109 0.249-0.4206 0.481-0.851 0.696-1.2902-0.238 0.0789-0.485 0.1254-0.736 0.1383l-0.143 0.0074c-0.047 0.0025-0.095 4e-4 -0.147 0.0021 0.825-0.2035 1.538-0.7207 1.987-1.4416-0.334 0.1616-0.695 0.261-1.065 0.2935-0.058 0.0056-0.12 0.0061-0.181 0.0065-0.014-2e-3 -0.029 6e-4 -0.048-0.0021 0.282-0.0679 0.554-0.1712 0.808-0.3078 0.051-0.0263 0.099-0.0555 0.145-0.0875 0.074-0.0461 0.142-0.0976 0.212-0.149 0.044-0.0363 0.085-0.0679 0.129-0.1042 0.101-0.0873 0.194-0.183 0.279-0.2859 0.028-0.0337 0.056-0.0627 0.08-0.0971 0.036-0.0515 0.072-0.0984 0.102-0.146 0.15-0.2149 0.274-0.4099 0.374-0.5844 0.051-0.0873 0.096-0.166 0.135-0.2407 0.014-0.0311 0.033-0.0568 0.047-0.0879 0.04-0.0841 0.079-0.1588 0.108-0.2256 0.035-0.0776 0.066-0.1569 0.093-0.2376-0.034 0.0211-0.07 0.0382-0.108 0.0507-0.348 0.1217-0.712 0.1896-1.081 0.2013-2e-3 -6e-4 -5e-3 -8e-4 -7e-3 -3e-4s-5e-3 0.0014-7e-3 0.0029c-0.036-1e-3 -0.073 0-0.11 0.0029 6e-3 -4e-3 0.015-0.0026 0.02-0.0066l-2.383-0.0892c2e-3 0.0193-4e-3 0.0278-9e-3 0.0318z" fill="#DF5A2C"/>
  <path id="path22" d="m125.57 14.984c-0.255 0.2893-0.536 0.6222-0.842 0.9942-0.017 0.0187-0.032 0.0386-0.046 0.0594-0.266 0.3257-0.546 0.6825-0.845 1.0789-0.277 0.3635-0.549 0.731-0.815 1.1022-0.25 0.3423-0.503 0.7078-0.772 1.0944l2.383 0.0893c0.547-0.1287 1.045-0.4145 1.432-0.8223 0.096-0.0997 0.192-0.2086 0.289-0.3223 0.306-0.3518 0.594-0.719 0.863-1.1 0.247-0.3439 0.477-0.7008 0.687-1.0689 0.11-0.1917 0.209-0.3888 0.299-0.5906 0.066-0.1561 0.122-0.3043 0.17-0.4486-0.934 0.0252-1.87 0.0033-2.803-0.0657zm-2.702 7.8628c-0.047 0.0026-0.095 4e-4 -0.147 0.0021 0.049-0.0033 0.097-4e-3 0.147-0.0021z" fill="#DF5A2C"/>
  <path id="path23" d="m122.85 22.849c-0.048 0.0026-0.095 4e-4 -0.147 0.0021 0.049-0.0033 0.097-4e-3 0.147-0.0021z" fill="#DF5A2C" opacity=".35"/>
  <path id="path24" d="m122.85 22.846c-0.048 0.0026-0.095 4e-4 -0.147 0.0021 0.049-0.0033 0.097-4e-3 0.147-0.0021zm0.547-1.1464c0.014 2e-3 0.028-6e-4 0.046 0.0021-0.013-2e-3 -0.027 6e-4 -0.046-0.0021z" fill="#DF5A2C"/>
  <path id="path25" d="m123.4 21.699c0.014 2e-3 0.028-6e-4 0.047 0.0021-0.014-2e-3 -0.028 6e-4 -0.047-0.0021z" fill="#DF5A2C" opacity=".35"/>
  <path id="path26" d="m123.4 21.699c0.014 2e-3 0.028-6e-4 0.047 0.0021-0.014-2e-3 -0.028 6e-4 -0.047-0.0021z" fill="#DF5A2C"/>
 </g>
 <defs id="defs26">
  <clipPath id="clip0_1002_115182">
   <rect id="rect26" width="174" height="36" fill="#fff"/>
  </clipPath>
 </defs>
</svg>
