<svg width="36" height="36" viewBox="0 0 36 36" fill="none" xmlns="http://www.w3.org/2000/svg">
<g clip-path="url(#clip0_902_92826)">
<path d="M17.002 0.00014341C13.8112 0.00014341 10.8241 0.890613 8.27053 2.42304C7.54239 1.83103 6.62743 1.50149 5.67543 1.50125C3.40803 1.50133 1.54864 3.36065 1.54874 5.62795V5.62914C1.54985 6.5758 1.87799 7.48354 2.46036 8.20844C0.905064 10.7756 0.000563796 13.7852 0.000563796 17.0015C-0.0010515 17.132 0.0232618 17.2616 0.0720938 17.3826C0.120926 17.5037 0.193304 17.6139 0.285034 17.7067C0.376763 17.7996 0.486014 17.8733 0.606464 17.9237C0.726904 17.974 0.856144 17.9999 0.986674 17.9999C1.1172 17.9999 1.24644 17.974 1.36688 17.9237C1.48732 17.8733 1.59658 17.7996 1.68831 17.7067C1.78003 17.6139 1.85241 17.5037 1.90125 17.3826C1.95008 17.2616 1.97439 17.132 1.97278 17.0015C1.97278 14.2225 2.7287 11.6298 4.04038 9.39944C4.55409 9.6227 5.10608 9.75377 5.67378 9.75464H5.67518C7.94268 9.75471 9.80198 7.89534 9.80188 5.62794C9.8017 5.06551 9.67378 4.51789 9.45507 4.00789C11.6732 2.71599 14.246 1.97229 17.0022 1.97229C17.1327 1.9739 17.2622 1.9496 17.3833 1.90076C17.5044 1.85193 17.6145 1.77955 17.7074 1.68782C17.8002 1.59609 17.874 1.48684 17.9243 1.3664C17.9746 1.24595 18.0006 1.11672 18.0006 0.986193C18.0006 0.855663 17.9746 0.726423 17.9243 0.605973C17.874 0.485533 17.8002 0.376273 17.7074 0.284543C17.6145 0.192814 17.5044 0.120433 17.3833 0.0716034C17.2622 0.0227704 17.1325 -0.00147059 17.002 0.00014341ZM5.67503 3.47354C6.34023 3.47376 6.93403 3.75615 7.34413 4.26968C7.35085 4.27784 7.35769 4.28588 7.36467 4.29382C7.66521 4.67405 7.82959 5.14354 7.82975 5.62842C7.82959 6.82952 6.87711 7.78212 5.67605 7.78252C5.18443 7.78162 4.70843 7.61278 4.32605 7.30387C4.32558 7.30353 4.32512 7.30319 4.32465 7.30286C3.81682 6.89413 3.52188 6.27936 3.52093 5.62736C3.52121 4.42616 4.47381 3.47364 5.67503 3.47354Z" fill="#78B4F5"/>
<path fill-rule="evenodd" clip-rule="evenodd" d="M7.53235 11.568C7.36451 11.7433 7.26615 11.9854 7.27837 12.251C7.28919 12.4811 7.38111 12.7033 7.54131 12.8718C8.30688 13.6431 9.81641 15.1469 9.81641 15.1469L11.1489 13.816C11.1489 13.816 9.68941 12.3579 8.87911 11.5469C8.69866 11.3632 8.45726 11.2865 8.20276 11.2854C7.93745 11.2841 7.7002 11.3927 7.53235 11.568ZM11.1489 13.816L7.02695 17.938C6.57976 18.3853 6.57976 19.1104 7.02695 19.5577L16.0706 28.6012C16.5178 29.0485 17.243 29.0485 17.6904 28.6012L28.8664 17.4252C29.3137 16.9779 29.3136 16.2527 28.8664 15.8054L26.7705 13.7097L19.8228 6.76201C19.3755 6.31482 18.6504 6.31482 18.2031 6.76201L15.4141 9.55101L11.1489 13.816ZM15.4141 9.55101C15.4141 9.55101 13.9548 8.09261 13.1445 7.28151C12.964 7.09785 12.7226 7.02118 12.4681 7.02003C11.9375 7.01749 11.5193 7.45445 11.5437 7.98566C11.5546 8.21569 11.6465 8.43796 11.8067 8.6064C12.5723 9.37769 14.0818 10.8815 14.0818 10.8815L15.4141 9.55101ZM23.1985 10.1372C23.1985 10.1372 24.6566 8.67769 25.4677 7.86739C25.6514 7.68694 25.728 7.44555 25.7292 7.19105C25.7317 6.66043 25.2948 6.2422 24.7636 6.26664C24.5335 6.27747 24.3113 6.36939 24.1428 6.52959C23.3715 7.29516 21.8677 8.80469 21.8677 8.80469L23.1985 10.1372ZM26.7705 13.7097C26.7705 13.7097 28.2289 12.2499 29.0399 11.4396C29.2236 11.2592 29.3002 11.0178 29.3014 10.7633C29.3039 10.2326 28.867 9.81441 28.3358 9.83885C28.1057 9.84967 27.8835 9.94159 27.715 10.1018C26.9437 10.8674 25.4399 12.3769 25.4399 12.3769L26.7705 13.7097ZM24.7447 21.547C24.7447 21.547 26.2042 23.0051 27.0147 23.8159C27.1952 23.9996 27.4366 24.0763 27.6911 24.0774C28.2217 24.0799 28.6399 23.643 28.6155 23.1118L28.6125 23.112C28.6017 22.882 28.5097 22.6596 28.3495 22.4912C27.5839 21.7199 26.0745 20.2161 26.0745 20.2161L24.742 21.547H24.7447ZM20.4794 25.8123C20.4794 25.8123 21.9389 27.2704 22.7494 28.0813C22.9298 28.2649 23.1712 28.3416 23.4257 28.3427C23.9564 28.3453 24.3746 27.9083 24.3501 27.3771C24.3393 27.1471 24.2472 26.9248 24.087 26.7564C23.3214 25.9851 21.8119 24.4812 21.8119 24.4812L20.4794 25.8123ZM12.6418 25.1725C12.6418 25.1725 11.1837 26.632 10.3729 27.4425C10.1892 27.6229 10.1125 27.8644 10.1114 28.1189C10.1089 28.6495 10.5458 29.0677 11.077 29.0432C11.307 29.0324 11.5291 28.9405 11.6975 28.7803C12.4689 28.0148 13.9727 26.5052 13.9727 26.5052L12.6418 25.1725ZM9.06955 21.6003C9.06955 21.6003 7.61145 23.0598 6.80055 23.8703C6.61691 24.0507 6.54023 24.2921 6.53907 24.5466C6.53654 25.0773 6.9735 25.4955 7.50471 25.471C7.73474 25.4602 7.95679 25.3683 8.12524 25.2081C8.89655 24.4426 10.4004 22.933 10.4004 22.933L9.06955 21.6003ZM18.8837 11.4133C19.0727 11.2213 19.33 11.114 19.5922 11.1178C19.7792 11.1205 19.9581 11.1797 20.1054 11.2877L21.9615 12.6489C22.3216 12.9073 22.4278 13.398 22.2125 13.809C21.9972 14.2199 21.5236 14.4304 21.093 14.3065L21.782 17.0007C21.9072 17.4902 21.606 18.0095 21.1089 18.1613L16.0867 19.6948L17.0143 23.2816C17.1463 23.7732 16.8454 24.2991 16.3444 24.4524C15.8435 24.6057 15.3347 24.3274 15.2118 23.8331L14.055 19.3591C13.9283 18.8691 14.2293 18.3483 14.7273 18.1961L19.7517 16.6619L19.288 14.8486C18.9771 15.1934 18.4742 15.2771 18.097 15.0468C17.7198 14.8165 17.5779 14.3392 17.7611 13.9165L18.6742 11.7279C18.723 11.6112 18.7943 11.5042 18.8837 11.4133Z" fill="#78B4F5"/>
<path d="M18.9982 36C22.189 36 25.1761 35.1095 27.7298 33.577C28.4579 34.1691 29.3729 34.4986 30.3249 34.4989C32.5923 34.4988 34.4518 32.6395 34.4517 30.3721V30.3708C34.4506 29.4242 34.1224 28.5164 33.5401 27.7915C35.0954 25.2243 35.9999 22.2147 35.9999 18.9983C36.0016 18.8678 35.9772 18.7382 35.9284 18.6172C35.8796 18.4961 35.8072 18.3859 35.7155 18.2931C35.6237 18.2002 35.5145 18.1265 35.394 18.0761C35.2736 18.0258 35.1444 17.9999 35.0138 17.9999C34.8833 17.9999 34.754 18.0258 34.6336 18.0761C34.5132 18.1265 34.4039 18.2002 34.3122 18.2931C34.2204 18.3859 34.1481 18.4961 34.0992 18.6172C34.0504 18.7382 34.0261 18.8678 34.0277 18.9983C34.0277 21.7773 33.2718 24.37 31.9601 26.6005C31.4464 26.3772 30.8944 26.2461 30.3267 26.2453H30.3253C28.0578 26.2452 26.1985 28.1045 26.1986 30.372C26.1988 30.9345 26.3267 31.4816 26.5454 31.9917C24.3272 33.2836 21.7545 34.0273 18.9982 34.0273C18.8677 34.0257 18.7382 34.0501 18.6172 34.0989C18.4961 34.1477 18.386 34.2201 18.2931 34.3119C18.2003 34.4036 18.1265 34.5128 18.0762 34.6333C18.0259 34.7537 18 34.8829 18 35.0134C18 35.144 18.0259 35.2732 18.0762 35.3936C18.1265 35.5141 18.2003 35.6233 18.2931 35.715C18.386 35.8068 18.4961 35.8792 18.6172 35.928C18.7382 35.9768 18.8677 36.0016 18.9982 36ZM30.3252 32.5266C29.66 32.5266 29.0662 32.244 28.6561 31.7305C28.6494 31.7223 28.6425 31.7143 28.6355 31.7063C28.335 31.3261 28.1706 30.8566 28.1704 30.3717C28.1707 29.1706 29.1231 28.2179 30.3242 28.2176C30.8158 28.2185 31.2918 28.3873 31.6742 28.6962C31.6746 28.6965 31.6751 28.6969 31.6756 28.6972C32.1834 29.1059 32.4784 29.7207 32.4793 30.3727C32.479 31.5739 31.5264 32.5265 30.3252 32.5266Z" fill="#78B4F5"/>
</g>
<defs>
<clipPath id="clip0_902_92826">
<rect width="36" height="36" fill="white"/>
</clipPath>
</defs>
</svg>
