<svg width="40" height="36" viewBox="0 0 40 36" fill="none" xmlns="http://www.w3.org/2000/svg">
<g fill="var(--color-product-pe, #00695C)">
<path opacity="0.24" d="M11.2373 0.218743C12.0191 -0.231585 13.0178 0.0355959 13.4697 0.816398L13.7646 1.32519C14.154 1.99802 14.9609 2.29573 15.7158 2.11034C16.9707 1.80203 18.2828 1.63769 19.6328 1.63769C21.012 1.6377 22.3513 1.80852 23.6309 2.12987C24.348 2.31 25.1179 2.05425 25.5273 1.43847L25.9561 0.792961C26.4337 0.0746077 27.3871 -0.149192 28.1348 0.281243L30.6396 1.72362C31.4581 2.19522 31.7085 3.26015 31.1855 4.04686L31.0146 4.3037C30.5552 4.99473 30.6925 5.91433 31.2754 6.50487C33.1593 8.41323 34.5785 10.7831 35.3467 13.4287C35.5637 14.1757 36.2251 14.7265 37.0029 14.7265H37.6279C38.5314 14.7265 39.2645 15.4589 39.2646 16.3623V19.6338C39.2646 20.5374 38.5315 21.2705 37.6279 21.2705H37.0029C36.2249 21.2707 35.5635 21.8213 35.3467 22.5683C34.6029 25.1303 33.2496 27.4335 31.4541 29.3095C30.9168 29.871 30.7719 30.7189 31.1611 31.3916L31.4619 31.9111C31.915 32.6943 31.6462 33.6967 30.8623 34.1484L28.0273 35.7812C27.2456 36.2315 26.2468 35.9634 25.7949 35.1826L25.499 34.6718C25.1095 33.9992 24.3027 33.7023 23.5479 33.8876C22.2935 34.1957 20.9822 34.3593 19.6328 34.3593C18.2337 34.3593 16.8753 34.183 15.5791 33.8525C14.82 33.659 14.0036 33.9557 13.6113 34.6337L13.3369 35.1083C12.8849 35.8894 11.8854 36.1575 11.1035 35.707L8.59375 34.2607C7.80988 33.8091 7.54115 32.8065 7.99414 32.0234L8.26465 31.5566C8.6581 30.8765 8.50635 30.0187 7.95605 29.458C6.08883 27.5555 4.68254 25.1984 3.91895 22.5683C3.70186 21.8213 3.0397 21.2705 2.26172 21.2705H1.63574C0.732374 21.2703 9.09869e-05 20.5381 0 19.6347V16.3633C0 15.4599 0.732318 14.7277 1.63574 14.7275H2.26172C3.03985 14.7275 3.70201 14.176 3.91895 13.4287C4.66258 10.8674 6.01568 8.5652 7.81055 6.68944C8.34786 6.12796 8.49179 5.28013 8.10254 4.60741L7.80273 4.08885C7.34954 3.3057 7.61826 2.30319 8.40234 1.85155L11.2373 0.218743ZM19.6328 5.7285C17.5276 5.7285 15.5459 6.25827 13.8145 7.19237C13.3968 7.03897 12.9453 6.95506 12.4746 6.95506C10.3288 6.95522 8.58896 8.69495 8.58887 10.8408C8.58887 11.3115 8.67276 11.763 8.82617 12.1806C7.89208 13.912 7.3623 15.8938 7.3623 17.999C7.36248 24.7756 12.8561 30.2695 19.6328 30.2695C21.7379 30.2695 23.7189 29.7386 25.4502 28.8046C25.8678 28.9581 26.3193 29.0419 26.79 29.0419C28.936 29.0419 30.6758 27.3022 30.6758 25.1562C30.6758 24.6855 30.592 24.234 30.4385 23.8164C31.3725 22.0851 31.9033 20.104 31.9033 17.999C31.9033 11.2223 26.4095 5.72862 19.6328 5.7285ZM19.6387 7.36717C25.5117 7.36743 30.2725 12.1289 30.2725 18.0019C30.2722 23.8747 25.5115 28.6354 19.6387 28.6357C13.7657 28.6357 9.00412 23.8748 9.00391 18.0019C9.00391 12.1287 13.7656 7.36717 19.6387 7.36717ZM19.6387 9.00291C14.6691 9.00291 10.6396 13.0323 10.6396 18.0019C10.6399 22.9712 14.6692 27 19.6387 27C24.6079 26.9997 28.6365 22.9711 28.6367 18.0019C28.6367 13.0325 24.6081 9.00317 19.6387 9.00291Z"/>
<path d="M29.4473 17.1785C29.8988 17.1787 30.2646 17.5444 30.2646 17.9958C30.2646 20.1245 29.6386 22.1066 28.5615 23.7693C28.8615 24.1515 29.042 24.6324 29.042 25.156C29.0418 26.3982 28.0344 27.405 26.792 27.405C26.2691 27.4049 25.7892 27.2249 25.4072 26.9255C23.744 28.0038 21.7606 28.6305 19.6309 28.6306C19.1791 28.6306 18.8125 28.2641 18.8125 27.8123C18.8125 27.3606 19.1791 26.9939 19.6309 26.9939C21.4574 26.9938 23.1552 26.4476 24.5742 25.5125C24.5557 25.3962 24.543 25.2775 24.543 25.156C24.543 23.9138 25.5498 22.9063 26.792 22.906C26.9136 22.906 27.0331 22.9177 27.1494 22.9363C28.0832 21.5179 28.6289 19.821 28.6289 17.9958C28.629 17.5442 28.9955 17.1785 29.4473 17.1785ZM26.792 24.5417C26.4534 24.542 26.1787 24.8174 26.1787 25.156C26.1789 25.4945 26.4535 25.769 26.792 25.7693C27.1308 25.7693 27.406 25.4946 27.4062 25.156C27.4062 24.8172 27.1309 24.5417 26.792 24.5417ZM22.9736 11.3201C23.2371 11.0566 23.6652 11.0566 23.9287 11.3201C24.1919 11.5835 24.1919 12.0106 23.9287 12.2742L22.9766 13.2244L24.4062 14.6541L25.3564 13.7048C25.62 13.4413 26.0481 13.4413 26.3115 13.7048C26.5751 13.9684 26.575 14.3963 26.3115 14.6599L25.3613 15.6091L26.2129 16.4607C26.5324 16.7801 26.5324 17.2985 26.2129 17.6179L24.4004 19.4294L24.8857 19.9148C25.1489 20.1782 25.1488 20.6054 24.8857 20.8689C24.6222 21.1325 24.1942 21.1325 23.9307 20.8689L23.4453 20.3835L22.0146 21.8152L22.4951 22.2947C22.7584 22.5581 22.7583 22.9853 22.4951 23.2488C22.2316 23.5123 21.8036 23.5123 21.54 23.2488L21.0605 22.7693L19.2578 24.573C18.9383 24.8924 18.4201 24.8924 18.1006 24.573L17.2432 23.7156V23.7283L16.2891 24.6824C16.0256 24.9459 15.5975 24.9459 15.334 24.6824C15.0708 24.4189 15.0708 23.9918 15.334 23.7283L16.2891 22.7742H16.3018L14.8643 21.3367V21.3425L13.9102 22.2976C13.6467 22.561 13.2186 22.5611 12.9551 22.2976C12.6915 22.034 12.6916 21.606 12.9551 21.3425L13.9102 20.3884H13.915L13.1494 19.6228C12.8301 19.3034 12.8302 18.7851 13.1494 18.4656L14.9541 16.6599L14.3809 16.0876C14.1176 15.8242 14.1177 15.397 14.3809 15.1335C14.6445 14.8699 15.0723 14.8699 15.3359 15.1335L15.9082 15.7058L17.3398 14.2742L16.7676 13.7019C16.5044 13.4384 16.5042 13.0112 16.7676 12.7478C17.0312 12.4842 17.4591 12.4842 17.7227 12.7478L18.2939 13.3191L20.1055 11.5095C20.4248 11.1905 20.9423 11.1904 21.2617 11.5095L22.0225 12.2703L22.9736 11.3201ZM20.916 14.5359C20.5875 14.6182 20.3876 14.9515 20.4697 15.28L20.8281 16.7117L17.4502 18.4001C17.1932 18.5288 17.0601 18.8187 17.1299 19.0974L17.6064 21.0066C17.6887 21.3351 18.0221 21.5347 18.3506 21.4529C18.6794 21.3707 18.8791 21.0374 18.7969 20.7087L18.4395 19.2771L21.8164 17.5886C22.0735 17.4601 22.2074 17.1703 22.1377 16.8914L21.6602 14.9822C21.5779 14.6537 21.2447 14.4537 20.916 14.5359ZM19.6387 7.36694C20.0903 7.3672 20.4561 7.73366 20.4561 8.1853C20.456 8.6369 20.0902 9.00341 19.6387 9.00366C17.8106 9.00366 16.1102 9.54951 14.6904 10.4861C14.7091 10.6026 14.7217 10.7217 14.7217 10.8435C14.7217 12.0859 13.7141 13.0935 12.4717 13.0935C12.3509 13.0935 12.2328 13.0806 12.1172 13.0623C11.1841 14.4803 10.6396 16.1773 10.6396 18.0017C10.6396 18.4533 10.2738 18.8189 9.82227 18.8191C9.37053 18.8191 9.00399 18.4534 9.00391 18.0017C9.00391 15.8746 9.62845 13.8932 10.7041 12.2312C10.4035 11.8487 10.2227 11.3677 10.2227 10.8435C10.2227 9.60128 11.2295 8.59474 12.4717 8.59448C12.9946 8.59448 13.4754 8.77369 13.8574 9.073C15.5214 7.99337 17.5073 7.36694 19.6387 7.36694ZM12.4717 10.2302C12.1331 10.2305 11.8584 10.5049 11.8584 10.8435C11.8584 11.1821 12.1331 11.4565 12.4717 11.4568C12.8106 11.4568 13.0859 11.1823 13.0859 10.8435C13.0859 10.5047 12.8106 10.2302 12.4717 10.2302Z"/>
</g>
</svg>
