<svg width="59" height="36" viewBox="0 0 59 36" fill="none" xmlns="http://www.w3.org/2000/svg">
<g clip-path="url(#clip0_1002_115253)">
<path fill-rule="evenodd" clip-rule="evenodd" d="M24.1226 6.67767C26.0995 2.7841 30.5358 0 35.6313 0C42.1818 0 47.6461 4.59922 48.1898 10.2444C48.308 10.2321 48.4261 10.2163 48.5441 10.2006C48.7942 10.1671 49.0444 10.1337 49.2969 10.1337C54.5122 10.1337 58.4072 14.6872 58.4072 19.7607C58.4072 24.9539 54.006 29.3878 48.7907 29.3878H45.0439C45.3716 28.4336 45.55 27.4187 45.55 26.373L45.55 26.3477H48.7907C52.2284 26.3477 55.3703 23.1759 55.3703 19.7607C55.3703 16.2263 52.7342 13.1737 49.2969 13.1737C47.1751 13.1737 45.0104 14.165 43.9351 15.5964C43.6104 16.0319 43.0781 16.2609 42.5385 16.1969C41.9992 16.133 41.5353 15.7859 41.3207 15.2865C41.1066 14.7871 41.1742 14.211 41.4996 13.7756C42.4529 12.5056 43.7662 11.5864 45.2323 10.9728C45.114 6.97581 40.9523 3.03993 35.6313 3.03993C31.9778 3.03993 28.8652 4.89574 27.2347 7.35267C26.2487 7.01397 25.2051 6.78319 24.1226 6.67767Z" fill="#5555FF" fill-opacity="0.32"/>
<path fill-rule="evenodd" clip-rule="evenodd" d="M27.2645 14.4469L26.04 13.2245L24.4046 14.8572L22.7747 13.2245L21.1448 14.8572L19.5094 13.2245L18.2849 14.4469L19.9224 16.0816L18.2926 17.7143L16.6522 16.0768L15.4277 17.2991L17.0702 18.9388L15.4403 20.5714L17.0577 22.1915L15.4277 23.8186L16.6522 25.041L18.28 23.416L19.9099 25.0487L18.2849 26.6709L19.5094 27.8933L21.1323 26.2732L22.7747 27.9184L24.4171 26.2732L26.04 27.8933L27.2645 26.6709L25.6395 25.0487L27.2693 23.416L28.8971 25.041L30.1216 23.8186L28.4917 22.1915L30.109 20.5714L28.4792 18.9388L30.1216 17.2992L28.8971 16.0768L27.2568 17.7143L25.6269 16.0816L27.2645 14.4469ZM23.9992 16.8916L22.7747 15.6693L17.8767 20.5589L19.1012 21.7812L23.9992 16.8916ZM25.0258 19.5464L23.8014 18.324L19.7197 22.3987L20.9442 23.6211L25.0258 19.5464ZM24.4073 21.3738L25.6318 22.5962L22.7747 25.4484L21.5502 24.2261L24.4073 21.3738Z" fill="#5555FF"/>
<path d="M10.4246 33.4286H9.75735V30.8371H8.90283V30.2817H11.2791V30.8371H10.4246V33.4286ZM13.0549 30.977C13.0879 30.977 13.1259 30.9791 13.1689 30.9834C13.2134 30.9863 13.2493 30.9906 13.2766 30.9963L13.2271 31.6119C13.2055 31.6048 13.1747 31.5997 13.1345 31.5969C13.0958 31.5926 13.062 31.5904 13.0334 31.5904C12.9487 31.5904 12.8662 31.6012 12.7858 31.6227C12.7069 31.6442 12.6358 31.6794 12.5727 31.7282C12.5096 31.7755 12.4594 31.8387 12.4221 31.9176C12.3862 31.9951 12.3682 32.0905 12.3682 32.2038V33.4286H11.7118V31.0222H12.209L12.3058 31.4268H12.3381C12.3855 31.345 12.4443 31.2704 12.5146 31.203C12.5864 31.1341 12.6674 31.0796 12.7578 31.0394C12.8497 30.9978 12.9487 30.977 13.0549 30.977ZM14.7058 30.977C14.9282 30.977 15.1198 31.02 15.2805 31.1061C15.4412 31.1908 15.5653 31.3142 15.6528 31.4763C15.7404 31.6385 15.7842 31.8365 15.7842 32.0704V32.389H14.2322C14.2394 32.5741 14.2947 32.7197 14.398 32.8259C14.5027 32.9306 14.6477 32.983 14.8328 32.983C14.9863 32.983 15.1269 32.9672 15.2546 32.9357C15.3824 32.9041 15.5136 32.8568 15.6485 32.7936V33.3016C15.5294 33.3604 15.4046 33.4035 15.274 33.4307C15.1449 33.458 14.9878 33.4716 14.8026 33.4716C14.5616 33.4716 14.3478 33.4272 14.1612 33.3382C13.9761 33.2492 13.8305 33.1136 13.7243 32.9314C13.6195 32.7491 13.5671 32.5195 13.5671 32.2426C13.5671 31.9614 13.6145 31.7274 13.7092 31.5409C13.8053 31.3529 13.9388 31.2123 14.1096 31.119C14.2803 31.0243 14.479 30.977 14.7058 30.977ZM14.7101 31.4441C14.5824 31.4441 14.4762 31.485 14.3915 31.5667C14.3083 31.6485 14.2602 31.777 14.2473 31.952H15.1686C15.1671 31.8544 15.1492 31.7676 15.1147 31.6916C15.0817 31.6155 15.0315 31.5553 14.9641 31.5108C14.898 31.4663 14.8134 31.4441 14.7101 31.4441ZM17.6847 30.977C17.9416 30.977 18.1482 31.0473 18.3046 31.1879C18.4611 31.3271 18.5393 31.551 18.5393 31.8595V33.4286H17.8827V32.023C17.8827 31.8509 17.8512 31.721 17.788 31.6335C17.7264 31.5459 17.6288 31.5022 17.4953 31.5022C17.2944 31.5022 17.1574 31.5703 17.0842 31.7066C17.011 31.843 16.9744 32.0396 16.9744 32.2964V33.4286H16.318V31.0222H16.8195L16.9077 31.33H16.9443C16.996 31.2467 17.0598 31.1793 17.1358 31.1276C17.2134 31.076 17.2987 31.038 17.392 31.0136C17.4867 30.9892 17.5843 30.977 17.6847 30.977ZM19.9771 33.4716C19.7087 33.4716 19.4899 33.3669 19.3206 33.1574C19.1527 32.9464 19.0688 32.6372 19.0688 32.2297C19.0688 31.8178 19.1541 31.5065 19.3249 31.2955C19.4956 31.0831 19.7188 30.977 19.9943 30.977C20.1091 30.977 20.2102 30.9927 20.2978 31.0243C20.3853 31.0559 20.4606 31.0982 20.5238 31.1513C20.5884 31.2044 20.6429 31.264 20.6874 31.33H20.7089C20.7003 31.284 20.6895 31.2166 20.6766 31.1276C20.6651 31.0372 20.6594 30.9447 20.6594 30.85V30.0794H21.318V33.4286H20.8144L20.6874 33.1165H20.6594C20.6178 33.1825 20.5654 33.2427 20.5023 33.2973C20.4405 33.3504 20.3667 33.3927 20.2806 33.4243C20.1945 33.4558 20.0933 33.4716 19.9771 33.4716ZM20.2074 32.9486C20.3868 32.9486 20.513 32.8955 20.5862 32.7893C20.6608 32.6817 20.7003 32.5202 20.7046 32.305V32.234C20.7046 32.0001 20.6687 31.8214 20.597 31.698C20.5252 31.5732 20.3918 31.5108 20.1966 31.5108C20.0517 31.5108 19.9383 31.5732 19.8565 31.698C19.7747 31.8229 19.7338 32.0029 19.7338 32.2383C19.7338 32.4736 19.7747 32.6508 19.8565 32.7699C19.9398 32.889 20.0567 32.9486 20.2074 32.9486ZM23.6792 33.4286H21.7786V33.0411L22.8936 31.5237H21.8454V31.0222H23.6405V31.4484L22.5556 32.9271H23.6792V33.4286ZM26.6905 30.7919C26.5628 30.7919 26.4494 30.817 26.3504 30.8672C26.2528 30.916 26.1703 30.987 26.1029 31.0803C26.0368 31.1736 25.9866 31.2862 25.9522 31.4182C25.9178 31.5502 25.9005 31.6987 25.9005 31.8638C25.9005 32.0862 25.9278 32.2763 25.9823 32.4342C26.0383 32.5906 26.1244 32.7104 26.2406 32.7936C26.3568 32.8754 26.5068 32.9163 26.6905 32.9163C26.8182 32.9163 26.9459 32.902 27.0736 32.8733C27.2027 32.8446 27.3427 32.8037 27.4933 32.7506V33.3102C27.3542 33.3676 27.2171 33.4085 27.0822 33.4329C26.9473 33.4587 26.7959 33.4716 26.6281 33.4716C26.3038 33.4716 26.0368 33.4049 25.8274 33.2715C25.6193 33.1366 25.465 32.9486 25.3646 32.7075C25.2641 32.465 25.2139 32.1823 25.2139 31.8595C25.2139 31.6213 25.2462 31.4031 25.3107 31.2051C25.3753 31.0071 25.47 30.8356 25.5949 30.6907C25.7197 30.5458 25.874 30.4339 26.0577 30.3549C26.2414 30.276 26.4523 30.2365 26.6905 30.2365C26.8469 30.2365 27.0033 30.2566 27.1597 30.2968C27.3175 30.3356 27.4682 30.3894 27.6117 30.4583L27.3965 31.0006C27.2788 30.9447 27.1604 30.8959 27.0413 30.8543C26.9222 30.8127 26.8053 30.7919 26.6905 30.7919ZM28.7697 33.4286H28.1132V30.0794H28.7697V33.4286ZM31.6475 32.2211C31.6475 32.422 31.6202 32.5999 31.5657 32.7549C31.5126 32.9099 31.4344 33.0411 31.3311 33.1488C31.2292 33.2549 31.1058 33.3353 30.9609 33.3898C30.8174 33.4444 30.6552 33.4716 30.4744 33.4716C30.3051 33.4716 30.1494 33.4444 30.0074 33.3898C29.8667 33.3353 29.744 33.2549 29.6393 33.1488C29.536 33.0411 29.4556 32.9099 29.3982 32.7549C29.3423 32.5999 29.3143 32.422 29.3143 32.2211C29.3143 31.9542 29.3616 31.7282 29.4563 31.5431C29.551 31.358 29.6859 31.2173 29.861 31.1212C30.036 31.025 30.2448 30.977 30.4873 30.977C30.7126 30.977 30.9121 31.025 31.0857 31.1212C31.2608 31.2173 31.3978 31.358 31.4968 31.5431C31.5973 31.7282 31.6475 31.9542 31.6475 32.2211ZM29.9837 32.2211C29.9837 32.3789 30.0009 32.5116 30.0353 32.6193C30.0698 32.7269 30.1236 32.808 30.1968 32.8625C30.2699 32.917 30.3654 32.9443 30.483 32.9443C30.5993 32.9443 30.6933 32.917 30.765 32.8625C30.8382 32.808 30.8913 32.7269 30.9243 32.6193C30.9587 32.5116 30.9759 32.3789 30.9759 32.2211C30.9759 32.0618 30.9587 31.9298 30.9243 31.825C30.8913 31.7188 30.8382 31.6392 30.765 31.5861C30.6918 31.533 30.5964 31.5065 30.4787 31.5065C30.3051 31.5065 30.1788 31.566 30.0999 31.6851C30.0224 31.8042 29.9837 31.9829 29.9837 32.2211ZM34.3983 31.0222V33.4286H33.8946L33.8064 33.1208H33.772C33.7203 33.2026 33.6557 33.2693 33.5782 33.321C33.5008 33.3726 33.4154 33.4107 33.3221 33.435C33.2288 33.4594 33.132 33.4716 33.0315 33.4716C32.8593 33.4716 32.7094 33.4415 32.5816 33.3812C32.454 33.3195 32.3542 33.2241 32.2825 33.095C32.2122 32.9658 32.177 32.7979 32.177 32.5913V31.0222H32.8335V32.4277C32.8335 32.5999 32.8644 32.7298 32.926 32.8173C32.9878 32.9048 33.0861 32.9486 33.2209 32.9486C33.3544 32.9486 33.4591 32.9184 33.5352 32.8582C33.6112 32.7965 33.6643 32.7068 33.6945 32.5891C33.726 32.47 33.7418 32.3251 33.7418 32.1543V31.0222H34.3983ZM35.8491 33.4716C35.5807 33.4716 35.3619 33.3669 35.1925 33.1574C35.0247 32.9464 34.9407 32.6372 34.9407 32.2297C34.9407 31.8178 35.0261 31.5065 35.1969 31.2955C35.3676 31.0831 35.5907 30.977 35.8662 30.977C35.981 30.977 36.0822 30.9927 36.1697 31.0243C36.2573 31.0559 36.3326 31.0982 36.3957 31.1513C36.4603 31.2044 36.5148 31.264 36.5593 31.33H36.5808C36.5723 31.284 36.5615 31.2166 36.5486 31.1276C36.5371 31.0372 36.5314 30.9447 36.5314 30.85V30.0794H37.1899V33.4286H36.6863L36.5593 33.1165H36.5314C36.4897 33.1825 36.4374 33.2427 36.3742 33.2973C36.3125 33.3504 36.2386 33.3927 36.1525 33.4243C36.0664 33.4558 35.9653 33.4716 35.8491 33.4716ZM36.0793 32.9486C36.2587 32.9486 36.385 32.8955 36.4582 32.7893C36.5328 32.6817 36.5722 32.5202 36.5765 32.305V32.234C36.5765 32.0001 36.5407 31.8214 36.4689 31.698C36.3972 31.5732 36.2638 31.5108 36.0686 31.5108C35.9237 31.5108 35.8103 31.5732 35.7285 31.698C35.6467 31.8229 35.6058 32.0029 35.6058 32.2383C35.6058 32.4736 35.6467 32.6508 35.7285 32.7699C35.8117 32.889 35.9287 32.9486 36.0793 32.9486Z" fill="#5555FF"/>
<path d="M35.9337 36C40.0987 36 43.7446 33.172 45.044 29.3878C45.3716 28.4336 45.55 27.4187 45.55 26.373L45.55 26.3477C45.5371 21.2843 41.6464 16.7459 36.4398 16.7459C36.1874 16.7459 35.9374 16.7794 35.6874 16.8128C35.5693 16.8285 35.451 16.8443 35.3327 16.8566C34.919 12.5614 31.6566 8.87172 27.2347 7.35267C26.2487 7.01397 25.2051 6.78319 24.1226 6.67767C23.6792 6.63445 23.2293 6.61224 22.7742 6.61224C16.4646 6.61224 11.1659 10.8811 10.2955 16.2393H10.1215C4.58223 16.2393 -0.000976562 20.858 -0.000976562 26.373C-0.000976562 31.888 4.64894 36 9.86842 36H35.9337Z" fill="#5555FF" fill-opacity="0.32"/>
</g>
<defs>
<clipPath id="clip0_1002_115253">
<rect width="58.4082" height="36" fill="white"/>
</clipPath>
</defs>
</svg>
