<svg width="36" height="36" viewBox="0 0 36 36" fill="none" xmlns="http://www.w3.org/2000/svg">
<path d="M17.861 36C22.6717 36 27.2855 34.1036 30.6872 30.7279C34.0889 27.3523 36 22.7739 36 18C36 13.2261 34.0889 8.64773 30.6872 5.27208C27.2855 1.89642 22.6717 0 17.861 0C13.0987 0.0730132 8.55643 2.00155 5.21473 5.36927C1.87304 8.73698 0 13.2737 0 18C0 22.7263 1.87304 27.263 5.21473 30.6307C8.55643 33.9984 13.0987 35.927 17.861 36Z" fill="#E95420"/>
<path d="M8.44379 17.9992C8.44379 18.3031 8.38347 18.6039 8.2663 18.8846C8.14913 19.1653 7.9774 19.4204 7.7609 19.6352C7.5444 19.8501 7.28736 20.0205 7.00449 20.1368C6.72162 20.253 6.41844 20.3129 6.11227 20.3129C5.80609 20.3129 5.50291 20.253 5.22004 20.1368C4.93717 20.0205 4.68014 19.8501 4.46364 19.6352C4.24714 19.4204 4.0754 19.1653 3.95823 18.8846C3.84106 18.6039 3.78076 18.3031 3.78076 17.9992C3.78076 17.3856 4.0264 16.7971 4.46364 16.3632C4.90089 15.9294 5.49391 15.6856 6.11227 15.6856C6.73062 15.6856 7.32366 15.9294 7.7609 16.3632C8.19815 16.7971 8.44379 17.3856 8.44379 17.9992ZM21.712 29.2517C21.8619 29.5206 22.0644 29.7573 22.3076 29.9477C22.5508 30.1382 22.8297 30.2786 23.1282 30.3609C23.4267 30.4431 23.7387 30.4655 24.046 30.4268C24.3533 30.388 24.6498 30.2889 24.918 30.1352C25.1863 29.9814 25.421 29.7762 25.6084 29.5314C25.7958 29.2867 25.9322 29.0073 26.0096 28.7097C26.087 28.412 26.1039 28.102 26.0592 27.7978C26.0145 27.4937 25.9092 27.2014 25.7494 26.938C25.4342 26.4187 24.9262 26.0428 24.3346 25.8913C23.743 25.7399 23.1152 25.8249 22.5861 26.128C22.057 26.4312 21.669 26.9284 21.5056 27.5125C21.3421 28.0967 21.4162 28.7212 21.712 29.2517ZM25.7494 9.06046C25.9092 8.79712 26.0145 8.50482 26.0592 8.20063C26.1039 7.89644 26.087 7.58647 26.0096 7.28881C25.9322 6.99116 25.7958 6.71179 25.6084 6.46704C25.421 6.22228 25.1863 6.01705 24.918 5.86332C24.6498 5.70959 24.3533 5.61045 24.046 5.5717C23.7387 5.53294 23.4267 5.55535 23.1282 5.6376C22.8297 5.71986 22.5508 5.86031 22.3076 6.05076C22.0644 6.24121 21.8619 6.47784 21.712 6.74682C21.4162 7.27731 21.3421 7.9018 21.5056 8.48596C21.669 9.07011 22.057 9.56726 22.5861 9.87044C23.1152 10.1736 23.743 10.2586 24.3346 10.1071C24.9262 9.95567 25.4342 9.57982 25.7494 9.06046ZM17.8564 11.3999C19.5186 11.3989 21.1208 12.0159 22.347 13.1294C23.5733 14.2429 24.3346 15.7719 24.4808 17.4149L27.8557 17.3612C27.7027 14.9357 26.6555 12.6508 24.9137 10.9423C24.4564 11.1188 23.9649 11.191 23.4757 11.1537C22.9864 11.1164 22.5119 10.9704 22.0871 10.7267C21.6623 10.4829 21.2981 10.1475 21.0215 9.74537C20.7449 9.34319 20.5629 8.88447 20.4889 8.4031C18.1249 7.7666 15.608 8.00956 13.412 9.08624L15.0551 12.0121C15.9327 11.6078 16.8889 11.3988 17.8564 11.3999ZM11.2061 17.9992C11.2061 15.7651 12.3231 13.793 14.0333 12.5986L12.3015 9.72426C10.2649 11.0718 8.79508 13.1118 8.16886 15.46C8.55139 15.7652 8.86007 16.1517 9.07216 16.5909C9.28425 17.0302 9.39435 17.5111 9.39435 17.9982C9.39435 18.4852 9.28425 18.9661 9.07216 19.4054C8.86007 19.8446 8.55139 20.2311 8.16886 20.5363C8.79479 22.8852 10.2646 24.926 12.3015 26.2742L14.0333 23.3999C13.1594 22.7914 12.4461 21.9829 11.9539 21.0428C11.4618 20.1027 11.2052 19.0587 11.2061 17.9992ZM17.8564 24.5986C16.8888 24.6 15.9326 24.391 15.0551 23.9863L13.412 26.9122C15.607 27.9899 18.1236 28.2329 20.4867 27.5954C20.5614 27.1141 20.7439 26.6556 21.0208 26.2537C21.2978 25.8517 21.6621 25.5166 22.087 25.2729C22.5118 25.0292 22.9863 24.8833 23.4755 24.8458C23.9648 24.8083 24.4562 24.8802 24.9137 25.0562C26.6535 23.3463 27.7003 21.0622 27.8557 18.6373L24.4808 18.5836C24.3341 20.2264 23.5727 21.7551 22.3465 22.8685C21.1204 23.9819 19.5184 24.5991 17.8564 24.5986Z" fill="white"/>
</svg>
