<svg width="20" height="20" viewBox="0 0 20 20" fill="none" xmlns="http://www.w3.org/2000/svg">
<path opacity="0.5" d="M12.4536 16.9535H12.6931C12.8016 16.9535 12.9057 16.9104 12.9824 16.8337L14.6179 15.1982L14.6188 15.1973L15.9528 16.5313C15.8088 16.7749 15.7262 17.0591 15.7262 17.3626C15.7262 18.2663 16.4589 18.999 17.3626 18.999C18.2663 18.999 18.999 18.2663 18.999 17.3626C18.999 16.4589 18.2663 15.7262 17.3626 15.7262C17.0591 15.7262 16.7749 15.8088 16.5313 15.9528L15.1973 14.6188L15.1982 14.6179L16.8337 12.9824C16.9104 12.9057 16.9535 12.8016 16.9535 12.6931V12.4536C16.6116 12.7104 16.1867 12.8625 15.7262 12.8625C15.5982 12.8625 15.4729 12.8508 15.3514 12.8283L12.8283 15.3514C12.8508 15.4729 12.8625 15.5982 12.8625 15.7262C12.8625 16.1867 12.7104 16.6116 12.4536 16.9535Z" fill="currentColor"/>
<path opacity="0.5" d="M3.04548 10.8182C3.38736 11.075 3.81229 11.2272 4.27277 11.2272V12.2075C4.32963 12.355 4.39206 12.4997 4.45976 12.6415L7.35854 15.5402C7.50025 15.6079 7.64498 15.6704 7.79246 15.7272H8.77282C8.77282 16.1877 8.92496 16.6126 9.18175 16.9545H7.30588C7.19739 16.9545 7.09336 16.9114 7.01661 16.8347L6.60752 16.4256L6.60703 16.4251L5.38113 15.1992L5.38023 15.1984L4.04621 16.5324C4.19017 16.776 4.27277 17.0601 4.27277 17.3636C4.27277 18.2673 3.54012 19 2.63638 19C1.73263 19 1 18.2673 1 17.3636C1 16.4599 1.73263 15.7272 2.63638 15.7272C2.93987 15.7272 3.22405 15.8099 3.46771 15.9538L4.80165 14.6198L4.80079 14.6189L3.1653 12.9834C3.15573 12.9738 3.14665 12.9638 3.13814 12.9533C3.07849 12.8806 3.04548 12.7891 3.04548 12.6941V10.8182Z" fill="currentColor"/>
<path opacity="0.5" d="M15.7264 2.63638C15.7264 1.73263 16.459 1 17.3628 1C18.2665 1 18.9991 1.73263 18.9991 2.63638C18.9991 3.54012 18.2665 4.27277 17.3628 4.27277C17.0593 4.27277 16.7751 4.19017 16.5315 4.04621L15.1975 5.38023L15.1983 5.38113L16.4244 6.60719L16.4247 6.60752L16.8338 7.01661C16.9105 7.09332 16.9537 7.19739 16.9537 7.30588V9.18175C16.6118 8.92496 16.1868 8.77282 15.7264 8.77282V7.79246C15.6695 7.64498 15.6071 7.50025 15.5394 7.35854L12.6406 4.45976C12.4989 4.39206 12.3542 4.32963 12.2067 4.27277H11.2263C11.2263 3.81229 11.0742 3.38736 10.8174 3.04548H12.6933C12.7882 3.04548 12.8797 3.07849 12.9525 3.13814C12.9629 3.14665 12.9729 3.15573 12.9825 3.1653L14.618 4.80079L14.619 4.80165L15.953 3.46771C15.809 3.22405 15.7264 2.93987 15.7264 2.63638Z" fill="currentColor"/>
<path opacity="0.5" d="M7.54537 3.04548H7.30588C7.29909 3.04548 7.29234 3.04564 7.28559 3.04597C7.18451 3.051 7.08853 3.09338 7.01661 3.1653L5.38113 4.80079L5.38019 4.80165L4.04621 3.46767C4.19017 3.22405 4.27277 2.93985 4.27277 2.63638C4.27277 1.73263 3.54012 1 2.63638 1C1.73263 1 1 1.73263 1 2.63638C1 3.54012 1.73263 4.27277 2.63638 4.27277C2.93985 4.27277 3.22405 4.19017 3.46767 4.04621L4.80165 5.38019L4.80079 5.38113L3.1653 7.01661C3.0886 7.09332 3.04548 7.19739 3.04548 7.30588V7.54537C3.38736 7.28858 3.81229 7.13644 4.27277 7.13644C4.40081 7.13644 4.52608 7.14822 4.64758 7.17072L7.17072 4.64758C7.14822 4.52608 7.13644 4.40081 7.13644 4.27277C7.13644 3.81229 7.28858 3.38736 7.54537 3.04548Z" fill="currentColor"/>
<path fill-rule="evenodd" clip-rule="evenodd" d="M9.18282 5.50023C9.86065 5.50023 10.4101 4.95077 10.4101 4.27294C10.4101 3.59511 9.86065 3.04565 9.18282 3.04565C8.50499 3.04565 7.95554 3.59511 7.95554 4.27294C7.95554 4.50056 8.01747 4.71366 8.12547 4.8964L7.12495 5.89693C7.00513 6.01675 7.00513 6.21099 7.12495 6.33082L8.89421 8.10011L8.10085 8.89352L6.33155 7.12422C6.21172 7.00439 6.01749 7.00439 5.89766 7.12422L4.89714 8.12474C4.71439 8.01674 4.5013 7.9548 4.27367 7.9548C3.59584 7.9548 3.04639 8.50426 3.04639 9.18209C3.04639 9.85992 3.59584 10.4094 4.27367 10.4094C4.95151 10.4094 5.50096 9.85992 5.50096 9.18209C5.50096 8.95447 5.43902 8.74137 5.33102 8.55863L6.11461 7.77509L7.66696 9.32744L6.75848 10.236C6.59873 10.3957 6.59873 10.6547 6.75848 10.8145L7.13747 11.1935L6.66005 11.6707C6.52824 11.8026 6.52824 12.0162 6.66005 12.148C6.79182 12.2798 7.00553 12.2798 7.1373 12.148L7.6146 11.6707L8.33068 12.3867L7.85322 12.864C7.72145 12.9958 7.72145 13.2094 7.85322 13.3412C7.98503 13.473 8.1987 13.473 8.33051 13.3412L8.80781 12.864L9.23453 13.2905C9.39429 13.4503 9.65333 13.4503 9.81308 13.2905L10.7216 12.382L12.2262 13.8867L11.4427 14.6703C11.2599 14.5623 11.0468 14.5003 10.8192 14.5003C10.1414 14.5003 9.59192 15.0498 9.59192 15.7276C9.59192 16.4055 10.1414 16.9549 10.8192 16.9549C11.497 16.9549 12.0465 16.4055 12.0465 15.7276C12.0465 15.5 11.9846 15.2869 11.8766 15.1042L12.8771 14.1036C12.9969 13.9838 12.9969 13.7896 12.8771 13.6698L11.1554 11.9481L11.9488 11.1547L13.6705 12.8763C13.7903 12.9962 13.9845 12.9962 14.1044 12.8763L15.1049 11.8758C15.2876 11.9838 15.5007 12.0458 15.7284 12.0458C16.4062 12.0458 16.9556 11.4963 16.9556 10.8185C16.9556 10.1406 16.4062 9.59119 15.7284 9.59119C15.0505 9.59119 14.5011 10.1406 14.5011 10.8185C14.5011 11.0461 14.563 11.2592 14.671 11.4419L13.8874 12.2255L12.3827 10.7208L13.2914 9.81202C13.4512 9.65227 13.4512 9.39323 13.2914 9.23347L12.8648 8.80687L13.3419 8.32974C13.4737 8.19793 13.4737 7.98426 13.3419 7.85245C13.2101 7.72068 12.9965 7.72068 12.8646 7.85245L12.3875 8.32962L11.6717 7.61374L12.1488 7.13661C12.2806 7.0048 12.2806 6.79113 12.1488 6.65932C12.017 6.52755 11.8033 6.52755 11.6715 6.65932L11.1944 7.13649L10.8154 6.75746C10.6556 6.59767 10.3966 6.59767 10.2368 6.75746L9.32813 7.66619L7.77582 6.11387L8.55936 5.33029C8.74211 5.43829 8.9552 5.50023 9.18282 5.50023ZM9.18282 4.88659C9.52172 4.88659 9.79647 4.61184 9.79647 4.27294C9.79647 3.93405 9.52172 3.6593 9.18282 3.6593C8.84393 3.6593 8.56918 3.93405 8.56918 4.27294C8.56918 4.61184 8.84393 4.88659 9.18282 4.88659ZM11.0147 8.49395C10.9736 8.32958 10.807 8.22963 10.6426 8.27071C10.4782 8.31182 10.3782 8.47841 10.4194 8.64278L10.5983 9.35858L8.9093 10.2031C8.78068 10.2674 8.714 10.4124 8.74885 10.5519L8.98752 11.5065C9.0286 11.6709 9.19518 11.7708 9.35959 11.7297C9.52397 11.6886 9.62395 11.522 9.58284 11.3576L9.4039 10.6419L11.0929 9.79737C11.2215 9.73306 11.2882 9.58804 11.2533 9.44854L11.0147 8.49395ZM4.88732 9.18209C4.88732 9.52099 4.61257 9.79574 4.27367 9.79574C3.93478 9.79574 3.66003 9.52099 3.66003 9.18209C3.66003 8.8432 3.93478 8.56845 4.27367 8.56845C4.61257 8.56845 4.88732 8.8432 4.88732 9.18209ZM15.7284 11.4321C16.0673 11.4321 16.342 11.1574 16.342 10.8185C16.342 10.4796 16.0673 10.2048 15.7284 10.2048C15.3895 10.2048 15.1147 10.4796 15.1147 10.8185C15.1147 11.1574 15.3895 11.4321 15.7284 11.4321ZM11.4329 15.7276C11.4329 16.0665 11.1581 16.3413 10.8192 16.3413C10.4803 16.3413 10.2056 16.0665 10.2056 15.7276C10.2056 15.3887 10.4803 15.114 10.8192 15.114C11.1581 15.114 11.4329 15.3887 11.4329 15.7276Z" fill="currentColor"/>
</svg>
