<svg width="20" height="20" viewBox="0 0 20 20" fill="none" xmlns="http://www.w3.org/2000/svg">
<g>
<path opacity="0.5" d="M16.0254 19.1111C16.0254 18.8656 16.2235 18.6666 16.4679 18.6666C16.7123 18.6666 16.9104 18.8656 16.9104 19.1111V19.5556C16.9104 19.8011 16.7123 20 16.4679 20C16.2235 20 16.0254 19.8011 16.0254 19.5556V19.1111Z" fill="currentColor"/>
<path opacity="0.5" d="M14.6973 19.1111C14.6973 18.8656 14.8954 18.6666 15.1398 18.6666C15.3841 18.6666 15.5823 18.8656 15.5823 19.1111V19.5556C15.5823 19.8011 15.3841 20 15.1398 20C14.8954 20 14.6973 19.8011 14.6973 19.5556V19.1111Z" fill="currentColor"/>
<path opacity="0.5" d="M13.3711 19.1111C13.3711 18.8656 13.5692 18.6666 13.8136 18.6666C14.058 18.6666 14.2561 18.8656 14.2561 19.1111V19.5556C14.2561 19.8011 14.058 20 13.8136 20C13.5692 20 13.3711 19.8011 13.3711 19.5556V19.1111Z" fill="currentColor"/>
<path opacity="0.5" d="M12.043 19.1111C12.043 18.8656 12.2411 18.6666 12.4855 18.6666C12.7298 18.6666 12.928 18.8656 12.928 19.1111V19.5556C12.928 19.8011 12.7298 20 12.4855 20C12.2411 20 12.043 19.8011 12.043 19.5556V19.1111Z" fill="currentColor"/>
<path opacity="0.5" d="M17.3535 17.7787C17.3535 17.5332 17.5516 17.3342 17.796 17.3342H18.2385C18.4829 17.3342 18.681 17.5332 18.681 17.7787C18.681 18.0242 18.4829 18.2232 18.2385 18.2232H17.796C17.5516 18.2232 17.3535 18.0242 17.3535 17.7787Z" fill="currentColor"/>
<path opacity="0.5" d="M10.2734 17.7787C10.2734 17.5332 10.4715 17.3342 10.7159 17.3342H11.1584C11.4028 17.3342 11.6009 17.5332 11.6009 17.7787C11.6009 18.0242 11.4028 18.2232 11.1584 18.2232H10.7159C10.4715 18.2232 10.2734 18.0242 10.2734 17.7787Z" fill="currentColor"/>
<path opacity="0.5" fill-rule="evenodd" clip-rule="evenodd" d="M4.52084 13.7792H3.19336V15.1126C3.19336 16.0945 3.98573 16.8905 4.96324 16.8905H5.40582H5.8484C6.82591 16.8905 7.61828 16.0945 7.61828 15.1126V13.7792H6.29081V14.6681H4.52084V13.7792Z" fill="currentColor"/>
<path opacity="0.5" fill-rule="evenodd" clip-rule="evenodd" d="M0.82855 16.2924C0.647093 16.2924 0.5 16.4401 0.5 16.6224C0.5 18.2628 1.82387 19.5926 3.45697 19.5926C3.63839 19.5926 3.78552 19.4448 3.78552 19.2625C3.78552 19.0803 3.63839 18.9325 3.45697 18.9325C2.18678 18.9325 1.1571 17.8982 1.1571 16.6224C1.1571 16.4401 1.01 16.2924 0.82855 16.2924Z" fill="currentColor"/>
<path opacity="0.5" fill-rule="evenodd" clip-rule="evenodd" d="M2.10199 16.1661C1.92053 16.1661 1.77344 16.3139 1.77344 16.4962C1.77344 17.4986 2.58247 18.3113 3.58047 18.3113C3.76193 18.3113 3.90902 18.1635 3.90902 17.9812C3.90902 17.799 3.76193 17.6512 3.58047 17.6512C2.94536 17.6512 2.43054 17.1341 2.43054 16.4962C2.43054 16.3139 2.28344 16.1661 2.10199 16.1661Z" fill="currentColor"/>
<path opacity="0.5" d="M17.3535 16.4465C17.3535 16.2011 17.5516 16.0021 17.796 16.0021H18.2385C18.4829 16.0021 18.681 16.2011 18.681 16.4465C18.681 16.692 18.4829 16.891 18.2385 16.891H17.796C17.5516 16.891 17.3535 16.692 17.3535 16.4465Z" fill="currentColor"/>
<path opacity="0.5" d="M10.2734 16.4465C10.2734 16.2011 10.4715 16.0021 10.7159 16.0021H11.1584C11.4028 16.0021 11.6009 16.2011 11.6009 16.4465C11.6009 16.692 11.4028 16.891 11.1584 16.891H10.7159C10.4715 16.891 10.2734 16.692 10.2734 16.4465Z" fill="currentColor"/>
<path opacity="0.5" d="M17.3535 15.1118C17.3535 14.8663 17.5516 14.6674 17.796 14.6674H18.2385C18.4829 14.6674 18.681 14.8663 18.681 15.1118C18.681 15.3573 18.4829 15.5563 18.2385 15.5563H17.796C17.5516 15.5563 17.3535 15.3573 17.3535 15.1118Z" fill="currentColor"/>
<path opacity="0.5" d="M10.2734 15.1118C10.2734 14.8663 10.4715 14.6674 10.7159 14.6674H11.1584C11.4028 14.6674 11.6009 14.8663 11.6009 15.1118C11.6009 15.3573 11.4028 15.5563 11.1584 15.5563H10.7159C10.4715 15.5563 10.2734 15.3573 10.2734 15.1118Z" fill="currentColor"/>
<path opacity="0.5" d="M17.3535 13.7796C17.3535 13.5341 17.5516 13.3351 17.796 13.3351H18.2385C18.4829 13.3351 18.681 13.5341 18.681 13.7796C18.681 14.025 18.4829 14.224 18.2385 14.224H17.796C17.5516 14.224 17.3535 14.025 17.3535 13.7796Z" fill="currentColor"/>
<path opacity="0.5" d="M10.2734 13.7796C10.2734 13.5341 10.4715 13.3351 10.7159 13.3351H11.1584C11.4028 13.3351 11.6009 13.5341 11.6009 13.7796C11.6009 14.025 11.4028 14.224 11.1584 14.224H10.7159C10.4715 14.224 10.2734 14.025 10.2734 13.7796Z" fill="currentColor"/>
<path d="M3.19336 12.8888C3.19336 12.6433 3.39146 12.4443 3.63585 12.4443H7.17579C7.42018 12.4443 7.61828 12.6433 7.61828 12.8888V13.3333H3.19336V12.8888Z" fill="currentColor"/>
<path opacity="0.5" d="M16.0254 12.0007C16.0254 11.7553 16.2235 11.5563 16.4679 11.5563C16.7123 11.5563 16.9104 11.7553 16.9104 12.0007V12.4452C16.9104 12.6907 16.7123 12.8897 16.4679 12.8897C16.2235 12.8897 16.0254 12.6907 16.0254 12.4452V12.0007Z" fill="currentColor"/>
<path opacity="0.5" fill-rule="evenodd" clip-rule="evenodd" d="M9.83031 2.604V3.55755H10.7153V2.604C10.5751 2.64592 10.4266 2.66843 10.2728 2.66843C10.119 2.66843 9.97053 2.64592 9.83031 2.604ZM11.1578 9.78025V8.00236H12.0428V9.78025H13.8127C14.3015 9.78025 14.6977 10.1782 14.6977 10.6692V11.5581H13.8127V10.6692H12.0428C11.554 10.6692 11.1578 10.2712 11.1578 9.78025ZM9.38781 8.00236V9.78025C9.38781 10.2712 8.99161 10.6692 8.50283 10.6692H5.84788V11.5581H4.96289V10.6692C4.96289 10.1782 5.3591 9.78025 5.84788 9.78025H8.50283V8.00236H9.38781Z" fill="currentColor"/>
<path opacity="0.5" d="M12.043 12.0007C12.043 11.7553 12.2411 11.5563 12.4855 11.5563C12.7298 11.5563 12.928 11.7553 12.928 12.0007V12.4452C12.928 12.6907 12.7298 12.8897 12.4855 12.8897C12.2411 12.8897 12.043 12.6907 12.043 12.4452V12.0007Z" fill="currentColor"/>
<path fill-rule="evenodd" clip-rule="evenodd" d="M12.0432 12.4443C11.5544 12.4443 11.1582 12.8423 11.1582 13.3333V18.2225C11.1582 18.7135 11.5544 19.1114 12.0432 19.1114H16.9106C17.3994 19.1114 17.7956 18.7135 17.7956 18.2225V13.3333C17.7956 12.8423 17.3994 12.4443 16.9106 12.4443H12.0432ZM12.4857 13.3333C12.2413 13.3333 12.0432 13.5323 12.0432 13.7778V17.778C12.0432 18.0235 12.2413 18.2225 12.4857 18.2225H16.4681C16.7125 18.2225 16.9106 18.0235 16.9106 17.778V13.7778C16.9106 13.5323 16.7125 13.3333 16.4681 13.3333H12.4857Z" fill="currentColor"/>
<path opacity="0.5" d="M14.6973 16.0021H16.0247V17.3355H14.6973V16.0021Z" fill="currentColor"/>
<path opacity="0.5" d="M12.9277 16.0021H14.2552V17.3355H12.9277V16.0021Z" fill="currentColor"/>
<path opacity="0.5" d="M14.6973 14.2233H16.0247V15.5567H14.6973V14.2233Z" fill="currentColor"/>
<path opacity="0.5" d="M12.9277 14.2233H14.2552V15.5567H12.9277V14.2233Z" fill="currentColor"/>
<path fill-rule="evenodd" clip-rule="evenodd" d="M10.2719 2.22237C10.8829 2.22237 11.3782 1.72487 11.3782 1.11118C11.3782 0.497495 10.8829 0 10.2719 0C9.66098 0 9.1657 0.497495 9.1657 1.11118C9.1657 1.72487 9.66098 2.22237 10.2719 2.22237ZM5.40452 4.00026C4.91574 4.00026 4.51953 4.39824 4.51953 4.88921V6.6671C4.51953 7.15806 4.91574 7.55605 5.40452 7.55605H15.1393C15.6281 7.55605 16.0243 7.15806 16.0243 6.6671V4.88921C16.0243 4.39824 15.6281 4.00026 15.1393 4.00026H5.40452ZM5.84701 5.77815C6.0914 5.77815 6.2895 5.57916 6.2895 5.33368C6.2895 5.0882 6.0914 4.88921 5.84701 4.88921C5.60262 4.88921 5.40452 5.0882 5.40452 5.33368C5.40452 5.57916 5.60262 5.77815 5.84701 5.77815ZM7.61698 5.33368C7.61698 5.57916 7.41887 5.77815 7.17449 5.77815C6.9301 5.77815 6.73199 5.57916 6.73199 5.33368C6.73199 5.0882 6.9301 4.88921 7.17449 4.88921C7.41887 4.88921 7.61698 5.0882 7.61698 5.33368Z" fill="currentColor"/>
</g>
</svg>
