<svg width="20" height="20" viewBox="0 0 20 20" fill="none" xmlns="http://www.w3.org/2000/svg">
<path opacity="0.64" d="M1.18546 12.9487C1.28797 14.2616 2.43534 15.2428 3.74821 15.1403C4.18886 15.1058 4.59051 14.9517 4.928 14.7151L6.22607 15.8251C6.22583 15.8254 6.22548 15.8255 6.22527 15.8258L5.06375 17.184C4.96149 17.3037 4.97695 17.5018 5.09654 17.604L5.7757 18.1848L6.35645 17.5056C6.46419 17.3796 6.65239 17.3649 6.77642 17.4729C6.9015 17.5762 6.91667 17.7714 6.80921 17.8928L6.22844 18.5719L6.90772 19.1547C7.03356 19.2605 7.22176 19.2458 7.32769 19.1219L8.49086 17.7617L8.94199 18.1475C9.19172 18.3609 9.56879 18.3315 9.78246 18.0818C9.99534 17.8329 9.96688 17.455 9.71694 17.2413L5.70287 13.8091C5.88423 13.439 5.9742 13.0182 5.93979 12.5775C5.83728 11.2646 4.68988 10.2834 3.37701 10.3859C2.06413 10.4884 1.08295 11.6358 1.18546 12.9487ZM4.75118 12.6703C4.80235 13.3257 4.31079 13.9005 3.6554 13.9517C2.99998 14.0028 2.4252 13.5113 2.37402 12.8559C2.32285 12.2005 2.81437 11.6257 3.46979 11.5745C4.12522 11.5233 4.7 12.0149 4.75118 12.6703Z" fill="currentColor"/>
<path d="M18.5874 8.3877C18.6436 8.38777 18.6951 8.40223 18.7466 8.4209C18.7983 8.43963 18.8457 8.4723 18.8833 8.50977C18.9208 8.54718 18.9534 8.59411 18.9722 8.64551C18.9909 8.69697 19.0005 8.74856 19.0005 8.80469C19.0005 10.1442 18.6195 11.3999 17.9712 12.4678C18.2154 12.7675 18.3521 13.1467 18.3521 13.54C18.352 14.486 17.5764 15.2588 16.6274 15.2588C16.2283 15.2587 15.8477 15.1231 15.5425 14.875C14.4761 15.5119 13.2311 15.8818 11.897 15.8818C11.8406 15.8818 11.7885 15.8724 11.7368 15.8584C11.6853 15.8397 11.6386 15.8068 11.6011 15.7695C11.5635 15.7274 11.53 15.6852 11.5112 15.6338C11.4878 15.5824 11.4791 15.5306 11.479 15.4746C11.479 15.4186 11.4925 15.3668 11.5112 15.3154C11.53 15.2639 11.5635 15.2162 11.6011 15.1787C11.6386 15.1414 11.6853 15.1085 11.7368 15.0898C11.7885 15.0711 11.8406 15.0625 11.897 15.0625C13.0479 15.0625 14.1238 14.7524 15.0493 14.2139C14.9555 14.0032 14.9038 13.774 14.9038 13.54C14.9038 12.5941 15.6786 11.8215 16.6274 11.8213C16.8623 11.826 17.093 11.877 17.3091 11.9707C17.8587 11.0387 18.1733 9.96143 18.1733 8.80469C18.1734 8.74856 18.1829 8.69697 18.2017 8.64551C18.2204 8.59412 18.253 8.54718 18.2905 8.50977C18.3328 8.4723 18.3756 8.43963 18.4272 8.4209C18.4789 8.39749 18.531 8.3877 18.5874 8.3877ZM16.6274 12.6406C16.1296 12.6408 15.73 13.0342 15.73 13.5352C15.73 13.7365 15.7965 13.9335 15.9233 14.0928C15.9277 14.0971 15.9279 14.0973 15.9321 14.1016C16.1012 14.3169 16.3504 14.4345 16.6274 14.4346C17.1254 14.4346 17.5248 14.0411 17.5249 13.54C17.5249 13.2684 17.4033 13.0104 17.1919 12.8418C17.0322 12.7107 16.8342 12.6406 16.6274 12.6406ZM14.2896 3.51758C14.5102 3.50822 14.6936 3.68143 14.6938 3.90137C14.6938 4.0044 14.6606 4.10768 14.5854 4.18262C14.2801 4.49174 13.7544 5.01689 13.6558 5.11523L14.5903 6.04688C14.642 5.99536 15.2293 5.40991 15.5347 5.10547C15.6051 5.0399 15.6995 5.00273 15.7935 4.99805C16.0141 4.98884 16.1968 5.16181 16.1968 5.38184C16.1968 5.48485 16.1645 5.58817 16.0894 5.66309C15.7652 5.98626 15.2014 6.54829 15.145 6.60449L16.0278 7.4707C16.2158 7.65804 16.2158 7.95817 16.0278 8.14551L14.8628 9.30664C14.8769 9.32069 15.4972 9.93445 15.812 10.2529C15.8776 10.3231 15.9156 10.4163 15.9204 10.5098C15.9298 10.7299 15.7555 10.9131 15.5347 10.9131C15.4313 10.9131 15.3276 10.8806 15.2524 10.8057C14.9205 10.4794 14.3329 9.8929 14.3042 9.86426L13.0776 11.0859C13.0776 11.0859 13.7074 11.7091 14.0269 12.0322C14.0926 12.1025 14.1296 12.1964 14.1343 12.29C14.1436 12.5101 13.9703 12.6924 13.7495 12.6924C13.6462 12.6924 13.5425 12.6599 13.4673 12.585C13.129 12.2477 12.5181 11.6387 12.5181 11.6387L11.353 12.8008C11.1652 12.9876 10.8651 12.9876 10.6772 12.8008L9.80322 11.9297C9.75546 11.982 9.1688 12.5707 8.85889 12.875C8.78841 12.9406 8.69406 12.9787 8.6001 12.9834C8.37938 12.9926 8.1958 12.8187 8.1958 12.5986C8.19589 12.4958 8.22929 12.3932 8.3042 12.3184C8.62793 11.9956 9.19552 11.4298 9.24854 11.377L8.31396 10.4443C8.26699 10.4912 7.67487 11.0813 7.36475 11.3857C7.29427 11.4513 7.19992 11.4895 7.10596 11.4941C6.8853 11.5033 6.70264 11.3294 6.70264 11.1094C6.7027 11.0066 6.73521 10.9039 6.81006 10.8291C7.13349 10.5067 7.70513 9.93681 7.75439 9.8877L6.89502 9.04004C6.70709 8.8527 6.70709 8.55257 6.89502 8.36523L8.06006 7.2041C7.999 7.14323 7.41647 6.56719 7.11572 6.2627C7.05 6.19249 7.01207 6.09848 7.00732 6.00488C7.00263 5.89248 7.04525 5.789 7.11572 5.71875C7.18619 5.64857 7.28526 5.60156 7.39795 5.60156C7.50119 5.60164 7.60412 5.63511 7.6792 5.70996C8.00331 6.02838 8.56226 6.5854 8.62354 6.64648L9.84521 5.42871C9.77004 5.35377 9.20156 4.78705 8.90088 4.4873C8.83511 4.41705 8.79718 4.32785 8.79248 4.22949C8.78316 4.00943 8.95746 3.82715 9.17822 3.82715C9.28157 3.82716 9.38529 3.85965 9.46045 3.93457C9.77526 4.2484 10.3294 4.80086 10.3999 4.87109L11.5649 3.70508C11.7529 3.51778 12.0538 3.51775 12.2417 3.70508L13.0962 4.55762C13.1949 4.45926 13.7405 3.91538 14.0317 3.625C14.1021 3.55972 14.1958 3.52229 14.2896 3.51758ZM12.1519 5.53125C12.0439 5.52665 11.9358 5.57376 11.856 5.65332C11.8185 5.69068 11.7859 5.73749 11.7671 5.78418L11.3862 6.69824C11.3114 6.87132 11.3675 7.07232 11.5269 7.16602C11.6865 7.25963 11.8933 7.227 12.0249 7.08203L12.2183 7.83594L10.1177 8.47266C9.91109 8.53354 9.78397 8.74911 9.83545 8.95508L10.3149 10.8193C10.3666 11.0254 10.5782 11.1426 10.7896 11.0771C11.0009 11.0116 11.1281 10.7959 11.0718 10.5898L10.6812 9.0957L12.7817 8.45898C12.9884 8.39811 13.1155 8.17788 13.064 7.97656L12.7769 6.85254C12.9553 6.90403 13.1524 6.81957 13.2417 6.64648C13.331 6.47319 13.2887 6.2673 13.1431 6.16895L12.3687 5.60156C12.3076 5.55473 12.2317 5.53125 12.1519 5.53125ZM11.061 0.894531C11.1173 0.894557 11.1689 0.903959 11.2251 0.917969C11.2768 0.936703 11.3242 0.969368 11.3618 1.00684C11.3993 1.0489 11.4319 1.09121 11.4507 1.14258C11.4741 1.19399 11.4838 1.2457 11.4839 1.30176C11.4839 1.35783 11.4694 1.40954 11.4507 1.46094C11.4319 1.51246 11.3994 1.56019 11.3618 1.59766C11.3242 1.6351 11.2767 1.6678 11.2251 1.68652C11.1736 1.70515 11.122 1.71382 11.0659 1.71387C9.91487 1.71387 8.83813 2.02292 7.9126 2.56152C8.00655 2.77226 8.05907 3.00218 8.05908 3.23633C8.05908 4.1824 7.2835 4.95508 6.33447 4.95508C6.09957 4.95039 5.86894 4.89933 5.65283 4.80566C5.10329 5.73759 4.78857 6.81502 4.78857 7.97168C4.79321 8.02779 4.77902 8.07941 4.76025 8.13086C4.74144 8.18227 4.7089 8.2292 4.67139 8.2666C4.62911 8.30406 4.58634 8.33674 4.53467 8.35547C4.48315 8.37875 4.43169 8.38866 4.37549 8.38867C4.31911 8.38867 4.26701 8.3742 4.21533 8.35547C4.16383 8.33675 4.11709 8.30394 4.07959 8.2666C4.04202 8.22915 4.00854 8.18236 3.98975 8.13086C3.97098 8.07942 3.96243 8.02778 3.9624 7.97168C3.9624 6.6322 4.3375 5.38112 4.98584 4.30859C4.74171 4.0089 4.60596 3.6296 4.60596 3.23633C4.606 2.29036 5.38068 1.51768 6.32959 1.51758C6.72893 1.51758 7.11015 1.65314 7.41553 1.90137C8.4819 1.26458 9.72696 0.894531 11.061 0.894531ZM6.32959 2.3418C5.8317 2.34189 5.43217 2.73529 5.43213 3.23633C5.43213 3.50797 5.5547 3.76596 5.76611 3.93457C5.92576 4.06555 6.12304 4.1357 6.32959 4.13574C6.82755 4.13574 7.22699 3.74229 7.22705 3.24121C7.22705 3.03982 7.16152 2.84283 7.03467 2.68359C7.03001 2.67895 7.02949 2.67938 7.0249 2.6748C6.85577 2.45936 6.60678 2.3418 6.32959 2.3418Z" fill="currentColor"/>
</svg>
