<svg width="20" height="20" viewBox="0 0 20 20" fill="none" xmlns="http://www.w3.org/2000/svg">
<path fill-rule="evenodd" clip-rule="evenodd" d="M4 3.4V16.6C4 17.9255 4.985 19 6.2 19H12.8C14.015 19 15 17.9255 15 16.6V3.4C15 2.07454 14.015 1 12.8 1H6.2C4.985 1 4 2.07454 4 3.4ZM12.8 2.2H6.2C5.59247 2.2 5.1 2.73724 5.1 3.4V14.8H13.9V3.4C13.9 2.73724 13.4075 2.2 12.8 2.2ZM8.4 16C8.09624 16 7.85 16.2686 7.85 16.6C7.85 16.9314 8.09624 17.2 8.4 17.2H10.6C10.9038 17.2 11.15 16.9314 11.15 16.6C11.15 16.2686 10.9038 16 10.6 16H8.4Z" fill="currentColor"/>
<path d="M12.8193 7.86914C12.9742 7.86914 13.1006 7.99538 13.1006 8.15039C13.1006 8.88079 12.886 9.56131 12.5166 10.1318C12.6187 10.2628 12.6797 10.4275 12.6797 10.6064C12.6797 11.0327 12.3342 11.3779 11.9082 11.3779C11.7293 11.3779 11.5645 11.3171 11.4336 11.2148C10.8634 11.5845 10.1831 11.7998 9.45312 11.7998C9.29843 11.7996 9.17285 11.6734 9.17285 11.5186C9.17295 11.3638 9.29849 11.2385 9.45312 11.2383C10.0782 11.2383 10.6605 11.0522 11.1465 10.7324C11.1398 10.6916 11.1367 10.6492 11.1367 10.6064C11.1367 10.1801 11.4822 9.83496 11.9082 9.83496C11.9508 9.83497 11.9925 9.83809 12.0332 9.84473C12.3529 9.35836 12.539 8.77603 12.5391 8.15039C12.5391 7.99551 12.6646 7.86935 12.8193 7.86914ZM11.9082 10.3955C11.792 10.3955 11.6973 10.4902 11.6973 10.6064C11.6973 10.7227 11.792 10.8174 11.9082 10.8174C12.0243 10.8173 12.1182 10.7227 12.1182 10.6064C12.1182 10.4902 12.0243 10.3956 11.9082 10.3955ZM10.6133 5.97754C10.7011 5.8897 10.8429 5.8897 10.9307 5.97754C11.0183 6.06535 11.0183 6.20716 10.9307 6.29492L10.6133 6.61328L11.0898 7.09082L11.4072 6.77246C11.495 6.68467 11.6378 6.68467 11.7256 6.77246C11.8133 6.86031 11.8133 7.00301 11.7256 7.09082L11.4072 7.4082L11.6914 7.69238C11.7978 7.79888 11.7978 7.97169 11.6914 8.07812L11.0898 8.68066L11.249 8.83984C11.3367 8.92768 11.3367 9.07045 11.249 9.1582C11.1613 9.24603 11.0185 9.246 10.9307 9.1582L10.7715 8.99902L10.2949 9.47656L10.4541 9.63477C10.5418 9.72257 10.5418 9.86527 10.4541 9.95312C10.3664 10.041 10.2235 10.041 10.1357 9.95312L9.97754 9.79395L9.375 10.3965C9.26861 10.5028 9.09665 10.5029 8.99023 10.3965L8.70605 10.1123L8.3877 10.4307C8.29999 10.5181 8.15803 10.5181 8.07031 10.4307C7.98258 10.3428 7.98258 10.2001 8.07031 10.1123L8.3877 9.79395L7.91113 9.31738L7.59277 9.63477C7.50504 9.72254 7.36315 9.72259 7.27539 9.63477C7.18785 9.54702 7.18784 9.40518 7.27539 9.31738L7.59277 8.99902L7.34082 8.74609C7.23479 8.63966 7.23472 8.4677 7.34082 8.36133L7.94336 7.75879L7.75195 7.56738C7.66441 7.47952 7.66425 7.33679 7.75195 7.24902C7.83971 7.16139 7.98261 7.16138 8.07031 7.24902L8.26074 7.44043L8.7373 6.96289L8.54688 6.77246C8.45915 6.68467 8.45915 6.54195 8.54688 6.4541C8.63455 6.36651 8.77649 6.36665 8.86426 6.4541L9.05566 6.64551L9.65723 6.04297C9.76359 5.93653 9.93655 5.93653 10.043 6.04297L10.2949 6.29492L10.6133 5.97754ZM9.92773 7.05078C9.81833 7.07814 9.75208 7.18929 9.7793 7.29883L9.89844 7.77637L8.77344 8.33887C8.68785 8.38169 8.64289 8.47839 8.66602 8.57129L8.8252 9.20801C8.85274 9.31736 8.96388 9.38379 9.07324 9.35645C9.1827 9.32907 9.24909 9.21799 9.22168 9.1084L9.10254 8.63184L10.2275 8.06836C10.3131 8.02548 10.3572 7.92887 10.334 7.83594L10.1758 7.2002C10.1484 7.0907 10.0372 7.02351 9.92773 7.05078ZM9.54688 4.59961C9.70169 4.59971 9.82715 4.72592 9.82715 4.88086C9.82707 5.03573 9.70164 5.16103 9.54688 5.16113C8.92172 5.16113 8.33954 5.3472 7.85352 5.66699C7.86019 5.70785 7.86328 5.7502 7.86328 5.79297C7.86328 6.21931 7.51784 6.56543 7.0918 6.56543C7.04921 6.56541 7.00749 6.56134 6.9668 6.55469C6.64715 7.04105 6.46097 7.62339 6.46094 8.24902C6.46094 8.40398 6.3355 8.53019 6.18066 8.53027C6.02576 8.53027 5.90039 8.40403 5.90039 8.24902C5.90043 7.51866 6.11407 6.83809 6.4834 6.26758C6.38141 6.13666 6.32031 5.97184 6.32031 5.79297C6.32033 5.36678 6.66594 5.02169 7.0918 5.02148C7.27071 5.02148 7.43552 5.08234 7.56641 5.18457C8.13658 4.81493 8.81692 4.59961 9.54688 4.59961ZM7.0918 5.58203C6.9758 5.58224 6.88186 5.67685 6.88184 5.79297C6.88184 5.90911 6.97579 6.0037 7.0918 6.00391C7.20799 6.00391 7.30273 5.90924 7.30273 5.79297C7.30271 5.67672 7.20797 5.58203 7.0918 5.58203Z" fill="currentColor"/>
</svg>
