<svg width="20" height="20" viewBox="0 0 20 20" fill="none" xmlns="http://www.w3.org/2000/svg">
<path d="M15.8343 11.6657C16.4936 11.6657 17.1383 11.8618 17.6865 12.2281C18.2345 12.5943 18.6615 13.1149 18.9137 13.7239C19.166 14.333 19.232 15.0035 19.1033 15.6501C18.9747 16.2963 18.6568 16.8891 18.1911 17.355C17.861 17.686 17.2456 18.2299 16.373 18.9688C16.0636 19.2308 15.6105 19.2323 15.2996 18.9721C14.4677 18.2755 13.8534 17.7334 13.4767 17.3558V17.355C13.0112 16.8891 12.6938 16.2961 12.5652 15.6501C12.4365 15.0035 12.5026 14.333 12.7549 13.7239C13.0071 13.1149 13.4341 12.5943 13.9821 12.2281C14.5303 11.8618 15.175 11.6657 15.8343 11.6657ZM6.60252 9.99989C6.60252 9.44124 6.63523 8.88495 6.69692 8.33322H3.5475C3.47482 8.6146 3.41863 8.90113 3.38311 9.19179C3.28146 10.0238 3.33925 10.863 3.54669 11.6666H6.69692C6.63523 11.1148 6.60252 10.5585 6.60252 9.99989ZM15.8343 13.3324C15.5046 13.3324 15.1823 13.4308 14.9082 13.614C14.6342 13.7971 14.4207 14.0574 14.2946 14.3619C14.1685 14.6664 14.1351 15.0014 14.1994 15.3246C14.2557 15.6076 14.3846 15.8705 14.5721 16.0879L14.6559 16.1783L14.6567 16.1791C14.9019 16.4249 15.2909 16.7765 15.8318 17.2395C16.4092 16.7428 16.799 16.3926 17.0119 16.1791L17.0127 16.1783C17.2458 15.9452 17.4049 15.6479 17.4692 15.3246C17.5335 15.0014 17.5001 14.6664 17.374 14.3619C17.2479 14.0574 17.0344 13.7971 16.7604 13.614C16.4863 13.4308 16.1639 13.3324 15.8343 13.3324ZM4.22866 13.3332C4.8212 14.3595 5.67684 15.2121 6.71157 15.799C7.12886 16.0357 7.56904 16.2245 8.0226 16.3655C7.56699 15.3935 7.21806 14.377 6.98012 13.3332H4.22866ZM15.001 15.008V14.9999C15.001 14.5397 15.3741 14.1666 15.8343 14.1666C16.2945 14.1666 16.6676 14.5397 16.6676 14.9999V15.008C16.6676 15.4683 16.2945 15.8414 15.8343 15.8414C15.3741 15.8414 15.001 15.4683 15.001 15.008ZM11.9793 3.63515C12.435 4.60698 12.7847 5.62295 13.0226 6.66656H15.7733C15.6145 6.39169 15.4366 6.12692 15.2386 5.87554C14.4239 4.84118 13.3205 4.07129 12.0688 3.66281C12.0391 3.65312 12.0091 3.64441 11.9793 3.63515ZM10.001 3.43088C9.42333 4.45104 8.9851 5.53918 8.69399 6.66656H11.3079C11.0168 5.53917 10.5789 4.45096 10.001 3.43088ZM8.0226 3.63433C6.8283 4.00547 5.76067 4.70528 4.94399 5.65582C4.67305 5.97118 4.43381 6.30987 4.22784 6.66656H6.98012C7.21806 5.6228 7.56699 4.60633 8.0226 3.63433ZM8.26918 9.99989C8.26918 10.5591 8.30636 11.1155 8.37579 11.6666H10.4176C10.8778 11.6666 11.251 12.0397 11.251 12.4999C11.251 12.9601 10.8778 13.3332 10.4176 13.3332H8.69399C8.9943 14.4962 9.45055 15.6178 10.0555 16.6657C10.1976 16.6646 10.3403 16.6598 10.4827 16.6495C10.9415 16.6164 11.3404 16.9614 11.3738 17.4201C11.4071 17.8791 11.062 18.2787 10.6032 18.3121C10.2932 18.3345 9.98304 18.3388 9.67462 18.3267C9.58018 18.337 9.48531 18.3327 9.39386 18.3113C8.1665 18.2216 6.96877 17.8613 5.88963 17.2492C4.45804 16.4373 3.29917 15.2189 2.55873 13.7491C1.81841 12.2793 1.52994 10.6235 1.72947 8.98996C1.92907 7.35629 2.6076 5.81774 3.68015 4.56939C4.75265 3.32116 6.17083 2.41839 7.75567 1.97499C8.28991 1.82554 8.83539 1.73251 9.38328 1.69179C9.48222 1.66719 9.58521 1.66193 9.68764 1.6747C9.89544 1.66688 10.1033 1.66696 10.311 1.6747C10.4142 1.66143 10.5181 1.66709 10.6178 1.69179C11.2837 1.74122 11.945 1.86901 12.5864 2.07834C14.1509 2.58895 15.5297 3.55155 16.548 4.84446C17.5661 6.13728 18.1785 7.70269 18.3082 9.34315C18.3445 9.80196 18.0021 10.2037 17.5433 10.24C17.0846 10.2762 16.6837 9.93364 16.6473 9.47499C16.6167 9.08785 16.5515 8.70585 16.4552 8.33322H13.305C13.3672 8.89026 13.4001 9.45211 13.3994 10.0162C13.3987 10.4762 13.0252 10.8483 12.5652 10.8479C12.105 10.8473 11.7321 10.474 11.7327 10.0137C11.7334 9.44987 11.6961 8.88882 11.6261 8.33322H8.37579C8.30636 8.88425 8.26918 9.4407 8.26918 9.99989Z" fill="currentColor"/>
</svg>
