<svg width="20" height="20" viewBox="0 0 20 20" fill="none" xmlns="http://www.w3.org/2000/svg">
<path d="M18.5078 9.96924C18.575 9.9693 18.6366 9.98597 18.6982 10.0083C18.76 10.0307 18.8164 10.07 18.8613 10.1147C18.9063 10.1595 18.9462 10.2153 18.9688 10.2769C18.9912 10.3385 19.002 10.401 19.002 10.4683C19.0019 12.0713 18.5464 13.5731 17.7705 14.8511C18.0629 15.2098 18.2266 15.6644 18.2266 16.1353C18.2266 17.2676 17.298 18.1929 16.1621 18.1929C15.6843 18.1928 15.2287 18.0299 14.8633 17.7329C13.5869 18.4952 12.0969 18.938 10.5 18.938C10.4326 18.938 10.3704 18.9274 10.3086 18.9106C10.2467 18.8882 10.1905 18.8481 10.1455 18.8032C10.1006 18.7529 10.0615 18.7026 10.0391 18.6411C10.011 18.5795 9.99905 18.5179 9.99902 18.4507C9.99902 18.3835 10.0166 18.3219 10.0391 18.2603C10.0616 18.1986 10.1005 18.142 10.1455 18.0972C10.1905 18.0523 10.2468 18.0131 10.3086 17.9907C10.3704 17.9683 10.4325 17.9575 10.5 17.9575C11.8776 17.9575 13.1657 17.5875 14.2734 16.9429C14.161 16.6906 14.0986 16.4155 14.0986 16.1353C14.0986 15.003 15.0264 14.0779 16.1621 14.0776C16.4432 14.0832 16.719 14.1453 16.9775 14.2573C17.6354 13.1419 18.0126 11.8527 18.0127 10.4683C18.0127 10.401 18.0234 10.3385 18.0459 10.2769C18.0684 10.2152 18.1084 10.1596 18.1533 10.1147C18.2039 10.0699 18.2546 10.0307 18.3164 10.0083C18.3782 9.98029 18.4404 9.96924 18.5078 9.96924ZM16.1621 15.0591C15.5663 15.0593 15.089 15.5298 15.0889 16.1294C15.0889 16.3704 15.1675 16.6058 15.3193 16.7964C15.325 16.802 15.3245 16.8025 15.3301 16.8081C15.5324 17.0659 15.8305 17.2055 16.1621 17.2056C16.7582 17.2056 17.2363 16.7351 17.2363 16.1353C17.2363 15.8101 17.09 15.5021 16.8369 15.3003C16.6457 15.1434 16.4095 15.0591 16.1621 15.0591ZM13.3623 4.13916C13.6265 4.12795 13.8465 4.33483 13.8467 4.59814C13.8467 4.72147 13.8068 4.84537 13.7168 4.93506C13.3512 5.30508 12.7216 5.9326 12.6035 6.05029L13.7227 7.16553C13.7858 7.10259 14.4873 6.40365 14.8525 6.03955C14.9368 5.96111 15.0497 5.91629 15.1621 5.91064C15.4263 5.89944 15.6453 6.10629 15.6455 6.36963C15.6455 6.49296 15.6066 6.61685 15.5166 6.70654C15.1286 7.09333 14.4543 7.76613 14.3867 7.8335L15.4434 8.87061C15.6681 9.09484 15.6682 9.45308 15.4434 9.67725L14.0488 11.0679C14.069 11.0879 14.8086 11.8193 15.1846 12.1997C15.2633 12.2838 15.3088 12.3962 15.3145 12.5083C15.3257 12.7718 15.1168 12.9907 14.8525 12.9907C14.7291 12.9906 14.6055 12.9513 14.5156 12.8618C14.1172 12.4703 13.4109 11.7658 13.3799 11.7349L11.9121 13.1978C11.9182 13.2038 12.667 13.9453 13.0479 14.3306C13.1264 14.4145 13.1711 14.5263 13.1768 14.6382C13.188 14.9017 12.9801 15.1206 12.7158 15.1206C12.5922 15.1205 12.4688 15.0813 12.3789 14.9917C11.974 14.5881 11.2432 13.8589 11.2432 13.8589L9.84863 15.2495C9.6237 15.4737 9.26302 15.4737 9.03809 15.2495L7.99219 14.2065C7.93595 14.2682 7.23345 14.975 6.8623 15.3394C6.77795 15.4178 6.6652 15.4627 6.55273 15.4683C6.28851 15.4794 6.06934 15.2717 6.06934 15.0083C6.06938 14.8852 6.10853 14.762 6.19824 14.6724C6.58625 14.2856 7.26724 13.6071 7.3291 13.5454L6.20996 12.4302C6.15277 12.4872 5.44517 13.192 5.07422 13.5562C4.98987 13.6346 4.87712 13.6795 4.76465 13.6851C4.50043 13.6963 4.28137 13.4894 4.28125 13.2261C4.28125 13.1027 4.32018 12.9789 4.41016 12.8892C4.79802 12.5025 5.48431 11.8197 5.54102 11.7632L4.51172 10.7485C4.28678 10.5243 4.28678 10.1652 4.51172 9.94092L5.90625 8.55029C5.83243 8.47671 5.13604 7.7875 4.77637 7.42334C4.69771 7.33931 4.65215 7.22775 4.64648 7.11572C4.64086 6.98118 4.69202 6.85801 4.77637 6.77393C4.86071 6.68986 4.97836 6.63331 5.11328 6.6333C5.237 6.6333 5.3612 6.67251 5.45117 6.76221C5.83906 7.14329 6.50755 7.81002 6.58105 7.8833L8.04297 6.42627C7.95301 6.33659 7.27303 5.65814 6.91309 5.29932C6.83436 5.21523 6.78883 5.10845 6.7832 4.99072C6.77206 4.72747 6.98011 4.50854 7.24414 4.5083C7.36785 4.5083 7.49206 4.54849 7.58203 4.63818C7.95884 5.01382 8.6227 5.67521 8.70703 5.75928L10.1016 4.36279C10.3265 4.13886 10.6863 4.13871 10.9111 4.36279L11.9346 5.3833C12.0528 5.26543 12.7051 4.61559 13.0537 4.26807C13.1379 4.1897 13.25 4.14487 13.3623 4.13916ZM10.8037 6.54932C10.6746 6.54386 10.5457 6.5998 10.4502 6.69482C10.4052 6.73967 10.3653 6.79599 10.3428 6.85205L9.8877 7.94482C9.79772 8.15224 9.86545 8.39325 10.0566 8.50537C10.2478 8.6174 10.4949 8.57853 10.6523 8.40479L10.8828 9.30713L8.36914 10.0698C8.12181 10.1427 7.97045 10.4004 8.03223 10.647L8.60547 12.8784C8.66738 13.125 8.92082 13.2655 9.17383 13.187C9.42658 13.1085 9.57795 12.8505 9.51074 12.604L9.04395 10.8149L11.5576 10.0532C11.805 9.98035 11.9574 9.71615 11.8955 9.4751L11.5518 8.13037C11.7654 8.19204 12.0016 8.09072 12.1084 7.8833C12.2152 7.67589 12.1646 7.42973 11.9902 7.31201L11.0625 6.6333C10.9894 6.57737 10.8992 6.54932 10.8037 6.54932ZM9.49902 0.999512C9.56635 0.999532 9.62799 1.01106 9.69531 1.02783C9.75715 1.05025 9.81342 1.08945 9.8584 1.13428C9.90336 1.1847 9.94332 1.23478 9.96582 1.29639C9.99388 1.35793 10.0048 1.4197 10.0049 1.48682C10.0049 1.55409 9.98831 1.61656 9.96582 1.67822C9.94331 1.73977 9.90332 1.79555 9.8584 1.84033C9.81344 1.88512 9.7571 1.92438 9.69531 1.94678C9.63367 1.96909 9.5721 1.98091 9.50488 1.98096C8.12716 1.98096 6.83924 2.35094 5.73145 2.99561C5.84376 3.24769 5.90525 3.52218 5.90527 3.80225C5.90527 4.93461 4.97769 5.85984 3.8418 5.85986C3.56063 5.85426 3.28504 5.79229 3.02637 5.68018C2.36843 6.79574 1.99121 8.08557 1.99121 9.47021C1.99677 9.53738 1.98047 9.59906 1.95801 9.66064C1.93558 9.72209 1.89636 9.778 1.85156 9.82275C1.8011 9.86747 1.75009 9.90674 1.68848 9.9292C1.6267 9.95719 1.56445 9.96921 1.49707 9.96924C1.42959 9.96924 1.36752 9.95162 1.30566 9.9292C1.24384 9.90677 1.18754 9.86758 1.14258 9.82275C1.09771 9.77799 1.05862 9.72214 1.03613 9.66064C1.01367 9.59907 1.00199 9.53737 1.00195 9.47021C1.00195 7.86708 1.45164 6.37009 2.22754 5.08643C1.93512 4.72765 1.77246 4.27314 1.77246 3.80225C1.77256 2.67001 2.70016 1.74473 3.83594 1.74463C4.31379 1.74463 4.7693 1.90763 5.13477 2.20459C6.41127 1.4422 7.90199 0.999512 9.49902 0.999512ZM3.83594 2.73193C3.24001 2.73203 2.76181 3.20257 2.76172 3.80225C2.76172 4.12723 2.9083 4.43539 3.16113 4.63721C3.35228 4.79413 3.58858 4.87838 3.83594 4.87842C4.43199 4.87842 4.91011 4.40789 4.91016 3.80811C4.91016 3.56711 4.83144 3.33169 4.67969 3.14111C4.67406 3.13551 4.67359 3.135 4.66797 3.12939C4.46553 2.87178 4.16754 2.73193 3.83594 2.73193Z" fill="currentColor"/>
</svg>
