<svg width="20" height="20" viewBox="0 0 20 20" fill="none" xmlns="http://www.w3.org/2000/svg">
<g>
<path opacity="0.5" fill-rule="evenodd" clip-rule="evenodd" d="M9.99884 14.2315C12.3358 14.2315 14.2303 12.337 14.2303 10.0001C14.2303 7.66311 12.3358 5.76862 9.99884 5.76862C7.66189 5.76862 5.7674 7.66311 5.7674 10.0001C5.7674 12.337 7.66189 14.2315 9.99884 14.2315ZM9.99884 15.0008C12.7607 15.0008 14.9996 12.7619 14.9996 10.0001C14.9996 7.2382 12.7607 4.99927 9.99884 4.99927C7.23698 4.99927 4.99805 7.2382 4.99805 10.0001C4.99805 12.7619 7.23698 15.0008 9.99884 15.0008Z" fill="currentColor"/>
<path fill-rule="evenodd" clip-rule="evenodd" d="M13.365 13.0771C13.2057 13.0771 13.0765 13.2063 13.0765 13.3656C13.0765 13.5249 13.2057 13.6541 13.365 13.6541C13.5243 13.6541 13.6535 13.5249 13.6535 13.3656C13.6535 13.2063 13.5243 13.0771 13.365 13.0771ZM12.3071 13.3656C12.3071 12.7814 12.7807 12.3077 13.365 12.3077C13.9492 12.3077 14.4228 12.7814 14.4228 13.3656C14.4228 13.9498 13.9492 14.4235 13.365 14.4235C12.7807 14.4235 12.3071 13.9498 12.3071 13.3656Z" fill="currentColor"/>
<path fill-rule="evenodd" clip-rule="evenodd" d="M6.63305 6.34552C6.47372 6.34552 6.34455 6.4747 6.34455 6.63403C6.34455 6.79336 6.47372 6.92254 6.63305 6.92254C6.79239 6.92254 6.92156 6.79336 6.92156 6.63403C6.92156 6.4747 6.79239 6.34552 6.63305 6.34552ZM5.5752 6.63403C5.5752 6.04979 6.04881 5.57617 6.63305 5.57617C7.2173 5.57617 7.69091 6.04979 7.69091 6.63403C7.69091 7.21828 7.2173 7.69189 6.63305 7.69189C6.04881 7.69189 5.5752 7.21828 5.5752 6.63403Z" fill="currentColor"/>
<path fill-rule="evenodd" clip-rule="evenodd" d="M7.29733 6.74308C8.03022 6.13452 8.97179 5.76862 9.99884 5.76862C10.2113 5.76862 10.3835 5.5964 10.3835 5.38394C10.3835 5.17149 10.2113 4.99927 9.99884 4.99927C8.84973 4.99927 7.79114 5.38683 6.9467 6.03839C7.16043 6.15122 7.3061 6.37568 7.3061 6.63414C7.3061 6.67122 7.3031 6.70761 7.29733 6.74308ZM6.74186 7.29855C6.70639 7.30432 6.67 7.30732 6.63292 7.30732C6.37446 7.30732 6.15 7.16165 6.03717 6.94792C5.38561 7.79236 4.99805 8.85095 4.99805 10.0001C4.99805 10.2125 5.17027 10.3847 5.38272 10.3847C5.59518 10.3847 5.7674 10.2125 5.7674 10.0001C5.7674 8.97301 6.1333 8.03144 6.74186 7.29855Z" fill="currentColor"/>
<path fill-rule="evenodd" clip-rule="evenodd" d="M12.6995 13.2563C11.9666 13.8648 11.025 14.2307 9.99796 14.2307C9.7855 14.2307 9.61328 14.403 9.61328 14.6154C9.61328 14.8279 9.7855 15.0001 9.99796 15.0001C11.1471 15.0001 12.2057 14.6125 13.0501 13.961C12.8364 13.8481 12.6907 13.6237 12.6907 13.3652C12.6907 13.3281 12.6937 13.2917 12.6995 13.2563ZM13.2549 12.7008C13.2904 12.695 13.3268 12.692 13.3639 12.692C13.6223 12.692 13.8468 12.8377 13.9596 13.0514C14.6112 12.207 14.9987 11.1484 14.9987 9.9993C14.9987 9.78684 14.8265 9.61462 14.6141 9.61462C14.4016 9.61462 14.2294 9.78684 14.2294 9.9993C14.2294 11.0263 13.8635 11.9679 13.2549 12.7008Z" fill="currentColor"/>
<path fill-rule="evenodd" clip-rule="evenodd" d="M6.97936 10.2141L10.2501 7.05607C10.4003 6.911 10.6439 6.911 10.7941 7.05607L13.1223 9.30399C13.2725 9.44903 13.2725 9.6842 13.1223 9.82924L9.85162 12.9873C9.70141 13.1323 9.45783 13.1323 9.30761 12.9873L6.97936 10.7394C6.82915 10.5943 6.82915 10.3592 6.97936 10.2141ZM10.9815 8.63274C10.9429 8.48347 10.7862 8.39274 10.6316 8.43006C10.4771 8.46735 10.3831 8.61859 10.4217 8.76786L10.59 9.41768L9.00183 10.1844C8.88085 10.2428 8.81815 10.3744 8.85097 10.5011L9.07535 11.3677C9.11401 11.517 9.27065 11.6077 9.42521 11.5704C9.57981 11.5331 9.67379 11.3818 9.63513 11.2326L9.46687 10.5828L11.055 9.81605C11.176 9.75767 11.2387 9.626 11.2059 9.49935L10.9815 8.63274Z" fill="currentColor"/>
<path d="M8.45774 13.0321L8.90654 12.5987V12.1654H8.45774L8.00897 12.5987C7.88503 12.7184 7.88503 12.9124 8.00897 13.0321C8.13288 13.1517 8.33383 13.1517 8.45774 13.0321Z" fill="currentColor"/>
<path d="M11.3746 11.9486L10.9258 11.5153H10.4771V11.9486L10.9258 12.3819C11.0498 12.5015 11.2507 12.5015 11.3746 12.3819C11.4986 12.2622 11.4986 12.0682 11.3746 11.9486Z" fill="currentColor"/>
<path d="M7.33567 11.9513L7.78447 11.518V11.0847H7.33567L6.8869 11.518C6.76296 11.6377 6.76296 11.8317 6.8869 11.9513C7.01081 12.071 7.21176 12.071 7.33567 11.9513Z" fill="currentColor"/>
<path d="M12.4967 10.868L12.0479 10.4347H11.5991V10.868L12.0479 11.3013C12.1719 11.421 12.3728 11.421 12.4967 11.3013C12.6206 11.1817 12.6206 10.9876 12.4967 10.868Z" fill="currentColor"/>
<path d="M7.55973 9.13217L8.00853 9.56549H8.45733V9.13217L8.00853 8.69888C7.88458 8.57921 7.68367 8.57921 7.55973 8.69888C7.43582 8.81851 7.43582 9.01254 7.55973 9.13217Z" fill="currentColor"/>
<path d="M12.7208 8.04874L12.272 8.48206V8.91535H12.7208L13.1695 8.48206C13.2935 8.36239 13.2935 8.1684 13.1695 8.04874C13.0456 7.92907 12.8447 7.92907 12.7208 8.04874Z" fill="currentColor"/>
<path d="M8.68182 8.05356L9.13063 8.48688H9.57939V8.05356L9.13063 7.62027C9.00668 7.5006 8.80577 7.5006 8.68182 7.62027C8.55788 7.7399 8.55788 7.93392 8.68182 8.05356Z" fill="currentColor"/>
<path d="M11.5987 6.96802L11.1499 7.40134V7.83467H11.5987L12.0475 7.40134C12.1714 7.28167 12.1714 7.08769 12.0475 6.96802C11.9236 6.84839 11.7226 6.84839 11.5987 6.96802Z" fill="currentColor"/>
<path opacity="0.5" d="M16.9566 5.60321C17.1384 5.5032 17.3711 5.56277 17.4762 5.73602L19.9478 9.81903C19.9506 9.82362 19.9521 9.82903 19.9547 9.83368C19.9593 9.84219 19.9625 9.85124 19.9664 9.86005C19.972 9.87269 19.977 9.8852 19.981 9.89813C19.9835 9.90618 19.985 9.91436 19.9869 9.92255C19.9961 9.962 19.9993 10.0014 19.9947 10.0407C19.9942 10.045 19.9925 10.0491 19.9918 10.0534C19.9889 10.072 19.985 10.0901 19.9791 10.1081C19.9774 10.1134 19.9752 10.1185 19.9732 10.1237C19.9665 10.1413 19.9583 10.158 19.9488 10.1745C19.9477 10.1765 19.9481 10.1794 19.9469 10.1813L17.4762 14.2634C17.3712 14.4368 17.1384 14.4963 16.9566 14.3962L16.2994 14.0339C16.1176 13.9338 16.055 13.7122 16.1598 13.5388L18.3014 9.9997L16.1598 6.46161C16.0548 6.28815 16.1176 6.06568 16.2994 5.96552L16.9566 5.60321Z" fill="currentColor"/>
<path opacity="0.5" d="M2.5166 5.73579C2.62169 5.56261 2.85442 5.5039 3.03613 5.60396L3.69336 5.96528C3.8752 6.06545 3.93797 6.28792 3.83301 6.46138L1.69043 10.0004L3.83203 13.5385C3.937 13.712 3.87422 13.9345 3.69238 14.0346L3.03516 14.3969C2.85341 14.4969 2.62062 14.4374 2.51562 14.2641L0.0449219 10.1821C0.0419051 10.1771 0.039851 10.1715 0.0371094 10.1665C0.0321695 10.1573 0.0285105 10.1476 0.0244141 10.1381C0.0209656 10.1302 0.0164885 10.1228 0.0136719 10.1147L0.00683594 10.0942C0.0042532 10.085 0.00376945 10.0753 0.00195312 10.0659C0.000617994 10.059 -0.00202543 10.0523 -0.00292969 10.0454L-0.00488281 10.0258V9.97505C-0.0046152 9.97146 -0.00428481 9.96788 -0.00390625 9.96431C-0.00283923 9.95411 -3.88208e-05 9.94418 0.00195312 9.93403C0.00458963 9.92062 0.00655042 9.90704 0.0107422 9.89399C0.0143002 9.88298 0.0196895 9.87257 0.0244141 9.86177C0.0285324 9.85229 0.0321511 9.84258 0.0371094 9.83345C0.0397087 9.82868 0.042078 9.8235 0.0449219 9.8188L2.5166 5.73579Z" fill="currentColor"/>
</g>
</svg>
