<svg width="20" height="20" viewBox="0 0 20 20" fill="none" xmlns="http://www.w3.org/2000/svg">
<path fill-rule="evenodd" clip-rule="evenodd" d="M13.5555 2L14.8889 3.33107L13.1058 5.11112L14.8806 6.88891L16.6667 5.1059L18 6.43697L16.2116 8.22225L17.9864 9.99997L16.2252 11.7642L18 13.536L16.6667 14.8671L14.8941 13.0975L13.1193 14.8753L14.8889 16.6418L13.5556 17.9728L11.7883 16.2087L10 18L8.21166 16.2087L6.44439 17.9728L5.11106 16.6418L6.88059 14.8753L5.10583 13.0974L3.33334 14.8669L2 13.5358L3.77476 11.7641L2.01369 9.99997L3.78831 8.22225L2 6.43697L3.33334 5.1059L5.11938 6.88891L6.89414 5.11119L5.11106 3.33121L6.44439 2.00014L8.22521 3.77785L10 2L11.7747 3.77778L13.5555 2ZM10 4.66214L11.3334 5.99321L6.00002 11.3175L4.66668 9.98642L10 4.66214ZM11.118 7.55303L12.4513 8.8841L8.00684 13.3209L6.6735 11.9899L11.118 7.55303ZM13.111 12.2048L11.7778 10.8737L8.66663 13.9796L9.99997 15.3106L13.111 12.2048Z" fill="currentColor"/>
</svg>
