<svg width="43" height="36" viewBox="0 0 43 36" fill="none" xmlns="http://www.w3.org/2000/svg">
<path d="M0 31.9716C0.0657787 31.8592 0.0602387 31.7291 0.0873075 31.6076C0.431488 30.0661 1.84601 28.9067 3.4233 28.8639C4.26201 28.8411 5.02211 29.0532 5.6961 29.5588C5.71994 29.5767 5.74056 29.6073 5.78207 29.595C5.81524 29.5433 5.79848 29.4839 5.79855 29.4281C5.79974 28.4589 5.79743 27.4897 5.80037 26.5205C5.80171 26.0798 6.07443 25.7968 6.47962 25.803C6.84729 25.8086 7.1311 26.0815 7.13145 26.4496C7.13327 28.5104 7.14638 30.5714 7.12499 32.632C7.10858 34.2156 5.77218 35.7001 4.20037 35.9403C4.12134 35.9525 4.03277 35.94 3.9646 36H3.19728C3.17694 35.9541 3.13388 35.9708 3.10001 35.9666C1.6829 35.79 0.469988 34.7241 0.107504 33.3405C0.0664098 33.1834 0.0683032 33.0172 0 32.8668V31.9716ZM5.79771 32.4271C5.79974 31.2001 4.78789 30.1871 3.56257 30.1897C3.12089 30.1899 2.6892 30.3211 2.32201 30.5665C1.95482 30.812 1.6686 31.1608 1.49952 31.5688C1.33052 31.9768 1.28626 32.4258 1.37232 32.859C1.45838 33.2922 1.67091 33.6902 1.98305 34.0027C2.29519 34.3151 2.69294 34.5281 3.12605 34.6146C3.55916 34.7011 4.00819 34.6573 4.41643 34.4888C4.82469 34.3202 5.1738 34.0343 5.41966 33.6674C5.66551 33.3004 5.79707 32.8688 5.79771 32.4271ZM31.9406 36C31.8337 35.9351 31.7087 35.9415 31.5924 35.9152C30.005 35.556 28.8726 34.1365 28.8313 32.5081C28.7836 30.6319 30.1808 29.3081 31.4804 28.977C33.5302 28.4548 35.566 29.764 35.9256 31.8504C35.9559 32.029 35.9706 32.2099 35.9697 32.3911C35.9687 32.822 35.7093 33.0935 35.2773 33.0943C33.8655 33.0971 32.4537 33.0975 31.0419 33.0955C30.8235 33.0955 30.6049 33.0994 30.3867 33.0939C30.2763 33.0911 30.2636 33.1248 30.298 33.2244C30.5585 33.9809 31.3731 34.5998 32.1796 34.6583C32.8396 34.7062 33.4195 34.5351 33.9116 34.0786C34.2 33.8111 34.6055 33.8287 34.8563 34.1011C35.1055 34.3719 35.0908 34.798 34.8074 35.0647C34.284 35.5661 33.6116 35.8837 32.8919 35.9696C32.8508 35.9748 32.8053 35.964 32.7719 36H31.9406ZM32.4018 31.7749L34.365 31.7748C34.555 31.7748 34.555 31.7745 34.4816 31.5941C34.1047 30.6679 33.1316 30.0844 32.1207 30.2222C31.2679 30.3384 30.6498 30.7994 30.3124 31.606C30.2442 31.7691 30.251 31.7746 30.4227 31.7747C31.0825 31.7752 31.7421 31.7752 32.4018 31.7749ZM23.0523 36C23.0279 35.9633 22.9855 35.9727 22.9516 35.9607C22.8251 35.9167 22.7147 35.8358 22.6348 35.7284C22.5549 35.621 22.5091 35.4921 22.5033 35.3583C22.4984 35.2413 22.5005 35.124 22.5005 35.0068C22.5004 32.2048 22.5004 29.4026 22.5007 26.6006C22.5007 26.4944 22.4936 26.3873 22.5231 26.2831C22.5682 26.131 22.6655 25.9997 22.798 25.9124C22.9304 25.8251 23.0894 25.7874 23.2469 25.8059C23.5667 25.8453 23.82 26.1064 23.8235 26.4303C23.8314 27.1653 23.8275 27.9005 23.8278 28.6357C23.8281 29.5571 23.8282 30.4796 23.8279 31.4031C23.9056 31.4182 23.9474 31.3597 23.9969 31.3277C25.1983 30.5486 26.3993 29.7686 27.5996 28.9878C28.0514 28.6953 28.5982 28.9381 28.6603 29.4601C28.6916 29.7231 28.5963 29.9355 28.3636 30.0853C27.5399 30.6153 26.7209 31.1524 25.8962 31.681C25.7757 31.7583 25.752 31.801 25.8594 31.9205C26.7284 32.8869 27.5929 33.8573 28.4529 34.8317C28.8397 35.267 28.6873 35.8034 28.1282 35.9805C28.119 35.9834 28.112 35.9933 28.1039 36H27.8801C27.6595 35.9399 27.5132 35.7842 27.3674 35.6194C26.4787 34.6158 25.5883 33.6138 24.6961 32.6134C24.6305 32.5393 24.5831 32.5259 24.4995 32.5848C24.3258 32.7073 24.1482 32.825 23.9657 32.9337C23.8627 32.9949 23.8234 33.0651 23.8246 33.1887C23.8314 33.8909 23.8298 34.5932 23.8269 35.2954C23.8254 35.6493 23.6551 35.8691 23.3149 35.9749C23.3009 35.9815 23.2878 35.9899 23.276 36H23.0523ZM10.9986 36C10.8824 35.9294 10.7467 35.9425 10.6209 35.9149C9.90913 35.758 9.26265 35.3865 8.76866 34.8507C8.27467 34.3148 7.95695 33.6403 7.85838 32.9182C7.61188 31.0787 8.77591 29.3699 10.5616 28.9501C12.518 28.4901 14.4689 29.7226 14.8874 31.6827C15.3002 33.6166 14.0492 35.531 12.1151 35.9271C11.9986 35.951 11.8742 35.937 11.7659 36H10.9986ZM13.6238 32.42C13.6231 31.1944 12.6058 30.1828 11.3807 30.1897C10.1595 30.1965 9.15032 31.2099 9.15523 32.4245C9.15531 32.8667 9.28659 33.2988 9.53242 33.6663C9.77826 34.0338 10.1276 34.32 10.5362 34.4889C10.8075 34.6009 11.0983 34.6585 11.3918 34.6582C11.8339 34.6576 12.2659 34.526 12.6332 34.2799C13.0004 34.0338 13.2865 33.6843 13.4551 33.2757C13.567 33.0043 13.6243 32.7135 13.6238 32.42ZM18.7998 36C18.6891 35.9304 18.5588 35.9443 18.4382 35.9178C17.7178 35.7616 17.0636 35.3856 16.5661 34.8417C16.0685 34.2978 15.752 33.6129 15.6604 32.8814C15.429 31.0646 16.5865 29.3596 18.359 28.9585C19.5088 28.6983 20.5697 28.9155 21.4863 29.6926C21.8122 29.9689 21.8445 30.426 21.5654 30.7083C21.3272 30.9491 20.9356 30.9653 20.6483 30.737C20.3394 30.4916 20.0046 30.3086 19.6129 30.2296C18.3424 29.9733 17.0687 30.9239 16.9731 32.2156C16.9011 33.1893 17.2942 33.9394 18.1538 34.3922C19.0049 34.8405 19.839 34.7516 20.6033 34.1499C20.9192 33.9013 21.3446 33.9193 21.5817 34.1969C21.8291 34.4867 21.7817 34.9053 21.4652 35.176C20.9569 35.6128 20.33 35.8881 19.6645 35.967C19.6307 35.9713 19.5874 35.9534 19.5672 36H18.7998ZM42.0759 29.8935C41.9672 30.1805 41.7919 30.3893 41.4616 30.4188C41.3178 30.4317 41.1909 30.3754 41.0612 30.3288C39.8003 29.8769 38.4563 30.5595 38.0985 31.8339C38.0433 32.0342 38.016 32.2411 38.0173 32.4489C38.0179 33.3489 38.0042 34.2493 38.0234 35.149C38.0325 35.5776 37.8848 35.8645 37.4718 36H37.2161C37.2001 35.9877 37.183 35.977 37.1649 35.9681C36.8429 35.8466 36.6823 35.6325 36.6819 35.2925C36.6795 33.3808 36.6797 31.4692 36.6822 29.5576C36.6828 29.193 36.926 28.9068 37.2457 28.8694C37.6089 28.827 37.9166 29.0257 37.9985 29.362C38.0182 29.4429 38.0175 29.5287 38.0281 29.6306C38.0948 29.5849 38.1549 29.5449 38.2139 29.5033C38.9861 28.9576 39.8473 28.7842 40.7758 28.8897C40.9609 28.9085 41.1439 28.9434 41.3228 28.9941C41.6495 29.0904 41.9279 29.247 42.0759 29.5738V29.8935Z" fill="#2596EC"/>
<path d="M24.4673 1.52588e-05C24.592 0.0780661 24.6319 0.188796 24.6309 0.336131C24.6252 1.12351 24.6286 1.91103 24.6279 2.69848C24.6277 2.93334 24.5477 3.01475 24.3122 3.0151C23.4129 3.01624 22.5137 3.01622 21.6145 3.01503C21.3784 3.01475 21.3005 2.93488 21.3003 2.69764C21.2995 1.91012 21.3031 1.12267 21.2972 0.33522C21.2962 0.187464 21.3379 0.0779258 21.4619 1.52588e-05H24.4673ZM18.3519 10.8959C21.8471 10.8958 25.3422 10.9019 28.8373 10.8911C29.6172 10.8897 30.3886 10.7289 31.104 10.4184C31.2272 10.3652 31.2693 10.3235 31.1864 10.1808C30.5229 9.0382 30.4503 7.8255 30.7893 6.57108C30.991 5.82953 31.3309 5.13272 31.791 4.51721C31.8346 4.45838 31.8633 4.42977 31.9427 4.47318C33.244 5.18426 34.1327 6.2269 34.5233 7.67151C34.5562 7.78385 34.5801 7.89865 34.5949 8.01478C34.6055 8.11407 34.6449 8.11709 34.7304 8.10426C35.6381 7.96814 36.5432 7.95082 37.4405 8.18308C37.9358 8.31134 38.3941 8.51071 38.7861 8.85138C38.8689 8.9234 38.8871 8.97516 38.852 9.07649C38.3483 10.5311 37.3088 11.4118 35.8688 11.8577C35.3001 12.0339 34.7115 12.0935 34.1178 12.0771C33.973 12.0731 33.9175 12.1229 33.8674 12.2491C33.2692 13.7569 32.5596 15.2072 31.6316 16.5438C29.6226 19.4375 26.8961 21.3166 23.523 22.2826C22.0112 22.7156 20.4677 22.9379 18.8975 22.9993C17.1655 23.067 15.4491 22.9582 13.7569 22.5701C12.6139 22.3079 11.5166 21.9274 10.552 21.2351C9.39505 20.4047 8.59835 19.2874 8.01342 18.0081C7.45164 16.7794 7.12001 15.4853 6.94224 14.1485C6.84972 13.4302 6.80152 12.7069 6.79792 11.9827C6.79175 11.3142 7.21216 10.8963 7.88235 10.8961C11.3722 10.8955 14.862 10.8954 18.3519 10.8959Z" fill="#2496EC"/>
<path d="M15.0867 7.25948C15.5339 7.25948 15.9811 7.25955 16.4283 7.25969C16.6612 7.26004 16.7474 7.34349 16.7478 7.5768C16.7493 8.37007 16.7493 9.16335 16.7479 9.95662C16.7475 10.1914 16.6654 10.2795 16.4316 10.2803C15.5319 10.2834 14.6321 10.2834 13.7323 10.2805C13.4977 10.2797 13.4127 10.1921 13.4122 9.96019C13.4104 9.16692 13.4103 8.37365 13.4121 7.58038C13.4126 7.34097 13.4992 7.25983 13.745 7.25962C14.1922 7.25913 14.6394 7.25913 15.0867 7.25948ZM15.0744 6.6512C14.6272 6.6512 14.1799 6.65211 13.7327 6.65085C13.5036 6.65022 13.4126 6.56109 13.4122 6.3315C13.4107 5.53823 13.4107 4.74495 13.4122 3.95168C13.4128 3.71157 13.4995 3.62798 13.7449 3.6277C14.634 3.62652 15.5231 3.62649 16.4122 3.62763C16.6652 3.62798 16.7478 3.71108 16.7481 3.96416C16.7492 4.74678 16.7492 5.52939 16.7482 6.312C16.748 6.57133 16.6654 6.65085 16.4002 6.65106C15.9582 6.65153 15.5163 6.65158 15.0744 6.6512ZM19.0589 7.25948C19.5062 7.25948 19.9534 7.25878 20.4007 7.25976C20.6206 7.26025 20.7117 7.34805 20.7123 7.56951C20.7142 8.36811 20.7142 9.16671 20.7123 9.96531C20.7117 10.1889 20.6263 10.2793 20.403 10.28C19.4979 10.2834 18.5927 10.2835 17.6876 10.2802C17.4639 10.2793 17.3759 10.1887 17.3752 9.9677C17.3728 9.1691 17.3728 8.37049 17.3751 7.57189C17.3757 7.34489 17.4686 7.2599 17.7013 7.25962C18.1538 7.25908 18.6064 7.25904 19.0589 7.25948ZM26.9136 7.25948C27.3608 7.25948 27.8081 7.25948 28.2553 7.25962C28.4945 7.25997 28.5794 7.34475 28.5798 7.58865C28.5809 8.3766 28.5808 9.16454 28.5797 9.95255C28.5793 10.1886 28.4974 10.2793 28.2668 10.2801C27.3617 10.2834 26.4565 10.2834 25.5515 10.28C25.3294 10.2792 25.243 10.1879 25.2423 9.96447C25.24 9.1712 25.24 8.37793 25.2422 7.58466C25.2428 7.34293 25.331 7.2599 25.5719 7.25962C26.0191 7.25908 26.4663 7.25904 26.9136 7.25948ZM19.0284 6.6512C18.5865 6.6512 18.1446 6.6519 17.7027 6.65085C17.4642 6.65029 17.3751 6.56256 17.3747 6.32203C17.3733 5.53416 17.3733 4.74622 17.3748 3.95827C17.3753 3.71592 17.4621 3.62819 17.7019 3.62777C18.5963 3.6263 19.4908 3.6263 20.3852 3.62777C20.6259 3.62812 20.712 3.71486 20.7125 3.95715C20.714 4.74505 20.714 5.53294 20.7124 6.32084C20.7119 6.56901 20.6246 6.65071 20.37 6.65099C19.9227 6.65162 19.4756 6.65162 19.0284 6.6512ZM11.182 7.25948C11.6344 7.25948 12.0868 7.25864 12.5393 7.25983C12.7505 7.26039 12.8431 7.34644 12.844 7.56011C12.8471 8.36376 12.8471 9.16741 12.844 9.97106C12.8431 10.1956 12.7564 10.2744 12.5283 10.2747C11.6287 10.2758 10.7293 10.2758 9.82979 10.2747C9.59332 10.2744 9.50987 10.1933 9.50938 9.96019C9.50787 9.16187 9.50794 8.36355 9.50959 7.56523C9.51008 7.34637 9.60202 7.26011 9.82481 7.25969C10.2772 7.25892 10.7296 7.25885 11.182 7.25948Z" fill="#2596EC"/>
<path d="M22.956 3.63332C23.403 3.63339 23.8502 3.63254 24.2973 3.63367C24.5444 3.6343 24.6201 3.71094 24.6202 3.95849C24.6207 4.7462 24.6207 5.53391 24.6202 6.32162C24.62 6.56615 24.538 6.64988 24.2974 6.65002C23.4033 6.65072 22.5091 6.65072 21.6149 6.65002C21.3743 6.64988 21.2926 6.56629 21.2924 6.32169C21.2918 5.53395 21.2919 4.74629 21.2925 3.95856C21.2927 3.70989 21.3674 3.63423 21.6147 3.63367C22.0618 3.63254 22.5089 3.63332 22.956 3.63332ZM22.9464 10.2743C22.4993 10.2743 22.0523 10.2754 21.6052 10.2738C21.3694 10.273 21.2927 10.1941 21.2925 9.95501C21.2918 9.16204 21.2918 8.36908 21.2925 7.57611C21.2927 7.34168 21.3753 7.25921 21.6086 7.25907C22.5081 7.25844 23.4075 7.25844 24.307 7.25907C24.5383 7.25928 24.62 7.34266 24.6202 7.57926C24.6209 8.37226 24.6209 9.16525 24.6202 9.95824C24.62 10.1926 24.5397 10.2732 24.3035 10.2739C23.8512 10.2753 23.3988 10.2743 22.9464 10.2743Z" fill="#2496EC"/>
<path d="M39.6313 35.0258C39.6927 35.0257 39.7535 35.0378 39.8101 35.0613C39.8665 35.0851 39.9177 35.1195 39.9609 35.1628C40.0037 35.2063 40.0381 35.2578 40.0612 35.3145C40.0841 35.3713 40.0958 35.4319 40.0956 35.4931C40.095 35.5544 40.0821 35.615 40.0577 35.6712C40.0337 35.7274 39.9989 35.7784 39.9553 35.8211C39.9113 35.8637 39.8594 35.8973 39.8024 35.9199C39.7456 35.9424 39.6848 35.9534 39.6236 35.9523C39.3571 35.9502 39.1404 35.7333 39.1481 35.4767C39.1542 35.3534 39.208 35.2373 39.2982 35.153C39.3884 35.0687 39.5079 35.0231 39.6313 35.0258ZM39.8396 35.7466C39.9756 35.649 40.0128 35.4927 39.9392 35.33C39.9063 35.2533 39.8464 35.1914 39.7709 35.1559C39.6955 35.1203 39.6097 35.1136 39.5296 35.137C39.4576 35.1581 39.3939 35.2011 39.3473 35.2601C39.3009 35.3189 39.2738 35.3906 39.2695 35.4655C39.2597 35.6167 39.3494 35.7753 39.4904 35.8205C39.6159 35.861 39.7498 35.8845 39.8417 35.7442L39.8396 35.7466Z" fill="#2596EC"/>
<path d="M39.8419 35.7447C39.7605 35.7378 39.7051 35.7035 39.6918 35.614C39.6848 35.5642 39.6448 35.5454 39.5971 35.5502C39.5403 35.5559 39.5572 35.6024 39.5537 35.6363C39.5488 35.6757 39.5656 35.7325 39.4983 35.7275C39.4359 35.7227 39.4513 35.6674 39.4492 35.6278C39.4471 35.5745 39.4492 35.5212 39.4492 35.4679C39.4492 35.2662 39.5375 35.2041 39.7318 35.2678C39.7907 35.2872 39.8426 35.3416 39.8152 35.3825C39.7234 35.5172 39.8475 35.6257 39.8398 35.747L39.8419 35.7447ZM39.6252 35.3331C39.581 35.3281 39.5551 35.3437 39.5551 35.3924C39.5544 35.4347 39.5635 35.4654 39.6147 35.4608C39.6582 35.4569 39.7044 35.4511 39.703 35.395C39.7016 35.3511 39.6638 35.3381 39.6252 35.3331Z" fill="#2596EC"/>
</svg>
